<svg id="Capa_1" data-name="Capa 1" xmlns="http://www.w3.org/2000/svg" xmlns:xlink="http://www.w3.org/1999/xlink" viewBox="0 0 448 444.1"><defs><style>.cls-1{fill:url(#Degradado_sin_nombre_10);}.cls-2{fill:url(#Degradado_sin_nombre_10-2);}.cls-3{fill:url(#Degradado_sin_nombre_10-3);}.cls-4{fill:url(#Degradado_sin_nombre_10-4);}.cls-5{fill:url(#Degradado_sin_nombre_10-5);}.cls-6{fill:url(#Degradado_sin_nombre_10-6);}.cls-7{fill:url(#Degradado_sin_nombre_10-7);}.cls-8{fill:url(#Degradado_sin_nombre_10-8);}.cls-9{fill:url(#Degradado_sin_nombre_10-9);}.cls-10{fill:url(#Degradado_sin_nombre_10-10);}.cls-11{fill:url(#Degradado_sin_nombre_10-11);}</style><linearGradient id="Degradado_sin_nombre_10" x1="16" y1="328" x2="464" y2="328" gradientUnits="userSpaceOnUse"><stop offset="0" stop-color="#00cbf6"/><stop offset="0.11" stop-color="#00d2e7"/><stop offset="0.52" stop-color="#01eab2"/><stop offset="0.83" stop-color="#01f991"/><stop offset="1" stop-color="#01ff85"/></linearGradient><linearGradient id="Degradado_sin_nombre_10-2" x1="264" y1="175.33" x2="264" y2="175.33" xlink:href="#Degradado_sin_nombre_10"/><linearGradient id="Degradado_sin_nombre_10-3" x1="120" y1="216" x2="136" y2="216" xlink:href="#Degradado_sin_nombre_10"/><linearGradient id="Degradado_sin_nombre_10-4" x1="408" y1="392" x2="424" y2="392" xlink:href="#Degradado_sin_nombre_10"/><linearGradient id="Degradado_sin_nombre_10-5" x1="330.91" y1="125.67" x2="369.06" y2="125.67" xlink:href="#Degradado_sin_nombre_10"/><linearGradient id="Degradado_sin_nombre_10-6" x1="367.41" y1="96.39" x2="383.69" y2="96.39" xlink:href="#Degradado_sin_nombre_10"/><linearGradient id="Degradado_sin_nombre_10-7" x1="317.51" y1="81.13" x2="330.5" y2="81.13" xlink:href="#Degradado_sin_nombre_10"/><linearGradient id="Degradado_sin_nombre_10-8" x1="120" y1="126" x2="157" y2="126" xlink:href="#Degradado_sin_nombre_10"/><linearGradient id="Degradado_sin_nombre_10-9" x1="156.31" y1="96.79" x2="172.59" y2="96.79" xlink:href="#Degradado_sin_nombre_10"/><linearGradient id="Degradado_sin_nombre_10-10" x1="106.41" y1="81.54" x2="119.4" y2="81.54" xlink:href="#Degradado_sin_nombre_10"/><linearGradient id="Degradado_sin_nombre_10-11" x1="191" y1="106.59" x2="305" y2="106.59" xlink:href="#Degradado_sin_nombre_10"/></defs><title>CENA</title><path class="cls-1" d="M376,176H168m-16,0H56A8,8,0,0,0,48.07,183l-32,240a8,8,0,0,0,2.27,6.71A69.2,69.2,0,0,0,64,448a63,63,0,0,0,12.92-1.35l-4.8,23.78A8,8,0,0,0,80,480h32a8,8,0,0,0,7.84-6.4l5.66-28.37A63.07,63.07,0,0,0,144,448a68.75,68.75,0,0,0,40.73-14.17,114.89,114.89,0,0,0,110.54,0A68.7,68.7,0,0,0,336,448a63,63,0,0,0,18.49-2.8l5.67,28.4A8,8,0,0,0,368,480h32a8,8,0,0,0,7.84-9.6l-4.76-23.77A63,63,0,0,0,416,448a69.15,69.15,0,0,0,45.65-18.34,8.05,8.05,0,0,0,2.28-6.71l-32-240A8,8,0,0,0,424,176H392M105.44,464H89.76l4.8-23.77A73.28,73.28,0,0,0,104,434.4a73.37,73.37,0,0,0,6.5,4.26Zm269.12,0-5.07-25.37A75.52,75.52,0,0,0,376,434.4a74.32,74.32,0,0,0,9.47,5.87L390.24,464Zm8.94-44L367.9,303l-15.85,2.12L367.47,420.8A52.38,52.38,0,0,1,336,432a53,53,0,0,1-32.2-11.83L296,279.55l-16,.9,7.74,139.26a98.81,98.81,0,0,1-95.53,0L200,256.38l-16-.75-7.84,164.59A52.39,52.39,0,0,1,144,432a53,53,0,0,1-31.55-11.32l15.49-131.74-15.89-1.88L96.41,420A52.33,52.33,0,0,1,64,432a53,53,0,0,1-31.5-11.27L58.73,224H104V208H60.87L63,192H417l30.5,228.8A49.79,49.79,0,0,1,383.5,420Z" transform="translate(-16 -35.9)"/><path class="cls-2" d="M264,175.33" transform="translate(-16 -35.9)"/><path class="cls-3" d="M120,208h16v16H120Z" transform="translate(-16 -35.9)"/><path class="cls-4" d="M408,384h16v16H408Z" transform="translate(-16 -35.9)"/><path class="cls-5" d="M368.28,175,358,169.17a6.73,6.73,0,0,1-3.38-5.82V151.56a1.55,1.55,0,1,0-3.09,0v11.79a9.79,9.79,0,0,0,4.94,8.5l5.22,3H338.28l5.22-3a9.79,9.79,0,0,0,4.94-8.5V138.69a11.9,11.9,0,0,0,1.34.07,14.42,14.42,0,0,0,1.75-.11v5.68a1.55,1.55,0,1,0,3.09,0v-6.39a14.76,14.76,0,0,0,9.9-13.92V75A1.54,1.54,0,0,0,363,73.4H336.58A1.54,1.54,0,0,0,335,75v28.17a1.55,1.55,0,0,0,3.09,0V93.81h23.3V124a11.65,11.65,0,0,1-23.3,0v-13.7a1.55,1.55,0,1,0-3.09,0V124a14.78,14.78,0,0,0,10.31,14.06v25.27a6.73,6.73,0,0,1-3.38,5.82L331.69,175a1.55,1.55,0,0,0,.77,2.89h35.05a1.55,1.55,0,0,0,.77-2.89ZM338.13,90.72V76.5h23.3V90.72Z" transform="translate(-16 -35.9)"/><path class="cls-6" d="M382.36,94.86c-2.71-.37-4.85-3.89-5.28-6.93a1.55,1.55,0,0,0-3.06,0c-.43,3-2.57,6.56-5.28,6.93a1.55,1.55,0,0,0,0,3.06c2.71.37,4.85,3.89,5.28,6.93a1.55,1.55,0,0,0,3.06,0c.43-3,2.57-6.56,5.28-6.93a1.55,1.55,0,0,0,0-3.06Zm-6.81,5a11.23,11.23,0,0,0-2.88-3.48,11.12,11.12,0,0,0,2.88-3.48,11.12,11.12,0,0,0,2.88,3.48A11.23,11.23,0,0,0,375.55,99.87Z" transform="translate(-16 -35.9)"/><path class="cls-7" d="M329.17,79.6c-1.8-.24-3.33-2.71-3.63-4.87a1.55,1.55,0,0,0-3.06,0c-.31,2.16-1.84,4.63-3.63,4.87a1.55,1.55,0,0,0,0,3.07c1.79.24,3.32,2.71,3.63,4.87a1.55,1.55,0,0,0,3.06,0c.3-2.16,1.83-4.63,3.63-4.87a1.55,1.55,0,0,0,0-3.07ZM324,83a9.06,9.06,0,0,0-1.56-1.86A9,9,0,0,0,324,79.28a8.7,8.7,0,0,0,1.56,1.85A8.76,8.76,0,0,0,324,83Z" transform="translate(-16 -35.9)"/><path class="cls-8" d="M156.25,175.11l-10-5.87a6.76,6.76,0,0,1-3.28-5.82V151.63a1.5,1.5,0,1,0-3,0v12a9.79,9.79,0,0,0,4.82,8.44l5,3h-22.7l5-3A9.79,9.79,0,0,0,137,163.6V138.86c.43,0,.86.06,1.3.06a13.61,13.61,0,0,0,1.7-.11v5.95a1.5,1.5,0,0,0,3,0v-6.23a14.75,14.75,0,0,0,10-13.92V75.55A1.54,1.54,0,0,0,151.45,74H125.5a1.52,1.52,0,0,0-1.5,1.55v28.16a1.5,1.5,0,1,0,3,0V94h23v29.94a11.77,11.77,0,0,1-10.44,11.86A11.57,11.57,0,0,1,127,124.2V110.7a1.5,1.5,0,1,0-3,0v13.39a14.73,14.73,0,0,0,10,14.06v25.33a6.68,6.68,0,0,1-3.3,5.77l-9.94,5.86a1.58,1.58,0,0,0-.71,1.74A1.51,1.51,0,0,0,121.5,178h34a1.5,1.5,0,0,0,1.45-1.15A1.56,1.56,0,0,0,156.25,175.11ZM127,91V77h23V91Z" transform="translate(-16 -35.9)"/><path class="cls-9" d="M171.26,95.26c-2.71-.37-4.85-3.89-5.28-6.93a1.55,1.55,0,0,0-3.06,0c-.43,3-2.57,6.56-5.28,6.93a1.55,1.55,0,0,0,0,3.07c2.71.37,4.85,3.88,5.28,6.93a1.55,1.55,0,0,0,3.06,0c.43-3.05,2.57-6.56,5.28-6.93a1.55,1.55,0,0,0,0-3.07Zm-6.81,5a11.23,11.23,0,0,0-2.88-3.48,11.08,11.08,0,0,0,2.88-3.47,11.08,11.08,0,0,0,2.88,3.47A11.23,11.23,0,0,0,164.45,100.27Z" transform="translate(-16 -35.9)"/><path class="cls-10" d="M118.07,80c-1.8-.25-3.33-2.72-3.63-4.87a1.55,1.55,0,0,0-3.06,0c-.31,2.15-1.84,4.62-3.63,4.87a1.54,1.54,0,0,0,0,3.06c1.79.24,3.32,2.72,3.63,4.87a1.55,1.55,0,0,0,3.06,0c.3-2.15,1.83-4.63,3.63-4.87a1.55,1.55,0,0,0,0-3.06Zm-5.16,3.38a9,9,0,0,0-1.56-1.85,9.06,9.06,0,0,0,1.56-1.86,8.76,8.76,0,0,0,1.56,1.86A8.7,8.7,0,0,0,112.91,83.39Z" transform="translate(-16 -35.9)"/><path class="cls-11" d="M304.92,47a8.58,8.58,0,0,0-3.31-5.75L297,37.69a8.69,8.69,0,0,0-12.16,1.59l-3.52,4.57a8.73,8.73,0,0,0-1.79,5.67L269.38,61.41a27.4,27.4,0,0,1-5.66,5,2.2,2.2,0,0,0-.25.17,29.08,29.08,0,0,1-9.75,4,22.55,22.55,0,0,0-13.15,8.31L225.41,98.58H205a5.13,5.13,0,0,0-5.12,5.13v6.17a32.85,32.85,0,0,0-6.54,8.21c-3.66,6.8-3,14,1.44,16.41a6.45,6.45,0,0,0,3.1.77c3,0,6.35-1.88,9-5.11l1.95,17.77a2.06,2.06,0,0,0,2.05,1.83h.23a2.05,2.05,0,0,0,1.82-2.27l-2.61-23.75h0l-.49-4.46h35.34a2.06,2.06,0,1,0,0-4.12h-40.2a1,1,0,0,1-1-1V103.71a1,1,0,0,1,1-1h30.61l37.61,25.74-4.74,43.12a1.8,1.8,0,0,1-1.79,1.59H217.46a1.81,1.81,0,0,1-1.8-1.57l-1.58-14.42a2.06,2.06,0,0,0-4.1.45l1.58,14.44a5.94,5.94,0,0,0,5.9,5.22h49.27a5.94,5.94,0,0,0,5.9-5.24l4.5-41a4.7,4.7,0,0,0,2.25.57,4.82,4.82,0,0,0,4.56-3.26l8.57-25.23a3.44,3.44,0,0,0-3.25-4.54h-9.07a23,23,0,0,0,.78-7.06,29,29,0,0,1,1.35-10.45,1.57,1.57,0,0,0,.1-.28A27.56,27.56,0,0,1,285.79,74l8.87-12.9a8.63,8.63,0,0,0,5-3.19l3.52-4.57A8.62,8.62,0,0,0,304.92,47Zm-99.87,72.31h.72l.47,4.31c-.18.39-.37.77-.56,1.13-2.69,5-6.86,7.26-8.91,6.16s-2.45-5.82.24-10.83a25.63,25.63,0,0,1,3.12-4.46A5.13,5.13,0,0,0,205.05,119.27Zm71.79-30.62-5.61.74q0-.61-.09-1.23a10.37,10.37,0,0,0-1.63-4.39l8.09-1.06A33.4,33.4,0,0,0,276.84,88.65ZM257,94.47a6.27,6.27,0,1,1,10-5.78,6.16,6.16,0,0,1-1.25,4.63A6.27,6.27,0,0,1,257,94.47Zm1.27-15-.73-5.62a34.08,34.08,0,0,0,5.54-2.27l1.06,8.1A10.39,10.39,0,0,0,258.28,79.44Zm-14.45,1.94a18.51,18.51,0,0,1,9.69-6.52l.85,6.5a10.13,10.13,0,0,0-1.77,1.81,10.38,10.38,0,0,0,1.9,14.57,10.43,10.43,0,0,0,1.28.84H230.61ZM280,127a.68.68,0,0,1-1,.34l-2.36-1.62h0L243,102.7H288.3ZM265.89,98.58a10.48,10.48,0,0,0,3.18-2.74,10.09,10.09,0,0,0,1.29-2.18l6.51-.85a18.55,18.55,0,0,1-1,5.77Zm16.5-26.88a31.1,31.1,0,0,0-3.49,6.69l-10.58,1.38-1.38-10.58a32,32,0,0,0,5.57-5.1l8.59-10A9,9,0,0,0,283,56l4.57,3.51a8.58,8.58,0,0,0,2.35,1.29Zm17.54-20.84-3.52,4.57a4.54,4.54,0,0,1-6.38.83l-4.57-3.51a4.55,4.55,0,0,1-.83-6.38l3.51-4.58a4.56,4.56,0,0,1,6.38-.83l4.58,3.52a4.54,4.54,0,0,1,.83,6.38Z" transform="translate(-16 -35.9)"/></svg>