<svg id="Capa_1" data-name="Capa 1" xmlns="http://www.w3.org/2000/svg" xmlns:xlink="http://www.w3.org/1999/xlink" viewBox="0 0 512 496.96"><defs><style>.cls-1{fill:url(#Degradado_sin_nombre_10);}.cls-2{fill:url(#Degradado_sin_nombre_10-2);}.cls-3{fill:url(#Degradado_sin_nombre_10-3);}.cls-4{fill:url(#Degradado_sin_nombre_10-4);}.cls-5{fill:url(#Degradado_sin_nombre_10-5);}.cls-6{fill:url(#Degradado_sin_nombre_10-6);}.cls-7{fill:url(#Degradado_sin_nombre_10-7);}.cls-8{fill:url(#Degradado_sin_nombre_10-8);}.cls-9{fill:url(#Degradado_sin_nombre_10-9);}.cls-10{fill:url(#Degradado_sin_nombre_10-10);}.cls-11{fill:url(#Degradado_sin_nombre_10-11);}.cls-12{fill:url(#Degradado_sin_nombre_10-12);}.cls-13{fill:url(#Degradado_sin_nombre_10-13);}</style><linearGradient id="Degradado_sin_nombre_10" x1="298.27" y1="276.99" x2="512" y2="276.99" gradientUnits="userSpaceOnUse"><stop offset="0" stop-color="#00cbf6"/><stop offset="0.11" stop-color="#00d2e7"/><stop offset="0.52" stop-color="#01eab2"/><stop offset="0.83" stop-color="#01f991"/><stop offset="1" stop-color="#01ff85"/></linearGradient><linearGradient id="Degradado_sin_nombre_10-2" x1="164.27" y1="113.42" x2="229.89" y2="113.42" xlink:href="#Degradado_sin_nombre_10"/><linearGradient id="Degradado_sin_nombre_10-3" x1="248.05" y1="164.04" x2="350.86" y2="164.04" xlink:href="#Degradado_sin_nombre_10"/><linearGradient id="Degradado_sin_nombre_10-4" x1="381.7" y1="198.38" x2="401.09" y2="198.38" xlink:href="#Degradado_sin_nombre_10"/><linearGradient id="Degradado_sin_nombre_10-5" x1="394.22" y1="169.33" x2="413.61" y2="169.33" xlink:href="#Degradado_sin_nombre_10"/><linearGradient id="Degradado_sin_nombre_10-6" x1="413.83" y1="194.94" x2="433.22" y2="194.94" xlink:href="#Degradado_sin_nombre_10"/><linearGradient id="Degradado_sin_nombre_10-7" x1="79.96" y1="112.81" x2="99.35" y2="112.81" xlink:href="#Degradado_sin_nombre_10"/><linearGradient id="Degradado_sin_nombre_10-8" x1="92.48" y1="83.77" x2="111.87" y2="83.77" xlink:href="#Degradado_sin_nombre_10"/><linearGradient id="Degradado_sin_nombre_10-9" x1="112.1" y1="109.38" x2="131.48" y2="109.38" xlink:href="#Degradado_sin_nombre_10"/><linearGradient id="Degradado_sin_nombre_10-10" x1="0" y1="361.34" x2="286.28" y2="361.34" xlink:href="#Degradado_sin_nombre_10"/><linearGradient id="Degradado_sin_nombre_10-11" x1="429.99" y1="374.01" x2="511.22" y2="374.01" xlink:href="#Degradado_sin_nombre_10"/><linearGradient id="Degradado_sin_nombre_10-12" x1="361.98" y1="57.92" x2="462.78" y2="57.92" xlink:href="#Degradado_sin_nombre_10"/><linearGradient id="Degradado_sin_nombre_10-13" x1="150.56" y1="325.92" x2="169.95" y2="325.92" xlink:href="#Degradado_sin_nombre_10"/></defs><title>DCENA</title><path class="cls-1" d="M504.5,242.56c-5.64-1.55-10.42,1.92-12.34,7-3.31,8.73-15.73,14-24.72,15.13-13.53,1.77-26.73-4.16-38.68-9.71-14.19-6.58-28.82-12.86-44.77-12.72s-31.71,6.54-44.78,15.56c-14.72,10.14-26.54,23.38-38.1,36.86-3.53,4.11-4,10.15,0,14.19,3.61,3.61,10.65,4.13,14.19,0,18.57-21.64,43.05-50.18,75-46.25,15.07,1.85,28.57,10.26,42.4,15.87,14.22,5.77,29.82,8.5,44.89,4.54s28.39-13.4,34-28.14C513.43,249.83,509.39,243.9,504.5,242.56Z" transform="translate(0 -7.52)"/><path class="cls-2" d="M206.53,136.56c9.48-13.15,19.6-27.18,22.49-43.51,2.8-15.84-1.3-31.79-10.12-45.13-10.18-15.38-25-26.45-39.53-37.35-4.34-3.24-11.21-.7-13.73,3.6-3,5.13-.75,10.48,3.6,13.74,22.43,16.77,50.48,40.1,37,71.33-12,27.73-43.15,50-39.25,83.31,1.88,16,11.39,30.52,27.59,34.8,12.5,3.3,17.84-16.06,5.34-19.36-10.13-2.67-14.12-13.73-13-23.43C188.44,160.47,198.46,147.73,206.53,136.56Z" transform="translate(0 -7.52)"/><path class="cls-3" d="M350.59,160.93a45.89,45.89,0,0,0-20.46-32.76,42.68,42.68,0,0,0-20.07-6.8c3.43-11.31,9.85-21.7,19.25-28.9,4.29-3.29,6.58-8.64,3.6-13.73-2.48-4.23-9.4-6.92-13.73-3.6a82,82,0,0,0-30.56,49.34,60.24,60.24,0,0,0-31.47,26.35c-18,32.12-6.64,69.68,11.52,98.88,6.8,11,24.18.88,17.33-10.13-11.84-19.05-21.83-41.89-16.66-64.75,2.51-11.1,8.88-21.5,18-27.66a77.52,77.52,0,0,0,9.36,31.55c7.47,13.4,21.65,24.53,37.32,17C346.64,189.7,352.2,174.14,350.59,160.93Zm-22.34,13.84c-5.46,7.8-11.2-.7-14.25-6.19a55.84,55.84,0,0,1-6.8-24.46c0-.88-.05-1.77-.06-2.66.5,0,1,0,1.49.09C323.34,142.78,337.62,161.4,328.25,174.77Z" transform="translate(0 -7.52)"/><path class="cls-4" d="M391.39,188.34c-12.91,0-12.93,20.07,0,20.07S404.33,188.34,391.39,188.34Z" transform="translate(0 -7.52)"/><path class="cls-5" d="M403.91,159.3c-12.91,0-12.93,20.07,0,20.07S416.85,159.3,403.91,159.3Z" transform="translate(0 -7.52)"/><path class="cls-6" d="M423.53,184.91c-12.92,0-12.94,20.07,0,20.07S436.46,184.91,423.53,184.91Z" transform="translate(0 -7.52)"/><path class="cls-7" d="M89.66,102.77c-12.92,0-12.94,20.07,0,20.07S102.6,102.77,89.66,102.77Z" transform="translate(0 -7.52)"/><path class="cls-8" d="M102.18,73.73c-12.92,0-12.94,20.08,0,20.08S115.12,73.73,102.18,73.73Z" transform="translate(0 -7.52)"/><path class="cls-9" d="M121.79,99.34c-12.92,0-12.94,20.07,0,20.07S134.73,99.34,121.79,99.34Z" transform="translate(0 -7.52)"/><path class="cls-10" d="M283.34,354.43,150.05,221.14A10,10,0,0,0,134,223.76l-12,24L1.06,490a10,10,0,0,0,13.46,13.46l266.2-132.91a10,10,0,0,0,2.62-16.08ZM32.44,472l43.38-86.88,14.64,57.91Zm165.64-82.71L181,347.68a10,10,0,0,0-18.57,7.62l17.65,43-71.22,35.56L89.56,357.64l40.52-81.15,11.15,27.17a10,10,0,0,0,9.29,6.23,9.8,9.8,0,0,0,3.8-.76A10,10,0,0,0,159.8,296L142,252.63l3.72-7.44L259.29,358.77Z" transform="translate(0 -7.52)"/><path class="cls-11" d="M470.6,333.39A40.62,40.62,0,1,0,511.22,374,40.66,40.66,0,0,0,470.6,333.39Zm0,61.16A20.54,20.54,0,1,1,491.15,374,20.56,20.56,0,0,1,470.6,394.55Z" transform="translate(0 -7.52)"/><path class="cls-12" d="M459.84,50.83,419.47,10.46a10,10,0,0,0-14.2,0L364.92,50.83a10,10,0,0,0,0,14.19l40.35,40.36a10,10,0,0,0,14.2,0L459.84,65a10,10,0,0,0,0-14.19ZM412.37,84.09,386.21,57.92l26.16-26.17,26.17,26.17Z" transform="translate(0 -7.52)"/><path class="cls-13" d="M160.25,315.89c-12.91,0-12.93,20.07,0,20.07S173.19,315.89,160.25,315.89Z" transform="translate(0 -7.52)"/></svg>