<svg id="Capa_1" data-name="Capa 1" xmlns="http://www.w3.org/2000/svg" xmlns:xlink="http://www.w3.org/1999/xlink" viewBox="0 0 459.21 459.21"><defs><style>.cls-1,.cls-2{stroke-miterlimit:10;stroke-width:0.92px;}.cls-1{fill:url(#Degradado_sin_nombre_10);stroke:url(#Degradado_sin_nombre_10-2);}.cls-2{fill:url(#Degradado_sin_nombre_10-3);stroke:url(#Degradado_sin_nombre_10-4);}</style><linearGradient id="Degradado_sin_nombre_10" x1="10.86" y1="240" x2="469.14" y2="240" gradientUnits="userSpaceOnUse"><stop offset="0" stop-color="#00cbf6"/><stop offset="0.11" stop-color="#00d2e7"/><stop offset="0.52" stop-color="#01eab2"/><stop offset="0.83" stop-color="#01f991"/><stop offset="1" stop-color="#01ff85"/></linearGradient><linearGradient id="Degradado_sin_nombre_10-2" x1="1393.4" y1="-1206" x2="1852.6" y2="-1206" gradientTransform="translate(1446 1863) rotate(-90)" xlink:href="#Degradado_sin_nombre_10"/><linearGradient id="Degradado_sin_nombre_10-3" x1="128.75" y1="306.11" x2="351.25" y2="306.11" xlink:href="#Degradado_sin_nombre_10"/><linearGradient id="Degradado_sin_nombre_10-4" x1="1393.4" y1="-1206" x2="1720.58" y2="-1206" gradientTransform="translate(1446 1863) rotate(-90)" xlink:href="#Degradado_sin_nombre_10"/></defs><title>INGRESOS</title><path class="cls-1" d="M10.86,64.56V415.44a53.76,53.76,0,0,0,53.7,53.7h71.61v-35.8H64.56a17.92,17.92,0,0,1-17.9-17.9V64.56a17.92,17.92,0,0,1,17.9-17.9H415.44a17.92,17.92,0,0,1,17.9,17.9V415.44a17.92,17.92,0,0,1-17.9,17.9H343.83v35.8h71.61a53.76,53.76,0,0,0,53.7-53.7V64.56a53.76,53.76,0,0,0-53.7-53.7H64.56a53.76,53.76,0,0,0-53.7,53.7Zm0,0" transform="translate(-10.4 -10.4)"/><path class="cls-2" d="M128.75,254.32l25.32,25.32,68-68V469.14h35.8V211.61l68,68,25.32-25.32L240,143.07Zm0,0" transform="translate(-10.4 -10.4)"/></svg>