<?xml version="1.0" encoding="utf-8"?>
<!-- Generator: Adobe Illustrator 22.1.0, SVG Export Plug-In . SVG Version: 6.00 Build 0)  -->
<svg version="1.1" id="Capa_1" xmlns="http://www.w3.org/2000/svg" xmlns:xlink="http://www.w3.org/1999/xlink" x="0px" y="0px"
	 viewBox="0 0 1242 2208" style="enable-background:new 0 0 1242 2208;" xml:space="preserve">
<style type="text/css">
	.st0{fill:#808080;}
	.st1{fill:#FFFFFF;}
	.st2{fill:none;}
	.st3{fill:none;stroke:#FFFFFF;stroke-width:7;stroke-miterlimit:10;}
	.st4{opacity:0.38;}
	.st5{opacity:8.000000e-02;clip-path:url(#SVGID_2_);}
	.st6{clip-path:url(#SVGID_4_);}
	.st7{fill:none;stroke:#000000;stroke-miterlimit:10;}
	.st8{clip-path:url(#SVGID_4_);fill:none;stroke:#000000;stroke-miterlimit:10;}
	.st9{opacity:0.6;clip-path:url(#SVGID_2_);}
	.st10{clip-path:url(#SVGID_6_);}
	.st11{clip-path:url(#SVGID_8_);}
	.st12{opacity:5.000000e-02;}
	.st13{clip-path:url(#SVGID_10_);}
	.st14{clip-path:url(#SVGID_12_);}
	.st15{fill:none;stroke:#FFFFFF;stroke-width:20;stroke-miterlimit:10;stroke-dasharray:47.9,47.9;}
	.st16{fill:#768B95;}
	.st17{clip-path:url(#SVGID_14_);}
	.st18{fill:url(#SVGID_15_);}
	.st19{clip-path:url(#SVGID_17_);}
	.st20{fill:url(#SVGID_18_);}
	.st21{clip-path:url(#SVGID_20_);}
	.st22{fill:url(#SVGID_21_);}
	.st23{enable-background:new    ;}
	.st24{fill:none;stroke:#FFFFFF;stroke-width:13;stroke-miterlimit:10;}
</style>
<rect y="0" class="st0" width="1242" height="2208"/>
<polygon class="st1" points="37.6,12.8 37.6,2169.1 1184.2,2169.1 1185.9,1307.5 1120.5,1254.1 1188.4,1194 1184.2,12.8 "/>
<polygon points="41,14.2 41,1257 1123.5,1257 1192,1199.7 1190.5,14 "/>
<rect y="0" class="st2" width="1242" height="2208"/>
<polyline class="st3" points="1081.1,1486.1 1106.1,1486.1 1081.1,1486.1 "/>
<rect x="30.1" y="0" class="st2" width="1181.8" height="2101"/>
<rect x="30.1" y="0" class="st2" width="1181.8" height="2101"/>
<rect x="34.1" y="0" class="st2" width="1181.8" height="2101"/>
<g class="st4">
	<defs>
		<rect id="SVGID_1_" x="171.1" y="1002.9" class="st4" width="896.9" height="533.8"/>
	</defs>
	<clipPath id="SVGID_2_">
		<use xlink:href="#SVGID_1_"  style="overflow:visible;"/>
	</clipPath>
	<g class="st5">
		<g>
			<defs>
				<path id="SVGID_3_" d="M605.3,1080.6l-0.8,0.8l-0.5,0.6l0,0c-1,1-2.4,2.5-4,4.3c-2,2.1-4.3,4.7-6.8,7.5c-5,5.5-9.6,11.2-14,17.2
					l-0.1,0.1c-0.1,0.2-0.3,0.5-0.6,0.9s-0.5,0.7-0.7,1c-2.8,4-9,13.1-14.6,22.3c-1.7,2.8-3.3,5.6-4.7,8.2h0.1
					c-11.4,21.5-19.7,44.6-24.5,68.5h-99.5V1331H531v64.2c-19.7,16.1-46.8,24.1-81.1,24.1c-40.2,0-73.8-13.2-101.5-39.4
					s-41.6-62.1-41.6-107.4c0-43.8,14.6-78.9,43.8-105.9s67.2-40.9,114-40.9c15.7,0,31.4,1.5,46.9,4.5c5.9-15.5,25.8-59.6,73.5-98.5
					c-40.9-18.2-85.2-27.4-129.9-27.2c-81.8,0-149.8,24.8-203.1,74.5s-80.4,113.2-80.4,191.4c0,77.4,26.3,141,79.6,191.4
					c53.3,49.7,119.8,74.5,198.7,74.5c44.6,0,86.2-8,124.9-23.4c22.3-9.3,41.5-19.5,57.7-30.9c46.1,35.6,101.3,53.3,165.5,53.2
					c77.4,0,141.7-25.6,192.8-77.4s76.7-114.7,76.7-188.5c0-7.4-0.3-14.6-0.8-21.7H931.2c0.9,7.2,1.3,14.5,1.3,21.7
					c0,41.6-13.1,76.7-38.7,103.7s-57,40.9-95.7,40.9s-70.9-13.9-96.4-40.9s-38-62.1-38-103.7s12.4-76.7,38-103.7
					s57.7-40.9,96.4-40.9c7.9,0,15.8,0.6,23.6,1.9v-122.3c-7.7-0.5-15.6-0.9-23.6-0.9C720.7,1003.3,656.4,1028.9,605.3,1080.6"/>
			</defs>
			<clipPath id="SVGID_4_">
				<use xlink:href="#SVGID_3_"  style="overflow:visible;"/>
			</clipPath>
			<g class="st6">
				<rect x="171.6" y="1003.3" width="896" height="532.9"/>
				<rect x="171.6" y="1003.3" class="st7" width="896" height="532.9"/>
			</g>
			<path class="st8" d="M605.3,1080.6l-0.8,0.8l-0.5,0.6l0,0c-1,1-2.4,2.5-4,4.3c-2,2.1-4.3,4.7-6.8,7.5c-5,5.5-9.6,11.2-14,17.2
				l-0.1,0.1c-0.1,0.2-0.3,0.5-0.6,0.9s-0.5,0.7-0.7,1c-2.8,4-9,13.1-14.6,22.3c-1.7,2.8-3.3,5.6-4.7,8.2h0.1
				c-11.4,21.5-19.7,44.6-24.5,68.5h-99.5V1331H531v64.2c-19.7,16.1-46.8,24.1-81.1,24.1c-40.2,0-73.8-13.2-101.5-39.4
				s-41.6-62.1-41.6-107.4c0-43.8,14.6-78.9,43.8-105.9s67.2-40.9,114-40.9c15.7,0,31.4,1.5,46.9,4.5c5.9-15.5,25.8-59.6,73.5-98.5
				c-40.9-18.2-85.2-27.4-129.9-27.2c-81.8,0-149.8,24.8-203.1,74.5s-80.4,113.2-80.4,191.4c0,77.4,26.3,141,79.6,191.4
				c53.3,49.7,119.8,74.5,198.7,74.5c44.6,0,86.2-8,124.9-23.4c22.3-9.3,41.5-19.5,57.7-30.9c46.1,35.6,101.3,53.3,165.5,53.2
				c77.4,0,141.7-25.6,192.8-77.4s76.7-114.7,76.7-188.5c0-7.4-0.3-14.6-0.8-21.7H931.2c0.9,7.2,1.3,14.5,1.3,21.7
				c0,41.6-13.1,76.7-38.7,103.7s-57,40.9-95.7,40.9s-70.9-13.9-96.4-40.9s-38-62.1-38-103.7s12.4-76.7,38-103.7
				s57.7-40.9,96.4-40.9c7.9,0,15.8,0.6,23.6,1.9v-122.3c-7.7-0.5-15.6-0.9-23.6-0.9C720.7,1003.3,656.4,1028.9,605.3,1080.6"/>
		</g>
	</g>
	<g class="st9">
		<path class="st1" d="M893.3,1162.7v-127.2h144.6v144.6H893.3V1162.7z M862,1211.3h207.1v-207.1H862V1211.3z"/>
		<g>
			<defs>
				<path id="SVGID_5_" d="M893.3,1162.7v-127.2h144.6v144.6H893.3V1162.7z M862,1211.3h207.1v-207.1H862V1211.3z"/>
			</defs>
			<clipPath id="SVGID_6_">
				<use xlink:href="#SVGID_5_"  style="overflow:visible;"/>
			</clipPath>
			<g class="st10">
				<rect x="862" y="1004.2" class="st1" width="207.1" height="207.1"/>
			</g>
		</g>
		<polygon class="st1" points="987.8,1074.7 932.5,1074.7 932.5,1140.8 998.7,1140.8 998.7,1085.6 998.7,1074.7 		"/>
		<g>
			<defs>
				<polygon id="SVGID_7_" points="987.8,1074.7 932.5,1074.7 932.5,1140.8 998.7,1140.8 998.7,1085.6 998.7,1074.7 				"/>
			</defs>
			<clipPath id="SVGID_8_">
				<use xlink:href="#SVGID_7_"  style="overflow:visible;"/>
			</clipPath>
			<g class="st11">
				<rect x="932.5" y="1074.7" class="st1" width="66.1" height="66.1"/>
			</g>
		</g>
		<path class="st1" d="M1070.2,1248.1H934c0.5,4.5,0.9,9.1,1.1,13.7h135.8C1070.7,1257.2,1070.5,1252.7,1070.2,1248.1z"/>
		<path class="st1" d="M703.4,1165.8c25.7-27.2,58-41.1,96.9-41.1c7.9,0,15.9,0.6,23.7,1.9v-122.8c-7.8-0.6-15.6-0.9-23.7-0.9
			c-77.7,0-142.2,25.6-193.6,77.6c-0.2,0.2-0.4,0.4-0.7,0.8c-0.2,0.2-0.3,0.4-0.5,0.6l0,0c-1,1-2.4,2.5-4,4.3
			c-2,2.2-4.3,4.7-6.8,7.5c-5,5.5-9.6,11.3-14,17.3c0,0-0.1,0.1-0.1,0.1c-0.1,0.2-0.4,0.5-0.6,0.9s-0.5,0.7-0.7,1
			c-2.8,4.1-9.1,13.2-14.7,22.4c-1.7,2.8-3.3,5.6-4.8,8.3c0,0,0,0,0.1,0c-11.5,21.6-19.8,44.8-24.6,68.8h-100v49.4h230.2
			C666.9,1223.6,679.4,1191.2,703.4,1165.8z"/>
		<path class="st1" d="M350.8,1166.8c29.4-27.2,67.5-41.1,114.5-41.1c15.8,0,31.6,1.6,47.1,4.5c5.9-15.6,25.9-59.8,73.8-99
			c-41.1-18.2-85.5-27.6-130.4-27.4c-82.2,0-150.4,24.9-204,74.8c-51.4,47.9-78.5,108.8-80.6,183.1h136
			C309.5,1223.1,324,1191.6,350.8,1166.8z"/>
	</g>
</g>
<g class="st12">
	<path d="M893.3,2075.3v-127.2h144.6v144.6H893.3V2075.3z M862,2124h207.1v-207.1H862V2124z"/>
	<g>
		<defs>
			<path id="SVGID_9_" d="M893.3,2075.3v-127.2h144.6v144.6H893.3V2075.3z M862,2124h207.1v-207.1H862V2124z"/>
		</defs>
		<clipPath id="SVGID_10_">
			<use xlink:href="#SVGID_9_"  style="overflow:visible;"/>
		</clipPath>
		<g class="st13">
			<rect x="862" y="1916.9" width="207.1" height="207.1"/>
		</g>
	</g>
	<polygon points="987.8,1987.4 932.5,1987.4 932.5,2053.5 998.7,2053.5 998.7,1998.3 998.7,1987.4 	"/>
	<g>
		<defs>
			<polygon id="SVGID_11_" points="987.8,1987.4 932.5,1987.4 932.5,2053.5 998.7,2053.5 998.7,1998.3 998.7,1987.4 			"/>
		</defs>
		<clipPath id="SVGID_12_">
			<use xlink:href="#SVGID_11_"  style="overflow:visible;"/>
		</clipPath>
		<g class="st14">
			<rect x="932.5" y="1987.4" width="66.1" height="66.1"/>
		</g>
	</g>
	<path d="M1070.2,2160.8H934c0.5,4.5,0.9,9.1,1.1,13.7h135.8C1070.7,2169.9,1070.5,2165.3,1070.2,2160.8z"/>
	<path d="M703.4,2078.4c25.7-27.1,58-41.1,96.9-41.1c7.9,0,15.9,0.6,23.7,1.9v-122.8c-7.8-0.6-15.6-0.9-23.7-0.9
		c-77.7,0-142.2,25.6-193.6,77.6c-0.2,0.2-0.4,0.4-0.7,0.8c-0.2,0.2-0.3,0.4-0.5,0.6l0,0c-1,1-2.4,2.5-4,4.3c-2,2.2-4.3,4.7-6.8,7.5
		c-5,5.5-9.6,11.3-14,17.3c0,0-0.1,0.1-0.1,0.1c-0.1,0.2-0.4,0.5-0.6,0.9s-0.5,0.7-0.7,1c-2.8,4.1-9.1,13.2-14.7,22.4
		c-1.7,2.8-3.3,5.6-4.8,8.3h0.1c-11.5,21.6-19.8,44.8-24.6,68.8h-100v49.4h230.2C666.9,2136.2,679.4,2103.8,703.4,2078.4z"/>
	<path d="M350.8,2079.5c29.4-27.1,67.5-41.1,114.5-41.1c15.8,0,31.6,1.6,47.1,4.5c5.9-15.6,25.9-59.8,73.8-99
		c-41.1-18.2-85.5-27.6-130.4-27.4c-82.2,0-150.4,24.9-204,74.8c-51.4,47.9-78.5,108.7-80.6,183.1h136
		C309.5,2135.8,324,2104.3,350.8,2079.5z"/>
</g>
<line class="st15" x1="1079.1" y1="1262" x2="76.1" y2="1262"/>
<path class="st16" d="M532,2052.8c-4.5-3.7-9.5-5.9-15.3-5.1c-6.5,0.9-10.7,4.8-12.4,11.1c-1.8,6.7,0.5,14.3,5.7,17.7
	c5.7,3.9,11.6,3.4,17.6,0.4c0.5-0.2,0.8-0.8,1.3-0.8c1.4-0.3,2.6-3.7,4.3-0.6c1.2,2.2,3.4,4.4-0.1,7c-7.8,5.8-21,6-29.3,0.1
	c-7.7-5.4-11.3-17.1-8.1-26.9c3-9.6,11.7-15.7,22.2-15.7c4.5-0.2,8.9,0.8,12.9,2.9c4.5,2.5,4.7,3,2.5,7.5
	C532.9,2051.3,532.5,2052,532,2052.8"/>
<path class="st16" d="M486.9,2073.9c4,6.8,3.7,7.8-3.3,11c-10.9,5-24,1.7-30.3-7.6c-6.6-9.9-5.1-23.1,3.5-31.4
	c7.6-7.1,22.7-7.9,30.8-1.6c2,1.6,1.6,6.8-0.7,8c-1.2,0.6-1.6-0.5-2.3-1c-3.8-2.9-8.6-4.2-13.4-3.6c-6.4,1-10.6,4.7-12.1,10.9
	c-1.6,6.8-0.5,13.3,5.4,17.8c5.6,4.3,11.8,3.6,17.9,0.5C483.9,2076,485.5,2075.1,486.9,2073.9"/>
<path class="st16" d="M606.4,2087c-5.7,0.1-11.2-1.9-15.5-5.7c-2.4-2.1-1.2-3.4,0.2-5.2s2.4-2.1,4.3-0.4c3.7,3.3,8.6,4.8,13.5,4.2
	c3.2-0.4,5.6-1.8,6.2-5.1s-1.4-5.2-4.2-6.3c-3-1.2-6.1-2.3-9.2-3.4c-7.6-2.9-11.1-7.8-10-14.1c1.2-6.5,6.6-10.6,14.4-10.8
	c5.1-0.1,9.8,0.8,14.1,3.9c3.2,2.3,0.4,3.7-0.4,5.5c-1.1,2.4-2.3,1.1-3.6,0.2c-3-2.2-6.7-3.3-10.4-3c-2.7,0.3-5.2,1.2-5.9,4.3
	s1.4,4.9,3.8,6c2.9,1.3,5.9,2.2,8.8,3.3c7.9,2.9,11.8,7.8,10.9,13.9c-1.1,7.5-6.9,12.3-15.2,12.7
	C607.7,2086.9,607.1,2086.9,606.4,2087"/>
<path class="st16" d="M645.3,2087c-5.8,0.2-11.4-1.9-15.7-5.7c-2.4-2.1-1.2-3.4,0.2-5.2c1.5-2,2.5-1.9,4.3-0.3
	c3.8,3.4,8.9,4.9,13.9,4c3-0.5,5.2-2,5.8-5.1s-1.3-5-3.9-6.1c-3.3-1.4-6.6-2.5-9.9-3.8c-7.2-2.8-10.5-7.7-9.5-14
	c1-6.1,6.5-10.3,13.8-10.7c5.1-0.2,9.9,0.6,14.3,3.5c2.8,1.9,1.6,3.4,0.4,5.5c-1.4,2.4-2.5,1.7-4.2,0.4c-3-2.2-6.7-3.2-10.4-2.8
	c-2.8,0.3-5.2,1.6-5.7,4.6s1.5,4.6,3.9,5.8c4.4,2.1,9.3,2.9,13.5,5.4c5.9,3.2,8.1,10.7,4.9,16.6c-0.3,0.6-0.7,1.2-1.1,1.7
	c-2.8,3.7-6.7,5.4-11.1,6C647.5,2086.9,646.4,2087,645.3,2087"/>
<path class="st16" d="M574.9,2043.5c-7.7-5-18.8-4.5-26.3,1.1c-7.7,5.7-10.8,16.8-7.7,27c6,19.6,29.6,17.9,39.8,9.8
	c1.6-1.3,1.2-2.4,0.1-3.5s-1.4-3.8-4.1-2c-2.5,1.6-5.3,2.8-8.3,3.6c-9.7,2.3-17.4-2.3-19.2-11.3c-0.4-2,0-2.6,2-2.6c5,0.1,10,0,15,0
	s10,0,15,0c1.4,0,2.4-0.1,2.7-2C585.1,2056.3,581.3,2047.5,574.9,2043.5 M571.8,2059.4c-3.3-0.2-6.5,0-9.8,0s-6.6-0.2-9.8,0
	c-3,0.2-3.2-1-2.4-3.4c1.5-5.3,6.3-9.1,11.8-9.4c6.2-0.3,11,2.9,13.1,8.6C575.6,2058,575.5,2059.7,571.8,2059.4"/>
<path class="st16" d="M440.6,2058.4c-0.2-7.9-3.1-14.5-11.4-17.1s-16.1-1.3-23.7,2.3c-2.9,1.4-0.4,3.1,0,4.6c0.4,1.5,1,2.6,3,1.5
	c3.8-2.1,8.1-3.1,12.5-3c5.4,0.3,9.2,3.2,10.2,7.7c0.6,2.9,0.2,4.7-3.5,4.8c-5.2,0-10.5-0.3-15.6,1.3c-7.2,2.3-11.2,7.5-10.5,13.8
	c0.8,7,6.2,12,13.5,12.7c6.1,0.6,11.3-1.4,16.7-6.5c-1.2,6.8,2.8,5.5,5.7,5.6c2.2,0.1,3.3-0.3,3.3-2.9
	C440.6,2074.9,440.9,2066.6,440.6,2058.4 M431.4,2071.2c0,4.1-2.8,7.3-7.9,8.9c-4.4,1.4-9.2,0.2-11.4-3c-3-4.3-1.1-9.7,4.1-11.3
	c2.7-0.8,5.5-1.2,8.3-1C431.5,2064.6,431.5,2064.6,431.4,2071.2"/>
<g>
	<defs>
		<path id="SVGID_13_" d="M752.7,2029.6l-0.1,0.2l-0.1,0.1l0,0c-0.2,0.2-0.5,0.5-0.8,0.8s-0.8,0.9-1.3,1.4c-0.9,1-1.8,2.1-2.7,3.3
			l0,0c0,0.1-0.1,0.1-0.1,0.2l-0.1,0.2c-0.5,0.8-1.7,2.5-2.8,4.2c-0.3,0.5-0.6,1.1-0.9,1.6l0,0c-2.2,4.1-3.7,8.5-4.7,13h-18.9v22.6
			h18.3v12.2c-3.7,3.1-8.8,4.7-15.4,4.7c-7.2,0.2-14.1-2.5-19.3-7.5c-5.3-5-7.9-11.8-7.9-20.4c0-8.3,2.8-15,8.3-20.1
			s12.8-7.8,21.7-7.8c3,0,6,0.3,8.9,0.9c3-7.3,7.8-13.8,14-18.7c-7.8-3.4-16.2-5.2-24.7-5.2c-15.5,0-28.5,4.7-38.6,14.2
			s-15.3,21.5-15.3,36.4c0,14.7,5,26.8,15.1,36.4s22.8,14.2,37.8,14.2c8.1,0,16.2-1.5,23.7-4.4c3.9-1.5,7.6-3.5,11-5.9
			c8.7,6.7,19.2,10.1,31.4,10.1c14.7,0,26.9-4.9,36.7-14.7c9.5-9.4,14.8-22.4,14.6-35.8c0-1.4-0.1-2.8-0.2-4.1h-25.8
			c0.2,1.4,0.2,2.8,0.2,4.1c0,7.9-2.5,14.6-7.4,19.7c-4.7,5.1-11.3,7.9-18.2,7.8c-6.9,0.2-13.6-2.7-18.3-7.8
			c-4.9-5.1-7.2-11.8-7.2-19.7s2.4-14.6,7.2-19.7c4.7-5.1,11.4-7.9,18.3-7.8c1.5,0,3,0.1,4.5,0.4v-23.2c-1.5-0.1-3-0.2-4.5-0.2
			C774.6,2015,762.4,2019.8,752.7,2029.6"/>
	</defs>
	<clipPath id="SVGID_14_">
		<use xlink:href="#SVGID_13_"  style="overflow:visible;"/>
	</clipPath>
	<g class="st17">
		
			<linearGradient id="SVGID_15_" gradientUnits="userSpaceOnUse" x1="481.4923" y1="-1015.6105" x2="482.6123" y2="-1015.6105" gradientTransform="matrix(136.71 0 0 -136.71 -65147.7148 -136778.5781)">
			<stop  offset="0" style="stop-color:#00CBF6"/>
			<stop  offset="0.11" style="stop-color:#00D2E7"/>
			<stop  offset="0.52" style="stop-color:#01EAB2"/>
			<stop  offset="0.83" style="stop-color:#01F991"/>
			<stop  offset="1" style="stop-color:#01FF85"/>
		</linearGradient>
		<rect x="670.3" y="2014.9" class="st18" width="170.3" height="101.2"/>
	</g>
</g>
<g>
	<defs>
		<path id="SVGID_16_" d="M806.9,2045.2v-24.1h27.3v27.3h-27.3V2045.2z M801,2054.4h39.2v-39.2H801L801,2054.4z"/>
	</defs>
	<clipPath id="SVGID_17_">
		<use xlink:href="#SVGID_16_"  style="overflow:visible;"/>
	</clipPath>
	<g class="st19">
		
			<linearGradient id="SVGID_18_" gradientUnits="userSpaceOnUse" x1="481.4923" y1="-1015.5859" x2="482.6123" y2="-1015.5859" gradientTransform="matrix(136.71 0 0 -136.71 -65147.7148 -136805.9844)">
			<stop  offset="0" style="stop-color:#00CBF6"/>
			<stop  offset="0.11" style="stop-color:#00D2E7"/>
			<stop  offset="0.52" style="stop-color:#01EAB2"/>
			<stop  offset="0.83" style="stop-color:#01F991"/>
			<stop  offset="1" style="stop-color:#01FF85"/>
		</linearGradient>
		<rect x="801" y="2015.2" class="st20" width="39.2" height="39.2"/>
	</g>
</g>
<g>
	<defs>
		<polygon id="SVGID_19_" points="824.8,2028.5 814.3,2028.5 814.3,2041 826.8,2041 826.8,2030.6 826.8,2028.5 		"/>
	</defs>
	<clipPath id="SVGID_20_">
		<use xlink:href="#SVGID_19_"  style="overflow:visible;"/>
	</clipPath>
	<g class="st21">
		
			<linearGradient id="SVGID_21_" gradientUnits="userSpaceOnUse" x1="481.4923" y1="-1015.5838" x2="482.6123" y2="-1015.5838" gradientTransform="matrix(136.71 0 0 -136.71 -65147.7148 -136805.7031)">
			<stop  offset="0" style="stop-color:#00CBF6"/>
			<stop  offset="0.11" style="stop-color:#00D2E7"/>
			<stop  offset="0.52" style="stop-color:#01EAB2"/>
			<stop  offset="0.83" style="stop-color:#01F991"/>
			<stop  offset="1" style="stop-color:#01FF85"/>
		</linearGradient>
		<rect x="814.3" y="2028.5" class="st22" width="12.5" height="12.5"/>
	</g>
</g>
<g class="st23">
	<path class="st16" d="M288.7,1076.2H282v4.4h6v2.8h-6v4.7h6.7v2.9h-10.3v-17.7h10.3V1076.2z"/>
	<path class="st16" d="M297.3,1091.2c-3.5,0-6-2.1-6.1-4.7h3.6c0.1,1.1,1.1,1.9,2.5,1.9c1.4,0,2.2-0.6,2.2-1.4
		c0-2.5-7.9-0.9-7.9-6.1c0-2.3,2.1-4.2,5.6-4.2c3.4,0,5.4,1.9,5.7,4.6h-3.4c-0.1-1.1-1-1.8-2.4-1.8c-1.3,0-2,0.5-2,1.3
		c0,2.6,7.8,1,7.9,6.1C302.8,1089.4,300.7,1091.2,297.3,1091.2z"/>
	<path class="st16" d="M306.3,1079.9h-1.7v-2.9h1.7v-3.5h3.6v3.5h3.1v2.9h-3.1v6.8c0,0.9,0.4,1.3,1.5,1.3h1.6v3h-2.2
		c-2.7,0-4.5-1.1-4.5-4.4V1079.9z"/>
	<path class="st16" d="M321.7,1091.2c-4.1,0-7-2.8-7-7.2c0-4.4,2.9-7.2,7-7.2c4.1,0,6.9,2.8,6.9,6.9c0,0.5,0,0.9-0.1,1.4h-10.3
		c0.2,2.1,1.6,3.2,3.4,3.2c1.5,0,2.4-0.8,2.8-1.7h3.8C327.5,1089.2,325.2,1091.2,321.7,1091.2z M318.3,1082.6h6.7
		c-0.1-1.8-1.5-3-3.3-3C319.9,1079.6,318.6,1080.7,318.3,1082.6z"/>
	<path class="st16" d="M343.4,1091.2c-4.1,0-7-2.8-7-7.2c0-4.4,2.9-7.2,7-7.2c4.1,0,6.9,2.8,6.9,6.9c0,0.5,0,0.9-0.1,1.4h-10.3
		c0.2,2.1,1.6,3.2,3.4,3.2c1.5,0,2.4-0.8,2.8-1.7h3.8C349.2,1089.2,346.9,1091.2,343.4,1091.2z M340,1082.6h6.7
		c-0.1-1.8-1.5-3-3.3-3C341.6,1079.6,340.2,1080.7,340,1082.6z"/>
	<path class="st16" d="M352.9,1080.4h10.7v3h-10.7V1080.4z"/>
	<path class="st16" d="M366.7,1073.3h13v2.9H375v14.8h-3.5v-14.8h-4.7V1073.3z"/>
	<path class="st16" d="M381.9,1073.2c0-1.2,0.9-2.1,2.2-2.1c1.2,0,2.2,0.9,2.2,2.1s-0.9,2.1-2.2,2.1
		C382.8,1075.3,381.9,1074.4,381.9,1073.2z M382.3,1076.9h3.5v14h-3.5V1076.9z"/>
	<path class="st16" d="M395.4,1076.7c3.5,0,5.9,1.8,6.6,5h-3.8c-0.4-1.2-1.3-2-2.8-2c-2,0-3.3,1.5-3.3,4.2s1.3,4.2,3.3,4.2
		c1.5,0,2.4-0.7,2.8-1.9h3.8c-0.8,3-3.1,5-6.6,5c-4.1,0-6.9-2.8-6.9-7.2S391.3,1076.7,395.4,1076.7z"/>
	<path class="st16" d="M404.6,1072.2h3.5v10.7l4.7-6h4.6l-6.2,7l6.2,7h-4.6l-4.8-6v6h-3.5V1072.2z"/>
	<path class="st16" d="M425.5,1091.2c-4.1,0-7-2.8-7-7.2c0-4.4,2.9-7.2,7-7.2c4.1,0,6.9,2.8,6.9,6.9c0,0.5,0,0.9-0.1,1.4h-10.3
		c0.2,2.1,1.6,3.2,3.4,3.2c1.5,0,2.4-0.8,2.8-1.7h3.8C431.3,1089.2,429,1091.2,425.5,1091.2z M422.1,1082.6h6.7c0-1.8-1.5-3-3.3-3
		C423.7,1079.6,422.4,1080.7,422.1,1082.6z"/>
	<path class="st16" d="M435.6,1079.9h-1.7v-2.9h1.7v-3.5h3.6v3.5h3.1v2.9h-3.1v6.8c0,0.9,0.4,1.3,1.5,1.3h1.6v3H440
		c-2.7,0-4.5-1.1-4.5-4.4V1079.9z"/>
	<path class="st16" d="M457,1091.2c-4.1,0-7-2.8-7-7.2c0-4.4,2.9-7.2,7-7.2c4.1,0,6.9,2.8,6.9,6.9c0,0.5,0,0.9-0.1,1.4h-10.3
		c0.2,2.1,1.6,3.2,3.4,3.2c1.5,0,2.4-0.8,2.8-1.7h3.8C462.8,1089.2,460.5,1091.2,457,1091.2z M453.6,1082.6h6.7c0-1.8-1.5-3-3.3-3
		C455.2,1079.6,453.9,1080.7,453.6,1082.6z"/>
	<path class="st16" d="M471.9,1091.2c-3.5,0-6-2.1-6.1-4.7h3.6c0.1,1.1,1.1,1.9,2.5,1.9c1.4,0,2.2-0.6,2.2-1.4
		c0-2.5-7.9-0.9-7.9-6.1c0-2.3,2.1-4.2,5.5-4.2c3.4,0,5.4,1.9,5.7,4.6h-3.4c-0.1-1.1-1-1.8-2.4-1.8c-1.3,0-2,0.5-2,1.3
		c0,2.6,7.8,1,7.9,6.1C477.4,1089.4,475.3,1091.2,471.9,1091.2z"/>
	<path class="st16" d="M499.6,1091H496v-1.8c-0.9,1.2-2.4,2-4.2,2c-3.3,0-5.6-2.1-5.6-6v-8.2h3.5v7.7c0,2.3,1.2,3.5,3.1,3.5
		c1.9,0,3.1-1.2,3.1-3.5v-7.7h3.6V1091z M495.7,1070.4v2.9l-5.8,2.7v-2.5L495.7,1070.4z"/>
	<path class="st16" d="M512.9,1083.2c0-2.3-1.2-3.5-3.1-3.5c-1.9,0-3.2,1.2-3.2,3.5v7.8h-3.5v-14h3.5v1.7c0.9-1.2,2.4-2,4.2-2
		c3.3,0,5.6,2.1,5.6,6v8.2h-3.5V1083.2z"/>
	<path class="st16" d="M519.5,1073.2c0-1.2,0.9-2.1,2.2-2.1c1.2,0,2.2,0.9,2.2,2.1s-0.9,2.1-2.2,2.1
		C520.4,1075.3,519.5,1074.4,519.5,1073.2z M519.8,1076.9h3.5v14h-3.5V1076.9z"/>
	<path class="st16" d="M532.9,1076.7c3.5,0,5.9,1.8,6.6,5h-3.8c-0.4-1.2-1.3-2-2.8-2c-2,0-3.3,1.5-3.3,4.2s1.3,4.2,3.3,4.2
		c1.5,0,2.4-0.7,2.8-1.9h3.8c-0.8,3-3.1,5-6.6,5c-4.1,0-6.9-2.8-6.9-7.2S528.9,1076.7,532.9,1076.7z"/>
	<path class="st16" d="M548.4,1091.2c-4.1,0-7.1-2.8-7.1-7.2c0-4.4,3.2-7.2,7.2-7.2c4.1,0,7.2,2.8,7.2,7.2
		C555.7,1088.4,552.5,1091.2,548.4,1091.2z M548.4,1088.1c1.9,0,3.7-1.4,3.7-4.2c0-2.8-1.7-4.2-3.6-4.2c-1.9,0-3.6,1.3-3.6,4.2
		C544.9,1086.7,546.5,1088.1,548.4,1088.1z"/>
	<path class="st16" d="M570.5,1091.2c-4.1,0-7-2.8-7-7.2c0-4.4,2.9-7.2,7-7.2c4.1,0,6.9,2.8,6.9,6.9c0,0.5,0,0.9-0.1,1.4H567
		c0.2,2.1,1.6,3.2,3.4,3.2c1.5,0,2.4-0.8,2.8-1.7h3.8C576.3,1089.2,573.9,1091.2,570.5,1091.2z M567.1,1082.6h6.7c0-1.8-1.5-3-3.3-3
		C568.7,1079.6,567.3,1080.7,567.1,1082.6z"/>
	<path class="st16" d="M585.6,1073.2c0-1.2,0.9-2.1,2.2-2.1c1.2,0,2.2,0.9,2.2,2.1s-0.9,2.1-2.2,2.1
		C586.5,1075.3,585.6,1074.4,585.6,1073.2z M586,1076.9h3.5v14H586V1076.9z"/>
	<path class="st16" d="M602.9,1083.2c0-2.3-1.2-3.5-3.1-3.5c-1.9,0-3.2,1.2-3.2,3.5v7.8H593v-14h3.5v1.7c0.9-1.2,2.4-2,4.2-2
		c3.3,0,5.6,2.1,5.6,6v8.2h-3.5V1083.2z"/>
	<path class="st16" d="M615.2,1091.2c-3.5,0-6-2.1-6.1-4.7h3.6c0.1,1.1,1.1,1.9,2.5,1.9c1.4,0,2.2-0.6,2.2-1.4
		c0-2.5-7.9-0.9-7.9-6.1c0-2.3,2.1-4.2,5.5-4.2c3.4,0,5.4,1.9,5.7,4.6h-3.4c-0.1-1.1-1-1.8-2.4-1.8c-1.3,0-2,0.5-2,1.3
		c0,2.6,7.8,1,7.9,6.1C620.7,1089.4,618.6,1091.2,615.2,1091.2z"/>
	<path class="st16" d="M624.2,1079.9h-1.7v-2.9h1.7v-3.5h3.6v3.5h3.1v2.9h-3.1v6.8c0,0.9,0.4,1.3,1.5,1.3h1.6v3h-2.2
		c-2.7,0-4.5-1.1-4.5-4.4V1079.9z"/>
	<path class="st16" d="M637,1091h-3.5v-14h3.5v2.2c0.9-1.4,2.4-2.4,4.3-2.4v3.7h-0.9c-2.1,0-3.4,0.8-3.4,3.5V1091z"/>
	<path class="st16" d="M649.2,1076.7c2.3,0,3.8,1.1,4.6,2.2v-2h3.6v14h-3.6v-2.1c-0.8,1.2-2.4,2.3-4.7,2.3c-3.5,0-6.4-2.9-6.4-7.3
		S645.6,1076.7,649.2,1076.7z M650.1,1079.8c-1.9,0-3.7,1.4-3.7,4.1s1.8,4.2,3.7,4.2c2,0,3.7-1.5,3.7-4.1S652,1079.8,650.1,1079.8z"
		/>
	<path class="st16" d="M666.2,1091.2c-3.5,0-6-2.1-6.1-4.7h3.6c0.1,1.1,1.1,1.9,2.5,1.9c1.4,0,2.2-0.6,2.2-1.4
		c0-2.5-7.9-0.9-7.9-6.1c0-2.3,2.1-4.2,5.5-4.2c3.4,0,5.4,1.9,5.7,4.6h-3.4c-0.1-1.1-1-1.8-2.4-1.8c-1.3,0-2,0.5-2,1.3
		c0,2.6,7.8,1,7.9,6.1C671.8,1089.4,669.7,1091.2,666.2,1091.2z"/>
	<path class="st16" d="M675,1079.9h-1.6v-2.9h1.6v-0.7c0-3.4,2-5,5.9-4.9v3c-1.7-0.1-2.3,0.5-2.3,2.1v0.6h2.5v2.9h-2.5v11.1H675
		V1079.9z"/>
	<path class="st16" d="M689.5,1091.2c-4.1,0-7-2.8-7-7.2c0-4.4,2.9-7.2,7-7.2c4.1,0,6.9,2.8,6.9,6.9c0,0.5,0,0.9-0.1,1.4h-10.3
		c0.2,2.1,1.6,3.2,3.4,3.2c1.5,0,2.4-0.8,2.8-1.7h3.8C695.3,1089.2,693,1091.2,689.5,1091.2z M686.1,1082.6h6.7c0-1.8-1.5-3-3.3-3
		C687.7,1079.6,686.4,1080.7,686.1,1082.6z"/>
	<path class="st16" d="M702.6,1091H699v-14h3.5v2.2c0.9-1.4,2.4-2.4,4.3-2.4v3.7H706c-2.1,0-3.4,0.8-3.4,3.5V1091z"/>
	<path class="st16" d="M708.9,1073.2c0-1.2,0.9-2.1,2.2-2.1c1.2,0,2.2,0.9,2.2,2.1s-0.9,2.1-2.2,2.1
		C709.8,1075.3,708.9,1074.4,708.9,1073.2z M709.3,1076.9h3.5v14h-3.5V1076.9z"/>
	<path class="st16" d="M724.5,1076.7c3.6,0,6.4,2.8,6.4,7.2s-2.8,7.3-6.4,7.3c-2.2,0-3.8-1-4.6-2.2v2h-3.5v-18.8h3.5v6.8
		C720.7,1077.7,722.4,1076.7,724.5,1076.7z M723.6,1079.8c-1.9,0-3.7,1.5-3.7,4.1s1.8,4.1,3.7,4.1c1.9,0,3.7-1.5,3.7-4.2
		S725.5,1079.8,723.6,1079.8z"/>
	<path class="st16" d="M733.5,1072.2h3.5v18.8h-3.5V1072.2z"/>
	<path class="st16" d="M746.7,1091.2c-4.1,0-7-2.8-7-7.2c0-4.4,2.9-7.2,7-7.2c4.1,0,6.9,2.8,6.9,6.9c0,0.5,0,0.9-0.1,1.4h-10.3
		c0.2,2.1,1.6,3.2,3.4,3.2c1.5,0,2.4-0.8,2.8-1.7h3.8C752.5,1089.2,750.2,1091.2,746.7,1091.2z M743.3,1082.6h6.7c0-1.8-1.5-3-3.3-3
		C744.9,1079.6,743.5,1080.7,743.3,1082.6z"/>
	<path class="st16" d="M757.8,1091.2c-1.3,0-2.2-0.9-2.2-2.1c0-1.2,0.9-2.1,2.2-2.1c1.2,0,2.2,0.9,2.2,2.1
		C759.9,1090.2,759,1091.2,757.8,1091.2z"/>
	<path class="st16" d="M783.9,1073.3v17.7h-3.5l-8-12.1v12.1h-3.5v-17.7h3.5l8,12.2v-12.2H783.9z"/>
	<path class="st16" d="M793.7,1091.2c-4.1,0-7.1-2.8-7.1-7.2c0-4.4,3.2-7.2,7.2-7.2c4.1,0,7.2,2.8,7.2,7.2
		C801,1088.4,797.7,1091.2,793.7,1091.2z M793.7,1088.1c1.9,0,3.7-1.4,3.7-4.2c0-2.8-1.7-4.2-3.6-4.2c-1.9,0-3.6,1.3-3.6,4.2
		C790.1,1086.7,791.8,1088.1,793.7,1088.1z"/>
	<path class="st16" d="M809.6,1072.2h3.5v18.8h-3.5V1072.2z"/>
	<path class="st16" d="M822.9,1091.2c-4.1,0-7.1-2.8-7.1-7.2c0-4.4,3.2-7.2,7.2-7.2c4.1,0,7.2,2.8,7.2,7.2
		C830.2,1088.4,827,1091.2,822.9,1091.2z M822.9,1088.1c1.9,0,3.7-1.4,3.7-4.2c0-2.8-1.7-4.2-3.6-4.2c-1.9,0-3.6,1.3-3.6,4.2
		C819.4,1086.7,821,1088.1,822.9,1088.1z"/>
	<path class="st16" d="M844.9,1076.7c3.5,0,5.9,1.8,6.6,5h-3.8c-0.4-1.2-1.3-2-2.8-2c-2,0-3.3,1.5-3.3,4.2s1.3,4.2,3.3,4.2
		c1.5,0,2.4-0.7,2.8-1.9h3.8c-0.8,3-3.1,5-6.6,5c-4.1,0-6.9-2.8-6.9-7.2S840.8,1076.7,844.9,1076.7z"/>
	<path class="st16" d="M860.4,1091.2c-4.1,0-7.1-2.8-7.1-7.2c0-4.4,3.2-7.2,7.2-7.2c4.1,0,7.2,2.8,7.2,7.2
		C867.7,1088.4,864.4,1091.2,860.4,1091.2z M860.4,1088.1c1.9,0,3.7-1.4,3.7-4.2c0-2.8-1.7-4.2-3.6-4.2c-1.9,0-3.6,1.3-3.6,4.2
		C856.8,1086.7,858.5,1088.1,860.4,1088.1z"/>
	<path class="st16" d="M889.9,1083.2c0-2.2-1.2-3.4-3.1-3.4c-1.9,0-3.1,1.2-3.1,3.4v7.8h-3.5v-7.8c0-2.2-1.2-3.4-3.1-3.4
		c-1.9,0-3.2,1.2-3.2,3.4v7.8h-3.5v-14h3.5v1.7c0.9-1.2,2.4-1.9,4.1-1.9c2.2,0,4,0.9,4.9,2.7c0.9-1.6,2.8-2.7,4.8-2.7
		c3.4,0,5.8,2.1,5.8,6v8.2h-3.5V1083.2z"/>
	<path class="st16" d="M905,1076.7c3.6,0,6.4,2.8,6.4,7.2s-2.8,7.3-6.4,7.3c-2.2,0-3.8-1.1-4.6-2.2v8.7h-3.5v-20.7h3.5v2
		C901.2,1077.8,902.9,1076.7,905,1076.7z M904.1,1079.8c-1.9,0-3.7,1.5-3.7,4.1s1.8,4.1,3.7,4.1c1.9,0,3.7-1.5,3.7-4.2
		S906,1079.8,904.1,1079.8z"/>
	<path class="st16" d="M919.5,1076.7c2.3,0,3.8,1.1,4.6,2.2v-2h3.6v14h-3.6v-2.1c-0.8,1.2-2.4,2.3-4.7,2.3c-3.5,0-6.4-2.9-6.4-7.3
		S916,1076.7,919.5,1076.7z M920.4,1079.8c-1.9,0-3.7,1.4-3.7,4.1s1.8,4.2,3.7,4.2c2,0,3.7-1.5,3.7-4.1S922.4,1079.8,920.4,1079.8z"
		/>
	<path class="st16" d="M934.8,1091h-3.5v-14h3.5v2.2c0.9-1.4,2.4-2.4,4.3-2.4v3.7h-0.9c-2.1,0-3.4,0.8-3.4,3.5V1091z"/>
	<path class="st16" d="M942,1079.9h-1.7v-2.9h1.7v-3.5h3.6v3.5h3.1v2.9h-3.1v6.8c0,0.9,0.4,1.3,1.5,1.3h1.6v3h-2.2
		c-2.7,0-4.5-1.1-4.5-4.4V1079.9z"/>
	<path class="st16" d="M956.8,1076.7c2.3,0,3.8,1.1,4.6,2.2v-2h3.6v14h-3.6v-2.1c-0.8,1.2-2.4,2.3-4.7,2.3c-3.5,0-6.4-2.9-6.4-7.3
		S953.2,1076.7,956.8,1076.7z M957.7,1079.8c-1.9,0-3.7,1.4-3.7,4.1s1.8,4.2,3.7,4.2c2,0,3.7-1.5,3.7-4.1S959.6,1079.8,957.7,1079.8
		z"/>
	<path class="st16" d="M973.8,1091.2c-3.5,0-6-2.1-6.1-4.7h3.6c0.1,1.1,1.1,1.9,2.5,1.9c1.4,0,2.2-0.6,2.2-1.4
		c0-2.5-7.9-0.9-7.9-6.1c0-2.3,2.1-4.2,5.5-4.2c3.4,0,5.4,1.9,5.7,4.6h-3.4c-0.1-1.1-1-1.8-2.4-1.8c-1.3,0-2,0.5-2,1.3
		c0,2.6,7.8,1,7.9,6.1C979.4,1089.4,977.3,1091.2,973.8,1091.2z"/>
</g>
<g class="st23">
	<path class="st16" d="M210.6,1118.9h-8l-1.5,4.2h-1.9l6.4-17.3h2l6.4,17.3h-1.9L210.6,1118.9z M206.6,1107.9l-3.5,9.5h6.9
		L206.6,1107.9z"/>
	<path class="st16" d="M222.6,1109.1c3.4,0,5.7,1.8,6.3,4.7H227c-0.5-2-2.1-3.2-4.4-3.2c-2.7,0-4.9,1.8-4.9,5.5s2.2,5.6,4.9,5.6
		c2.3,0,3.9-1.2,4.4-3.2h1.9c-0.6,2.7-2.9,4.7-6.3,4.7c-3.9,0-6.7-2.7-6.7-7.1S218.7,1109.1,222.6,1109.1z"/>
	<path class="st16" d="M238,1109.1c3.4,0,5.7,1.8,6.3,4.7h-1.9c-0.5-2-2.1-3.2-4.4-3.2c-2.7,0-4.9,1.8-4.9,5.5s2.2,5.6,4.9,5.6
		c2.3,0,3.9-1.2,4.4-3.2h1.9c-0.6,2.7-2.9,4.7-6.3,4.7c-3.9,0-6.7-2.7-6.7-7.1S234.1,1109.1,238,1109.1z"/>
	<path class="st16" d="M253.4,1123.2c-3.9,0-6.7-2.7-6.7-7.1c0-4.4,2.8-7.1,6.7-7.1c4,0,6.5,2.9,6.5,6.4c0,0.6,0,0.9-0.1,1.4h-11.4
		c0.2,3.2,2.4,4.9,4.9,4.9c2.3,0,3.9-1.2,4.4-3.1h1.9C259.1,1121.3,256.9,1123.2,253.4,1123.2z M248.5,1115.4h9.6
		c0.1-3.2-2.2-4.8-4.8-4.8C250.9,1110.6,248.7,1112.2,248.5,1115.4z"/>
	<path class="st16" d="M267.9,1123.2c-3.1,0-5.3-1.6-5.5-4.1h1.8c0.2,1.5,1.5,2.6,3.7,2.6c2,0,3.1-1.1,3.1-2.4
		c0-3.4-8.2-1.4-8.2-6.6c0-2,1.9-3.7,4.8-3.7c2.9,0,4.9,1.6,5,4.2h-1.8c-0.1-1.5-1.2-2.7-3.3-2.7c-1.8,0-3,1-3,2.2
		c0,3.7,8.1,1.7,8.2,6.6C272.6,1121.6,270.7,1123.2,267.9,1123.2z"/>
	<path class="st16" d="M280.7,1123.2c-3.1,0-5.3-1.6-5.5-4.1h1.8c0.2,1.5,1.5,2.6,3.7,2.6c2,0,3.1-1.1,3.1-2.4
		c0-3.4-8.2-1.4-8.2-6.6c0-2,1.9-3.7,4.8-3.7c2.9,0,4.9,1.6,5,4.2h-1.8c-0.1-1.5-1.2-2.7-3.3-2.7c-1.8,0-3,1-3,2.2
		c0,3.7,8.1,1.7,8.2,6.6C285.4,1121.6,283.5,1123.2,280.7,1123.2z"/>
	<path class="st16" d="M304.6,1110.6h-2.1c-1-2.3-3.1-3.7-5.9-3.7c-3.9,0-6.9,2.8-6.9,7.4s3,7.4,6.9,7.4c3.7,0,6.4-2.5,6.7-6.5h-7.4
		v-1.4h9.2v1.3c-0.3,4.6-3.7,8.2-8.5,8.2c-4.9,0-8.7-3.7-8.7-9c0-5.2,3.8-9,8.7-9C300.4,1105.3,303.3,1107.3,304.6,1110.6z"/>
	<path class="st16" d="M314.4,1123.2c-3.9,0-6.8-2.7-6.8-7.1c0-4.4,3-7.1,6.9-7.1c3.9,0,6.9,2.7,6.9,7.1
		C321.3,1120.5,318.2,1123.2,314.4,1123.2z M314.4,1121.7c2.6,0,5.1-1.8,5.1-5.5c0-3.8-2.5-5.5-5.1-5.5s-5,1.8-5,5.5
		C309.3,1119.9,311.8,1121.7,314.4,1121.7z"/>
	<path class="st16" d="M324.1,1120.1h2l-2.6,6.6h-1.2L324.1,1120.1z"/>
	<path class="st16" d="M346,1115.2c0-3-1.7-4.6-4.2-4.6c-2.6,0-4.3,1.6-4.3,4.9v7.5h-1.8v-13.7h1.8v2.3c0.9-1.7,2.6-2.6,4.7-2.6
		c3.1,0,5.6,1.9,5.6,5.9v8H346V1115.2z"/>
	<path class="st16" d="M351.2,1105.4c0-0.8,0.6-1.3,1.3-1.3s1.3,0.5,1.3,1.3s-0.6,1.3-1.3,1.3S351.2,1106.2,351.2,1105.4z
		 M351.6,1109.3h1.8v13.7h-1.8V1109.3z"/>
	<path class="st16" d="M370.1,1123.2c-3.9,0-6.7-2.7-6.7-7.1c0-4.4,2.8-7.1,6.7-7.1c4,0,6.5,2.9,6.5,6.4c0,0.6,0,0.9-0.1,1.4h-11.4
		c0.2,3.2,2.4,4.9,4.9,4.9c2.3,0,3.9-1.2,4.4-3.1h1.9C375.8,1121.3,373.6,1123.2,370.1,1123.2z M365.2,1115.4h9.6
		c0.1-3.2-2.2-4.8-4.8-4.8C367.6,1110.6,365.4,1112.2,365.2,1115.4z"/>
	<path class="st16" d="M379.8,1104.4h1.8v18.6h-1.8V1104.4z"/>
	<path class="st16" d="M398.4,1123.2c-3.9,0-6.8-2.7-6.8-7.1c0-4.4,3-7.1,6.9-7.1c3.9,0,6.9,2.7,6.9,7.1
		C405.4,1120.5,402.3,1123.2,398.4,1123.2z M398.4,1121.7c2.6,0,5.1-1.8,5.1-5.5c0-3.8-2.5-5.5-5.1-5.5s-5,1.8-5,5.5
		C393.4,1119.9,395.8,1121.7,398.4,1121.7z"/>
	<path class="st16" d="M410.3,1123h-1.8v-13.7h1.8v2.4c0.8-1.7,2.3-2.7,4.7-2.7v1.8h-0.5c-2.3,0-4.2,1-4.2,4.5V1123z"/>
	<path class="st16" d="M423.4,1109.1c2.7,0,4.6,1.5,5.4,3.2v-3h1.8v14.1c0,3.8-2.6,6.4-6.4,6.4c-3.5,0-6-1.8-6.6-4.7h1.7
		c0.6,1.9,2.3,3.1,4.8,3.1c2.6,0,4.6-1.7,4.6-4.8v-3.4c-0.8,1.8-2.7,3.2-5.4,3.2c-3.8,0-6.6-2.8-6.6-7.1
		C416.8,1111.8,419.6,1109.1,423.4,1109.1z M423.7,1110.6c-2.9,0-5.1,2-5.1,5.5c0,3.5,2.2,5.5,5.1,5.5c2.8,0,5.1-2.1,5.1-5.5
		S426.5,1110.6,423.7,1110.6z"/>
	<path class="st16" d="M440.3,1109.1c2.8,0,4.6,1.5,5.4,3.2v-3h1.8v13.7h-1.8v-3c-0.8,1.8-2.7,3.2-5.4,3.2c-3.7,0-6.5-2.8-6.5-7.1
		C433.8,1111.8,436.6,1109.1,440.3,1109.1z M440.7,1110.6c-2.9,0-5.1,2-5.1,5.5c0,3.5,2.2,5.5,5.1,5.5c2.8,0,5.1-2.1,5.1-5.5
		S443.5,1110.6,440.7,1110.6z"/>
	<path class="st16" d="M461.8,1115.2c0-3-1.7-4.6-4.2-4.6c-2.6,0-4.3,1.6-4.3,4.9v7.5h-1.8v-13.7h1.8v2.3c0.9-1.7,2.6-2.6,4.7-2.6
		c3.1,0,5.6,1.9,5.6,5.9v8h-1.7V1115.2z"/>
	<path class="st16" d="M467,1105.4c0-0.8,0.6-1.3,1.3-1.3s1.3,0.5,1.3,1.3s-0.6,1.3-1.3,1.3S467,1106.2,467,1105.4z M467.4,1109.3
		h1.8v13.7h-1.8V1109.3z"/>
	<path class="st16" d="M481.2,1110.8l-7.1,10.8h7.2v1.5h-9.2v-1.5l7.1-10.8h-6.9v-1.5h8.9V1110.8z"/>
	<path class="st16" d="M490,1109.1c2.8,0,4.6,1.5,5.4,3.2v-3h1.8v13.7h-1.8v-3c-0.8,1.8-2.7,3.2-5.4,3.2c-3.7,0-6.5-2.8-6.5-7.1
		C483.4,1111.8,486.2,1109.1,490,1109.1z M490.3,1110.6c-2.9,0-5.1,2-5.1,5.5c0,3.5,2.2,5.5,5.1,5.5c2.8,0,5.1-2.1,5.1-5.5
		S493.1,1110.6,490.3,1110.6z"/>
	<path class="st16" d="M507,1109.1c2.5,0,4.5,1.4,5.4,3.2v-7.8h1.8v18.6h-1.8v-3.1c-0.8,1.8-2.7,3.3-5.4,3.3c-3.8,0-6.6-2.8-6.6-7.1
		C500.4,1111.8,503.2,1109.1,507,1109.1z M507.3,1110.6c-2.9,0-5.1,2-5.1,5.5c0,3.5,2.2,5.5,5.1,5.5c2.8,0,5.1-2.1,5.1-5.5
		S510.1,1110.6,507.3,1110.6z"/>
	<path class="st16" d="M524.1,1123.2c-3.9,0-6.8-2.7-6.8-7.1c0-4.4,3-7.1,6.9-7.1c3.9,0,6.9,2.7,6.9,7.1
		C531,1120.5,528,1123.2,524.1,1123.2z M524.1,1121.7c2.6,0,5.1-1.8,5.1-5.5c0-3.8-2.5-5.5-5.1-5.5s-5,1.8-5,5.5
		C519.1,1119.9,521.5,1121.7,524.1,1121.7z"/>
	<path class="st16" d="M536,1123h-1.8v-13.7h1.8v2.4c0.8-1.7,2.3-2.7,4.7-2.7v1.8h-0.5c-2.3,0-4.2,1-4.2,4.5V1123z"/>
	<path class="st16" d="M543,1120.1h2l-2.6,6.6h-1.2L543,1120.1z"/>
	<path class="st16" d="M559.3,1123.2c-3.1,0-5.3-1.6-5.5-4.1h1.8c0.2,1.5,1.5,2.6,3.7,2.6c2,0,3.1-1.1,3.1-2.4
		c0-3.4-8.2-1.4-8.2-6.6c0-2,1.9-3.7,4.8-3.7c2.9,0,4.9,1.6,5,4.2h-1.8c-0.1-1.5-1.2-2.7-3.3-2.7c-1.8,0-3,1-3,2.2
		c0,3.7,8.1,1.7,8.2,6.6C564,1121.6,562.1,1123.2,559.3,1123.2z"/>
	<path class="st16" d="M573.3,1123.2c-3.9,0-6.7-2.7-6.7-7.1c0-4.4,2.8-7.1,6.7-7.1c4,0,6.5,2.9,6.5,6.4c0,0.6,0,0.9-0.1,1.4h-11.4
		c0.2,3.2,2.4,4.9,4.9,4.9c2.3,0,3.9-1.2,4.4-3.1h1.9C578.9,1121.3,576.7,1123.2,573.3,1123.2z M568.3,1115.4h9.6
		c0.1-3.2-2.2-4.8-4.8-4.8C570.7,1110.6,568.5,1112.2,568.3,1115.4z"/>
	<path class="st16" d="M589.8,1104.4h1.8v7.2c0.9-1.7,2.7-2.6,4.8-2.6c3,0,5.5,1.9,5.5,5.9v8h-1.7v-7.8c0-3-1.7-4.6-4.2-4.6
		c-2.6,0-4.3,1.6-4.3,4.9v7.5h-1.8V1104.4z"/>
	<path class="st16" d="M611.5,1109.1c2.8,0,4.6,1.5,5.4,3.2v-3h1.8v13.7h-1.8v-3c-0.8,1.8-2.7,3.2-5.4,3.2c-3.7,0-6.5-2.8-6.5-7.1
		C604.9,1111.8,607.7,1109.1,611.5,1109.1z M611.8,1110.6c-2.9,0-5.1,2-5.1,5.5c0,3.5,2.2,5.5,5.1,5.5c2.8,0,5.1-2.1,5.1-5.5
		S614.6,1110.6,611.8,1110.6z"/>
	<path class="st16" d="M628.5,1109.1c3.4,0,5.7,1.8,6.3,4.7h-1.9c-0.5-2-2.1-3.2-4.4-3.2c-2.7,0-4.9,1.8-4.9,5.5s2.2,5.6,4.9,5.6
		c2.3,0,3.9-1.2,4.4-3.2h1.9c-0.6,2.7-2.9,4.7-6.3,4.7c-3.9,0-6.7-2.7-6.7-7.1S624.6,1109.1,628.5,1109.1z"/>
	<path class="st16" d="M644,1123.2c-3.9,0-6.7-2.7-6.7-7.1c0-4.4,2.8-7.1,6.7-7.1c4,0,6.5,2.9,6.5,6.4c0,0.6,0,0.9-0.1,1.4H639
		c0.2,3.2,2.4,4.9,4.9,4.9c2.3,0,3.9-1.2,4.4-3.1h1.9C649.6,1121.3,647.4,1123.2,644,1123.2z M639,1115.4h9.6
		c0.1-3.2-2.2-4.8-4.8-4.8C641.4,1110.6,639.2,1112.2,639,1115.4z"/>
	<path class="st16" d="M663.9,1115.2c0-3-1.7-4.6-4.2-4.6c-2.6,0-4.3,1.6-4.3,4.9v7.5h-1.8v-13.7h1.8v2.3c0.9-1.7,2.6-2.6,4.7-2.6
		c3.1,0,5.6,1.9,5.6,5.9v8h-1.7V1115.2z"/>
	<path class="st16" d="M682.3,1109.1c3.4,0,5.7,1.8,6.3,4.7h-1.9c-0.5-2-2.1-3.2-4.4-3.2c-2.7,0-4.9,1.8-4.9,5.5s2.2,5.6,4.9,5.6
		c2.3,0,3.9-1.2,4.4-3.2h1.9c-0.6,2.7-2.9,4.7-6.3,4.7c-3.9,0-6.7-2.7-6.7-7.1S678.4,1109.1,682.3,1109.1z"/>
	<path class="st16" d="M697.6,1109.1c2.8,0,4.6,1.5,5.4,3.2v-3h1.8v13.7H703v-3c-0.8,1.8-2.7,3.2-5.4,3.2c-3.7,0-6.5-2.8-6.5-7.1
		C691,1111.8,693.8,1109.1,697.6,1109.1z M697.9,1110.6c-2.9,0-5.1,2-5.1,5.5c0,3.5,2.2,5.5,5.1,5.5c2.8,0,5.1-2.1,5.1-5.5
		S700.7,1110.6,697.9,1110.6z"/>
	<path class="st16" d="M710.5,1123h-1.8v-13.7h1.8v2.4c0.8-1.7,2.3-2.7,4.7-2.7v1.8h-0.5c-2.3,0-4.2,1-4.2,4.5V1123z"/>
	<path class="st16" d="M723.6,1109.1c2.7,0,4.6,1.5,5.4,3.2v-3h1.8v14.1c0,3.8-2.6,6.4-6.4,6.4c-3.5,0-6-1.8-6.6-4.7h1.7
		c0.6,1.9,2.3,3.1,4.8,3.1c2.6,0,4.6-1.7,4.6-4.8v-3.4c-0.8,1.8-2.7,3.2-5.4,3.2c-3.8,0-6.6-2.8-6.6-7.1
		C717,1111.8,719.8,1109.1,723.6,1109.1z M723.9,1110.6c-2.9,0-5.1,2-5.1,5.5c0,3.5,2.2,5.5,5.1,5.5c2.8,0,5.1-2.1,5.1-5.5
		S726.7,1110.6,723.9,1110.6z"/>
	<path class="st16" d="M740.8,1123.2c-3.9,0-6.8-2.7-6.8-7.1c0-4.4,3-7.1,6.9-7.1c3.9,0,6.9,2.7,6.9,7.1
		C747.7,1120.5,744.6,1123.2,740.8,1123.2z M740.8,1121.7c2.6,0,5.1-1.8,5.1-5.5c0-3.8-2.5-5.5-5.1-5.5s-5,1.8-5,5.5
		C735.8,1119.9,738.2,1121.7,740.8,1121.7z"/>
	<path class="st16" d="M763.5,1109.1c2.5,0,4.5,1.4,5.4,3.2v-7.8h1.8v18.6h-1.8v-3.1c-0.8,1.8-2.7,3.3-5.4,3.3
		c-3.8,0-6.6-2.8-6.6-7.1C757,1111.8,759.8,1109.1,763.5,1109.1z M763.8,1110.6c-2.9,0-5.1,2-5.1,5.5c0,3.5,2.2,5.5,5.1,5.5
		c2.8,0,5.1-2.1,5.1-5.5S766.7,1110.6,763.8,1110.6z"/>
	<path class="st16" d="M780.6,1123.2c-3.9,0-6.7-2.7-6.7-7.1c0-4.4,2.8-7.1,6.7-7.1c4,0,6.5,2.9,6.5,6.4c0,0.6,0,0.9-0.1,1.4h-11.4
		c0.2,3.2,2.4,4.9,4.9,4.9c2.3,0,3.9-1.2,4.4-3.1h1.9C786.3,1121.3,784.1,1123.2,780.6,1123.2z M775.7,1115.4h9.6
		c0.1-3.2-2.2-4.8-4.8-4.8C778.1,1110.6,775.9,1112.2,775.7,1115.4z"/>
	<path class="st16" d="M790.3,1104.4h1.8v18.6h-1.8V1104.4z"/>
	<path class="st16" d="M823,1115.2c0-3-1.6-4.6-4-4.6c-2.5,0-4.2,1.7-4.2,5v7.4H813v-7.8c0-3-1.6-4.6-4-4.6c-2.5,0-4.2,1.7-4.2,5
		v7.4H803v-13.7h1.8v2.4c0.9-1.7,2.6-2.6,4.5-2.6c2.3,0,4.2,1.1,5.1,3.4c0.8-2.2,2.8-3.4,4.9-3.4c3,0,5.4,1.9,5.4,5.9v8H823V1115.2z
		"/>
	<path class="st16" d="M834.4,1109.1c2.8,0,4.6,1.5,5.4,3.2v-3h1.8v13.7h-1.8v-3c-0.8,1.8-2.7,3.2-5.4,3.2c-3.7,0-6.5-2.8-6.5-7.1
		C827.8,1111.8,830.6,1109.1,834.4,1109.1z M834.7,1110.6c-2.9,0-5.1,2-5.1,5.5c0,3.5,2.2,5.5,5.1,5.5c2.8,0,5.1-2.1,5.1-5.5
		S837.5,1110.6,834.7,1110.6z"/>
	<path class="st16" d="M845.5,1104.4h1.8v18.6h-1.8V1104.4z"/>
	<path class="st16" d="M870,1123h-1.8v-2.4c-0.8,1.7-2.6,2.6-4.7,2.6c-3.1,0-5.6-1.9-5.6-5.9v-8h1.7v7.8c0,3,1.7,4.6,4.2,4.6
		c2.6,0,4.3-1.6,4.3-4.9v-7.5h1.8V1123z"/>
	<path class="st16" d="M878.8,1123.2c-3.1,0-5.3-1.6-5.5-4.1h1.8c0.2,1.5,1.5,2.6,3.7,2.6c2,0,3.1-1.1,3.1-2.4
		c0-3.4-8.2-1.4-8.2-6.6c0-2,1.9-3.7,4.8-3.7c2.9,0,4.9,1.6,5,4.2h-1.8c-0.1-1.5-1.2-2.7-3.3-2.7c-1.8,0-3,1-3,2.2
		c0,3.7,8.1,1.7,8.2,6.6C883.5,1121.6,881.6,1123.2,878.8,1123.2z"/>
	<path class="st16" d="M892.9,1123.2c-3.9,0-6.8-2.7-6.8-7.1c0-4.4,3-7.1,6.9-7.1c3.9,0,6.9,2.7,6.9,7.1
		C899.8,1120.5,896.7,1123.2,892.9,1123.2z M892.9,1121.7c2.6,0,5.1-1.8,5.1-5.5c0-3.8-2.5-5.5-5.1-5.5s-5,1.8-5,5.5
		C887.8,1119.9,890.3,1121.7,892.9,1121.7z"/>
	<path class="st16" d="M915.6,1109.1c2.5,0,4.5,1.4,5.4,3.2v-7.8h1.8v18.6H921v-3.1c-0.8,1.8-2.7,3.3-5.4,3.3
		c-3.8,0-6.6-2.8-6.6-7.1C909,1111.8,911.8,1109.1,915.6,1109.1z M915.9,1110.6c-2.9,0-5.1,2-5.1,5.5c0,3.5,2.2,5.5,5.1,5.5
		c2.8,0,5.1-2.1,5.1-5.5S918.7,1110.6,915.9,1110.6z"/>
	<path class="st16" d="M932.7,1123.2c-3.9,0-6.7-2.7-6.7-7.1c0-4.4,2.8-7.1,6.7-7.1c4,0,6.5,2.9,6.5,6.4c0,0.6,0,0.9-0.1,1.4h-11.4
		c0.2,3.2,2.4,4.9,4.9,4.9c2.3,0,3.9-1.2,4.4-3.1h1.9C938.4,1121.3,936.2,1123.2,932.7,1123.2z M927.8,1115.4h9.6
		c0.1-3.2-2.2-4.8-4.8-4.8C930.2,1110.6,928,1112.2,927.8,1115.4z"/>
	<path class="st16" d="M942.4,1104.4h1.8v18.6h-1.8V1104.4z"/>
	<path class="st16" d="M975.1,1115.2c0-3-1.6-4.6-4-4.6c-2.5,0-4.2,1.7-4.2,5v7.4h-1.7v-7.8c0-3-1.6-4.6-4-4.6c-2.5,0-4.2,1.7-4.2,5
		v7.4H955v-13.7h1.8v2.4c0.9-1.7,2.6-2.6,4.5-2.6c2.3,0,4.2,1.1,5.1,3.4c0.8-2.2,2.8-3.4,4.9-3.4c3,0,5.4,1.9,5.4,5.9v8h-1.7V1115.2
		z"/>
	<path class="st16" d="M980.3,1105.4c0-0.8,0.6-1.3,1.3-1.3s1.3,0.5,1.3,1.3s-0.6,1.3-1.3,1.3S980.3,1106.2,980.3,1105.4z
		 M980.7,1109.3h1.8v13.7h-1.8V1109.3z"/>
	<path class="st16" d="M991.1,1123.2c-3.1,0-5.3-1.6-5.5-4.1h1.8c0.2,1.5,1.5,2.6,3.7,2.6c2,0,3.1-1.1,3.1-2.4
		c0-3.4-8.2-1.4-8.2-6.6c0-2,1.9-3.7,4.8-3.7c2.9,0,4.9,1.6,5,4.2H994c-0.1-1.5-1.2-2.7-3.3-2.7c-1.8,0-3,1-3,2.2
		c0,3.7,8.1,1.7,8.2,6.6C995.9,1121.6,994,1123.2,991.1,1123.2z"/>
	<path class="st16" d="M1019.3,1115.2c0-3-1.6-4.6-4-4.6c-2.5,0-4.2,1.7-4.2,5v7.4h-1.7v-7.8c0-3-1.6-4.6-4-4.6
		c-2.5,0-4.2,1.7-4.2,5v7.4h-1.8v-13.7h1.8v2.4c0.9-1.7,2.6-2.6,4.5-2.6c2.3,0,4.2,1.1,5.1,3.4c0.8-2.2,2.8-3.4,4.9-3.4
		c3,0,5.4,1.9,5.4,5.9v8h-1.7V1115.2z"/>
	<path class="st16" d="M1030.9,1123.2c-3.9,0-6.8-2.7-6.8-7.1c0-4.4,3-7.1,6.9-7.1c3.9,0,6.9,2.7,6.9,7.1
		C1037.8,1120.5,1034.7,1123.2,1030.9,1123.2z M1030.9,1121.7c2.6,0,5.1-1.8,5.1-5.5c0-3.8-2.5-5.5-5.1-5.5s-5,1.8-5,5.5
		C1025.9,1119.9,1028.3,1121.7,1030.9,1121.7z"/>
	<path class="st16" d="M1041.3,1123.1c-0.7,0-1.3-0.6-1.3-1.3s0.6-1.3,1.3-1.3c0.7,0,1.3,0.6,1.3,1.3S1042,1123.1,1041.3,1123.1z"/>
</g>
<g class="st23">
	<path class="st16" d="M174.9,1143.5h-3.5v7.5h-1.8v-17.5h5.3c4.1,0,5.9,2.2,5.9,5C180.8,1141.4,179,1143.5,174.9,1143.5z
		 M174.9,1142c3,0,4.1-1.4,4.1-3.5c0-2.3-1.2-3.6-4.1-3.6h-3.5v7.1H174.9z"/>
	<path class="st16" d="M195.6,1151h-1.8v-2.4c-0.8,1.7-2.6,2.6-4.7,2.6c-3.1,0-5.6-1.9-5.6-5.9v-8h1.7v7.8c0,3,1.7,4.6,4.2,4.6
		c2.6,0,4.3-1.6,4.3-4.9v-7.5h1.8V1151z"/>
	<path class="st16" d="M205.5,1151.2c-3.9,0-6.7-2.7-6.7-7.1c0-4.4,2.8-7.1,6.7-7.1c4,0,6.5,2.9,6.5,6.4c0,0.6,0,0.9-0.1,1.4h-11.4
		c0.2,3.2,2.4,4.9,4.9,4.9c2.3,0,3.9-1.2,4.4-3.1h1.9C211.2,1149.3,209,1151.2,205.5,1151.2z M200.6,1143.4h9.6
		c0.1-3.2-2.2-4.8-4.8-4.8C203,1138.6,200.8,1140.2,200.6,1143.4z"/>
	<path class="st16" d="M221,1137.1c2.5,0,4.5,1.4,5.4,3.2v-7.8h1.8v18.6h-1.8v-3.1c-0.8,1.8-2.7,3.3-5.4,3.3c-3.8,0-6.6-2.8-6.6-7.1
		C214.4,1139.8,217.2,1137.1,221,1137.1z M221.3,1138.6c-2.9,0-5.1,2-5.1,5.5c0,3.5,2.2,5.5,5.1,5.5c2.8,0,5.1-2.1,5.1-5.5
		S224.1,1138.6,221.3,1138.6z"/>
	<path class="st16" d="M238.1,1151.2c-3.9,0-6.7-2.7-6.7-7.1c0-4.4,2.8-7.1,6.7-7.1c4,0,6.5,2.9,6.5,6.4c0,0.6,0,0.9-0.1,1.4h-11.4
		c0.2,3.2,2.4,4.9,4.9,4.9c2.3,0,3.9-1.2,4.4-3.1h1.9C243.7,1149.3,241.5,1151.2,238.1,1151.2z M233.1,1143.4h9.6
		c0.1-3.2-2.2-4.8-4.8-4.8C235.5,1138.6,233.3,1140.2,233.1,1143.4z"/>
	<path class="st16" d="M252.5,1151.2c-3.1,0-5.3-1.6-5.5-4.1h1.8c0.2,1.5,1.5,2.6,3.7,2.6c2,0,3.1-1.1,3.1-2.4
		c0-3.4-8.2-1.4-8.2-6.6c0-2,1.9-3.7,4.8-3.7c2.9,0,4.9,1.6,5,4.2h-1.8c-0.1-1.5-1.2-2.7-3.3-2.7c-1.8,0-3,1-3,2.2
		c0,3.7,8.1,1.7,8.2,6.6C257.3,1149.6,255.3,1151.2,252.5,1151.2z"/>
	<path class="st16" d="M273.4,1151.2c-3.9,0-6.7-2.7-6.7-7.1c0-4.4,2.8-7.1,6.7-7.1c4,0,6.5,2.9,6.5,6.4c0,0.6,0,0.9-0.1,1.4h-11.4
		c0.2,3.2,2.4,4.9,4.9,4.9c2.3,0,3.9-1.2,4.4-3.1h1.9C279,1149.3,276.8,1151.2,273.4,1151.2z M268.4,1143.4h9.6
		c0.1-3.2-2.2-4.8-4.8-4.8C270.8,1138.6,268.6,1140.2,268.4,1143.4z"/>
	<path class="st16" d="M287.8,1151.2c-3.1,0-5.3-1.6-5.5-4.1h1.8c0.2,1.5,1.5,2.6,3.7,2.6c2,0,3.1-1.1,3.1-2.4
		c0-3.4-8.2-1.4-8.2-6.6c0-2,1.9-3.7,4.8-3.7c2.9,0,4.9,1.6,5,4.2h-1.8c-0.1-1.5-1.2-2.7-3.3-2.7c-1.8,0-3,1-3,2.2
		c0,3.7,8.1,1.7,8.2,6.6C292.5,1149.6,290.6,1151.2,287.8,1151.2z"/>
	<path class="st16" d="M301.7,1137.1c3.4,0,5.7,1.8,6.3,4.7h-1.9c-0.5-2-2.1-3.2-4.4-3.2c-2.7,0-4.9,1.8-4.9,5.5s2.2,5.6,4.9,5.6
		c2.3,0,3.9-1.2,4.4-3.2h1.9c-0.6,2.7-2.9,4.7-6.3,4.7c-3.9,0-6.7-2.7-6.7-7.1S297.8,1137.1,301.7,1137.1z"/>
	<path class="st16" d="M317,1137.1c2.8,0,4.6,1.5,5.4,3.2v-3h1.8v13.7h-1.8v-3c-0.8,1.8-2.7,3.2-5.4,3.2c-3.7,0-6.5-2.8-6.5-7.1
		C310.4,1139.8,313.2,1137.1,317,1137.1z M317.3,1138.6c-2.9,0-5.1,2-5.1,5.5c0,3.5,2.2,5.5,5.1,5.5c2.8,0,5.1-2.1,5.1-5.5
		S320.1,1138.6,317.3,1138.6z"/>
	<path class="st16" d="M338.5,1143.2c0-3-1.7-4.6-4.2-4.6c-2.6,0-4.3,1.6-4.3,4.9v7.5h-1.8v-13.7h1.8v2.3c0.9-1.7,2.6-2.6,4.7-2.6
		c3.1,0,5.6,1.9,5.6,5.9v8h-1.7V1143.2z"/>
	<path class="st16" d="M350,1151.2c-3.9,0-6.7-2.7-6.7-7.1c0-4.4,2.8-7.1,6.7-7.1c4,0,6.5,2.9,6.5,6.4c0,0.6,0,0.9-0.1,1.4h-11.4
		c0.2,3.2,2.4,4.9,4.9,4.9c2.3,0,3.9-1.2,4.4-3.1h1.9C355.6,1149.3,353.4,1151.2,350,1151.2z M345.1,1143.4h9.6
		c0.1-3.2-2.2-4.8-4.8-4.8C347.4,1138.6,345.3,1140.2,345.1,1143.4z"/>
	<path class="st16" d="M365.4,1137.1c2.8,0,4.6,1.5,5.4,3.2v-3h1.8v13.7h-1.8v-3c-0.8,1.8-2.7,3.2-5.4,3.2c-3.7,0-6.5-2.8-6.5-7.1
		C358.9,1139.8,361.7,1137.1,365.4,1137.1z M365.8,1138.6c-2.9,0-5.1,2-5.1,5.5c0,3.5,2.2,5.5,5.1,5.5c2.8,0,5.1-2.1,5.1-5.5
		S368.6,1138.6,365.8,1138.6z"/>
	<path class="st16" d="M378.4,1151h-1.8v-13.7h1.8v2.4c0.8-1.7,2.3-2.7,4.7-2.7v1.8h-0.5c-2.3,0-4.2,1-4.2,4.5V1151z"/>
	<path class="st16" d="M393.1,1138.8h-1.9v-1.5h1.9v-3.4h1.8v3.4h3.8v1.5h-3.8v8.5c0,1.7,0.6,2.2,2.2,2.2h1.6v1.5h-1.9
		c-2.4,0-3.7-1-3.7-3.7V1138.8z"/>
	<path class="st16" d="M413.4,1151h-1.8v-2.4c-0.8,1.7-2.6,2.6-4.7,2.6c-3.1,0-5.6-1.9-5.6-5.9v-8h1.7v7.8c0,3,1.7,4.6,4.2,4.6
		c2.6,0,4.3-1.6,4.3-4.9v-7.5h1.8V1151z"/>
	<path class="st16" d="M431.5,1137.1c3.7,0,6.5,2.7,6.5,7c0,4.3-2.8,7.1-6.5,7.1c-2.7,0-4.6-1.5-5.4-3.2v9.5h-1.7v-20.2h1.7v3
		C426.8,1138.6,428.7,1137.1,431.5,1137.1z M431.1,1138.6c-2.8,0-5.1,2.1-5.1,5.5s2.3,5.5,5.1,5.5c2.9,0,5.1-2.1,5.1-5.5
		C436.2,1140.7,434,1138.6,431.1,1138.6z"/>
	<path class="st16" d="M447,1137.1c2.8,0,4.6,1.5,5.4,3.2v-3h1.8v13.7h-1.8v-3c-0.8,1.8-2.7,3.2-5.4,3.2c-3.7,0-6.5-2.8-6.5-7.1
		C440.4,1139.8,443.2,1137.1,447,1137.1z M447.3,1138.6c-2.9,0-5.1,2-5.1,5.5c0,3.5,2.2,5.5,5.1,5.5c2.8,0,5.1-2.1,5.1-5.5
		S450.1,1138.6,447.3,1138.6z"/>
	<path class="st16" d="M468.4,1143.2c0-3-1.7-4.6-4.2-4.6c-2.6,0-4.3,1.6-4.3,4.9v7.5h-1.8v-13.7h1.8v2.3c0.9-1.7,2.6-2.6,4.7-2.6
		c3.1,0,5.6,1.9,5.6,5.9v8h-1.7V1143.2z"/>
	<path class="st16" d="M474.6,1138.8h-1.9v-1.5h1.9v-3.4h1.8v3.4h3.8v1.5h-3.8v8.5c0,1.7,0.6,2.2,2.2,2.2h1.6v1.5h-1.9
		c-2.4,0-3.7-1-3.7-3.7V1138.8z"/>
	<path class="st16" d="M488.8,1137.1c2.8,0,4.6,1.5,5.4,3.2v-3h1.8v13.7h-1.8v-3c-0.8,1.8-2.7,3.2-5.4,3.2c-3.7,0-6.5-2.8-6.5-7.1
		C482.2,1139.8,485,1137.1,488.8,1137.1z M489.1,1138.6c-2.9,0-5.1,2-5.1,5.5c0,3.5,2.2,5.5,5.1,5.5c2.8,0,5.1-2.1,5.1-5.5
		S491.9,1138.6,489.1,1138.6z"/>
	<path class="st16" d="M499.9,1132.4h1.8v18.6h-1.8V1132.4z"/>
	<path class="st16" d="M505.7,1132.4h1.8v18.6h-1.8V1132.4z"/>
	<path class="st16" d="M517.2,1137.1c2.8,0,4.6,1.5,5.4,3.2v-3h1.8v13.7h-1.8v-3c-0.8,1.8-2.7,3.2-5.4,3.2c-3.7,0-6.5-2.8-6.5-7.1
		C510.6,1139.8,513.4,1137.1,517.2,1137.1z M517.5,1138.6c-2.9,0-5.1,2-5.1,5.5c0,3.5,2.2,5.5,5.1,5.5c2.8,0,5.1-2.1,5.1-5.5
		S520.3,1138.6,517.5,1138.6z"/>
	<path class="st16" d="M541.3,1151.2c-3.9,0-6.8-2.7-6.8-7.1c0-4.4,3-7.1,6.9-7.1c3.9,0,6.9,2.7,6.9,7.1
		C548.2,1148.5,545.1,1151.2,541.3,1151.2z M541.3,1149.7c2.6,0,5.1-1.8,5.1-5.5c0-3.8-2.5-5.5-5.1-5.5s-5,1.8-5,5.5
		C536.2,1147.9,538.6,1149.7,541.3,1149.7z"/>
	<path class="st16" d="M558.5,1137.3l4.6,12l4.6-12h1.9l-5.5,13.7h-2l-5.5-13.7H558.5z"/>
	<path class="st16" d="M578,1151.2c-3.9,0-6.8-2.7-6.8-7.1c0-4.4,3-7.1,6.9-7.1c3.9,0,6.9,2.7,6.9,7.1
		C584.9,1148.5,581.8,1151.2,578,1151.2z M578,1149.7c2.6,0,5.1-1.8,5.1-5.5c0-3.8-2.5-5.5-5.1-5.5s-5,1.8-5,5.5
		C573,1147.9,575.4,1149.7,578,1149.7z"/>
	<path class="st16" d="M588.1,1132.4h1.8v18.6h-1.8V1132.4z"/>
	<path class="st16" d="M594.1,1137.3l4.6,12l4.6-12h1.9l-5.5,13.7h-2l-5.5-13.7H594.1z"/>
	<path class="st16" d="M613.5,1151.2c-3.9,0-6.7-2.7-6.7-7.1c0-4.4,2.8-7.1,6.7-7.1c4,0,6.5,2.9,6.5,6.4c0,0.6,0,0.9-0.1,1.4h-11.4
		c0.2,3.2,2.4,4.9,4.9,4.9c2.3,0,3.9-1.2,4.4-3.1h1.9C619.1,1149.3,616.9,1151.2,613.5,1151.2z M608.6,1143.4h9.6
		c0.1-3.2-2.2-4.8-4.8-4.8C610.9,1138.6,608.8,1140.2,608.6,1143.4z"/>
	<path class="st16" d="M624.9,1151h-1.8v-13.7h1.8v2.4c0.8-1.7,2.3-2.7,4.7-2.7v1.8h-0.5c-2.3,0-4.2,1-4.2,4.5V1151z"/>
	<path class="st16" d="M644.9,1137.1c2.8,0,4.6,1.5,5.4,3.2v-3h1.8v13.7h-1.8v-3c-0.8,1.8-2.7,3.2-5.4,3.2c-3.7,0-6.5-2.8-6.5-7.1
		C638.3,1139.8,641.1,1137.1,644.9,1137.1z M645.2,1138.6c-2.9,0-5.1,2-5.1,5.5c0,3.5,2.2,5.5,5.1,5.5c2.8,0,5.1-2.1,5.1-5.5
		S648,1138.6,645.2,1138.6z"/>
	<path class="st16" d="M662.6,1133.4c0-0.8,0.6-1.3,1.3-1.3s1.3,0.5,1.3,1.3s-0.6,1.3-1.3,1.3S662.6,1134.2,662.6,1133.4z
		 M663,1137.3h1.8v13.7H663V1137.3z"/>
	<path class="st16" d="M679,1143.2c0-3-1.7-4.6-4.2-4.6c-2.6,0-4.3,1.6-4.3,4.9v7.5h-1.8v-13.7h1.8v2.3c0.9-1.7,2.6-2.6,4.7-2.6
		c3.1,0,5.6,1.9,5.6,5.9v8H679V1143.2z"/>
	<path class="st16" d="M690.3,1137.1c2.7,0,4.6,1.5,5.4,3.2v-3h1.8v14.1c0,3.8-2.6,6.4-6.4,6.4c-3.5,0-6-1.8-6.6-4.7h1.7
		c0.6,1.9,2.3,3.1,4.8,3.1c2.6,0,4.6-1.7,4.6-4.8v-3.4c-0.8,1.8-2.7,3.2-5.4,3.2c-3.8,0-6.6-2.8-6.6-7.1
		C683.8,1139.8,686.6,1137.1,690.3,1137.1z M690.7,1138.6c-2.9,0-5.1,2-5.1,5.5c0,3.5,2.2,5.5,5.1,5.5c2.8,0,5.1-2.1,5.1-5.5
		S693.5,1138.6,690.7,1138.6z"/>
	<path class="st16" d="M703.3,1151h-1.8v-13.7h1.8v2.4c0.8-1.7,2.3-2.7,4.7-2.7v1.8h-0.5c-2.3,0-4.2,1-4.2,4.5V1151z"/>
	<path class="st16" d="M716.6,1151.2c-3.9,0-6.7-2.7-6.7-7.1c0-4.4,2.8-7.1,6.7-7.1c4,0,6.5,2.9,6.5,6.4c0,0.6,0,0.9-0.1,1.4h-11.4
		c0.2,3.2,2.4,4.9,4.9,4.9c2.3,0,3.9-1.2,4.4-3.1h1.9C722.2,1149.3,720,1151.2,716.6,1151.2z M711.6,1143.4h9.6
		c0.1-3.2-2.2-4.8-4.8-4.8C714,1138.6,711.8,1140.2,711.6,1143.4z"/>
	<path class="st16" d="M731,1151.2c-3.1,0-5.3-1.6-5.5-4.1h1.8c0.2,1.5,1.5,2.6,3.7,2.6c2,0,3.1-1.1,3.1-2.4c0-3.4-8.2-1.4-8.2-6.6
		c0-2,1.9-3.7,4.8-3.7c2.9,0,4.9,1.6,5,4.2h-1.8c-0.1-1.5-1.2-2.7-3.3-2.7c-1.8,0-3,1-3,2.2c0,3.7,8.1,1.7,8.2,6.6
		C735.7,1149.6,733.8,1151.2,731,1151.2z"/>
	<path class="st16" d="M744.8,1137.1c2.8,0,4.6,1.5,5.4,3.2v-3h1.8v13.7h-1.8v-3c-0.8,1.8-2.7,3.2-5.4,3.2c-3.7,0-6.5-2.8-6.5-7.1
		C738.2,1139.8,741,1137.1,744.8,1137.1z M745.1,1138.6c-2.9,0-5.1,2-5.1,5.5c0,3.5,2.2,5.5,5.1,5.5c2.8,0,5.1-2.1,5.1-5.5
		S747.9,1138.6,745.1,1138.6z"/>
	<path class="st16" d="M757.7,1151H756v-13.7h1.8v2.4c0.8-1.7,2.3-2.7,4.7-2.7v1.8H762c-2.3,0-4.2,1-4.2,4.5V1151z"/>
	<path class="st16" d="M777.7,1137.1c2.8,0,4.6,1.5,5.4,3.2v-3h1.8v13.7h-1.8v-3c-0.8,1.8-2.7,3.2-5.4,3.2c-3.7,0-6.5-2.8-6.5-7.1
		C771.1,1139.8,773.9,1137.1,777.7,1137.1z M778,1138.6c-2.9,0-5.1,2-5.1,5.5c0,3.5,2.2,5.5,5.1,5.5c2.8,0,5.1-2.1,5.1-5.5
		S780.8,1138.6,778,1138.6z"/>
	<path class="st16" d="M795.8,1132.4h1.8v18.6h-1.8V1132.4z"/>
	<path class="st16" d="M807.3,1137.1c2.8,0,4.6,1.5,5.4,3.2v-3h1.8v13.7h-1.8v-3c-0.8,1.8-2.7,3.2-5.4,3.2c-3.7,0-6.5-2.8-6.5-7.1
		C800.7,1139.8,803.5,1137.1,807.3,1137.1z M807.6,1138.6c-2.9,0-5.1,2-5.1,5.5c0,3.5,2.2,5.5,5.1,5.5c2.8,0,5.1-2.1,5.1-5.5
		S810.4,1138.6,807.6,1138.6z"/>
	<path class="st16" d="M825.3,1133.5h1.8v11c0,3.6,1.9,5.1,4.6,5.1c2.7,0,4.6-1.5,4.6-5.1v-11h1.8v11c0,4.6-2.8,6.7-6.4,6.7
		s-6.4-2.1-6.4-6.7V1133.5z"/>
	<path class="st16" d="M847.2,1133.5c4.1,0,6,2.2,6,5.1c0,2.4-1.4,4.4-4.3,5l4.5,7.5h-2.1l-4.3-7.3h-3.2v7.3h-1.8v-17.5H847.2z
		 M847.2,1135h-3.5v7.3h3.5c2.9,0,4.1-1.6,4.1-3.7C851.4,1136.4,850.2,1135,847.2,1135z"/>
	<path class="st16" d="M858.4,1133.5v16.1h6.3v1.4h-8.1v-17.5H858.4z"/>
	<path class="st16" d="M881.3,1137.1c3.7,0,6.5,2.7,6.5,7c0,4.3-2.8,7.1-6.5,7.1c-2.7,0-4.6-1.5-5.4-3.2v9.5h-1.7v-20.2h1.7v3
		C876.6,1138.6,878.5,1137.1,881.3,1137.1z M880.9,1138.6c-2.8,0-5.1,2.1-5.1,5.5s2.3,5.5,5.1,5.5c2.9,0,5.1-2.1,5.1-5.5
		C886,1140.7,883.8,1138.6,880.9,1138.6z"/>
	<path class="st16" d="M896.8,1137.1c2.8,0,4.6,1.5,5.4,3.2v-3h1.8v13.7h-1.8v-3c-0.8,1.8-2.7,3.2-5.4,3.2c-3.7,0-6.5-2.8-6.5-7.1
		C890.2,1139.8,893,1137.1,896.8,1137.1z M897.1,1138.6c-2.9,0-5.1,2-5.1,5.5c0,3.5,2.2,5.5,5.1,5.5c2.8,0,5.1-2.1,5.1-5.5
		S899.9,1138.6,897.1,1138.6z"/>
	<path class="st16" d="M909.7,1151H908v-13.7h1.8v2.4c0.8-1.7,2.3-2.7,4.7-2.7v1.8H914c-2.3,0-4.2,1-4.2,4.5V1151z"/>
	<path class="st16" d="M922.8,1137.1c2.8,0,4.6,1.5,5.4,3.2v-3h1.8v13.7h-1.8v-3c-0.8,1.8-2.7,3.2-5.4,3.2c-3.7,0-6.5-2.8-6.5-7.1
		C916.3,1139.8,919.1,1137.1,922.8,1137.1z M923.1,1138.6c-2.9,0-5.1,2-5.1,5.5c0,3.5,2.2,5.5,5.1,5.5c2.8,0,5.1-2.1,5.1-5.5
		S926,1138.6,923.1,1138.6z"/>
	<path class="st16" d="M941.1,1137.3l4.6,12l4.6-12h1.9l-5.5,13.7h-2l-5.5-13.7H941.1z"/>
	<path class="st16" d="M954.2,1133.4c0-0.8,0.6-1.3,1.3-1.3s1.3,0.5,1.3,1.3s-0.6,1.3-1.3,1.3S954.2,1134.2,954.2,1133.4z
		 M954.6,1137.3h1.8v13.7h-1.8V1137.3z"/>
	<path class="st16" d="M965.1,1151.2c-3.1,0-5.3-1.6-5.5-4.1h1.8c0.2,1.5,1.5,2.6,3.7,2.6c2,0,3.1-1.1,3.1-2.4
		c0-3.4-8.2-1.4-8.2-6.6c0-2,1.9-3.7,4.8-3.7c2.9,0,4.9,1.6,5,4.2H968c-0.1-1.5-1.2-2.7-3.3-2.7c-1.8,0-3,1-3,2.2
		c0,3.7,8.1,1.7,8.2,6.6C969.9,1149.6,967.9,1151.2,965.1,1151.2z"/>
	<path class="st16" d="M985,1151h-1.8v-2.4c-0.8,1.7-2.6,2.6-4.7,2.6c-3.1,0-5.6-1.9-5.6-5.9v-8h1.7v7.8c0,3,1.7,4.6,4.2,4.6
		c2.6,0,4.3-1.6,4.3-4.9v-7.5h1.8V1151z"/>
	<path class="st16" d="M994.8,1137.1c2.8,0,4.6,1.5,5.4,3.2v-3h1.8v13.7h-1.8v-3c-0.8,1.8-2.7,3.2-5.4,3.2c-3.7,0-6.5-2.8-6.5-7.1
		C988.3,1139.8,991,1137.1,994.8,1137.1z M995.1,1138.6c-2.9,0-5.1,2-5.1,5.5c0,3.5,2.2,5.5,5.1,5.5c2.8,0,5.1-2.1,5.1-5.5
		S997.9,1138.6,995.1,1138.6z"/>
	<path class="st16" d="M1006,1132.4h1.8v18.6h-1.8V1132.4z"/>
	<path class="st16" d="M1011.3,1133.4c0-0.8,0.6-1.3,1.3-1.3s1.3,0.5,1.3,1.3s-0.6,1.3-1.3,1.3S1011.3,1134.2,1011.3,1133.4z
		 M1011.7,1137.3h1.8v13.7h-1.8V1137.3z"/>
	<path class="st16" d="M1025.5,1138.8l-7.1,10.8h7.2v1.5h-9.2v-1.5l7.1-10.8h-6.9v-1.5h8.9V1138.8z"/>
	<path class="st16" d="M1034.3,1137.1c2.8,0,4.6,1.5,5.4,3.2v-3h1.8v13.7h-1.8v-3c-0.8,1.8-2.7,3.2-5.4,3.2c-3.7,0-6.5-2.8-6.5-7.1
		C1027.8,1139.8,1030.5,1137.1,1034.3,1137.1z M1034.6,1138.6c-2.9,0-5.1,2-5.1,5.5c0,3.5,2.2,5.5,5.1,5.5c2.8,0,5.1-2.1,5.1-5.5
		S1037.5,1138.6,1034.6,1138.6z"/>
	<path class="st16" d="M1047.3,1151h-1.8v-13.7h1.8v2.4c0.8-1.7,2.3-2.7,4.7-2.7v1.8h-0.5c-2.3,0-4.2,1-4.2,4.5V1151z"/>
	<path class="st16" d="M1054.6,1132.4h1.8v18.6h-1.8V1132.4z"/>
	<path class="st16" d="M1066.3,1151.2c-3.9,0-6.8-2.7-6.8-7.1c0-4.4,3-7.1,6.9-7.1c3.9,0,6.9,2.7,6.9,7.1
		C1073.2,1148.5,1070.2,1151.2,1066.3,1151.2z M1066.3,1149.7c2.6,0,5.1-1.8,5.1-5.5c0-3.8-2.5-5.5-5.1-5.5s-5,1.8-5,5.5
		C1061.3,1147.9,1063.7,1149.7,1066.3,1149.7z"/>
</g>
<polygon class="st24" points="36.6,2165.5 1189.6,2165.5 1189.6,1314.6 1124.3,1256.9 1192.6,1200.1 1189.9,8.5 36.6,8.5 "/>
</svg>
