<?xml version="1.0" encoding="utf-8"?>
<!-- Generator: Adobe Illustrator 22.1.0, SVG Export Plug-In . SVG Version: 6.00 Build 0)  -->
<svg version="1.1" id="Capa_1" xmlns="http://www.w3.org/2000/svg" xmlns:xlink="http://www.w3.org/1999/xlink" x="0px" y="0px"
	 viewBox="0 0 1242 2208" style="enable-background:new 0 0 1242 2208;" xml:space="preserve">
<style type="text/css">
	.st0{fill:#808080;}
	.st1{fill:none;}
	.st2{fill:#FFF5D3;}
	.st3{fill:#E7AD4A;}
	.st4{clip-path:url(#SVGID_2_);}
	.st5{clip-path:url(#SVGID_4_);}
	.st6{clip-path:url(#SVGID_6_);}
	.st7{opacity:0.85;}
	.st8{font-family:'MonotypeCorsiva';}
	.st9{font-size:60px;}
	.st10{letter-spacing:2;}
	.st11{font-size:92.146px;}
	.st12{letter-spacing:3;}
	.st13{fill:#87877F;}
	.st14{font-size:61.4307px;}
	.st15{font-size:79.4156px;}
	.st16{font-size:63.5325px;}
</style>
<title>luciaconfirmacion-01</title>
<rect class="st0" width="1242" height="2208"/>
<rect class="st1" width="1242" height="2208"/>
<polyline class="st2" points="1242,1455.2 1242,0 1.9,0 1.9,2208 1242,2208 1242,1455.2 "/>
<g>
	<path class="st3" d="M576,2061c-2.3-1.9-4.9-3-7.8-2.6c-3.1,0.3-5.6,2.6-6.3,5.6c-0.9,3.4,0.2,7.2,2.9,8.9c2.9,2,5.9,1.7,8.9,0.2
		c0.2-0.1,0.5-0.3,0.7-0.5c0.7-0.1,1.3-1.9,2.2-0.2c0.6,1.2,1.7,2.2,0,3.5c-4.5,2.9-10.3,3-14.8,0.1c-3.9-2.8-5.7-8.6-4.1-13.6
		c1.5-4.9,6.1-8.1,11.2-7.9c2.3-0.1,4.5,0.4,6.5,1.5c2.3,1.3,2.4,1.5,1.3,3.8C576.4,2060.2,576.2,2060.6,576,2061"/>
	<path class="st3" d="M553.3,2071.7c2,3.5,1.9,3.9-1.6,5.6c-5.6,2.5-12.2,0.8-15.3-3.8c-3.3-5-2.6-11.7,1.7-15.9
		c3.8-3.6,11.5-3.9,15.5-0.8c1,0.8,0.8,3.5-0.3,4.1c-0.6,0.3-0.8-0.2-1.2-0.5c-1.9-1.5-4.3-2.1-6.7-1.9c-3,0.3-5.5,2.5-6.1,5.4
		c-0.8,3.5-0.2,6.7,2.7,8.9c2.9,2.2,6,1.7,9,0.2C551.8,2072.7,552.5,2072.2,553.3,2071.7"/>
	<path class="st3" d="M613.5,2078.3c-2.9,0-5.7-1-7.9-2.9c-1.3-1-0.6-1.7,0.1-2.7c0.7-0.9,1.3-1,2.2-0.2c1.9,1.7,4.4,2.4,6.8,2.1
		c1.5,0,2.8-1.1,3.1-2.5c0.3-1.6-0.7-2.7-2.1-3.2c-1.4-0.6-3.1-1.2-4.6-1.7c-3.8-1.5-5.6-3.9-5-7.1c0.6-3.1,3.4-5.3,7.3-5.4
		c2.6-0.2,5.1,0.5,7.2,2c1.6,1.2,0.2,1.9-0.2,2.8c-0.6,1.3-1.2,0.6-1.9,0.1c-1.5-1.1-3.4-1.6-5.2-1.5c-1.4,0.1-2.7,0.6-3,2.2
		c-0.3,1.4,0.6,2.7,2,3l0,0c1.4,0.6,2.9,1.2,4.4,1.6c4.1,1.5,5.9,3.9,5.4,7.1c-0.6,3.8-3.8,6.5-7.6,6.4
		C614.2,2078.2,613.9,2078.3,613.5,2078.3"/>
	<path class="st3" d="M633.2,2078.3c-2.9,0.1-5.8-1-8-2.9c-1.3-1-0.6-1.7,0.1-2.7c0.7-0.9,1.3-0.9,2.2-0.1c1.9,1.7,4.5,2.5,7.1,2.1
		c1.4-0.1,2.6-1.1,2.9-2.5c0.2-1.4-0.6-2.7-2-3.1c-1.6-0.7-3.4-1.3-5-1.9c-3.6-1.4-5.3-3.9-4.8-7.1c0.6-3.1,3.2-5.2,7-5.4
		c2.5-0.2,5,0.4,7.2,1.7c1.4,0.9,0.8,1.7,0.2,2.8c-0.6,1-1.3,0.8-2.1,0.2c-1.5-1.1-3.4-1.6-5.2-1.4c-1.4,0-2.6,0.9-2.9,2.3
		c-0.2,1.5,0.7,2.3,2,2.9c2.2,1,4.6,1.5,6.8,2.8c3,1.6,4.1,5.4,2.5,8.4c-0.2,0.3-0.4,0.6-0.6,0.9c-1.3,1.8-3.4,2.9-5.6,3
		L633.2,2078.3"/>
	<path class="st3" d="M530,2063.8c-0.1-3.9-1.5-7.3-5.7-8.6c-4-1.2-8.3-0.8-11.9,1.2c-1.5,0.7-0.2,1.5,0,2.3
		c0.2,0.8,0.5,1.3,1.5,0.8c1.9-1.1,4.1-1.6,6.3-1.5c2.4-0.1,4.6,1.6,5.1,3.9c0.3,1.5,0.1,2.4-1.7,2.4c-2.6-0.2-5.3,0.1-7.9,0.7
		c-3.6,1.2-5.7,3.8-5.3,7c0.4,3.5,3.3,6.2,6.8,6.4c3.1,0.3,5.7-0.7,8.5-3.2c-0.6,3.5,1.4,2.8,2.9,2.9c1.2,0.1,1.7-0.1,1.6-1.5
		C529.9,2072.1,530.1,2067.9,530,2063.8 M525.3,2070.3c0,2.1-1.4,3.7-4.1,4.5c-2.1,0.8-4.4,0.2-5.8-1.5c-1.2-1.6-0.9-3.9,0.7-5.1
		c0.4-0.3,0.9-0.5,1.4-0.6c1.3-0.4,2.8-0.6,4.2-0.5C525.3,2066.9,525.3,2066.9,525.3,2070.3"/>
	<path class="st3" d="M597.7,2056.2c-4.1-2.5-9.4-2.3-13.3,0.6c-3.9,2.9-5.4,8.5-3.8,13.7c3,9.9,15,9,20.1,5c0.8-0.7,0.6-1.2,0-1.7
		s-0.7-1.9-2.1-1c-1.3,0.8-2.7,1.5-4.2,1.9c-4.9,1.2-8.8-1.2-9.7-5.7c-0.2-1,0-1.3,1-1.3h15.1c0.7,0,1.2,0,1.4-1
		C602.8,2062.6,601,2058.5,597.7,2056.2 M596.2,2064.4c-1.6-0.1-3.2,0-5,0c-1.7,0-3.4-0.1-5,0c-1.6,0.1-1.6-0.6-1.3-1.7
		c0.8-2.7,3.1-4.6,5.9-4.8c2.9-0.2,5.6,1.5,6.6,4.3C598,2063.7,598,2064.5,596.2,2064.4"/>
	<g>
		<defs>
			<path id="SVGID_1_" d="M687.4,2049.3L687.4,2049.3l-0.1,0.1l0,0c-0.1,0.1-0.3,0.3-0.3,0.5l-0.7,0.7c-0.4,0.6-0.9,1.1-1.4,1.6l0,0
				l-0.1,0.1c0,0.1-0.1,0.1-0.1,0.1h0l0,0c-0.2,0.3-0.8,1.3-1.4,2.1c-0.1,0.2-0.3,0.6-0.5,0.8l0,0c-1.1,2.1-1.8,4.3-2.3,6.6h-9.5
				v11.5h9.3v6.1c-2.2,1.6-5,2.5-7.8,2.3c-3.6,0.1-7.1-1.3-9.7-3.8c-2.7-2.6-3.9-5.9-3.9-10.3c-0.1-3.8,1.4-7.6,4.2-10.2
				c3-2.7,6.9-4.1,10.9-3.9c1.5,0,3,0.1,4.5,0.5c1.5-3.7,3.9-6.9,7.1-9.4c-3.9-1.8-8.1-2.7-12.4-2.7c-7.9,0-14.4,2.4-19.5,7.2
				c-10.1,10-10.2,26.3-0.2,36.4c0.1,0.1,0.2,0.1,0.2,0.2c5.2,4.8,12,7.4,19,7.2c4.1,0,8.1-0.8,11.9-2.2c1.9-0.8,3.8-1.8,5.6-3
				c4.6,3.4,10.2,5.2,15.9,5.1c13.9,0.4,25.5-10.6,25.8-24.4c0-0.4,0-0.7,0-1.1c0-0.7,0-1.4-0.1-2.1h-13c0.1,0.7,0.1,1.4,0.1,2.1
				c0.1,3.7-1.2,7.2-3.7,10c-2.4,2.6-5.7,4-9.2,3.9c-3.5,0.1-6.9-1.3-9.3-3.9c-2.5-2.7-3.8-6.3-3.6-10c-0.1-3.7,1.2-7.2,3.6-10
				c2.4-2.6,5.8-4,9.3-3.9c0.8,0,1.6,0.1,2.3,0.2V2042c-0.7,0-1.5-0.1-2.3-0.1C699,2041.7,692.3,2044.4,687.4,2049.3"/>
		</defs>
		<use xlink:href="#SVGID_1_"  style="overflow:visible;fill:#E7AD4A;"/>
		<clipPath id="SVGID_2_">
			<use xlink:href="#SVGID_1_"  style="overflow:visible;"/>
		</clipPath>
		<g class="st4">
			<rect x="645.9" y="2041.9" class="st3" width="85.9" height="51.1"/>
		</g>
	</g>
	<g>
		<defs>
			<path id="SVGID_3_" d="M714.7,2057.2V2045h13.8v13.8h-13.8V2057.2z M711.8,2061.8h19.8V2042h-19.8V2061.8z"/>
		</defs>
		<use xlink:href="#SVGID_3_"  style="overflow:visible;fill:#E7AD4A;"/>
		<clipPath id="SVGID_4_">
			<use xlink:href="#SVGID_3_"  style="overflow:visible;"/>
		</clipPath>
		<g class="st5">
			<rect x="711.8" y="2042" class="st3" width="19.8" height="19.8"/>
		</g>
	</g>
	<g>
		<defs>
			<polygon id="SVGID_5_" points="723.8,2048.7 718.6,2048.7 718.6,2055.1 724.8,2055.1 724.8,2049.8 724.8,2048.7 			"/>
		</defs>
		<use xlink:href="#SVGID_5_"  style="overflow:visible;fill:#E7AD4A;"/>
		<clipPath id="SVGID_6_">
			<use xlink:href="#SVGID_5_"  style="overflow:visible;"/>
		</clipPath>
		<g class="st6">
			<rect x="718.6" y="2048.7" class="st3" width="6.3" height="6.3"/>
		</g>
	</g>
</g>
<g>
	<rect x="130.4" y="130" class="st1" width="989.7" height="219.4"/>
</g>
<polygon class="st1" points="1172.1,614.5 1170.1,614.5 1170.1,614.5 1172.1,614.5 "/>
<text transform="matrix(1 0 0 1 249.3908 207.719)" class="st7 st8 st9 st10">Los momentos más importantes </text>
<text transform="matrix(1 0 0 1 260.233 279.719)" class="st7 st8 st9 st10">de la vida se comparten con los</text>
<text transform="matrix(1 0 0 1 125.2789 351.719)" class="st7 st8 st9 st10">afectos mas sinceros... vos estás entre ellos</text>
<text transform="matrix(0.9984 0 0 1 135.0495 423.719)" class="st7 st8 st9 st10">¡Felicidades!, Te elegimos para compartir </text>
<text transform="matrix(0.9984 0 0 1 264.9669 495.719)" class="st7 st8 st9 st10">el gran fiestón. ¡Nos Casamos!</text>
<g>
	<text transform="matrix(1 0 0 1 288.1904 705.8745)" class="st7 st8 st11 st12">Lorena y Armando</text>
	<polygon class="st13" points="93.8,691.8 114.9,691.6 136,691.5 178.2,691.4 220.4,691.5 241.5,691.6 262.6,691.8 241.5,692 
		220.4,692.1 178.2,692.2 136,692.1 114.9,692 	"/>
	<polygon class="st13" points="979.4,691.3 1000.5,691.1 1021.6,691.1 1063.8,690.9 1106,691.1 1127.1,691.1 1148.2,691.3 
		1127.1,691.5 1106,691.6 1063.8,691.7 1021.6,691.6 1000.5,691.5 	"/>
	<g>
		<text transform="matrix(1 0 0 1 335.6596 830.9976)" class="st8 st14">28 de Septiembre de 2019</text>
		<polygon class="st13" points="326.7,848.1 397.2,848 467.8,847.9 609.1,847.8 750.3,847.9 820.9,848 891.4,848.1 820.9,848.3 
			750.3,848.4 609.1,848.4 467.8,848.4 397.2,848.3 		"/>
	</g>
</g>
<g>
	<text transform="matrix(1 0 0 1 481.2898 1015.3353)" class="st8 st15">Ceremonia</text>
	<text transform="matrix(0.6805 0 0 1 237.1184 1114.5857)" class="st8 st15">Parroquia Nuestra Señora de la Guardia</text>
	<text transform="matrix(0.6805 0 0 1 281.8318 1195.7078)"><tspan x="0" y="0" class="st8 st16">Calle Belgrano 260 Bernal - parroquia interna</tspan><tspan x="416.6" y="76.2" class="st8 st16">20:00 hs</tspan></text>
	<polygon class="st13" points="529.3,1032.4 551.1,1032.2 573,1032.1 616.6,1032 660.3,1032.1 682.1,1032.2 703.9,1032.4 
		682.1,1032.6 660.3,1032.7 616.6,1032.8 573,1032.7 551.1,1032.6 	"/>
</g>
<g>
	<text transform="matrix(1 0 0 1 530.8313 1466.1379)" class="st8 st15">Fiesta</text>
	<text transform="matrix(0.6805 0 0 1 427.8289 1582.2952)" class="st8 st15">Salón Villa Victoria</text>
	<text transform="matrix(0.6805 0 0 1 362.9573 1656.2395)"><tspan x="0" y="0" class="st8 st16">Avenida Avellaneda 323 - Bernal</tspan><tspan x="278.2" y="76.2" class="st8 st16">20:30 hs</tspan></text>
	<polygon class="st13" points="525.8,1480.4 547.6,1480.2 569.5,1480.1 613.1,1480 656.8,1480.1 678.6,1480.2 700.4,1480.4 
		678.6,1480.6 656.8,1480.7 613.1,1480.8 569.5,1480.7 547.6,1480.6 	"/>
</g>
<g>
	<g>
		<path class="st3" d="M1113.8,2160.3H129v-1.3c0-67.5-44.9-122.4-100-122.4h-1.1V173.6H29c55.1,0,100-54.9,100-122.4v-1.3h984.8
			v1.3c0,67.5,44.9,122.4,100,122.4h1.1v1862.9h-1.1c-55.1,0-100,54.9-100,122.4V2160.3z M131.2,2157.6h980.5
			c0.6-67.9,45.6-123.1,101.1-123.8V176.3c-55.5-0.7-100.5-55.8-101.1-123.8H131.2c-0.6,67.9-45.6,123.1-101.1,123.8v1857.6
			C85.6,2034.6,130.6,2089.7,131.2,2157.6z"/>
	</g>
	<g>
		<g id="path4213_1_">
			<path class="st3" d="M29,2078c0.2,0.5-0.1,0.8-0.3,1.1c-0.2,0.3-0.4,0.5-0.7,0.7c-0.5,0.4-1,0.8-1.6,1c-1.1,0.5-2.4,0.4-3.5-0.1
				c-0.5-0.2-1.1-0.6-1.5-1c-0.1-0.1-0.2-0.2-0.3-0.3c-0.1-0.1-0.2-0.2-0.3-0.3c-0.2-0.3-0.4-0.5-0.6-0.8c-0.7-1.1-1-2.5-1.1-3.8
				c-0.2-2.7,0.5-5.3,1.5-7.5c1-2.2,2.4-4.3,3.9-6c3.1-3.5,7-5.9,11.2-6.6c4.2-0.7,8.5,0.4,12.3,2.6c3.8,2.2,7.1,5.6,9.8,9.6
				c1.3,2,2.5,4.1,3.6,6.3c1,2.2,1.9,4.6,2.7,6.9c3.1,9.5,4.3,19.7,5.7,29.6c0.7,5,1.5,9.9,2.6,14.7c1.1,4.8,2.5,9.5,4.5,13.9
				c2,4.3,4.5,8.3,7.6,11.4c3.1,3.1,6.7,5.5,10.6,6.1c3.9,0.7,7.8-0.1,11.1-2.2c0.8-0.5,1.6-1.1,2.3-1.8c0.7-0.7,1.4-1.4,2-2.3
				c0.6-0.8,1.2-1.7,1.7-2.6c0.3-0.5,0.5-0.9,0.7-1.5c0.2-0.4,0.4-1,0.6-1.5c0.7-2.1,1-4.5,0.5-6.7c-0.3-1.1-0.7-2.2-1.4-3
				c-0.3-0.4-0.7-0.8-1.1-1.1c-0.4-0.3-0.8-0.6-1.3-0.7c-0.9-0.3-1.9-0.4-2.7,0c-0.9,0.3-1.6,0.9-2.2,1.7c-0.3,0.4-0.5,0.8-0.8,1.3
				c-0.2,0.4-0.3,0.9-0.5,1.4c-0.1,0.5-0.2,1-0.2,1.5c-0.1,0.5-0.2,1-0.5,1.7l0,0.1c-0.2,0.3-0.5,0.4-0.8,0.2c0,0,0,0,0,0
				c-0.6-0.5-0.8-1.3-0.9-2c0-0.8,0.1-1.5,0.3-2.2c0.2-0.7,0.4-1.4,0.8-2c0.3-0.6,0.8-1.2,1.2-1.6c0.9-0.9,2.1-1.5,3.2-1.7
				c1.2-0.2,2.3,0,3.4,0.5c2.1,1,3.7,3,4.7,5.5c0.9,2.5,1.2,5.4,0.7,8.2c-0.1,0.7-0.2,1.4-0.4,2.1c-0.2,0.6-0.4,1.3-0.6,1.9
				c-0.5,1.3-1.1,2.5-1.9,3.5c-0.7,1.1-1.6,2-2.5,2.9c-0.9,0.8-1.9,1.6-2.9,2.1c-4.2,2.3-8.9,2.4-13,1.1c-4.2-1.4-8-3.9-11.2-7.3
				c-3.2-3.4-5.8-7.6-7.8-12.1c-2-4.5-3.5-9.3-4.6-14.2c-1.1-4.9-1.9-9.9-2.6-14.9c-1.4-9.9-2.6-19.9-5.6-29.2
				c-1.5-4.6-3.5-9-6-12.9c-2.5-3.8-5.7-7.1-9.3-9.3c-3.6-2.2-7.7-3.2-11.7-2.6c-4,0.6-7.8,2.8-10.8,6.1c-1.5,1.7-2.8,3.6-3.8,5.7
				c-1,2.1-1.7,4.6-1.4,6.9c0.3,2.3,1.6,4.5,3.4,5c0.9,0.3,1.8,0.2,2.6-0.2c0.4-0.2,0.8-0.5,1.1-0.8c0.2-0.2,0.3-0.3,0.5-0.5
				c0.2-0.2,0.2-0.4,0.7-0.4c0.3,0,0.5,0.2,0.6,0.5L29,2078z"/>
		</g>
		<g id="path4217_1_">
			<path class="st3" d="M21.8,2064.8c2.1-3.8,5.2-6.7,8.7-8.2c3.5-1.5,7.5-1.6,11.1-0.2c3.6,1.4,6.8,4.2,9.2,7.6
				c2.5,3.5,4.2,7.6,5.5,11.8c2.5,8.6,2.9,17.7,3.8,26.5c0.4,4.4,1,8.8,2,13c1,4.2,2.4,8.2,4.4,11.8c2,3.5,4.6,6.5,7.8,8.3
				c3.1,1.8,6.6,2.4,9.9,1.8c6.7-1.1,12.3-6.8,14.5-14.4c1.1-3.8,1.4-8.1,0.2-12.1c-0.6-2-1.5-3.8-2.7-5.4c-1.2-1.5-2.7-2.8-4.4-3.4
				c-1.6-0.7-3.4-0.8-5.1-0.1c-1.6,0.6-3,2-3.8,3.7c-0.8,1.8-0.9,3.9-0.4,5.8c0.2,0.9,0.6,1.8,1.1,2.5c0.3,0.4,0.5,0.7,0.9,1
				c0.3,0.3,0.6,0.6,0.8,1.2l0,0c0.1,0.3,0,0.7-0.2,0.8c-0.1,0-0.1,0-0.2,0.1c-0.6,0.1-1.1-0.2-1.5-0.6c-0.4-0.4-0.8-0.8-1.1-1.3
				c-0.6-1-1.2-2.1-1.4-3.3c-0.6-2.4-0.2-5.1,0.8-7.1c1-2.1,2.8-3.6,4.7-4.2c1.9-0.6,3.9-0.5,5.7,0.3c1.8,0.7,3.4,2,4.8,3.6
				c1.4,1.6,2.6,3.4,3.5,5.6c1.8,4.2,2.4,9.2,1.5,14c-0.4,2.4-1.2,4.7-2.3,6.8c-0.3,0.5-0.6,1.1-0.9,1.5c-0.3,0.5-0.6,1-1,1.4
				c-0.7,0.9-1.4,1.7-2.2,2.5c-1.6,1.5-3.3,2.7-5.3,3.6c-1.9,0.8-3.9,1.3-5.8,1.4c-8,0.4-15.4-5-19.5-12.7
				c-2.1-3.8-3.5-8.1-4.5-12.5c-1-4.4-1.5-8.8-2-13.3c-0.9-8.9-1.3-17.8-3.6-26.1c-1.2-4.1-2.8-8-5.1-11.4c-2.3-3.3-5.2-6-8.6-7.3
				c-3.3-1.4-7-1.4-10.4,0c-3.3,1.4-6.3,4.1-8.4,7.6c-0.1,0.2-0.4,0.3-0.6,0.1C21.7,2065.4,21.6,2065.1,21.8,2064.8L21.8,2064.8z"/>
		</g>
	</g>
	<g>
		<g id="path4213_2_">
			<path class="st3" d="M1211.8,2079.9c-0.2,0.5,0.1,0.8,0.3,1.1c0.2,0.3,0.4,0.5,0.7,0.7c0.5,0.4,1,0.8,1.6,1
				c1.1,0.5,2.4,0.4,3.5-0.1c0.5-0.2,1.1-0.6,1.5-1c0.1-0.1,0.2-0.2,0.3-0.3c0.1-0.1,0.2-0.2,0.3-0.3c0.2-0.3,0.4-0.5,0.6-0.8
				c0.7-1.1,1-2.5,1.1-3.8c0.2-2.7-0.5-5.3-1.5-7.5c-1-2.2-2.4-4.3-3.9-6c-3.1-3.5-7-5.9-11.2-6.6c-4.2-0.7-8.5,0.4-12.3,2.6
				c-3.8,2.2-7.1,5.6-9.8,9.6c-1.3,2-2.5,4.1-3.6,6.3c-1,2.2-1.9,4.6-2.7,6.9c-3.1,9.5-4.3,19.7-5.7,29.6c-0.7,5-1.5,9.9-2.6,14.7
				c-1.1,4.8-2.5,9.5-4.5,13.9c-2,4.3-4.5,8.3-7.6,11.4c-3.1,3.1-6.7,5.5-10.6,6.1c-3.9,0.7-7.8-0.1-11.1-2.2
				c-0.8-0.5-1.6-1.1-2.3-1.8c-0.7-0.7-1.4-1.4-2-2.3c-0.6-0.8-1.2-1.7-1.7-2.6c-0.3-0.5-0.5-0.9-0.7-1.5c-0.2-0.4-0.4-1-0.6-1.5
				c-0.7-2.1-1-4.5-0.5-6.7c0.3-1.1,0.7-2.2,1.4-3c0.3-0.4,0.7-0.8,1.1-1.1c0.4-0.3,0.8-0.6,1.3-0.7c0.9-0.3,1.9-0.4,2.7,0
				c0.9,0.3,1.6,0.9,2.2,1.7c0.3,0.4,0.5,0.8,0.8,1.3c0.2,0.4,0.3,0.9,0.5,1.4c0.1,0.5,0.2,1,0.2,1.5c0.1,0.5,0.2,1,0.5,1.7l0,0.1
				c0.2,0.3,0.5,0.4,0.8,0.2c0,0,0,0,0,0c0.6-0.5,0.8-1.3,0.9-2c0-0.8-0.1-1.5-0.3-2.2c-0.2-0.7-0.4-1.4-0.8-2
				c-0.3-0.6-0.8-1.2-1.2-1.6c-0.9-0.9-2.1-1.5-3.2-1.7c-1.2-0.2-2.3,0-3.4,0.5c-2.1,1-3.7,3-4.7,5.5c-0.9,2.5-1.2,5.4-0.7,8.2
				c0.1,0.7,0.2,1.4,0.4,2.1c0.2,0.6,0.4,1.3,0.6,1.9c0.5,1.3,1.1,2.5,1.9,3.5c0.7,1.1,1.6,2,2.5,2.9c0.9,0.8,1.9,1.6,2.9,2.1
				c4.2,2.3,8.9,2.4,13,1.1c4.2-1.4,8-3.9,11.2-7.3c3.2-3.4,5.8-7.6,7.8-12.1c2-4.5,3.5-9.3,4.6-14.2c1.1-4.9,1.9-9.9,2.6-14.9
				c1.4-9.9,2.6-19.9,5.6-29.2c1.5-4.6,3.5-9,6-12.9c2.5-3.8,5.7-7.1,9.3-9.3c3.6-2.2,7.7-3.2,11.7-2.6c4,0.6,7.8,2.8,10.8,6.1
				c1.5,1.7,2.8,3.6,3.8,5.7c1,2.1,1.7,4.6,1.4,6.9c-0.3,2.3-1.6,4.5-3.4,5c-0.9,0.3-1.8,0.2-2.6-0.2c-0.4-0.2-0.8-0.5-1.1-0.8
				c-0.2-0.2-0.3-0.3-0.5-0.5c-0.2-0.2-0.2-0.4-0.7-0.4c-0.3,0-0.5,0.2-0.6,0.5L1211.8,2079.9z"/>
		</g>
		<g id="path4217_2_">
			<path class="st3" d="M1219,2066.8c-2.1-3.8-5.2-6.7-8.7-8.2c-3.5-1.5-7.5-1.6-11.1-0.2c-3.6,1.4-6.8,4.2-9.2,7.6
				c-2.5,3.5-4.2,7.6-5.5,11.8c-2.5,8.6-2.9,17.7-3.8,26.5c-0.4,4.4-1,8.8-2,13c-1,4.2-2.4,8.2-4.4,11.8c-2,3.5-4.6,6.5-7.8,8.3
				c-3.1,1.8-6.6,2.4-9.9,1.8c-6.7-1.1-12.3-6.8-14.5-14.4c-1.1-3.8-1.4-8.1-0.2-12.1c0.6-1.9,1.5-3.8,2.7-5.4
				c1.2-1.5,2.7-2.8,4.4-3.4c1.6-0.7,3.4-0.8,5.1-0.1c1.6,0.6,3,2,3.8,3.7c0.8,1.8,0.9,3.9,0.4,5.8c-0.2,0.9-0.6,1.8-1.1,2.5
				c-0.3,0.4-0.5,0.7-0.9,1c-0.3,0.3-0.6,0.6-0.8,1.2l0,0c-0.1,0.3,0,0.7,0.2,0.8c0,0,0.1,0,0.2,0.1c0.6,0.1,1.1-0.2,1.5-0.6
				c0.4-0.4,0.8-0.8,1.1-1.3c0.6-1,1.2-2.1,1.4-3.3c0.6-2.4,0.2-5.1-0.8-7.1c-1-2.1-2.8-3.6-4.7-4.2c-1.9-0.6-3.9-0.5-5.7,0.3
				c-1.8,0.7-3.4,2-4.8,3.6c-1.4,1.6-2.6,3.4-3.5,5.6c-1.8,4.2-2.4,9.2-1.5,14c0.4,2.4,1.2,4.7,2.3,6.8c0.3,0.5,0.6,1.1,0.9,1.5
				c0.3,0.5,0.6,1,1,1.4c0.7,0.9,1.4,1.7,2.2,2.5c1.6,1.5,3.3,2.7,5.3,3.6c1.9,0.8,3.9,1.3,5.8,1.4c8,0.4,15.4-5,19.5-12.7
				c2.1-3.8,3.5-8.1,4.5-12.5c1-4.4,1.5-8.8,2-13.3c0.9-8.9,1.3-17.8,3.6-26.1c1.2-4.1,2.8-8,5.1-11.4c2.3-3.3,5.2-6,8.6-7.3
				c3.3-1.4,7-1.4,10.4,0c3.3,1.4,6.3,4.1,8.4,7.6c0.1,0.2,0.4,0.3,0.6,0.1C1219.1,2067.3,1219.2,2067,1219,2066.8L1219,2066.8z"/>
		</g>
	</g>
	<g>
		<g id="path4213_4_">
			<path class="st3" d="M30.2,130c0.2-0.5-0.1-0.8-0.3-1.1c-0.2-0.3-0.4-0.5-0.7-0.7c-0.5-0.4-1-0.8-1.6-1c-1.1-0.5-2.4-0.4-3.5,0.1
				c-0.5,0.2-1.1,0.6-1.5,1c-0.1,0.1-0.2,0.2-0.3,0.3c-0.1,0.1-0.2,0.2-0.3,0.3c-0.2,0.3-0.4,0.5-0.6,0.8c-0.7,1.1-1,2.5-1.1,3.8
				c-0.2,2.7,0.5,5.3,1.5,7.5c1,2.2,2.4,4.3,3.9,6c3.1,3.5,7,5.9,11.2,6.6c4.2,0.7,8.5-0.4,12.3-2.6c3.8-2.2,7.1-5.6,9.8-9.6
				c1.3-2,2.5-4.1,3.6-6.3c1-2.2,1.9-4.6,2.7-6.9c3.1-9.5,4.3-19.7,5.7-29.6c0.7-5,1.5-9.9,2.6-14.7c1.1-4.8,2.5-9.5,4.5-13.9
				c2-4.3,4.5-8.3,7.6-11.4c3.1-3.1,6.7-5.5,10.6-6.1c3.9-0.7,7.8,0.1,11.1,2.2c0.8,0.5,1.6,1.1,2.3,1.8c0.7,0.7,1.4,1.4,2,2.3
				c0.6,0.8,1.2,1.7,1.7,2.6c0.3,0.5,0.5,0.9,0.7,1.5c0.2,0.4,0.4,1,0.6,1.5c0.7,2.1,1,4.5,0.5,6.7c-0.3,1.1-0.7,2.2-1.4,3
				c-0.3,0.4-0.7,0.8-1.1,1.1c-0.4,0.3-0.8,0.6-1.3,0.7c-0.9,0.3-1.9,0.4-2.7,0c-0.9-0.3-1.6-0.9-2.2-1.7c-0.3-0.4-0.5-0.8-0.8-1.3
				c-0.2-0.4-0.3-0.9-0.5-1.4c-0.1-0.5-0.2-1-0.2-1.5c-0.1-0.5-0.2-1-0.5-1.7l0-0.1c-0.2-0.3-0.5-0.4-0.8-0.2c0,0,0,0,0,0
				c-0.6,0.5-0.8,1.3-0.9,2c0,0.8,0.1,1.5,0.3,2.2c0.2,0.7,0.4,1.4,0.8,2c0.3,0.6,0.8,1.2,1.2,1.6c0.9,0.9,2.1,1.5,3.2,1.7
				c1.2,0.2,2.3,0,3.4-0.5c2.1-1,3.7-3,4.7-5.5c0.9-2.5,1.2-5.4,0.7-8.2c-0.1-0.7-0.2-1.4-0.4-2.1c-0.2-0.6-0.4-1.3-0.6-1.9
				c-0.5-1.3-1.1-2.5-1.9-3.5c-0.7-1.1-1.6-2-2.5-2.9c-0.9-0.8-1.9-1.6-2.9-2.1c-4.2-2.3-8.9-2.4-13-1.1c-4.2,1.4-8,3.9-11.2,7.3
				c-3.2,3.4-5.8,7.6-7.8,12.1c-2,4.5-3.5,9.3-4.6,14.2c-1.1,4.9-1.9,9.9-2.6,14.9c-1.4,9.9-2.6,19.9-5.6,29.2
				c-1.5,4.6-3.5,9-6,12.9c-2.5,3.8-5.7,7.1-9.3,9.3c-3.6,2.2-7.7,3.2-11.7,2.6c-4-0.6-7.8-2.8-10.8-6.1c-1.5-1.7-2.8-3.6-3.8-5.7
				c-1-2.1-1.7-4.6-1.4-6.9c0.3-2.3,1.6-4.5,3.4-5c0.9-0.3,1.8-0.2,2.6,0.2c0.4,0.2,0.8,0.5,1.1,0.8c0.2,0.2,0.3,0.3,0.5,0.5
				c0.2,0.2,0.2,0.4,0.7,0.4c0.3,0,0.5-0.2,0.6-0.5L30.2,130z"/>
		</g>
		<g id="path4217_4_">
			<path class="st3" d="M23,143.2c2.1,3.8,5.2,6.7,8.7,8.2c3.5,1.5,7.5,1.6,11.1,0.2c3.6-1.4,6.8-4.2,9.2-7.6
				c2.5-3.5,4.2-7.6,5.5-11.8c2.5-8.6,2.9-17.7,3.8-26.5c0.4-4.4,1-8.8,2-13c1-4.2,2.4-8.2,4.4-11.8c2-3.5,4.6-6.5,7.8-8.3
				c3.1-1.8,6.6-2.4,9.9-1.8c6.7,1.1,12.3,6.8,14.5,14.4c1.1,3.8,1.4,8.1,0.2,12.1c-0.6,2-1.5,3.8-2.7,5.4c-1.2,1.5-2.7,2.8-4.4,3.4
				c-1.6,0.7-3.4,0.8-5.1,0.1c-1.6-0.6-3-2-3.8-3.7c-0.8-1.8-0.9-3.9-0.4-5.8c0.2-0.9,0.6-1.8,1.1-2.5c0.3-0.4,0.5-0.7,0.9-1
				c0.3-0.3,0.6-0.6,0.8-1.2l0,0c0.1-0.3,0-0.7-0.2-0.8c-0.1,0-0.1,0-0.2-0.1c-0.6-0.1-1.1,0.2-1.5,0.6c-0.4,0.4-0.8,0.8-1.1,1.3
				c-0.6,1-1.2,2.1-1.4,3.3c-0.6,2.4-0.2,5.1,0.8,7.1c1,2.1,2.8,3.6,4.7,4.2c1.9,0.6,3.9,0.5,5.7-0.3c1.8-0.7,3.4-2,4.8-3.6
				c1.4-1.6,2.6-3.4,3.5-5.6c1.8-4.2,2.4-9.2,1.5-14c-0.4-2.4-1.2-4.7-2.3-6.8c-0.3-0.5-0.6-1.1-0.9-1.5c-0.3-0.5-0.6-1-1-1.4
				c-0.7-0.9-1.4-1.7-2.2-2.5c-1.6-1.5-3.3-2.7-5.3-3.6c-1.9-0.8-3.9-1.3-5.8-1.4c-8-0.4-15.4,5-19.5,12.7
				c-2.1,3.8-3.5,8.1-4.5,12.5c-1,4.4-1.5,8.8-2,13.3c-0.9,8.9-1.3,17.8-3.6,26.1c-1.2,4.1-2.8,8-5.1,11.4c-2.3,3.3-5.2,6-8.6,7.3
				c-3.3,1.4-7,1.4-10.4,0c-3.3-1.4-6.3-4.1-8.4-7.6c-0.1-0.2-0.4-0.3-0.6-0.1C22.9,142.6,22.8,142.9,23,143.2L23,143.2z"/>
		</g>
	</g>
	<g>
		<g id="path4213_3_">
			<path class="st3" d="M1213,128.1c-0.2-0.5,0.1-0.8,0.3-1.1c0.2-0.3,0.4-0.5,0.7-0.7c0.5-0.4,1-0.8,1.6-1c1.1-0.5,2.4-0.4,3.5,0.1
				c0.5,0.2,1.1,0.6,1.5,1c0.1,0.1,0.2,0.2,0.3,0.3c0.1,0.1,0.2,0.2,0.3,0.3c0.2,0.3,0.4,0.5,0.6,0.8c0.7,1.1,1,2.5,1.1,3.8
				c0.2,2.7-0.5,5.3-1.5,7.5c-1,2.2-2.4,4.3-3.9,6c-3.1,3.5-7,5.9-11.2,6.6c-4.2,0.7-8.5-0.4-12.3-2.6c-3.8-2.2-7.1-5.6-9.8-9.6
				c-1.3-2-2.5-4.1-3.6-6.3c-1-2.2-1.9-4.6-2.7-6.9c-3.1-9.5-4.3-19.7-5.7-29.6c-0.7-5-1.5-9.9-2.6-14.7c-1.1-4.8-2.5-9.5-4.5-13.9
				c-2-4.3-4.5-8.3-7.6-11.4c-3.1-3.1-6.7-5.5-10.6-6.1c-3.9-0.7-7.8,0.1-11.1,2.2c-0.8,0.5-1.6,1.1-2.3,1.8c-0.7,0.7-1.4,1.4-2,2.3
				c-0.6,0.8-1.2,1.7-1.7,2.6c-0.3,0.5-0.5,0.9-0.7,1.5c-0.2,0.4-0.4,1-0.6,1.5c-0.7,2.1-1,4.5-0.5,6.7c0.3,1.1,0.7,2.2,1.4,3
				c0.3,0.4,0.7,0.8,1.1,1.1c0.4,0.3,0.8,0.6,1.3,0.7c0.9,0.3,1.9,0.4,2.7,0c0.9-0.3,1.6-0.9,2.2-1.7c0.3-0.4,0.5-0.8,0.8-1.3
				c0.2-0.4,0.3-0.9,0.5-1.4c0.1-0.5,0.2-1,0.2-1.5c0.1-0.5,0.2-1,0.5-1.7l0-0.1c0.2-0.3,0.5-0.4,0.8-0.2c0,0,0,0,0,0
				c0.6,0.5,0.8,1.3,0.9,2c0,0.8-0.1,1.5-0.3,2.2c-0.2,0.7-0.4,1.4-0.8,2c-0.3,0.6-0.8,1.2-1.2,1.6c-0.9,0.9-2.1,1.5-3.2,1.7
				c-1.2,0.2-2.3,0-3.4-0.5c-2.1-1-3.7-3-4.7-5.5c-0.9-2.5-1.2-5.4-0.7-8.2c0.1-0.7,0.2-1.4,0.4-2.1c0.2-0.6,0.4-1.3,0.6-1.9
				c0.5-1.3,1.1-2.5,1.9-3.5c0.7-1.1,1.6-2,2.5-2.9c0.9-0.8,1.9-1.6,2.9-2.1c4.2-2.3,8.9-2.4,13-1.1c4.2,1.4,8,3.9,11.2,7.3
				c3.2,3.4,5.8,7.6,7.8,12.1c2,4.5,3.5,9.3,4.6,14.2c1.1,4.9,1.9,9.9,2.6,14.9c1.4,9.9,2.6,19.9,5.6,29.2c1.5,4.6,3.5,9,6,12.9
				c2.5,3.8,5.7,7.1,9.3,9.3c3.6,2.2,7.7,3.2,11.7,2.6c4-0.6,7.8-2.8,10.8-6.1c1.5-1.7,2.8-3.6,3.8-5.7c1-2.1,1.7-4.6,1.4-6.9
				c-0.3-2.3-1.6-4.5-3.4-5c-0.9-0.3-1.8-0.2-2.6,0.2c-0.4,0.2-0.8,0.5-1.1,0.8c-0.2,0.2-0.3,0.3-0.5,0.5c-0.2,0.2-0.2,0.4-0.7,0.4
				c-0.3,0-0.5-0.2-0.6-0.5L1213,128.1z"/>
		</g>
		<g id="path4217_3_">
			<path class="st3" d="M1220.2,141.2c-2.1,3.8-5.2,6.7-8.7,8.2c-3.5,1.5-7.5,1.6-11.1,0.2c-3.6-1.4-6.8-4.2-9.2-7.6
				c-2.5-3.5-4.2-7.6-5.5-11.8c-2.5-8.6-2.9-17.7-3.8-26.5c-0.4-4.4-1-8.8-2-13c-1-4.2-2.4-8.2-4.4-11.8c-2-3.5-4.6-6.5-7.8-8.3
				c-3.1-1.8-6.6-2.4-9.9-1.8c-6.7,1.1-12.3,6.8-14.5,14.4c-1.1,3.8-1.4,8.1-0.2,12.1c0.6,1.9,1.5,3.8,2.7,5.4
				c1.2,1.5,2.7,2.8,4.4,3.4c1.6,0.7,3.4,0.8,5.1,0.1c1.6-0.6,3-2,3.8-3.7c0.8-1.8,0.9-3.9,0.4-5.8c-0.2-0.9-0.6-1.8-1.1-2.5
				c-0.3-0.4-0.5-0.7-0.9-1c-0.3-0.3-0.6-0.6-0.8-1.2l0,0c-0.1-0.3,0-0.7,0.2-0.8c0,0,0.1,0,0.2-0.1c0.6-0.1,1.1,0.2,1.5,0.6
				c0.4,0.4,0.8,0.8,1.1,1.3c0.6,1,1.2,2.1,1.4,3.3c0.6,2.4,0.2,5.1-0.8,7.1c-1,2.1-2.8,3.6-4.7,4.2c-1.9,0.6-3.9,0.5-5.7-0.3
				c-1.8-0.7-3.4-2-4.8-3.6c-1.4-1.6-2.6-3.4-3.5-5.6c-1.8-4.2-2.4-9.2-1.5-14c0.4-2.4,1.2-4.7,2.3-6.8c0.3-0.5,0.6-1.1,0.9-1.5
				c0.3-0.5,0.6-1,1-1.4c0.7-0.9,1.4-1.7,2.2-2.5c1.6-1.5,3.3-2.7,5.3-3.6c1.9-0.8,3.9-1.3,5.8-1.4c8-0.4,15.4,5,19.5,12.7
				c2.1,3.8,3.5,8.1,4.5,12.5c1,4.4,1.5,8.8,2,13.3c0.9,8.9,1.3,17.8,3.6,26.1c1.2,4.1,2.8,8,5.1,11.4c2.3,3.3,5.2,6,8.6,7.3
				c3.3,1.4,7,1.4,10.4,0c3.3-1.4,6.3-4.1,8.4-7.6c0.1-0.2,0.4-0.3,0.6-0.1C1220.3,140.7,1220.4,141,1220.2,141.2L1220.2,141.2z"/>
		</g>
	</g>
</g>
</svg>
