<?xml version="1.0" encoding="utf-8"?>
<!-- Generator: Adobe Illustrator 22.1.0, SVG Export Plug-In . SVG Version: 6.00 Build 0)  -->
<svg version="1.1" id="Capa_1" xmlns="http://www.w3.org/2000/svg" xmlns:xlink="http://www.w3.org/1999/xlink" x="0px" y="0px"
	 viewBox="0 0 1242 2208" style="enable-background:new 0 0 1242 2208;" xml:space="preserve">
<style type="text/css">
	.st0{fill:#FCF3CF;}
	.st1{fill:#FFFFFF;}
	.st2{fill:#F9E79F;}
	.st3{fill:none;}
	.st4{fill:none;stroke:#FFFFFF;stroke-width:7;stroke-miterlimit:10;}
	.st5{opacity:8.000000e-02;}
	.st6{clip-path:url(#SVGID_2_);}
	.st7{fill:none;stroke:#000000;stroke-miterlimit:10;}
	.st8{opacity:5.000000e-02;}
	.st9{clip-path:url(#SVGID_4_);}
	.st10{clip-path:url(#SVGID_6_);}
	.st11{fill:none;stroke:#FFFFFF;stroke-width:20;stroke-miterlimit:10;stroke-dasharray:47.9,47.9;}
	.st12{fill:#768B95;}
	.st13{clip-path:url(#SVGID_8_);}
	.st14{fill:url(#SVGID_9_);}
	.st15{clip-path:url(#SVGID_11_);}
	.st16{fill:url(#SVGID_12_);}
	.st17{clip-path:url(#SVGID_14_);}
	.st18{fill:url(#SVGID_15_);}
	.st19{opacity:0.15;fill:#FFFFFF;}
</style>
<title>TICKETFINALEV-01</title>
<rect y="0" class="st0" width="1242" height="2208"/>
<image style="overflow:visible;opacity:0.33;enable-background:new    ;" width="1182" height="2188" xlink:href="422DCF8276B8E54B.png"  transform="matrix(1 0 0 1 40 7)">
</image>
<polygon class="st1" points="37.6,12.8 37.6,2169.1 1184.2,2169.1 1185.9,1307.5 1120.5,1254.1 1188.4,1194 1184.2,12.8 "/>
<polygon class="st2" points="37.6,12.8 37.6,1257 1123.3,1257 1192,1199.6 1190.5,12.6 "/>
<rect x="-915.5" y="296" class="st3" width="1242" height="2208"/>
<polyline class="st4" points="1081.1,1486.1 1106.1,1486.1 1081.1,1486.1 "/>
<rect x="30.1" y="0" class="st3" width="1181.8" height="2101"/>
<rect x="30.1" y="0" class="st3" width="1181.8" height="2101"/>
<rect x="34.1" y="0" class="st3" width="1181.8" height="2101"/>
<rect x="171.1" y="1002.9" class="st3" width="896.9" height="533.8"/>
<g class="st5">
	<g>
		<defs>
			<path id="SVGID_1_" d="M605.3,1080.6l-0.8,0.8l-0.5,0.6l0,0c-1,1-2.4,2.5-4,4.3c-2,2.1-4.3,4.7-6.8,7.5c-5,5.5-9.6,11.2-14,17.2
				l-0.1,0.1c-0.2,0.3-0.4,0.6-0.6,0.9c-0.3,0.4-0.5,0.7-0.7,1c-2.8,4-9,13.1-14.6,22.3c-1.7,2.8-3.3,5.6-4.7,8.2h0.1
				c-11.4,21.5-19.7,44.6-24.5,68.5h-99.5v119H531v64.2c-19.7,16.1-46.8,24.1-81.1,24.1c-40.2,0-73.8-13.2-101.5-39.4
				s-41.6-62.1-41.6-107.4c0-43.8,14.6-78.9,43.8-105.9s67.2-40.9,114-40.9c15.7,0,31.4,1.5,46.9,4.5c5.9-15.5,25.8-59.6,73.5-98.5
				c-40.9-18.2-85.2-27.4-129.9-27.2c-81.8,0-149.8,24.8-203.1,74.5s-80.4,113.2-80.4,191.4c0,77.4,26.3,141,79.6,191.4
				c53.3,49.7,119.8,74.5,198.7,74.5c44.6,0,86.2-8,124.9-23.4c22.3-9.3,41.5-19.5,57.7-30.9c46.1,35.6,101.3,53.3,165.5,53.2
				c77.4,0,141.7-25.6,192.8-77.4s76.7-114.7,76.7-188.5c0-7.4-0.3-14.6-0.8-21.7H931.2c0.9,7.2,1.3,14.4,1.3,21.7
				c0,41.6-13.1,76.7-38.7,103.7s-57,40.9-95.7,40.9s-70.9-13.9-96.4-40.9s-38-62.1-38-103.7s12.4-76.7,38-103.7
				s57.7-40.9,96.4-40.9c7.9,0,15.8,0.6,23.6,1.9v-122.3c-7.7-0.5-15.6-0.9-23.6-0.9C720.7,1003.3,656.4,1029,605.3,1080.6"/>
		</defs>
		<clipPath id="SVGID_2_">
			<use xlink:href="#SVGID_1_"  style="overflow:visible;"/>
		</clipPath>
		<g class="st6">
			<polygon points="171.6,1263 171.6,1536.2 1067.6,1536.2 1067.6,1250.3 			"/>
			<polygon class="st7" points="171.6,1263 171.6,1536.2 1067.6,1536.2 1067.6,1250.3 			"/>
			<path class="st7" d="M605.3,1080.6l-0.8,0.8l-0.5,0.6l0,0c-1,1-2.4,2.5-4,4.3c-2,2.1-4.3,4.7-6.8,7.5c-5,5.5-9.6,11.2-14,17.2
				l-0.1,0.1c-0.2,0.3-0.4,0.6-0.6,0.9c-0.3,0.4-0.5,0.7-0.7,1c-2.8,4-9,13.1-14.6,22.3c-1.7,2.8-3.3,5.6-4.7,8.2h0.1
				c-11.4,21.5-19.7,44.6-24.5,68.5h-99.5v119H531v64.2c-19.7,16.1-46.8,24.1-81.1,24.1c-40.2,0-73.8-13.2-101.5-39.4
				s-41.6-62.1-41.6-107.4c0-43.8,14.6-78.9,43.8-105.9s67.2-40.9,114-40.9c15.7,0,31.4,1.5,46.9,4.5c5.9-15.5,25.8-59.6,73.5-98.5
				c-40.9-18.2-85.2-27.4-129.9-27.2c-81.8,0-149.8,24.8-203.1,74.5s-80.4,113.2-80.4,191.4c0,77.4,26.3,141,79.6,191.4
				c53.3,49.7,119.8,74.5,198.7,74.5c44.6,0,86.2-8,124.9-23.4c22.3-9.3,41.5-19.5,57.7-30.9c46.1,35.6,101.3,53.3,165.5,53.2
				c77.4,0,141.7-25.6,192.8-77.4s76.7-114.7,76.7-188.5c0-7.4-0.3-14.6-0.8-21.7H931.2c0.9,7.2,1.3,14.4,1.3,21.7
				c0,41.6-13.1,76.7-38.7,103.7s-57,40.9-95.7,40.9s-70.9-13.9-96.4-40.9s-38-62.1-38-103.7s12.4-76.7,38-103.7
				s57.7-40.9,96.4-40.9c7.9,0,15.8,0.6,23.6,1.9v-122.3c-7.7-0.5-15.6-0.9-23.6-0.9C720.7,1003.3,656.4,1029,605.3,1080.6"/>
		</g>
	</g>
</g>
<rect x="171.1" y="1002.9" class="st3" width="896.9" height="533.8"/>
<g class="st8">
	<path d="M893.3,2075.3v-127.2h144.6v144.6H893.3V2075.3z M862,2124h207.1v-207.1H862V2124z"/>
	<g>
		<defs>
			<path id="SVGID_3_" d="M893.3,2075.3v-127.2h144.6v144.6H893.3V2075.3z M862,2124h207.1v-207.1H862V2124z"/>
		</defs>
		<clipPath id="SVGID_4_">
			<use xlink:href="#SVGID_3_"  style="overflow:visible;"/>
		</clipPath>
		<g class="st9">
			<rect x="862" y="1916.9" width="207.1" height="207.1"/>
		</g>
	</g>
	<polygon points="987.8,1987.4 932.5,1987.4 932.5,2053.5 998.7,2053.5 998.7,1998.3 998.7,1987.4 	"/>
	<g>
		<defs>
			<polygon id="SVGID_5_" points="987.8,1987.4 932.5,1987.4 932.5,2053.5 998.7,2053.5 998.7,1998.3 998.7,1987.4 			"/>
		</defs>
		<clipPath id="SVGID_6_">
			<use xlink:href="#SVGID_5_"  style="overflow:visible;"/>
		</clipPath>
		<g class="st10">
			<rect x="932.5" y="1987.4" width="66.1" height="66.1"/>
		</g>
	</g>
	<path d="M1070.2,2160.8H934c0.5,4.5,0.9,9.1,1.1,13.7h135.8C1070.7,2169.9,1070.5,2165.3,1070.2,2160.8z"/>
	<path d="M703.4,2078.4c25.7-27.1,58-41.1,96.9-41.1c7.9,0,15.9,0.6,23.7,1.9v-122.8c-7.8-0.6-15.6-0.9-23.7-0.9
		c-77.7,0-142.2,25.6-193.6,77.6c-0.3,0.2-0.5,0.5-0.7,0.8c-0.2,0.2-0.3,0.4-0.5,0.6l0,0c-1,1-2.4,2.5-4,4.3c-2,2.2-4.3,4.7-6.8,7.5
		c-5,5.5-9.6,11.3-14,17.3l-0.1,0.1c-0.1,0.2-0.4,0.5-0.6,0.9c-0.2,0.3-0.4,0.7-0.7,1c-2.8,4.1-9.1,13.2-14.7,22.4
		c-1.7,2.8-3.3,5.6-4.8,8.3h0.1c-11.5,21.6-19.8,44.8-24.6,68.8h-100v49.4h230.2C666.9,2136.2,679.4,2103.8,703.4,2078.4z"/>
	<path d="M350.8,2079.5c29.4-27.1,67.5-41.1,114.5-41.1c15.8,0,31.6,1.6,47.1,4.5c5.9-15.6,25.9-59.8,73.8-99
		c-41-18.2-85.5-27.6-130.4-27.4c-82.2,0-150.4,24.9-204,74.8c-51.4,47.9-78.5,108.7-80.6,183.1h136
		C309.5,2135.8,324,2104.3,350.8,2079.5z"/>
</g>
<line class="st11" x1="1079.1" y1="1262" x2="76.1" y2="1262"/>
<g>
	<path class="st12" d="M152.4,2093.8c-2.5-2.1-5.3-3.3-8.5-2.8c-3.6,0.5-5.9,2.7-6.9,6.2c-1,3.7,0.3,7.9,3.2,9.8
		c3.2,2.2,6.4,1.9,9.8,0.2c0.3-0.1,0.4-0.4,0.7-0.4c0.8-0.2,1.4-2.1,2.4-0.3c0.7,1.2,1.9,2.4-0.1,3.9c-4.3,3.2-11.7,3.3-16.3,0.1
		c-4.3-3-6.3-9.5-4.5-14.9c1.7-5.3,6.5-8.7,12.3-8.7c2.5-0.1,5,0.4,7.2,1.6c2.5,1.4,2.6,1.7,1.4,4.2
		C152.9,2092.9,152.7,2093.3,152.4,2093.8"/>
	<path class="st12" d="M127.4,2105.5c2.2,3.8,2.1,4.3-1.8,6.1c-6.1,2.8-13.3,0.9-16.8-4.2c-3.7-5.5-2.8-12.9,1.9-17.4
		c4.2-3.9,12.6-4.4,17.1-0.9c1.1,0.9,0.9,3.8-0.4,4.4c-0.7,0.3-0.9-0.3-1.3-0.6c-2.1-1.6-4.8-2.3-7.4-2c-3.6,0.6-5.9,2.6-6.7,6.1
		c-0.9,3.8-0.3,7.4,3,9.9c3.1,2.4,6.6,2,9.9,0.3C125.8,2106.7,126.6,2106.1,127.4,2105.5"/>
	<path class="st12" d="M193.8,2112.7c-3.2,0.1-6.2-1.1-8.6-3.2c-1.3-1.2-0.7-1.9,0.1-2.9c0.8-1,1.3-1.2,2.4-0.2
		c2,1.8,4.8,2.7,7.5,2.3c1.8-0.2,3.1-1,3.4-2.8s-0.8-2.9-2.3-3.5c-1.7-0.7-3.4-1.3-5.1-1.9c-4.2-1.6-6.2-4.3-5.6-7.8
		c0.7-3.6,3.7-5.9,8-6c2.8-0.1,5.4,0.4,7.8,2.2c1.8,1.3,0.2,2.1-0.2,3.1c-0.6,1.3-1.3,0.6-2,0.1c-1.7-1.2-3.7-1.8-5.8-1.7
		c-1.5,0.2-2.9,0.7-3.3,2.4c-0.4,1.7,0.8,2.7,2.1,3.3c1.6,0.7,3.3,1.2,4.9,1.8c4.4,1.6,6.6,4.3,6.1,7.7c-0.6,4.2-3.8,6.8-8.4,7.1
		C194.4,2112.7,194.1,2112.7,193.8,2112.7"/>
	<path class="st12" d="M215.4,2112.7c-3.2,0.1-6.3-1-8.7-3.2c-1.3-1.2-0.7-1.9,0.1-2.9c0.8-1.1,1.4-1.1,2.4-0.2
		c2.1,1.9,4.9,2.7,7.7,2.2c1.7-0.3,2.9-1.1,3.2-2.8s-0.7-2.8-2.2-3.4c-1.8-0.8-3.7-1.4-5.5-2.1c-4-1.6-5.8-4.3-5.3-7.8
		c0.6-3.4,3.6-5.7,7.7-5.9c2.8-0.1,5.5,0.3,7.9,1.9c1.6,1.1,0.9,1.9,0.2,3.1c-0.8,1.3-1.4,0.9-2.3,0.2c-1.7-1.2-3.7-1.8-5.8-1.6
		c-1.6,0.2-2.9,0.9-3.2,2.6c-0.3,1.7,0.8,2.6,2.2,3.2c2.4,1.2,5.2,1.6,7.5,3c3.3,1.8,4.5,5.9,2.7,9.2c-0.2,0.3-0.4,0.7-0.6,0.9
		c-1.6,2.1-3.7,3-6.2,3.3C216.6,2112.7,216,2112.7,215.4,2112.7"/>
	<path class="st12" d="M176.3,2088.6c-4.3-2.8-10.4-2.5-14.6,0.6c-4.3,3.2-6,9.3-4.3,15c3.3,10.9,16.4,9.9,22.1,5.4
		c0.9-0.7,0.7-1.3,0.1-1.9c-0.6-0.6-0.8-2.1-2.3-1.1c-1.4,0.9-3,1.6-4.6,2c-5.4,1.3-9.7-1.3-10.7-6.3c-0.2-1.1,0-1.4,1.1-1.4
		c2.8,0.1,5.6,0,8.3,0h8.3c0.8,0,1.3-0.1,1.5-1.1C181.9,2095.7,179.8,2090.8,176.3,2088.6 M174.5,2097.4c-1.8-0.1-3.6,0-5.4,0
		c-1.8,0-3.7-0.1-5.4,0c-1.7,0.1-1.8-0.6-1.3-1.9c0.8-3,3.5-5.1,6.6-5.2c3.2-0.3,6.3,1.7,7.3,4.8
		C176.6,2096.6,176.6,2097.6,174.5,2097.4"/>
	<path class="st12" d="M101.7,2096.9c-0.1-4.4-1.7-8.1-6.3-9.5s-8.9-0.7-13.2,1.3c-1.6,0.8-0.2,1.7,0,2.6c0.2,0.8,0.6,1.4,1.7,0.8
		c2.1-1.2,4.5-1.7,6.9-1.7c3,0.2,5.1,1.8,5.7,4.3c0.3,1.6,0.1,2.6-1.9,2.7c-2.9,0-5.8-0.2-8.7,0.7c-4,1.3-6.2,4.2-5.8,7.7
		c0.4,3.9,3.4,6.7,7.5,7.1c3.4,0.3,6.3-0.8,9.3-3.6c-0.7,3.8,1.6,3.1,3.2,3.1c1.2,0.1,1.8-0.2,1.8-1.6
		C101.7,2106,101.8,2101.4,101.7,2096.9 M96.6,2104c0,2.3-1.6,4.1-4.4,4.9c-2.4,0.8-5.1,0.1-6.3-1.7c-1.7-2.4-0.6-5.4,2.3-6.3
		c1.5-0.5,3.1-0.6,4.6-0.6C96.6,2100.3,96.6,2100.3,96.6,2104"/>
	<g>
		<defs>
			<path id="SVGID_7_" d="M275,2080.9l-0.1,0.1l-0.1,0.1l0,0l-0.4,0.4c-0.2,0.2-0.4,0.5-0.7,0.8c-0.5,0.6-1,1.2-1.5,1.8l0,0
				c0,0.1-0.1,0.1-0.1,0.1l-0.1,0.1c-0.3,0.4-0.9,1.4-1.6,2.3c-0.2,0.3-0.3,0.6-0.5,0.9l0,0c-1.2,2.3-2.1,4.7-2.6,7.2H257v12.6h10.2
				v6.8c-2.1,1.7-4.9,2.6-8.6,2.6c-4,0.1-7.9-1.4-10.7-4.2c-2.9-2.8-4.4-6.6-4.4-11.3c0-4.6,1.6-8.3,4.6-11.2
				c3.1-2.8,7.1-4.3,12.1-4.3c1.7,0,3.3,0.2,4.9,0.5c1.7-4.1,4.3-7.6,7.8-10.4c-4.3-1.9-9-2.9-13.7-2.9c-8.6,0-15.8,2.6-21.4,7.9
				c-5.6,5.3-8.5,11.9-8.5,20.2c0,8.2,2.8,14.9,8.4,20.2c5.6,5.3,12.7,7.9,21,7.9c4.5,0,9-0.8,13.2-2.4c2.2-0.8,4.2-1.9,6.1-3.3
				c4.8,3.7,10.7,5.6,17.4,5.6c8.2,0,14.9-2.7,20.4-8.2c5.3-5.3,8.2-12.4,8.1-19.9c0-0.8-0.1-1.6-0.1-2.3h-14.3
				c0.1,0.8,0.1,1.5,0.1,2.3c0,4.4-1.4,8.1-4.1,10.9c-5.4,5.6-14.2,5.8-19.8,0.4c-0.2-0.1-0.3-0.3-0.4-0.4c-2.7-2.8-4-6.6-4-10.9
				c0-4.4,1.3-8.1,4-10.9c2.6-2.8,6.3-4.4,10.2-4.3c0.8,0,1.7,0.1,2.5,0.2V2073c-0.8-0.1-1.7-0.1-2.5-0.1
				C287.2,2072.8,280.4,2075.4,275,2080.9"/>
		</defs>
		<clipPath id="SVGID_8_">
			<use xlink:href="#SVGID_7_"  style="overflow:visible;"/>
		</clipPath>
		<g class="st13">
			
				<linearGradient id="SVGID_9_" gradientUnits="userSpaceOnUse" x1="907.0868" y1="-1098.6597" x2="907.7034" y2="-1098.6597" gradientTransform="matrix(136.71 0 0 -136.71 -123774.4453 -148096.9531)">
				<stop  offset="0" style="stop-color:#00CBF6"/>
				<stop  offset="0.11" style="stop-color:#00D2E7"/>
				<stop  offset="0.52" style="stop-color:#01EAB2"/>
				<stop  offset="0.83" style="stop-color:#01F991"/>
				<stop  offset="1" style="stop-color:#01FF85"/>
			</linearGradient>
			<rect x="229.2" y="2072.7" class="st14" width="94.6" height="56.2"/>
		</g>
	</g>
	<g>
		<defs>
			<path id="SVGID_10_" d="M305.1,2089.5v-13.4h15.2v15.2h-15.2V2089.5z M301.8,2094.6h21.8v-21.8h-21.8V2094.6z"/>
		</defs>
		<clipPath id="SVGID_11_">
			<use xlink:href="#SVGID_10_"  style="overflow:visible;"/>
		</clipPath>
		<g class="st15">
			
				<linearGradient id="SVGID_12_" gradientUnits="userSpaceOnUse" x1="907.0868" y1="-1098.7356" x2="907.7034" y2="-1098.7356" gradientTransform="matrix(136.71 0 0 -136.71 -123774.4453 -148124.3906)">
				<stop  offset="0" style="stop-color:#00CBF6"/>
				<stop  offset="0.11" style="stop-color:#00D2E7"/>
				<stop  offset="0.52" style="stop-color:#01EAB2"/>
				<stop  offset="0.83" style="stop-color:#01F991"/>
				<stop  offset="1" style="stop-color:#01FF85"/>
			</linearGradient>
			<rect x="301.8" y="2072.9" class="st16" width="21.8" height="21.8"/>
		</g>
	</g>
	<g>
		<defs>
			<polygon id="SVGID_13_" points="315.1,2080.3 309.2,2080.3 309.2,2087.2 316.2,2087.2 316.2,2081.4 316.2,2080.3 			"/>
		</defs>
		<clipPath id="SVGID_14_">
			<use xlink:href="#SVGID_13_"  style="overflow:visible;"/>
		</clipPath>
		<g class="st17">
			
				<linearGradient id="SVGID_15_" gradientUnits="userSpaceOnUse" x1="907.0868" y1="-1098.7332" x2="907.7034" y2="-1098.7332" gradientTransform="matrix(136.71 0 0 -136.71 -123774.4453 -148124.0781)">
				<stop  offset="0" style="stop-color:#00CBF6"/>
				<stop  offset="0.11" style="stop-color:#00D2E7"/>
				<stop  offset="0.52" style="stop-color:#01EAB2"/>
				<stop  offset="0.83" style="stop-color:#01F991"/>
				<stop  offset="1" style="stop-color:#01FF85"/>
			</linearGradient>
			<rect x="309.2" y="2080.3" class="st18" width="6.9" height="6.9"/>
		</g>
	</g>
</g>
<path class="st1" d="M1069.4,1252.7H933.2c0.5,4.5,0.9,9.1,1.1,13.7h135.8C1069.9,1261.8,1069.7,1257.2,1069.4,1252.7z"/>
<g>
	<path d="M224.4,1115.7h-7.8v5.1h7v3.2h-7v5.5h7.8v3.4h-12v-20.6h12V1115.7z"/>
	<path d="M234.4,1133.1c-4.1,0-7-2.4-7.1-5.5h4.2c0.2,1.4,1.5,2.4,2.9,2.2c1.6,0,2.6-0.7,2.6-1.6c0-2.9-9.2-1-9.2-7.1
		c0-2.7,2.4-4.9,6.5-4.9s6.3,2.2,6.6,5.3h-4c-0.1-1.3-1.2-2.1-2.8-2.1s-2.3,0.6-2.3,1.5c0,3,9.1,1.2,9.2,7.1
		C240.8,1131,238.4,1133.1,234.4,1133.1z"/>
	<path d="M244.9,1120h-2v-3.4h2v-4.1h4.2v4.1h3.6v3.4h-3.6v7.9c0,1,0.5,1.5,1.7,1.5h1.9v3.5h-2.6c-3.1,0-5.2-1.3-5.2-5.1V1120z"/>
	<path d="M262.8,1133.1c-4.8,0-8.1-3.3-8.1-8.4s3.4-8.4,8.1-8.4c4.2-0.2,7.8,3,8,7.2c0,0.3,0,0.5,0,0.8c0,0.5,0,1.1-0.1,1.6h-12
		c0,2.1,1.8,3.8,3.9,3.7c0,0,0.1,0,0.1,0c1.4,0.1,2.7-0.7,3.3-2h4.4C269.5,1130.8,266.8,1133.1,262.8,1133.1z M258.8,1123.1h7.8
		c-0.1-2-1.8-3.6-3.8-3.5c0,0,0,0,0,0C260.7,1119.5,259,1121.1,258.8,1123.1L258.8,1123.1z"/>
	<path d="M288,1133.1c-4.8,0-8.1-3.3-8.1-8.4s3.4-8.4,8.1-8.4c4.2-0.2,7.8,3,8,7.2c0,0.3,0,0.5,0,0.8c0,0.5,0,1.1-0.1,1.6h-12
		c0,2.1,1.7,3.8,3.8,3.7c0,0,0.1,0,0.1,0c1.4,0.1,2.7-0.7,3.3-2h4.4C294.7,1130.8,292,1133.1,288,1133.1z M284,1123.1h7.8
		c-0.1-2-1.8-3.6-3.8-3.5c0,0,0,0,0,0C285.9,1119.5,284.1,1121,284,1123.1z"/>
	<path d="M299,1120.5h12.4v3.5H299V1120.5z"/>
	<path d="M315,1112.3h15.1v3.4h-5.5v17.2h-4.1v-17.2h-5.5v-3.4H315z"/>
	<path d="M332.7,1112.2c0-1.3,1-2.4,2.4-2.4c0.1,0,0.1,0,0.2,0c1.4,0,2.5,1,2.6,2.4c0,0,0,0,0,0c-0.1,1.4-1.3,2.5-2.7,2.4
		C333.8,1114.5,332.8,1113.4,332.7,1112.2z M333.2,1116.5h4.1v16.3h-4.1V1116.5z"/>
	<path d="M348.4,1116.2c4.1,0,6.9,2.1,7.7,5.8h-4.4c-0.4-1.4-1.8-2.4-3.2-2.3c-2.3,0-3.8,1.7-3.8,4.9s1.5,4.9,3.8,4.9
		c1.5,0.1,2.8-0.8,3.2-2.2h4.4c-0.8,3.5-4,6-7.7,5.8c-4.8,0-8-3.3-8-8.4S343.6,1116.2,348.4,1116.2z"/>
	<path d="M359.1,1111h4.1v12.4l5.5-7h5.4l-7.2,8.1l7.2,8.1h-5.4l-5.6-7v7h-4L359.1,1111L359.1,1111z"/>
	<path d="M383.4,1133.1c-4.8,0-8.1-3.3-8.1-8.4s3.4-8.4,8.1-8.4c4.2-0.2,7.8,3,8,7.2c0,0.3,0,0.5,0,0.8c0,0.5,0,1.1-0.1,1.6h-12
		c0,2.1,1.7,3.8,3.8,3.7c0,0,0.1,0,0.1,0c1.4,0.1,2.7-0.7,3.2-2h4.4C390.1,1130.8,387.4,1133.1,383.4,1133.1z M379.4,1123.1h7.8
		c-0.1-2-1.7-3.5-3.7-3.5c-0.1,0-0.1,0-0.2,0C381.3,1119.5,379.6,1121.1,379.4,1123.1L379.4,1123.1z"/>
	<path d="M395.1,1120h-2v-3.4h2v-4.1h4.2v4.1h3.6v3.4h-3.6v7.9c0,1,0.5,1.5,1.8,1.5h1.9v3.5h-2.7c-3.1,0-5.2-1.3-5.2-5.1v-7.8H395.1
		z"/>
	<path d="M420,1133.1c-4.8,0-8.1-3.3-8.1-8.4s3.4-8.4,8.1-8.4c4.2-0.2,7.8,3,8,7.2c0,0.3,0,0.5,0,0.8c0,0.5,0,1.1-0.1,1.6h-12
		c0,2.1,1.7,3.8,3.8,3.7c0,0,0.1,0,0.1,0c1.4,0.1,2.7-0.7,3.2-2h4.4C426.7,1130.8,424,1133.1,420,1133.1z M416,1123.1h7.8
		c0-2-1.7-3.5-3.7-3.5c-0.1,0-0.1,0-0.2,0C417.9,1119.5,416.2,1121,416,1123.1L416,1123.1z"/>
	<path d="M437.3,1133.1c-4.1,0-7-2.4-7.1-5.5h4.2c0.2,1.4,1.5,2.4,2.9,2.2c1.6,0,2.6-0.7,2.6-1.6c0-2.9-9.2-1-9.2-7.1
		c0-2.7,2.4-4.9,6.4-4.9s6.3,2.2,6.6,5.3h-4c-0.1-1.3-1.2-2.1-2.8-2.1s-2.3,0.6-2.3,1.5c0,3,9.1,1.2,9.2,7.1
		C443.6,1131,441.2,1133.1,437.3,1133.1z"/>
	<path d="M469.4,1132.8h-4.2v-2.1c-1.2,1.5-3,2.4-4.9,2.3c-3.8,0-6.5-2.4-6.5-7v-9.5h4.1v8.9c0,2.7,1.4,4.1,3.6,4.1s3.6-1.4,3.6-4.1
		v-8.9h4.2v16.3L469.4,1132.8z M464.9,1108.9v3.4l-6.7,3.1v-2.9L464.9,1108.9z"/>
	<path d="M484.9,1123.8c0-2.7-1.4-4.1-3.6-4.1s-3.7,1.4-3.7,4.1v9.1h-4.1v-16.3h4.1v2c1.2-1.5,3-2.4,4.9-2.3c3.8,0,6.5,2.4,6.5,7
		v9.5h-4.1V1123.8z"/>
	<path d="M492.6,1112.2c0-1.3,1.1-2.4,2.4-2.4c0.1,0,0.1,0,0.2,0c1.4,0,2.5,1,2.5,2.4c0,0,0,0,0,0c-0.1,1.4-1.3,2.5-2.7,2.4
		C493.7,1114.5,492.6,1113.4,492.6,1112.2z M492.9,1116.5h4.1v16.3h-4.1L492.9,1116.5z"/>
	<path d="M508.1,1116.2c4.1,0,6.8,2.1,7.7,5.8h-4.4c-0.4-1.4-1.8-2.4-3.2-2.3c-2.3,0-3.8,1.7-3.8,4.9s1.5,4.9,3.8,4.9
		c1.5,0.1,2.8-0.8,3.2-2.2h4.4c-0.8,3.5-4,6-7.7,5.8c-4.8,0-8-3.3-8-8.4S503.5,1116.2,508.1,1116.2z"/>
	<path d="M526.1,1133.1c-4.8,0-8.2-3.3-8.2-8.4c0.2-4.6,4-8.2,8.7-8.1c4.4,0.2,7.9,3.7,8.1,8.1
		C534.6,1129.8,530.9,1133.1,526.1,1133.1z M526.1,1129.5c2.2,0,4.3-1.6,4.3-4.9s-2-4.9-4.2-4.9s-4.2,1.5-4.2,4.9
		S523.9,1129.5,526.1,1129.5z"/>
	<path d="M551.8,1133.1c-4.8,0-8.1-3.3-8.1-8.4s3.4-8.4,8.1-8.4c4.2-0.2,7.8,3,8,7.2c0,0.3,0,0.5,0,0.8c0,0.5,0,1.1-0.1,1.6h-12
		c0,2.1,1.8,3.8,3.9,3.7c0,0,0.1,0,0.1,0c1.4,0.1,2.7-0.7,3.3-2h4.4C558.4,1131,555.3,1133.3,551.8,1133.1z M547.9,1123.1h7.8
		c-0.1-2-1.7-3.5-3.7-3.5c-0.1,0-0.1,0-0.2,0C549.8,1119.5,548,1121,547.9,1123.1z"/>
	<path d="M569.3,1112.2c0-1.3,1.1-2.4,2.4-2.4c0.1,0,0.1,0,0.2,0c1.4,0,2.5,1,2.5,2.4c0,0,0,0,0,0c-0.1,1.4-1.3,2.5-2.7,2.4
		C570.5,1114.5,569.4,1113.4,569.3,1112.2z M569.8,1116.5h4.1v16.3h-4.1V1116.5z"/>
	<path d="M589.5,1123.8c0-2.7-1.4-4.1-3.6-4.1s-3.7,1.4-3.7,4.1v9.1H578v-16.3h4v2c1.2-1.5,3-2.4,4.9-2.3c3.8,0,6.5,2.4,6.5,7v9.5
		h-4.1v-9L589.5,1123.8z"/>
	<path d="M603.7,1133.1c-4.1,0-7-2.4-7.1-5.5h4.2c0.2,1.4,1.5,2.4,2.9,2.2c1.6,0,2.5-0.7,2.5-1.6c0-2.9-9.2-1-9.2-7.1
		c0-2.7,2.4-4.9,6.4-4.9s6.3,2.2,6.6,5.3h-4c-0.1-1.3-1.2-2.1-2.8-2.1s-2.3,0.6-2.3,1.5c0,3,9.1,1.2,9.2,7.1
		C610.1,1131,607.7,1133.1,603.7,1133.1z"/>
	<path d="M614.2,1120h-2v-3.4h2v-4.1h4.2v4.1h3.6v3.4h-3.6v7.9c0,1,0.5,1.5,1.7,1.5h1.9v3.5h-2.6c-3.1,0-5.2-1.3-5.2-5.1L614.2,1120
		L614.2,1120z"/>
	<path d="M629.1,1132.8H625v-16.3h4.1v2.6c1.1-1.7,3-2.8,5-2.8v4.3h-1c-2.4,0-4,0.9-4,4.1V1132.8z"/>
	<path d="M643.2,1116.2c2.1-0.1,4.1,0.9,5.3,2.6v-2.3h4.2v16.3h-4.2v-2.4c-1.3,1.7-3.3,2.8-5.5,2.7c-4.1,0-7.4-3.4-7.4-8.5
		S639.1,1116.2,643.2,1116.2z M644.2,1119.8c-2.2,0-4.3,1.6-4.3,4.8s2.1,4.9,4.3,4.9s4.3-1.7,4.3-4.8S646.5,1119.8,644.2,1119.8
		L644.2,1119.8z"/>
	<path d="M663,1133.1c-4.1,0-7-2.4-7.1-5.5h4.2c0.2,1.4,1.5,2.4,2.9,2.2c1.6,0,2.5-0.7,2.5-1.6c0-2.9-9.2-1-9.2-7.1
		c0-2.7,2.4-4.9,6.4-4.9s6.3,2.2,6.6,5.3h-4c-0.1-1.3-1.2-2.1-2.8-2.1s-2.3,0.6-2.3,1.5c0,3,9.1,1.2,9.2,7.1
		C669.5,1131,667,1133.1,663,1133.1z"/>
	<path d="M673.2,1120h-1.9v-3.4h1.9v-0.8c0-4,2.3-5.8,6.9-5.7v3.5c-2-0.1-2.7,0.6-2.7,2.4v0.7h2.9v3.4h-2.9v12.9h-4.2V1120z"/>
	<path d="M690.1,1133.1c-4.8,0-8.1-3.3-8.1-8.4s3.4-8.4,8.1-8.4c4.2-0.2,7.8,3,8,7.2c0,0.3,0,0.5,0,0.8c0,0.6,0,1.1-0.1,1.7h-12
		c0,2.1,1.7,3.8,3.8,3.7c0.1,0,0.1,0,0.2,0c1.4,0.1,2.7-0.7,3.2-2h4.4C696.8,1130.8,694.1,1133.1,690.1,1133.1z M686.1,1123.1h7.8
		c-0.1-2-1.7-3.5-3.7-3.5c-0.1,0-0.1,0-0.2,0C688,1119.5,686.3,1121.1,686.1,1123.1z"/>
	<path d="M705.3,1132.8h-4.2v-16.3h4.1v2.6c1.1-1.7,3-2.8,5-2.8v4.3h-0.9c-2.4,0-3.9,0.9-3.9,4.1L705.3,1132.8z"/>
	<path d="M712.6,1112.2c0-1.3,1.1-2.4,2.4-2.4c0.1,0,0.1,0,0.2,0c1.4,0,2.5,1,2.6,2.4c0,0,0,0,0,0c0,1.4-1.1,2.6-2.6,2.6
		C713.7,1114.7,712.6,1113.6,712.6,1112.2z M713.1,1116.5h4.1v16.3h-4.1V1116.5z"/>
	<path d="M730.7,1116.2c4.2,0,7.4,3.2,7.4,8.4s-3.2,8.5-7.4,8.5c-2.1,0.1-4.1-0.9-5.3-2.6v2.3h-4.1V1111h4.1v7.9
		C726.6,1117.2,728.6,1116.2,730.7,1116.2z M729.7,1119.8c-2.4,0.1-4.4,2.1-4.3,4.5c0,0.1,0,0.2,0,0.3c0,3,2.1,4.8,4.3,4.8
		s4.3-1.7,4.3-4.9S731.9,1119.8,729.7,1119.8z"/>
	<path d="M741.2,1111h4.1v21.8h-4.1V1111z"/>
	<path d="M756.5,1133.1c-4.8,0-8.1-3.3-8.1-8.4s3.4-8.4,8.1-8.4c4.2-0.2,7.8,3,8,7.2c0,0.3,0,0.5,0,0.8c0,0.5,0,1.1-0.1,1.6h-12
		c0,2.1,1.7,3.8,3.8,3.7c0,0,0.1,0,0.1,0c1.4,0.1,2.7-0.7,3.2-2h4.4C763.2,1130.8,760.6,1133.1,756.5,1133.1z M752.5,1123.1h7.8
		c-0.1-2-1.7-3.5-3.7-3.5c-0.1,0-0.1,0-0.2,0C754.4,1119.5,752.7,1121.1,752.5,1123.1L752.5,1123.1z"/>
	<path d="M769.4,1133.1c-1.3,0-2.4-1.1-2.4-2.4c0-1.3,1.1-2.4,2.4-2.4l0,0c1.4,0,2.5,1,2.6,2.4c0,0,0,0,0,0
		C771.9,1132,770.8,1133,769.4,1133.1z"/>
	<path d="M799.7,1112.3v20.6h-4.1l-9.3-14v14h-4.1v-20.6h4.1l9.3,14.2v-14.2H799.7z"/>
	<path d="M811.1,1133.1c-4.8,0-8.2-3.3-8.2-8.4c0.2-4.6,4-8.2,8.7-8.1c4.4,0.2,7.9,3.7,8.1,8.1c0.1,4.5-3.4,8.2-7.9,8.4
		C811.5,1133.1,811.3,1133.1,811.1,1133.1z M811.1,1129.5c2.2,0,4.3-1.6,4.3-4.9s-2-4.9-4.2-4.9s-4.2,1.5-4.2,4.9
		S808.9,1129.5,811.1,1129.5z"/>
	<path d="M829.6,1111h4.1v21.8h-4.1V1111z"/>
	<path d="M845,1133.1c-4.8,0-8.2-3.3-8.2-8.4c0.2-4.6,4-8.2,8.7-8.1c4.4,0.2,7.9,3.7,8.1,8.1C853.5,1129.8,849.8,1133.1,845,1133.1z
		 M845,1129.5c2.2,0,4.3-1.6,4.3-4.9s-2-4.9-4.2-4.9s-4.2,1.5-4.2,4.9S842.8,1129.5,845,1129.5z"/>
	<path d="M870.6,1116.2c4.1,0,6.8,2.1,7.7,5.8h-4.4c-0.4-1.4-1.8-2.4-3.2-2.3c-2.3,0-3.8,1.7-3.8,4.9s1.5,4.9,3.8,4.9
		c1.5,0.1,2.8-0.8,3.2-2.2h4.4c-0.8,3.5-4,6-7.7,5.8c-4.8,0-8-3.3-8-8.4S865.8,1116.2,870.6,1116.2z"/>
	<path d="M888.6,1133.1c-4.8,0-8.2-3.3-8.2-8.4c0.2-4.6,4-8.2,8.7-8.1c4.4,0.2,7.9,3.7,8.1,8.1c0.1,4.5-3.4,8.2-7.9,8.4
		C889,1133.1,888.8,1133.1,888.6,1133.1z M888.6,1129.5c2.2,0,4.3-1.6,4.3-4.9s-2-4.9-4.2-4.9s-4.2,1.5-4.2,4.9
		S886.4,1129.5,888.6,1129.5z"/>
	<path d="M922.9,1123.8c0-2.6-1.4-4-3.6-4s-3.6,1.4-3.6,4v9.1h-4.1v-9.1c0-2.6-1.4-4-3.6-4s-3.7,1.4-3.7,4v9.1h-4.1v-16.3h4.1v2
		c1.2-1.4,2.9-2.3,4.8-2.2c2.3-0.2,4.6,1.1,5.7,3.1c1.2-2,3.3-3.1,5.6-3.1c4,0,6.7,2.4,6.7,7v9.5H923v-9.1L922.9,1123.8z"/>
	<path d="M940.4,1116.2c4.2,0,7.4,3.2,7.4,8.4s-3.3,8.5-7.4,8.5c-2.1,0-4.1-0.9-5.3-2.6v10.1H931v-24.1h4.1v2.3
		C936.3,1117.2,938.3,1116.2,940.4,1116.2z M939.4,1119.8c-2.4,0.1-4.4,2.1-4.3,4.5c0,0.1,0,0.2,0,0.3c0,3,2.1,4.8,4.3,4.8
		s4.3-1.7,4.3-4.9S941.6,1119.8,939.4,1119.8L939.4,1119.8z"/>
	<path d="M957.3,1116.2c2.1-0.1,4.1,0.9,5.3,2.6v-2.3h4.2v16.3h-4.2v-2.4c-1.3,1.7-3.3,2.8-5.5,2.7c-4.1,0-7.4-3.4-7.4-8.5
		S953.2,1116.2,957.3,1116.2z M958.3,1119.8c-2.2,0-4.3,1.6-4.3,4.8s2.1,4.9,4.3,4.9s4.3-1.7,4.3-4.8S960.6,1119.8,958.3,1119.8
		L958.3,1119.8z"/>
	<path d="M975,1132.8h-4v-16.3h4v2.6c1.1-1.7,3-2.8,5-2.8v4.3h-1c-2.4,0-4,0.9-4,4.1V1132.8z"/>
	<path d="M983.4,1120h-2v-3.4h2v-4.1h4.2v4.1h3.6v3.4h-3.6v7.9c0,1,0.5,1.5,1.7,1.5h1.9v3.5h-2.6c-3.1,0-5.2-1.3-5.2-5.1V1120z"/>
	<path d="M1000.6,1116.2c2.1-0.1,4.1,0.9,5.3,2.6v-2.3h4.2v16.3h-4.2v-2.4c-1.3,1.7-3.3,2.8-5.5,2.7c-4.1,0-7.4-3.4-7.4-8.5
		S996.4,1116.2,1000.6,1116.2z M1001.6,1119.8c-2.2,0-4.3,1.6-4.3,4.8s2.1,4.9,4.3,4.9s4.3-1.7,4.3-4.8S1003.8,1119.8,1001.6,1119.8
		L1001.6,1119.8z"/>
	<path d="M1020.3,1133.1c-4.1,0-7-2.4-7.1-5.5h4.2c0.2,1.4,1.5,2.4,2.9,2.2c1.6,0,2.5-0.7,2.5-1.6c0-2.9-9.2-1-9.2-7.1
		c0-2.7,2.4-4.9,6.4-4.9c4,0,6.3,2.2,6.6,5.3h-4c-0.1-1.3-1.2-2.1-2.8-2.1s-2.3,0.6-2.3,1.5c0,3,9.1,1.2,9.2,7.1
		C1026.8,1131,1024.4,1133.1,1020.3,1133.1z"/>
</g>
<g>
	<path d="M133.7,1165.3h-9.3l-1.8,4.9h-2.2l7.4-20.1h2.3l7.4,20.1h-2.2L133.7,1165.3z M129.1,1152.5l-4.1,11h8L129.1,1152.5z"/>
	<path d="M147.6,1153.9c4,0,6.6,2.1,7.3,5.5h-2.2c-0.6-2.3-2.7-3.9-5.1-3.7c-3.1,0-5.7,2.1-5.7,6.4s2.6,6.5,5.7,6.5
		c2.4,0.2,4.6-1.4,5.1-3.7h2.2c-0.7,3.1-3.4,5.5-7.3,5.5c-4.5,0-7.8-3.1-7.8-8.2S143.1,1153.9,147.6,1153.9z"/>
	<path d="M165.5,1153.9c3.9,0,6.6,2.1,7.3,5.5h-2.2c-0.6-2.3-2.7-3.9-5.1-3.7c-3.1,0-5.7,2.1-5.7,6.4s2.6,6.5,5.7,6.5
		c2.4,0.2,4.6-1.4,5.1-3.7h2.2c-0.7,3.1-3.4,5.5-7.3,5.5c-4.5,0-7.8-3.1-7.8-8.2S161,1153.9,165.5,1153.9z"/>
	<path d="M183.4,1170.2c-4.5,0-7.8-3.1-7.8-8.2s3.2-8.2,7.8-8.2c4-0.2,7.4,2.9,7.5,6.9c0,0.2,0,0.4,0,0.5c0,0.5,0,1.1-0.1,1.6h-13.2
		c0.2,3.7,2.8,5.7,5.7,5.7c2.3,0.2,4.5-1.3,5.1-3.6h2.2C190,1168,187.5,1170.2,183.4,1170.2z M177.7,1161.2h11.1
		c0.1-3.7-2.6-5.6-5.6-5.6C180.5,1155.6,178,1157.5,177.7,1161.2z"/>
	<path d="M200.3,1170.2c-3.6,0-6.2-1.9-6.4-4.8h2.1c0.2,1.7,1.7,3,4.3,3c2.3,0,3.6-1.3,3.6-2.8c0-4-9.5-1.6-9.5-7.7
		c0-2.3,2.2-4.3,5.6-4.3s5.7,1.9,5.8,4.9h-2.1c-0.1-1.7-1.4-3.1-3.8-3.1c-2.1,0-3.5,1.2-3.5,2.6c0,4.3,9.4,2,9.5,7.7
		C205.7,1168.4,203.5,1170.2,200.3,1170.2z"/>
	<path d="M215.1,1170.2c-3.6,0-6.2-1.9-6.4-4.8h2.1c0.2,1.7,1.7,3,4.3,3c2.3,0,3.6-1.3,3.6-2.8c0-4-9.5-1.6-9.5-7.7
		c0-2.3,2.2-4.3,5.6-4.3s5.7,1.9,5.8,4.9h-2.1c-0.1-1.7-1.4-3.1-3.8-3.1c-2.1,0-3.5,1.2-3.5,2.6c0,4.3,9.4,2,9.5,7.7
		C220.6,1168.4,218.4,1170.2,215.1,1170.2z"/>
	<path d="M242.9,1155.6h-2.4c-1.2-2.7-3.9-4.4-6.9-4.3c-4.5,0-8,3.3-8,8.6s3.5,8.6,8,8.6c4.3,0,7.4-2.9,7.8-7.6h-8.6v-1.6h10.7v1.5
		c-0.1,5.3-4.5,9.6-9.9,9.5c-5.7,0-10.1-4.3-10.1-10.5c-0.2-5.5,4.1-10.2,9.6-10.4c0.2,0,0.3,0,0.5,0
		C237.7,1149.3,241.4,1151.8,242.9,1155.6z"/>
	<path d="M254.3,1170.2c-4.5,0-7.9-3.1-7.9-8.2s3.5-8.2,8-8.2s8,3.1,8,8.2S258.7,1170.2,254.3,1170.2z M254.3,1168.5
		c3,0,5.9-2.1,5.9-6.4s-2.9-6.4-5.9-6.4s-5.8,2.1-5.8,6.4S251.3,1168.5,254.3,1168.5z"/>
	<path d="M265.6,1166.7h2.3l-3,7.7h-1.4L265.6,1166.7z"/>
	<path d="M291,1161c0-3.5-2-5.3-4.9-5.3s-5,1.9-5,5.7v8.7H279v-15.9h2.1v2.7c1.1-2,3.2-3.1,5.5-3c3.6,0,6.5,2.2,6.5,6.9v9.3H291
		V1161z"/>
	<path d="M297,1149.6c0-0.8,0.7-1.5,1.5-1.5s1.5,0.7,1.5,1.5c0,0.8-0.7,1.5-1.5,1.5C297.7,1151.1,297,1150.5,297,1149.6
		C297,1149.6,297,1149.6,297,1149.6z M297.5,1154.1h2.1v15.9h-2.1V1154.1z"/>
	<path d="M319,1170.2c-4.5,0-7.8-3.1-7.8-8.2s3.3-8.2,7.8-8.2c4-0.2,7.4,2.9,7.5,6.9c0,0.2,0,0.4,0,0.5c0,0.5,0,1.1-0.1,1.6h-13.2
		c0.2,3.7,2.8,5.7,5.7,5.7c2.3,0.2,4.5-1.3,5.1-3.6h2.2C325.6,1168,323.1,1170.2,319,1170.2z M313.3,1161.2h11.2
		c0.1-3.7-2.6-5.6-5.6-5.6C316.1,1155.6,313.5,1157.5,313.3,1161.2z"/>
	<path d="M330.3,1148.4h2.1v21.6h-2.1V1148.4z"/>
	<path d="M351.9,1170.2c-4.5,0-7.9-3.1-7.9-8.2s3.5-8.2,8-8.2s8,3.1,8,8.2c0.2,4.3-3.1,8-7.4,8.2
		C352.3,1170.3,352.1,1170.3,351.9,1170.2z M351.9,1168.5c3,0,5.9-2.1,5.9-6.4s-2.9-6.4-5.9-6.4s-5.8,2.1-5.8,6.4
		S348.9,1168.5,351.9,1168.5z"/>
	<path d="M365.7,1170h-2.1v-15.9h2.1v2.8c0.9-2,2.7-3.1,5.5-3.1v2.1h-0.6c-2.7,0-4.9,1.2-4.9,5.2V1170z"/>
	<path d="M380.9,1153.9c2.6-0.1,5.1,1.4,6.3,3.7v-3.5h2.1v16.4c0.2,3.9-2.8,7.2-6.7,7.4c-0.2,0-0.5,0-0.7,0c-4.1,0-7-2.1-7.7-5.5h2
		c0.7,2.2,2.7,3.6,5.6,3.6s5.3-2,5.3-5.6v-4c-1.1,2.4-3.6,3.9-6.3,3.7c-4.4,0-7.7-3.2-7.7-8.2S376.5,1153.9,380.9,1153.9z
		 M381.3,1155.6c-3.4,0-5.9,2.3-5.9,6.4s2.6,6.4,5.9,6.4s5.9-2.4,5.9-6.4S384.5,1155.6,381.3,1155.6L381.3,1155.6z"/>
	<path d="M400.5,1153.9c2.6-0.1,5.1,1.3,6.3,3.7v-3.5h2.1v15.9h-2.1v-3.5c-1.1,2.4-3.6,3.9-6.3,3.7c-4.3,0-7.5-3.2-7.5-8.2
		S396.2,1153.9,400.5,1153.9z M401,1155.6c-3.4,0-5.9,2.3-5.9,6.4s2.6,6.4,5.9,6.4s5.9-2.4,5.9-6.4S404.3,1155.6,401,1155.6
		L401,1155.6z"/>
	<path d="M425.5,1161c0-3.5-2-5.3-4.9-5.3s-5,1.9-5,5.7v8.7h-2.1v-15.9h2.1v2.7c1.1-2,3.2-3.1,5.5-3c3.6,0,6.5,2.2,6.5,6.9v9.3h-2
		L425.5,1161L425.5,1161z"/>
	<path d="M431.6,1149.6c0-0.8,0.7-1.5,1.5-1.5s1.5,0.7,1.5,1.5c0,0.8-0.7,1.5-1.5,1.5C432.3,1151.1,431.6,1150.5,431.6,1149.6
		C431.6,1149.6,431.6,1149.6,431.6,1149.6z M432,1154.1h2.1v15.9H432L432,1154.1z"/>
	<path d="M448.1,1155.8l-8.2,12.5h8.4v1.8h-10.7v-1.8l8.2-12.5h-8v-1.8h10.3L448.1,1155.8z"/>
	<path d="M458.3,1153.9c2.6-0.1,5.1,1.3,6.3,3.7v-3.5h2.1v15.9h-2.1v-3.5c-1.1,2.4-3.6,3.9-6.3,3.7c-4.3,0-7.5-3.2-7.5-8.2
		S453.9,1153.9,458.3,1153.9z M458.6,1155.6c-3.4,0-5.9,2.3-5.9,6.4s2.6,6.4,5.9,6.4s5.9-2.4,5.9-6.4S461.9,1155.6,458.6,1155.6z"/>
	<path d="M478,1153.9c2.6,0,5,1.4,6.3,3.7v-9.1h2.1v21.6h-2.1v-3.6c-1.1,2.4-3.6,3.9-6.3,3.8c-4.4,0-7.7-3.3-7.7-8.2
		S473.6,1153.9,478,1153.9z M478.4,1155.6c-3.4,0-5.9,2.3-5.9,6.4s2.6,6.4,5.9,6.4s5.9-2.4,5.9-6.4S481.6,1155.6,478.4,1155.6
		L478.4,1155.6z"/>
	<path d="M497.9,1170.2c-4.5,0-7.9-3.1-7.9-8.2s3.5-8.2,8-8.2s8,3.1,8,8.2S502.4,1170.2,497.9,1170.2z M497.9,1168.5
		c3,0,5.9-2.1,5.9-6.4s-2.9-6.4-5.9-6.4s-5.8,2.1-5.8,6.4S494.9,1168.5,497.9,1168.5z"/>
	<path d="M511.7,1170h-2.1v-15.9h2.1v2.8c0.9-2,2.7-3.1,5.5-3.1v2.1h-0.6c-2.7,0-4.9,1.2-4.9,5.2L511.7,1170z"/>
	<path d="M519.9,1166.7h2.3l-3,7.7h-1.4L519.9,1166.7z"/>
	<path d="M538.8,1170.2c-3.6,0-6.2-1.9-6.4-4.8h2.1c0.2,1.7,1.7,3,4.3,3c2.3,0,3.6-1.3,3.6-2.8c0-4-9.5-1.6-9.5-7.7
		c0-2.3,2.2-4.3,5.6-4.3s5.7,1.9,5.8,4.9h-2.1c-0.1-1.7-1.4-3.1-3.8-3.1c-2.1,0-3.5,1.2-3.5,2.6c0,4.3,9.4,2,9.5,7.7
		C544.3,1168.4,542,1170.2,538.8,1170.2z"/>
	<path d="M555.1,1170.2c-4.5,0-7.8-3.1-7.8-8.2s3.2-8.2,7.8-8.2c4-0.2,7.4,2.9,7.5,6.9c0,0.2,0,0.4,0,0.5c0,0.5,0,1.1-0.1,1.6h-13.2
		c0.2,3.7,2.8,5.7,5.7,5.7c2.3,0.2,4.5-1.3,5.1-3.6h2.2C561.6,1168,559,1170.2,555.1,1170.2z M549.2,1161.2h11.2
		c0.1-3.7-2.6-5.6-5.6-5.6C552,1155.6,549.5,1157.5,549.2,1161.2z"/>
	<path d="M574.2,1148.4h2.1v8.4c1.1-2,3.3-3.1,5.6-3c3.5,0,6.4,2.2,6.4,6.9v9.3h-2v-9.1c0-3.5-2-5.3-4.9-5.3s-5,1.9-5,5.7v8.7h-2.1
		L574.2,1148.4L574.2,1148.4z"/>
	<path d="M599.4,1153.9c2.6-0.1,5.1,1.3,6.3,3.7v-3.5h2.1v15.9h-2.1v-3.5c-1.1,2.4-3.6,3.9-6.3,3.7c-4.3,0-7.5-3.2-7.5-8.2
		S595,1153.9,599.4,1153.9z M599.8,1155.6c-3.4,0-5.9,2.3-5.9,6.4s2.6,6.4,5.9,6.4s5.9-2.4,5.9-6.4S603,1155.6,599.8,1155.6z"/>
	<path d="M619.2,1153.9c4,0,6.6,2.1,7.3,5.5h-2.2c-0.6-2.3-2.7-3.9-5.1-3.7c-3.1,0-5.7,2.1-5.7,6.4s2.5,6.5,5.7,6.5
		c2.4,0.2,4.6-1.4,5.1-3.7h2.2c-0.7,3.1-3.4,5.5-7.3,5.5c-4.5,0-7.8-3.1-7.8-8.2S614.7,1153.9,619.2,1153.9z"/>
	<path d="M637.2,1170.2c-4.5,0-7.8-3.1-7.8-8.2s3.3-8.2,7.8-8.2c4-0.2,7.4,2.9,7.5,6.9c0,0.2,0,0.4,0,0.5c0,0.5,0,1.1-0.1,1.6h-13.2
		c0.2,3.7,2.8,5.7,5.7,5.7c2.3,0.2,4.5-1.3,5.1-3.6h2.2C643.7,1168,641.2,1170.2,637.2,1170.2z M631.4,1161.2h11.2
		c0.1-3.7-2.5-5.6-5.6-5.6C634.2,1155.6,631.6,1157.5,631.4,1161.2z"/>
	<path d="M660.3,1161c0-3.5-2-5.3-4.9-5.3s-5,1.9-5,5.7v8.7h-2.1v-15.9h2.1v2.7c1.1-2,3.2-3.1,5.5-3c3.6,0,6.5,2.2,6.5,6.9v9.3h-2
		L660.3,1161L660.3,1161z"/>
	<path d="M681.7,1153.9c4,0,6.6,2.1,7.3,5.5h-2.2c-0.6-2.3-2.7-3.9-5.1-3.7c-3.1,0-5.7,2.1-5.7,6.4s2.5,6.5,5.7,6.5
		c2.4,0.2,4.6-1.4,5.1-3.7h2.2c-0.7,3.1-3.4,5.5-7.3,5.5c-4.5,0-7.8-3.1-7.8-8.2S677.2,1153.9,681.7,1153.9z"/>
	<path d="M699.5,1153.9c2.6-0.1,5.1,1.3,6.3,3.7v-3.5h2.1v15.9h-2.1v-3.5c-1.1,2.4-3.6,3.9-6.3,3.7c-4.3,0-7.5-3.2-7.5-8.2
		S695,1153.9,699.5,1153.9z M699.8,1155.6c-3.4,0-5.9,2.3-5.9,6.4s2.6,6.4,5.9,6.4s5.9-2.4,5.9-6.4S703.1,1155.6,699.8,1155.6z"/>
	<path d="M714.5,1170h-2.1v-15.9h2.1v2.8c0.9-2,2.7-3.1,5.5-3.1v2.1h-0.6c-2.7,0-4.9,1.2-4.9,5.2V1170z"/>
	<path d="M729.7,1153.9c2.6-0.1,5.1,1.4,6.3,3.7v-3.5h2.1v16.4c0.2,3.9-2.8,7.2-6.7,7.4c-0.2,0-0.5,0-0.7,0c-4.1,0-7-2.1-7.7-5.5h2
		c0.7,2.2,2.7,3.6,5.6,3.6s5.3-2,5.3-5.6v-4c-1.1,2.4-3.6,3.9-6.3,3.7c-4.4,0-7.7-3.2-7.7-8.2S725.3,1153.9,729.7,1153.9z
		 M730,1155.6c-3.4,0-5.9,2.3-5.9,6.4s2.5,6.4,5.9,6.4s5.9-2.4,5.9-6.4S733.3,1155.6,730,1155.6L730,1155.6z"/>
	<path d="M749.7,1170.2c-4.5,0-7.9-3.1-7.9-8.2s3.5-8.2,8-8.2s8,3.1,8,8.2S754.1,1170.2,749.7,1170.2z M749.7,1168.5
		c3,0,5.9-2.1,5.9-6.4s-2.9-6.4-5.9-6.4s-5.8,2.1-5.8,6.4S746.6,1168.5,749.7,1168.5z"/>
	<path d="M776,1153.9c2.6,0,5,1.4,6.3,3.7v-9.1h2.1v21.6h-2.1v-3.6c-1.1,2.4-3.6,3.9-6.3,3.8c-4.4,0-7.7-3.3-7.7-8.2
		S771.7,1153.9,776,1153.9z M776.3,1155.6c-3.4,0-5.9,2.3-5.9,6.4s2.5,6.4,5.9,6.4s5.9-2.4,5.9-6.4S779.7,1155.6,776.3,1155.6
		L776.3,1155.6z"/>
	<path d="M795.9,1170.2c-4.5,0-7.8-3.1-7.8-8.2s3.2-8.2,7.8-8.2c4-0.2,7.4,2.9,7.5,6.9c0,0.2,0,0.4,0,0.5c0,0.5,0,1.1-0.1,1.6h-13.2
		c0.2,3.7,2.8,5.7,5.7,5.7c2.4,0.2,4.5-1.3,5.1-3.6h2.2C802.5,1168,800,1170.2,795.9,1170.2z M790.2,1161.2h11.2
		c0.1-3.7-2.6-5.6-5.6-5.6C793,1155.6,790.4,1157.5,790.2,1161.2z"/>
	<path d="M807.2,1148.4h2.1v21.6h-2.1V1148.4z"/>
	<path d="M845.2,1161c0-3.5-1.9-5.3-4.7-5.3s-4.9,2-4.9,5.8v8.6h-2.1v-9.1c0-3.5-1.9-5.3-4.7-5.3s-4.9,2-4.9,5.8v8.6h-2.1v-16h2.1
		v2.8c1-1.9,3.1-3.1,5.2-3c2.6-0.1,5.1,1.5,5.9,4c0.9-2.4,3.1-4,5.7-4c3.5,0,6.3,2.2,6.3,6.9v9.2h-2L845.2,1161z"/>
	<path d="M858.4,1153.9c2.6-0.1,5.1,1.3,6.3,3.7v-3.5h2.1v15.9h-2.1v-3.5c-1.2,2.4-3.6,3.9-6.3,3.7c-4.3,0-7.5-3.2-7.5-8.2
		S854,1153.9,858.4,1153.9z M858.7,1155.6c-3.4,0-5.9,2.3-5.9,6.4s2.5,6.4,5.9,6.4s5.9-2.4,5.9-6.4S862,1155.6,858.7,1155.6z"/>
	<path d="M871.3,1148.4h2.1v21.6h-2.1V1148.4z"/>
	<path d="M899.8,1170h-2.1v-2.8c-1.1,2-3.2,3.2-5.5,3c-3.6,0-6.5-2.2-6.5-6.8v-9.3h2v9.1c0,3.5,2,5.3,4.9,5.3s5-1.9,5-5.7v-8.7h2.1
		L899.8,1170L899.8,1170z"/>
	<path d="M910,1170.2c-3.6,0-6.2-1.9-6.4-4.8h2.1c0.2,1.7,1.8,3,4.3,3c2.3,0,3.6-1.3,3.6-2.8c0-4-9.5-1.6-9.5-7.7
		c0-2.3,2.2-4.3,5.6-4.3s5.7,1.9,5.8,4.9h-2.1c-0.1-1.7-1.4-3.1-3.8-3.1c-2.1,0-3.5,1.2-3.5,2.6c0,4.3,9.4,2,9.5,7.7
		C915.4,1168.4,913.2,1170.2,910,1170.2z"/>
	<path d="M926.3,1170.2c-4.5,0-7.9-3.1-7.9-8.2s3.5-8.2,8-8.2s8,3.1,8,8.2S930.8,1170.2,926.3,1170.2z M926.3,1168.5
		c3,0,5.9-2.1,5.9-6.4s-2.9-6.4-5.9-6.4s-5.8,2.1-5.8,6.4S923.3,1168.5,926.3,1168.5z"/>
	<path d="M952.7,1153.9c2.6,0,5,1.4,6.3,3.7v-9.1h2.1v21.6H959v-3.6c-1.1,2.4-3.6,3.9-6.3,3.8c-4.4,0-7.7-3.3-7.7-8.2
		S948.3,1153.9,952.7,1153.9z M953.1,1155.6c-3.4,0-5.9,2.3-5.9,6.4s2.5,6.4,5.9,6.4s5.9-2.4,5.9-6.4S956.3,1155.6,953.1,1155.6z"/>
	<path d="M972.6,1170.2c-4.5,0-7.8-3.1-7.8-8.2s3.2-8.2,7.8-8.2c4-0.2,7.4,2.9,7.5,6.9c0,0.2,0,0.4,0,0.5c0,0.5,0,1.1-0.1,1.6h-13.2
		c0.2,3.7,2.8,5.7,5.7,5.7c2.4,0.2,4.5-1.3,5.1-3.6h2.2C979.2,1168,976.7,1170.2,972.6,1170.2z M966.9,1161.2h11.2
		c0.1-3.7-2.5-5.6-5.6-5.6C969.7,1155.6,967.1,1157.5,966.9,1161.2z"/>
	<path d="M983.9,1148.4h2.1v21.6h-2.1L983.9,1148.4z"/>
	<path d="M1021.8,1161c0-3.5-1.9-5.3-4.7-5.3s-4.9,2-4.9,5.8v8.6h-2v-9.1c0-3.5-1.9-5.3-4.7-5.3s-4.9,2-4.9,5.8v8.6h-2.3v-16h2.1
		v2.8c1-1.9,3.1-3.1,5.2-3c2.6-0.1,5,1.5,5.9,4c0.9-2.4,3.1-4,5.7-4c3.5,0,6.3,2.2,6.3,6.9v9.2h-2v-9H1021.8z"/>
	<path d="M1027.9,1149.6c0-0.8,0.7-1.5,1.5-1.5s1.5,0.7,1.5,1.5s-0.7,1.5-1.5,1.5C1028.6,1151.1,1027.9,1150.5,1027.9,1149.6
		C1027.9,1149.6,1027.9,1149.6,1027.9,1149.6z M1028.3,1154.1h2.1v15.9h-2.1V1154.1z"/>
	<path d="M1040.4,1170.2c-3.6,0-6.2-1.9-6.4-4.8h2.1c0.2,1.7,1.7,3,4.3,3c2.3,0,3.6-1.3,3.6-2.8c0-4-9.5-1.6-9.5-7.7
		c0-2.3,2.2-4.3,5.6-4.3s5.7,1.9,5.8,4.9h-2.1c-0.1-1.7-1.4-3.1-3.8-3.1c-2.1,0-3.5,1.2-3.5,2.6c0,4.3,9.4,2,9.5,7.7
		C1046,1168.4,1043.8,1170.2,1040.4,1170.2z"/>
	<path d="M1073.2,1161c0-3.5-1.9-5.3-4.7-5.3s-4.9,2-4.9,5.8v8.6h-2v-9.1c0-3.5-1.9-5.3-4.7-5.3s-4.9,2-4.9,5.8v8.6h-2.1v-16h2.1
		v2.8c1-1.9,3.1-3.1,5.2-3c2.6-0.1,5,1.5,5.9,4c0.9-2.4,3.1-4,5.7-4c3.5,0,6.3,2.2,6.3,6.9v9.2h-2L1073.2,1161L1073.2,1161z"/>
	<path d="M1086.7,1170.2c-4.5,0-7.9-3.1-7.9-8.2s3.5-8.2,8-8.2s8,3.1,8,8.2S1091.1,1170.2,1086.7,1170.2z M1086.7,1168.5
		c3,0,5.9-2.1,5.9-6.4s-2.9-6.4-5.9-6.4s-5.8,2.1-5.8,6.4S1083.7,1168.5,1086.7,1168.5z"/>
	<path d="M1098.8,1170.1c-0.8,0-1.5-0.7-1.5-1.5s0.7-1.5,1.5-1.5s1.5,0.7,1.5,1.5C1100.3,1169.4,1099.6,1170.1,1098.8,1170.1z"/>
</g>
<g>
	<path d="M92.2,1193.8h-4.1v8.7h-2.1v-20.3h6.2c4.8,0,6.8,2.6,6.8,5.8S97,1193.8,92.2,1193.8z M92.2,1192.1c3.5,0,4.8-1.6,4.8-4.1
		c0-2.7-1.4-4.2-4.8-4.2h-4.1v8.2H92.2z"/>
	<path d="M116.3,1202.6h-2.1v-2.8c-1.1,2-3.2,3.2-5.5,3c-3.6,0-6.5-2.2-6.5-6.8v-9.3h2v9.1c0,3.5,2,5.3,4.9,5.3s5-1.9,5-5.7v-8.7
		h2.1L116.3,1202.6L116.3,1202.6z"/>
	<path d="M127.8,1202.8c-4.5,0-7.8-3.1-7.8-8.2s3.2-8.2,7.8-8.2c4-0.2,7.4,2.9,7.6,6.9c0,0.2,0,0.4,0,0.5c0,0.5,0,1.1-0.1,1.6H122
		c0.2,3.7,2.8,5.7,5.7,5.7c2.3,0.2,4.5-1.3,5.1-3.6h2.2C134.4,1200.6,131.8,1202.8,127.8,1202.8z M122.1,1193.7h11.2
		c0.1-3.7-2.6-5.6-5.6-5.6C124.9,1188.1,122.3,1190,122.1,1193.7z"/>
	<path d="M145.8,1186.4c2.6,0,5,1.4,6.3,3.7v-9.1h2.1v21.6h-2.1v-3.6c-1.1,2.4-3.6,3.9-6.3,3.8c-4.4,0-7.7-3.3-7.7-8.2
		S141.4,1186.4,145.8,1186.4z M146.1,1188.1c-3.4,0-5.9,2.3-5.9,6.4s2.6,6.4,5.9,6.4s5.9-2.4,5.9-6.4S149.4,1188.1,146.1,1188.1z"/>
	<path d="M165.6,1202.8c-4.5,0-7.8-3.1-7.8-8.2s3.3-8.2,7.8-8.2c4-0.2,7.4,2.9,7.5,6.9c0,0.2,0,0.4,0,0.5c0,0.5,0,1.1-0.1,1.6h-13.2
		c0.2,3.7,2.8,5.7,5.7,5.7c2.3,0.2,4.5-1.3,5.1-3.6h2.2C172.1,1200.6,169.6,1202.8,165.6,1202.8z M159.8,1193.7H171
		c0.1-3.7-2.6-5.6-5.6-5.6C162.6,1188.1,160.1,1190,159.8,1193.7z"/>
	<path d="M182.4,1202.8c-3.6,0-6.2-1.9-6.4-4.8h2.1c0.2,1.7,1.7,3,4.3,3c2.3,0,3.6-1.3,3.6-2.8c0-4-9.5-1.6-9.5-7.7
		c0-2.3,2.2-4.3,5.6-4.3s5.7,1.9,5.8,4.9h-2.1c-0.1-1.7-1.4-3.1-3.8-3.1c-2.1,0-3.5,1.2-3.5,2.6c0,4.3,9.4,2,9.5,7.7
		C188,1200.9,185.6,1202.8,182.4,1202.8z"/>
	<path d="M206.7,1202.8c-4.5,0-7.8-3.1-7.8-8.2s3.3-8.2,7.8-8.2c4-0.2,7.4,2.9,7.5,6.9c0,0.2,0,0.4,0,0.5c0,0.5,0,1.1-0.1,1.6h-13.2
		c0.2,3.7,2.8,5.7,5.7,5.7c2.3,0.2,4.5-1.3,5.1-3.6h2.2C213.2,1200.6,210.6,1202.8,206.7,1202.8z M200.9,1193.7H212
		c0.1-3.7-2.6-5.6-5.6-5.6C203.6,1188.1,201.1,1190,200.9,1193.7z"/>
	<path d="M223.4,1202.8c-3.6,0-6.2-1.9-6.4-4.8h2.1c0.2,1.7,1.7,3,4.3,3c2.3,0,3.6-1.3,3.6-2.8c0-4-9.5-1.6-9.5-7.7
		c0-2.3,2.2-4.3,5.6-4.3s5.7,1.9,5.8,4.9h-2.1c-0.1-1.7-1.4-3.1-3.8-3.1c-2.1,0-3.5,1.2-3.5,2.6c0,4.3,9.4,2,9.5,7.7
		C228.9,1200.9,226.6,1202.8,223.4,1202.8z"/>
	<path d="M239.5,1186.4c3.9,0,6.6,2.1,7.3,5.5h-2.2c-0.6-2.3-2.7-3.9-5.1-3.7c-3.1,0-5.7,2.1-5.7,6.4s2.6,6.5,5.7,6.5
		c2.4,0.2,4.6-1.4,5.1-3.7h2.2c-0.7,3.1-3.4,5.5-7.3,5.5c-4.5,0-7.8-3.1-7.8-8.2S235,1186.4,239.5,1186.4z"/>
	<path d="M257.3,1186.4c2.6-0.1,5.1,1.3,6.3,3.7v-3.5h2.1v15.9h-2.1v-3.5c-1.1,2.4-3.6,3.9-6.3,3.7c-4.3,0-7.6-3.2-7.6-8.2
		S252.9,1186.4,257.3,1186.4z M257.7,1188.1c-3.4,0-5.9,2.3-5.9,6.4s2.6,6.4,5.9,6.4s5.9-2.4,5.9-6.4S260.9,1188.1,257.7,1188.1z"/>
	<path d="M282.3,1193.5c0-3.5-2-5.3-4.9-5.3s-5,1.9-5,5.7v8.7h-2.1v-15.9h2.1v2.7c1.1-2,3.2-3.1,5.5-3c3.6,0,6.5,2.2,6.5,6.9v9.3h-2
		L282.3,1193.5L282.3,1193.5z"/>
	<path d="M295.6,1202.8c-4.5,0-7.8-3.1-7.8-8.2s3.3-8.2,7.8-8.2c4-0.2,7.4,2.9,7.5,6.9c0,0.2,0,0.4,0,0.5c0,0.5,0,1.1-0.1,1.6h-13.2
		c0.2,3.7,2.8,5.7,5.7,5.7c2.3,0.2,4.5-1.3,5.1-3.6h2.2C302.1,1200.6,299.6,1202.8,295.6,1202.8z M289.9,1193.7h11.2
		c0.1-3.7-2.6-5.6-5.6-5.6S290.2,1190,289.9,1193.7L289.9,1193.7z"/>
	<path d="M313.5,1186.4c2.6-0.1,5.1,1.3,6.3,3.7v-3.5h2.1v15.9h-2.1v-3.5c-1.1,2.4-3.6,3.9-6.3,3.7c-4.3,0-7.5-3.2-7.5-8.2
		S309.2,1186.4,313.5,1186.4z M314,1188.1c-3.4,0-5.9,2.3-5.9,6.4s2.5,6.4,5.9,6.4s5.9-2.4,5.9-6.4S317.2,1188.1,314,1188.1z"/>
	<path d="M328.6,1202.6h-2.1v-15.9h2.1v2.8c0.9-2,2.7-3.1,5.5-3.1v2.1h-0.6c-2.7,0-4.9,1.2-4.9,5.2V1202.6z"/>
	<path d="M345.7,1188.4h-2.2v-1.7h2.2v-4h2.1v4h4.4v1.7h-4.4v9.9c0,2,0.7,2.6,2.5,2.6h1.9v1.8H350c-2.8,0-4.3-1.2-4.3-4.3
		L345.7,1188.4z"/>
	<path d="M369.3,1202.6h-2.1v-2.8c-1.1,2-3.2,3.2-5.5,3c-3.6,0-6.5-2.2-6.5-6.8v-9.3h2v9.1c0,3.5,2,5.3,4.9,5.3s5-1.9,5-5.7v-8.7
		h2.1L369.3,1202.6L369.3,1202.6z"/>
	<path d="M390.3,1186.4c4.3,0,7.5,3.1,7.5,8.1s-3.2,8.2-7.5,8.2c-2.6,0.1-5.1-1.4-6.3-3.7v11h-2v-23.5h2v3.5
		C385.2,1187.7,387.7,1186.2,390.3,1186.4z M389.9,1188.1c-3.2,0-5.9,2.4-5.9,6.4s2.7,6.4,5.9,6.4s5.9-2.4,5.9-6.4
		S393.2,1188.1,389.9,1188.1z"/>
	<path d="M408.3,1186.4c2.6-0.1,5.1,1.3,6.3,3.7v-3.5h2.1v15.9h-2.1v-3.5c-1.2,2.4-3.6,3.9-6.3,3.7c-4.3,0-7.5-3.2-7.5-8.2
		S403.9,1186.4,408.3,1186.4z M408.7,1188.1c-3.4,0-5.9,2.3-5.9,6.4s2.5,6.4,5.9,6.4s5.9-2.4,5.9-6.4S411.9,1188.1,408.7,1188.1z"/>
	<path d="M433.2,1193.5c0-3.5-2-5.3-4.9-5.3s-5,1.9-5,5.7v8.7h-2.1v-15.9h2.1v2.7c1.1-2,3.2-3.1,5.5-3c3.6,0,6.5,2.2,6.5,6.9v9.3h-2
		L433.2,1193.5L433.2,1193.5z"/>
	<path d="M440.4,1188.4h-2.2v-1.7h2.2v-4h2.1v4h4.4v1.7h-4.4v9.9c0,2,0.7,2.6,2.6,2.6h1.9v1.8h-2.2c-2.8,0-4.3-1.2-4.3-4.3V1188.4z"
		/>
	<path d="M456.9,1186.4c2.6-0.1,5.1,1.3,6.3,3.7v-3.5h2.1v15.9h-2.1v-3.5c-1.1,2.4-3.6,3.9-6.3,3.7c-4.3,0-7.6-3.2-7.6-8.2
		S452.5,1186.4,456.9,1186.4z M457.2,1188.1c-3.4,0-5.9,2.3-5.9,6.4s2.5,6.4,5.9,6.4s5.9-2.4,5.9-6.4S460.5,1188.1,457.2,1188.1z"/>
	<path d="M469.8,1180.9h2.1v21.6h-2.1V1180.9z"/>
	<path d="M476.5,1180.9h2.1v21.6h-2.1V1180.9z"/>
	<path d="M489.9,1186.4c2.6-0.1,5.1,1.3,6.3,3.7v-3.5h2.1v15.9h-2.1v-3.5c-1.1,2.4-3.6,3.9-6.3,3.7c-4.3,0-7.5-3.2-7.5-8.2
		S485.5,1186.4,489.9,1186.4z M490.2,1188.1c-3.4,0-5.9,2.3-5.9,6.4s2.6,6.4,5.9,6.4s5.9-2.4,5.9-6.4S493.5,1188.1,490.2,1188.1
		L490.2,1188.1z"/>
	<path d="M517.9,1202.8c-4.5,0-7.9-3.1-7.9-8.2s3.5-8.2,8-8.2s8,3.1,8,8.2S522.3,1202.8,517.9,1202.8z M517.9,1201
		c3,0,5.9-2.1,5.9-6.4s-2.9-6.4-5.9-6.4s-5.8,2.1-5.8,6.4S514.8,1201,517.9,1201L517.9,1201z"/>
	<path d="M537.9,1186.6l5.3,13.9l5.3-13.9h2.2l-6.4,15.9H542l-6.4-15.9H537.9z"/>
	<path d="M560.5,1202.8c-4.5,0-7.9-3.1-7.9-8.2s3.5-8.2,8-8.2s8,3.1,8,8.2S564.9,1202.8,560.5,1202.8z M560.5,1201
		c3,0,5.9-2.1,5.9-6.4s-2.9-6.4-5.9-6.4s-5.8,2.1-5.8,6.4S557.5,1201,560.5,1201L560.5,1201z"/>
	<path d="M572.3,1180.9h2.1v21.6h-2.1V1180.9z"/>
	<path d="M579.2,1186.6l5.3,13.9l5.3-13.9h2.2l-6.4,15.9h-2.3l-6.4-15.9H579.2z"/>
	<path d="M601.8,1202.8c-4.5,0-7.8-3.1-7.8-8.2s3.2-8.2,7.8-8.2c4-0.2,7.4,2.9,7.6,6.9c0,0.2,0,0.4,0,0.5c0,0.5,0,1.1-0.1,1.6H596
		c0.2,3.7,2.8,5.7,5.7,5.7c2.3,0.2,4.5-1.3,5.1-3.6h2.2C608.3,1200.6,605.7,1202.8,601.8,1202.8z M596.1,1193.7h11.2
		c0.1-3.7-2.5-5.6-5.6-5.6S596.3,1190,596.1,1193.7z"/>
	<path d="M615,1202.6h-2.1v-15.9h2.1v2.8c0.9-2,2.7-3.1,5.5-3.1v2.1h-0.6c-2.7,0-4.9,1.2-4.9,5.2V1202.6z"/>
	<path d="M638.2,1186.4c2.6-0.1,5.1,1.3,6.3,3.7v-3.5h2.1v15.9h-2.1v-3.5c-1.2,2.4-3.6,3.9-6.3,3.7c-4.3,0-7.5-3.2-7.5-8.2
		S633.8,1186.4,638.2,1186.4z M638.6,1188.1c-3.4,0-5.9,2.3-5.9,6.4s2.5,6.4,5.9,6.4s5.9-2.4,5.9-6.4S641.8,1188.1,638.6,1188.1
		L638.6,1188.1z"/>
	<path d="M658.8,1182.1c0-0.8,0.7-1.5,1.5-1.5s1.5,0.7,1.5,1.5s-0.7,1.5-1.5,1.5c-0.8,0-1.5-0.6-1.5-1.4
		C658.8,1182.2,658.8,1182.1,658.8,1182.1z M659.3,1186.6h2.1v15.9h-2.1V1186.6z"/>
	<path d="M677.9,1193.5c0-3.5-2-5.3-4.9-5.3s-5,1.9-5,5.7v8.7h-2.1v-15.9h2.1v2.7c1.1-2,3.2-3.1,5.5-3c3.6,0,6.5,2.2,6.5,6.9v9.3
		h-2.1L677.9,1193.5z"/>
	<path d="M691,1186.4c2.6-0.1,5.1,1.4,6.3,3.7v-3.5h2.1v16.4c0.2,3.9-2.8,7.2-6.7,7.4c-0.2,0-0.5,0-0.7,0c-4.1,0-7-2.1-7.7-5.5h2
		c0.7,2.2,2.7,3.6,5.6,3.6s5.3-2,5.3-5.6v-4c-1.1,2.4-3.6,3.9-6.3,3.7c-4.4,0-7.7-3.2-7.7-8.2C683.4,1189.5,686.7,1186.4,691,1186.4
		z M691.5,1188.1c-3.4,0-5.9,2.3-5.9,6.4s2.5,6.4,5.9,6.4s5.9-2.4,5.9-6.4S694.7,1188.1,691.5,1188.1L691.5,1188.1z"/>
	<path d="M706.1,1202.6H704v-15.9h2.1v2.8c0.9-2,2.7-3.1,5.5-3.1v2.1H711c-2.7,0-4.9,1.2-4.9,5.2L706.1,1202.6z"/>
	<path d="M721.5,1202.8c-4.5,0-7.8-3.1-7.8-8.2s3.2-8.2,7.8-8.2c4-0.2,7.4,2.9,7.5,6.9c0,0.2,0,0.4,0,0.5c0,0.5,0,1.1-0.1,1.6h-13.2
		c0.2,3.7,2.8,5.7,5.7,5.7c2.3,0.2,4.5-1.3,5.1-3.6h2.2C728,1200.6,725.5,1202.8,721.5,1202.8z M715.7,1193.7h11.2
		c0.1-3.7-2.5-5.6-5.6-5.6C718.5,1188.1,716,1190,715.7,1193.7z"/>
	<path d="M738.3,1202.8c-3.6,0-6.2-1.9-6.4-4.8h2.1c0.2,1.7,1.7,3,4.3,3c2.3,0,3.6-1.3,3.6-2.8c0-4-9.5-1.6-9.5-7.7
		c0-2.3,2.2-4.3,5.6-4.3s5.7,1.9,5.8,4.9h-2.1c-0.1-1.7-1.4-3.1-3.8-3.1c-2.1,0-3.5,1.2-3.5,2.6c0,4.3,9.4,2,9.5,7.7
		C743.7,1200.9,741.5,1202.8,738.3,1202.8z"/>
	<path d="M754.3,1186.4c2.6-0.1,5.1,1.3,6.3,3.7v-3.5h2.1v15.9h-2.1v-3.5c-1.1,2.4-3.6,3.9-6.3,3.7c-4.3,0-7.5-3.2-7.5-8.2
		S749.9,1186.4,754.3,1186.4z M754.6,1188.1c-3.4,0-5.9,2.3-5.9,6.4s2.6,6.4,5.9,6.4s5.9-2.4,5.9-6.4S757.9,1188.1,754.6,1188.1
		L754.6,1188.1z"/>
	<path d="M769.3,1202.6h-2v-15.9h2.1v2.8c0.9-2,2.7-3.1,5.5-3.1v2.1h-0.6c-2.7,0-4.9,1.2-4.9,5.2L769.3,1202.6L769.3,1202.6z"/>
	<path d="M792.5,1186.4c2.6-0.1,5.1,1.3,6.3,3.7v-3.5h2.1v15.9h-2.1v-3.5c-1.2,2.4-3.6,3.9-6.3,3.7c-4.3,0-7.5-3.2-7.5-8.2
		S788.1,1186.4,792.5,1186.4z M792.9,1188.1c-3.4,0-5.9,2.3-5.9,6.4s2.5,6.4,5.9,6.4s5.9-2.4,5.9-6.4S796.1,1188.1,792.9,1188.1z"/>
	<path d="M813.5,1180.9h2.1v21.6h-2.1V1180.9z"/>
	<path d="M826.9,1186.4c2.6-0.1,5.1,1.3,6.3,3.7v-3.5h2.1v15.9h-2.1v-3.5c-1.1,2.4-3.6,3.9-6.3,3.7c-4.3,0-7.5-3.2-7.5-8.2
		S822.5,1186.4,826.9,1186.4z M827.3,1188.1c-3.4,0-5.9,2.3-5.9,6.4s2.6,6.4,5.9,6.4s5.9-2.4,5.9-6.4S830.5,1188.1,827.3,1188.1
		L827.3,1188.1z"/>
	<path d="M847.8,1182.2h2.1v12.8c0,4.2,2.2,5.9,5.3,5.9s5.3-1.7,5.3-5.9v-12.8h2.1v12.8c0,5.3-3.2,7.8-7.4,7.8s-7.4-2.4-7.4-7.8
		L847.8,1182.2L847.8,1182.2z"/>
	<path d="M873.3,1182.2c4.8,0,7,2.6,7,5.9c0,2.8-1.6,5.1-5,5.8l5.2,8.7H878l-5-8.5h-3.7v8.5h-2.1v-20.3h6L873.3,1182.2z M873.3,1184
		h-4.1v8.5h4.1c3.4,0,4.8-1.9,4.8-4.3S876.8,1184,873.3,1184L873.3,1184z"/>
	<path d="M886.3,1182.2v18.7h7.3v1.6h-9.4v-20.3H886.3z"/>
	<path d="M912.9,1186.4c4.3,0,7.5,3.1,7.5,8.1s-3.2,8.2-7.5,8.2c-2.6,0.1-5.1-1.4-6.3-3.7v11h-2v-23.5h2v3.5
		C907.8,1187.7,910.2,1186.2,912.9,1186.4z M912.4,1188.1c-3.2,0-5.9,2.4-5.9,6.4s2.7,6.4,5.9,6.4s5.9-2.4,5.9-6.4
		S915.8,1188.1,912.4,1188.1L912.4,1188.1z"/>
	<path d="M930.9,1186.4c2.6-0.1,5.1,1.3,6.3,3.7v-3.5h2.1v15.9h-2.1v-3.5c-1.2,2.4-3.6,3.9-6.3,3.7c-4.3,0-7.5-3.2-7.5-8.2
		S926.5,1186.4,930.9,1186.4z M931.2,1188.1c-3.4,0-5.9,2.3-5.9,6.4s2.5,6.4,5.9,6.4s5.9-2.4,5.9-6.4S934.5,1188.1,931.2,1188.1z"/>
	<path d="M945.9,1202.6h-2v-15.9h2.1v2.8c0.9-2,2.7-3.1,5.5-3.1v2.1h-0.6c-2.7,0-4.9,1.2-4.9,5.2v9L945.9,1202.6z"/>
	<path d="M961.1,1186.4c2.6-0.1,5.1,1.3,6.3,3.7v-3.5h2.1v15.9h-2.1v-3.5c-1.1,2.4-3.6,3.9-6.3,3.7c-4.3,0-7.5-3.2-7.5-8.2
		S956.8,1186.4,961.1,1186.4z M961.4,1188.1c-3.4,0-5.9,2.3-5.9,6.4s2.6,6.4,5.9,6.4s5.9-2.4,5.9-6.4S964.8,1188.1,961.4,1188.1z"/>
	<path d="M982.3,1186.6l5.3,13.9l5.3-13.9h2.2l-6.4,15.9h-2.3l-6.4-15.9H982.3z"/>
	<path d="M997.6,1182.1c0-0.8,0.7-1.5,1.5-1.5s1.5,0.7,1.5,1.5s-0.7,1.5-1.5,1.5C998.3,1183.6,997.6,1183,997.6,1182.1
		C997.6,1182.2,997.6,1182.1,997.6,1182.1z M998,1186.6h2.1v15.9H998L998,1186.6z"/>
	<path d="M1010.2,1202.8c-3.6,0-6.2-1.9-6.4-4.8h2.1c0.2,1.7,1.8,3,4.3,3c2.3,0,3.6-1.3,3.6-2.8c0-4-9.5-1.6-9.5-7.7
		c0-2.3,2.2-4.3,5.6-4.3s5.7,1.9,5.8,4.9h-2.1c-0.1-1.7-1.4-3.1-3.8-3.1c-2.1,0-3.5,1.2-3.5,2.6c0,4.3,9.4,2,9.5,7.7
		C1015.8,1200.9,1013.5,1202.8,1010.2,1202.8z"/>
	<path d="M1033.3,1202.6h-2.1v-2.8c-1.1,2-3.2,3.2-5.5,3c-3.6,0-6.5-2.2-6.5-6.8v-9.3h2v9.1c0,3.5,2,5.3,4.9,5.3s5-1.9,5-5.7v-8.7
		h2.1L1033.3,1202.6L1033.3,1202.6z"/>
	<path d="M1044.7,1186.4c2.6-0.1,5.1,1.3,6.3,3.7v-3.5h2.1v15.9h-2.1v-3.5c-1.2,2.4-3.6,3.9-6.3,3.7c-4.3,0-7.6-3.2-7.6-8.2
		S1040.3,1186.4,1044.7,1186.4z M1045.1,1188.1c-3.4,0-5.9,2.3-5.9,6.4s2.6,6.4,5.9,6.4s5.9-2.4,5.9-6.4
		S1048.3,1188.1,1045.1,1188.1z"/>
	<path d="M1057.8,1180.9h2.1v21.6h-2.1V1180.9z"/>
	<path d="M1063.9,1182.1c0-0.8,0.7-1.5,1.5-1.5s1.5,0.7,1.5,1.5s-0.7,1.5-1.5,1.5C1064.6,1183.6,1063.9,1183,1063.9,1182.1
		C1063.9,1182.2,1063.9,1182.1,1063.9,1182.1z M1064.4,1186.6h2.1v15.9h-2.1V1186.6z"/>
	<path d="M1080.4,1188.4l-8.2,12.6h8.4v1.7h-10.7v-1.7l8.2-12.6h-8v-1.7h10.3L1080.4,1188.4L1080.4,1188.4z"/>
	<path d="M1090.6,1186.4c2.6-0.1,5.1,1.3,6.3,3.7v-3.5h2.1v15.9h-2.1v-3.5c-1.2,2.4-3.6,3.9-6.3,3.7c-4.3,0-7.6-3.2-7.6-8.2
		S1086.2,1186.4,1090.6,1186.4z M1091,1188.1c-3.4,0-5.9,2.3-5.9,6.4s2.6,6.4,5.9,6.4s5.9-2.4,5.9-6.4S1094.3,1188.1,1091,1188.1
		L1091,1188.1z"/>
	<path d="M1105.7,1202.6h-2.1v-15.9h2.1v2.8c0.9-2,2.7-3.1,5.5-3.1v2.1h-0.6c-2.7,0-4.9,1.2-4.9,5.2V1202.6z"/>
	<path d="M1114.2,1180.9h2.1v21.6h-2.1V1180.9z"/>
	<path d="M1127.8,1202.8c-4.5,0-7.9-3.1-7.9-8.2s3.5-8.2,8-8.2s8,3.1,8,8.2S1132.3,1202.8,1127.8,1202.8z M1127.8,1201
		c3,0,5.9-2.1,5.9-6.4s-2.9-6.4-5.9-6.4s-5.8,2.1-5.8,6.4S1124.8,1201,1127.8,1201L1127.8,1201z"/>
</g>
<path class="st19" d="M892.5,1167.2V1040h144.6v144.6H892.5V1167.2z M861.2,1215.9h207.1v-207.1H861.2V1215.9z"/>
<polygon class="st19" points="987,1079.3 931.7,1079.3 931.7,1145.4 997.9,1145.4 997.9,1090.2 997.9,1079.3 "/>
<path class="st19" d="M702.6,1170.3c25.7-27.1,58-41.1,96.9-41.1c7.9,0,15.9,0.6,23.7,1.9v-122.8c-7.8-0.6-15.6-0.9-23.7-0.9
	c-77.7,0-142.2,25.6-193.6,77.6c-0.3,0.2-0.5,0.5-0.7,0.8c-0.2,0.2-0.3,0.4-0.5,0.6l0,0c-1,1-2.4,2.5-4,4.3c-2,2.2-4.3,4.7-6.8,7.5
	c-5,5.5-9.6,11.3-14,17.3l-0.1,0.1c-0.1,0.2-0.4,0.5-0.6,0.9c-0.2,0.3-0.4,0.7-0.7,1c-2.8,4.1-9.1,13.2-14.7,22.4
	c-1.7,2.8-3.3,5.6-4.8,8.3h0.1c-11.5,21.6-19.8,44.8-24.6,68.8h-100v49.4h230.2C666.1,1228.1,678.6,1195.7,702.6,1170.3z"/>
<path class="st19" d="M350,1171.4c29.4-27.1,67.5-41.1,114.5-41.1c15.8,0,31.6,1.6,47.1,4.5c5.9-15.6,25.9-59.8,73.8-99
	c-41-18.2-85.5-27.6-130.4-27.4c-82.2,0-150.4,24.9-204,74.8c-51.4,47.9-78.5,108.7-80.6,183.1h136
	C308.7,1227.7,323.2,1196.2,350,1171.4z"/>
</svg>
