<svg id="Capa_1" data-name="Capa 1" xmlns="http://www.w3.org/2000/svg" xmlns:xlink="http://www.w3.org/1999/xlink" viewBox="0 0 1242 2208">
<rect width="100%" height="100%" fill="#d8cea8"/>
<defs>
<style>.cls-1{fill:#e7ad4a;}.cls-2{fill:gray;}.cls-3{fill:none;}.cls-4{fill:#fff5d3;}.cls-5{clip-path:url(#clip-path);}.cls-6{clip-path:url(#clip-path-2);}.cls-7{clip-path:url(#clip-path-3);}.cls-8,.cls-9{font-size:60px;}.cls-10,.cls-12,.cls-13,.cls-14,.cls-8,.cls-9{font-family:MonotypeCorsiva, Monotype Corsiva;}.cls-8{letter-spacing:0.04em;}.cls-10,.cls-8,.cls-9{opacity:0.85;}.cls-9{letter-spacing:0.04em;}.cls-10{font-size:92.15px;letter-spacing:0.04em;}.cls-11{fill:#87877f;}.cls-12{font-size:61.43px;}.cls-13{font-size:79.42px;}.cls-14{font-size:63.53px;}</style><clipPath id="clip-path"><path class="cls-1" d="M687.37,2049.29h0l-.11.11h0a2,2,0,0,0-.35.47l-.7.69a17.86,17.86,0,0,1-1.39,1.63h0l-.11.11a.12.12,0,0,1-.12.12h0c-.23.35-.81,1.27-1.39,2.08-.12.24-.35.58-.46.82h0a25.78,25.78,0,0,0-2.32,6.6h-9.51v11.48h9.28v6.14a12.15,12.15,0,0,1-7.77,2.32,13.61,13.61,0,0,1-9.74-3.83c-2.66-2.55-3.94-5.91-3.94-10.31a13.44,13.44,0,0,1,4.18-10.2,15.62,15.62,0,0,1,10.89-3.94,19.6,19.6,0,0,1,4.52.46,22.7,22.7,0,0,1,7.07-9.39A30.11,30.11,0,0,0,673,2042c-7.88,0-14.37,2.43-19.47,7.18a25.75,25.75,0,0,0-.22,36.41c.07.07.15.14.22.22a27,27,0,0,0,19,7.19,33.86,33.86,0,0,0,11.94-2.21,32.81,32.81,0,0,0,5.56-3,25.49,25.49,0,0,0,15.88,5.1,25.18,25.18,0,0,0,25.85-24.45v-1.05a12.16,12.16,0,0,0-.12-2.09h-13a12.15,12.15,0,0,1,.11,2.09,14.28,14.28,0,0,1-3.71,10,12.73,12.73,0,0,1-18.42,0,13.92,13.92,0,0,1-3.6-10,14.23,14.23,0,0,1,3.6-10,12.37,12.37,0,0,1,9.27-3.94,13.92,13.92,0,0,1,2.32.23V2042c-.7,0-1.51-.12-2.32-.12a25,25,0,0,0-18.55,7.42"/></clipPath><clipPath id="clip-path-2"><path class="cls-1" d="M714.73,2057.17V2045h13.79v13.79H714.73Zm-2.9,4.64h19.82V2042H711.83Z"/></clipPath><clipPath id="clip-path-3"><polygon class="cls-1" points="723.77 2048.71 718.55 2048.71 718.55 2055.08 724.81 2055.08 724.81 2049.75 724.81 2048.71 723.77 2048.71"/></clipPath></defs><title>casamiento-andres</title><rect class="cls-2" width="1242" height="2208"/><rect class="cls-3" width="1242" height="2208"/><polyline class="cls-4" points="1242 1455.22 1242 0 1.93 0 1.93 2208 1242 2208 1242 1455.22"/><path class="cls-1" d="M576,2061c-2.32-1.86-4.87-3-7.77-2.55A7.27,7.27,0,0,0,562,2064c-.93,3.36.23,7.19,2.9,8.92,2.9,2,5.91,1.74,8.92.24.24-.12.47-.35.7-.47.69-.11,1.27-1.85,2.2-.23.58,1.16,1.74,2.2,0,3.48a13.73,13.73,0,0,1-14.83.11c-4-2.78-5.68-8.57-4.06-13.56a11.32,11.32,0,0,1,11.24-7.88,12.34,12.34,0,0,1,6.49,1.51c2.32,1.27,2.44,1.5,1.28,3.82A2.47,2.47,0,0,0,576,2061"/><path class="cls-1" d="M553.27,2071.66c2,3.48,1.85,3.94-1.62,5.56-5.57,2.55-12.17.81-15.3-3.82a12.48,12.48,0,0,1,1.73-15.88c3.83-3.59,11.48-3.94,15.54-.81,1,.81.81,3.47-.35,4.05-.58.35-.81-.23-1.16-.46a9.42,9.42,0,0,0-6.72-1.85,7,7,0,0,0-6.15,5.44c-.81,3.48-.23,6.73,2.67,8.93s6,1.74,9,.23a13,13,0,0,0,2.32-1.39"/><path class="cls-1" d="M613.54,2078.27a11.68,11.68,0,0,1-7.88-2.9c-1.28-1-.58-1.74.11-2.67s1.28-1,2.21-.23a8.57,8.57,0,0,0,6.84,2.09,3.25,3.25,0,0,0,3.12-2.55c.35-1.63-.69-2.67-2.08-3.25s-3.13-1.16-4.64-1.74c-3.82-1.5-5.56-3.94-5-7.07s3.36-5.33,7.3-5.45a10.75,10.75,0,0,1,7.19,2c1.62,1.15.23,1.85-.24,2.78-.57,1.27-1.15.58-1.85.11a7.79,7.79,0,0,0-5.22-1.5c-1.39.11-2.66.58-3,2.2a2.53,2.53,0,0,0,2,3h0a34.63,34.63,0,0,0,4.4,1.62c4.06,1.51,5.92,3.94,5.45,7.07a7.48,7.48,0,0,1-7.65,6.38,3.32,3.32,0,0,1-1,.11"/><path class="cls-1" d="M633.24,2078.27a11.78,11.78,0,0,1-8-2.9c-1.28-1-.58-1.74.11-2.67s1.28-.93,2.2-.11a8.67,8.67,0,0,0,7.08,2.08,3.09,3.09,0,0,0,2.89-2.55,2.91,2.91,0,0,0-2-3.13c-1.62-.69-3.36-1.27-5-1.85-3.59-1.39-5.33-3.94-4.75-7.07s3.24-5.22,6.95-5.45a12,12,0,0,1,7.19,1.74c1.39.93.81,1.74.23,2.78s-1.28.81-2.09.23a7,7,0,0,0-5.21-1.39,2.87,2.87,0,0,0-2.9,2.32c-.23,1.51.69,2.32,2,2.9,2.2,1,4.64,1.5,6.84,2.78a6.12,6.12,0,0,1,1.85,9.27,7.72,7.72,0,0,1-5.56,3h-1.86"/><path class="cls-1" d="M530,2063.78c-.11-3.94-1.51-7.3-5.68-8.58a15.85,15.85,0,0,0-11.94,1.16c-1.5.69-.23,1.51,0,2.32s.47,1.27,1.51.81a11.9,11.9,0,0,1,6.26-1.51,5.05,5.05,0,0,1,5.1,3.94c.35,1.51.11,2.44-1.74,2.44a25.47,25.47,0,0,0-7.88.69c-3.59,1.16-5.68,3.83-5.33,7a7.2,7.2,0,0,0,6.84,6.37c3.12.35,5.67-.69,8.46-3.24-.58,3.47,1.39,2.78,2.89,2.89,1.16.12,1.74-.11,1.63-1.5-.23-4.41,0-8.58-.12-12.75m-4.64,6.49c0,2.08-1.39,3.71-4.05,4.52a5.24,5.24,0,0,1-5.8-1.51,3.62,3.62,0,0,1,.72-5.05,3.5,3.5,0,0,1,1.37-.63,10.9,10.9,0,0,1,4.17-.46c3.59-.23,3.59-.23,3.59,3.13"/><path class="cls-1" d="M597.66,2056.24a11.9,11.9,0,0,0-13.33.58c-3.94,2.9-5.45,8.46-3.82,13.68,3,9.85,15,9,20,5,.81-.69.58-1.16,0-1.73s-.7-1.86-2.09-1.05a13.7,13.7,0,0,1-4.17,1.86c-4.87,1.16-8.81-1.16-9.74-5.68-.23-1.05,0-1.28,1.05-1.28h15.06c.7,0,1.16,0,1.4-1a10.31,10.31,0,0,0-4.41-10.32m-1.51,8.12c-1.62-.12-3.24,0-5,0s-3.36-.12-5,0-1.63-.58-1.28-1.74a6.54,6.54,0,0,1,5.91-4.75,6.47,6.47,0,0,1,6.61,4.28c.58,1.51.58,2.32-1.28,2.21"/><path class="cls-1" d="M687.37,2049.29h0l-.11.11h0a2,2,0,0,0-.35.47l-.7.69a17.86,17.86,0,0,1-1.39,1.63h0l-.11.11a.12.12,0,0,1-.12.12h0c-.23.35-.81,1.27-1.39,2.08-.12.24-.35.58-.46.82h0a25.78,25.78,0,0,0-2.32,6.6h-9.51v11.48h9.28v6.14a12.15,12.15,0,0,1-7.77,2.32,13.61,13.61,0,0,1-9.74-3.83c-2.66-2.55-3.94-5.91-3.94-10.31a13.44,13.44,0,0,1,4.18-10.2,15.62,15.62,0,0,1,10.89-3.94,19.6,19.6,0,0,1,4.52.46,22.7,22.7,0,0,1,7.07-9.39A30.11,30.11,0,0,0,673,2042c-7.88,0-14.37,2.43-19.47,7.18a25.75,25.75,0,0,0-.22,36.41c.07.07.15.14.22.22a27,27,0,0,0,19,7.19,33.86,33.86,0,0,0,11.94-2.21,32.81,32.81,0,0,0,5.56-3,25.49,25.49,0,0,0,15.88,5.1,25.18,25.18,0,0,0,25.85-24.45v-1.05a12.16,12.16,0,0,0-.12-2.09h-13a12.15,12.15,0,0,1,.11,2.09,14.28,14.28,0,0,1-3.71,10,12.73,12.73,0,0,1-18.42,0,13.92,13.92,0,0,1-3.6-10,14.23,14.23,0,0,1,3.6-10,12.37,12.37,0,0,1,9.27-3.94,13.92,13.92,0,0,1,2.32.23V2042c-.7,0-1.51-.12-2.32-.12a25,25,0,0,0-18.55,7.42"/><g class="cls-5"><rect class="cls-1" x="645.88" y="2041.87" width="85.89" height="51.12"/></g><path class="cls-1" d="M714.73,2057.17V2045h13.79v13.79H714.73Zm-2.9,4.64h19.82V2042H711.83Z"/><g class="cls-6"><rect class="cls-1" x="711.83" y="2041.99" width="19.82" height="19.82"/></g><polygon class="cls-1" points="723.77 2048.71 718.55 2048.71 718.55 2055.08 724.81 2055.08 724.81 2049.75 724.81 2048.71 723.77 2048.71"/><g class="cls-7"><rect class="cls-1" x="718.55" y="2048.71" width="6.26" height="6.26"/></g><text></text><text></text><text></text><text class="cls-8" transform="translate(249.39 207.72)">Los momentos más importantes <tspan x="10.84" y="72">de la vida se comparten con los</tspan><tspan x="-124.11" y="144">afectos mas sinceros... vos estás entre ellos</tspan></text><text class="cls-9" transform="translate(135.05 423.72)">¡Felicidades!, Te elegimos para compartir <tspan x="130.12" y="72">el gran fiestón. ¡Nos Casamos!</tspan></text><text class="cls-10" transform="translate(371.13 705.87)">Sara y Andrés</text><polygon class="cls-11" points="93.78 691.78 114.86 691.59 135.97 691.51 178.19 691.4 220.41 691.51 241.52 691.59 262.6 691.78 241.52 691.97 220.41 692.09 178.19 692.16 135.97 692.09 114.86 691.97 93.78 691.78"/><polygon class="cls-11" points="979.4 691.33 1000.48 691.13 1021.59 691.06 1063.81 690.95 1106.03 691.06 1127.14 691.13 1148.22 691.33 1127.14 691.51 1106.03 691.63 1063.81 691.71 1021.59 691.63 1000.48 691.51 979.4 691.33"/><text class="cls-12" transform="translate(335.66 831)">28 de Septiembre de 2019</text><polygon class="cls-11" points="326.74 848.12 397.24 847.96 467.85 847.89 609.06 847.79 750.26 847.89 820.87 847.96 891.38 848.12 820.87 848.28 750.26 848.38 609.06 848.45 467.85 848.38 397.24 848.28 326.74 848.12"/><text class="cls-13" transform="translate(481.29 1015.34)">Ceremonia</text><text class="cls-13" transform="translate(237.12 1114.59) scale(0.68 1)">Parroquia Nuestra Señora de la Guardia</text><text class="cls-14" transform="translate(281.83 1195.71) scale(0.68 1)">Calle Belgrano 260 Bernal - parroquia interna<tspan x="416.61" y="76.24">20:00 hs</tspan></text><polygon class="cls-11" points="529.33 1032.39 551.13 1032.2 572.97 1032.12 616.63 1032 660.29 1032.12 682.13 1032.2 703.93 1032.39 682.13 1032.59 660.29 1032.71 616.63 1032.79 572.97 1032.71 551.13 1032.59 529.33 1032.39"/><text class="cls-13" transform="translate(530.83 1466.14)">Fiesta</text><text class="cls-13" transform="translate(427.83 1582.3) scale(0.68 1)">Salón Villa Victoria</text><text class="cls-14" transform="translate(362.96 1656.24) scale(0.68 1)">Avenida Avellaneda 323 - Bernal<tspan x="278.19" y="76.24">20:30 hs</tspan></text><polygon class="cls-11" points="525.82 1480.38 547.62 1480.19 569.45 1480.11 613.12 1479.99 656.78 1480.11 678.61 1480.19 700.41 1480.38 678.61 1480.58 656.78 1480.7 613.12 1480.78 569.45 1480.7 547.62 1480.58 525.82 1480.38"/><path class="cls-1" d="M1113.81,2160.28H129V2159c0-67.51-44.86-122.44-100-122.44H27.91V173.61H29c55.15,0,100-54.93,100-122.44V49.84h984.8v1.33c0,67.51,44.86,122.44,100,122.44h1.09v1862.9h-1.09c-55.15,0-100,54.93-100,122.44Zm-982.62-2.66h980.45c.58-67.93,45.61-123,101.09-123.77V176.27c-55.48-.72-100.51-55.84-101.09-123.77H131.19c-.59,67.93-45.62,123.05-101.1,123.77V2033.85C85.57,2034.57,130.6,2089.69,131.19,2157.62Z"/><g id="path4213"><path class="cls-1" d="M29,2078a1,1,0,0,1-.26,1.1,5.81,5.81,0,0,1-.66.74,5.06,5.06,0,0,1-1.58,1,4.51,4.51,0,0,1-3.46-.07,5.35,5.35,0,0,1-1.53-1c-.11-.11-.22-.2-.34-.34s-.18-.2-.29-.34a6.08,6.08,0,0,1-.55-.81,8.83,8.83,0,0,1-1.15-3.79,15,15,0,0,1,1.52-7.52,25.25,25.25,0,0,1,3.9-6,19.19,19.19,0,0,1,11.23-6.58,18.75,18.75,0,0,1,12.33,2.56,30.8,30.8,0,0,1,9.8,9.57,46.73,46.73,0,0,1,3.57,6.35,65.09,65.09,0,0,1,2.68,6.94c3.07,9.54,4.27,19.68,5.67,29.58.7,5,1.47,9.9,2.56,14.72a70.72,70.72,0,0,0,4.47,13.85,40.06,40.06,0,0,0,7.57,11.44,20.25,20.25,0,0,0,10.64,6.14,15.49,15.49,0,0,0,11.1-2.23,16.74,16.74,0,0,0,2.33-1.81,21,21,0,0,0,3.76-4.85c.26-.48.49-.91.73-1.47s.41-1,.59-1.49a12,12,0,0,0,.46-6.7,8.1,8.1,0,0,0-1.38-3,5.57,5.57,0,0,0-1.09-1.13,4.57,4.57,0,0,0-1.27-.72,3.89,3.89,0,0,0-2.73,0,5.15,5.15,0,0,0-2.22,1.69,8.2,8.2,0,0,0-.76,1.27,8.25,8.25,0,0,0-.65,2.89,4.81,4.81,0,0,1-.54,1.71l0,.06a.49.49,0,0,1-.76.22l0,0a2.87,2.87,0,0,1-.88-2,9.13,9.13,0,0,1,.29-2.22,8.79,8.79,0,0,1,.82-2.05,7,7,0,0,1,1.24-1.61,6,6,0,0,1,3.24-1.66,6,6,0,0,1,3.36.52,9.61,9.61,0,0,1,4.69,5.53,16.68,16.68,0,0,1,.74,8.18,17.23,17.23,0,0,1-.44,2.06,19.8,19.8,0,0,1-.64,1.93,17.76,17.76,0,0,1-1.88,3.53,16.42,16.42,0,0,1-2.51,2.85,14.94,14.94,0,0,1-2.93,2.14,16.24,16.24,0,0,1-13,1.06,27.3,27.3,0,0,1-11.24-7.25,42,42,0,0,1-7.78-12.08,76.29,76.29,0,0,1-4.56-14.24c-1.11-4.91-1.89-9.9-2.6-14.88-1.41-9.93-2.61-19.94-5.62-29.23a54.25,54.25,0,0,0-6-12.89,29.63,29.63,0,0,0-9.27-9.31A17.91,17.91,0,0,0,36,2055.57a18.17,18.17,0,0,0-10.78,6.12,24.16,24.16,0,0,0-3.8,5.74,12.74,12.74,0,0,0-1.36,6.91c.27,2.33,1.56,4.47,3.36,5a3.47,3.47,0,0,0,2.61-.24,4.51,4.51,0,0,0,1.12-.8,6,6,0,0,0,.48-.53c.17-.21.18-.41.71-.38a.75.75,0,0,1,.64.49Z"/></g><g id="path4217"><path class="cls-1" d="M21.75,2064.81a18.63,18.63,0,0,1,8.75-8.22,14.68,14.68,0,0,1,11.07-.2,20.94,20.94,0,0,1,9.22,7.63,38.87,38.87,0,0,1,5.48,11.84c2.47,8.61,2.91,17.69,3.8,26.46a102.28,102.28,0,0,0,2,13,43.78,43.78,0,0,0,4.45,11.76,21.91,21.91,0,0,0,7.76,8.31,14.7,14.7,0,0,0,10,1.83c6.71-1.14,12.25-6.84,14.45-14.44a22.09,22.09,0,0,0,.22-12.13,16,16,0,0,0-2.69-5.38,11,11,0,0,0-4.35-3.45,6.8,6.8,0,0,0-5.07-.13,7,7,0,0,0-3.79,3.75,9.13,9.13,0,0,0-.44,5.77,8,8,0,0,0,1.14,2.53,7.13,7.13,0,0,0,.86,1,3.55,3.55,0,0,1,.81,1.24v.05a.7.7,0,0,1-.24.83l-.15,0a1.75,1.75,0,0,1-1.48-.57,8.32,8.32,0,0,1-1.09-1.32,9.86,9.86,0,0,1-1.44-3.3,10.85,10.85,0,0,1,.83-7.14,7.88,7.88,0,0,1,10.35-3.89,13.4,13.4,0,0,1,4.84,3.57,19.91,19.91,0,0,1,3.45,5.57,25.28,25.28,0,0,1,1.49,14,24.57,24.57,0,0,1-2.29,6.8c-.27.51-.61,1.09-.86,1.5s-.65,1-1,1.44a22.46,22.46,0,0,1-2.22,2.52,18,18,0,0,1-5.26,3.55,16.37,16.37,0,0,1-5.82,1.36c-7.95.37-15.39-5-19.49-12.72a48.92,48.92,0,0,1-4.51-12.48,107,107,0,0,1-2-13.29c-.85-8.86-1.26-17.8-3.63-26.1a38.79,38.79,0,0,0-5.12-11.35,19.93,19.93,0,0,0-8.56-7.32,13.74,13.74,0,0,0-10.39,0,17.39,17.39,0,0,0-8.38,7.64.38.38,0,0,1-.59.13.6.6,0,0,1-.11-.72Z"/></g><g id="path4213-2" data-name="path4213"><path class="cls-1" d="M1211.77,2079.94a1,1,0,0,0,.26,1.1,6.59,6.59,0,0,0,.66.73,5.06,5.06,0,0,0,1.58,1,4.42,4.42,0,0,0,3.46-.07,5.32,5.32,0,0,0,1.53-1c.11-.11.22-.21.34-.34s.18-.2.29-.35a6,6,0,0,0,.55-.8,8.87,8.87,0,0,0,1.15-3.79,15.1,15.1,0,0,0-1.52-7.53,25.18,25.18,0,0,0-3.9-6,19.21,19.21,0,0,0-11.23-6.59,18.87,18.87,0,0,0-12.33,2.56,30.73,30.73,0,0,0-9.8,9.58,47.08,47.08,0,0,0-3.57,6.34,65.26,65.26,0,0,0-2.68,6.95c-3.07,9.54-4.27,19.68-5.67,29.58-.7,5-1.47,9.89-2.56,14.71a70.6,70.6,0,0,1-4.47,13.86,39.8,39.8,0,0,1-7.57,11.43,20.18,20.18,0,0,1-10.64,6.14,15.53,15.53,0,0,1-11.1-2.22,18.21,18.21,0,0,1-2.33-1.81,20.74,20.74,0,0,1-3.76-4.86c-.26-.48-.49-.91-.73-1.46s-.41-1-.59-1.5a12,12,0,0,1-.46-6.7,8.05,8.05,0,0,1,1.38-3,5.58,5.58,0,0,1,1.09-1.13,4.47,4.47,0,0,1,1.27-.72,3.84,3.84,0,0,1,2.73,0,5.07,5.07,0,0,1,2.22,1.69,7.11,7.11,0,0,1,.76,1.27,8.59,8.59,0,0,1,.45,1.38,9.45,9.45,0,0,1,.2,1.51,4.87,4.87,0,0,0,.54,1.71l0,.06a.51.51,0,0,0,.76.22l0,0a2.83,2.83,0,0,0,.88-2,9.2,9.2,0,0,0-.29-2.22,8.37,8.37,0,0,0-.82-2,6.67,6.67,0,0,0-1.24-1.6,6,6,0,0,0-3.23-1.66,5.81,5.81,0,0,0-3.37.52,9.65,9.65,0,0,0-4.69,5.53,16.53,16.53,0,0,0-.73,8.17,14.17,14.17,0,0,0,.44,2.07,16.53,16.53,0,0,0,.63,1.92,17.49,17.49,0,0,0,1.88,3.53,16.13,16.13,0,0,0,2.51,2.86A15.25,15.25,0,0,0,1133,2159a16.28,16.28,0,0,0,13,1.06,27.43,27.43,0,0,0,11.24-7.25,42.25,42.25,0,0,0,7.78-12.08,76.77,76.77,0,0,0,4.56-14.24c1.11-4.92,1.89-9.91,2.6-14.88,1.41-9.94,2.61-19.95,5.62-29.24a54.36,54.36,0,0,1,6-12.88,29.84,29.84,0,0,1,9.27-9.31,17.93,17.93,0,0,1,11.69-2.63,18.24,18.24,0,0,1,10.77,6.13,24.31,24.31,0,0,1,3.8,5.73,12.75,12.75,0,0,1,1.36,6.92c-.27,2.32-1.56,4.47-3.36,5a3.48,3.48,0,0,1-2.61-.23,5,5,0,0,1-1.6-1.34c-.17-.2-.18-.4-.71-.38a.75.75,0,0,0-.64.5Z"/></g><g id="path4217-2" data-name="path4217"><path class="cls-1" d="M1219,2066.78a18.63,18.63,0,0,0-8.75-8.22,14.68,14.68,0,0,0-11.07-.19A21,21,0,0,0,1190,2066a38.73,38.73,0,0,0-5.47,11.84c-2.48,8.61-2.92,17.69-3.81,26.47a102.12,102.12,0,0,1-2,13,43.84,43.84,0,0,1-4.45,11.77,22,22,0,0,1-7.76,8.31,14.76,14.76,0,0,1-10,1.83c-6.71-1.15-12.25-6.84-14.45-14.45a22.09,22.09,0,0,1-.22-12.13,16.1,16.1,0,0,1,2.69-5.38,10.92,10.92,0,0,1,4.35-3.44,6.7,6.7,0,0,1,5.07-.13,7,7,0,0,1,3.79,3.74,9.06,9.06,0,0,1,.44,5.77,7.93,7.93,0,0,1-1.14,2.53,7.17,7.17,0,0,1-.85,1,3.14,3.14,0,0,0-.81,1.24l0,0a.7.7,0,0,0,.24.83.43.43,0,0,0,.16.05,1.73,1.73,0,0,0,1.47-.56,8.69,8.69,0,0,0,1.09-1.32,9.82,9.82,0,0,0,1.44-3.31,10.85,10.85,0,0,0-.83-7.14,8.06,8.06,0,0,0-4.68-4.17,8.15,8.15,0,0,0-5.67.29,13.05,13.05,0,0,0-4.83,3.57,19.57,19.57,0,0,0-3.46,5.57,25.35,25.35,0,0,0-1.49,14,24.5,24.5,0,0,0,2.29,6.79c.27.52.61,1.1.86,1.51s.65,1,1,1.44a23.27,23.27,0,0,0,2.22,2.51,18,18,0,0,0,5.27,3.56,16,16,0,0,0,5.81,1.35c8,.37,15.39-5,19.49-12.71a48.75,48.75,0,0,0,4.51-12.49,106.59,106.59,0,0,0,2-13.28c.85-8.87,1.26-17.8,3.63-26.1a38.73,38.73,0,0,1,5.12-11.36,19.91,19.91,0,0,1,8.56-7.31,13.74,13.74,0,0,1,10.39,0,17.49,17.49,0,0,1,8.38,7.64.37.37,0,0,0,.59.13.59.59,0,0,0,.11-.71Z"/></g><g id="path4213-3" data-name="path4213"><path class="cls-1" d="M30.23,130a1,1,0,0,0-.26-1.1,7.89,7.89,0,0,0-.66-.74,5.06,5.06,0,0,0-1.58-1,4.51,4.51,0,0,0-3.46.07,5.35,5.35,0,0,0-1.53,1c-.11.11-.22.2-.34.34s-.18.2-.29.34a6.08,6.08,0,0,0-.55.81,8.83,8.83,0,0,0-1.15,3.79,15,15,0,0,0,1.52,7.52,25.25,25.25,0,0,0,3.9,6,19.19,19.19,0,0,0,11.23,6.58,18.75,18.75,0,0,0,12.33-2.56,30.8,30.8,0,0,0,9.8-9.57,47.82,47.82,0,0,0,3.57-6.35,65.09,65.09,0,0,0,2.68-6.94c3.07-9.54,4.27-19.68,5.67-29.58.7-5,1.47-9.9,2.56-14.72A70.72,70.72,0,0,1,78.14,70.1a39.85,39.85,0,0,1,7.57-11.44,20.25,20.25,0,0,1,10.64-6.14,15.49,15.49,0,0,1,11.1,2.23,17.35,17.35,0,0,1,2.33,1.81,21,21,0,0,1,3.76,4.85c.26.48.49.91.73,1.47s.41,1,.59,1.49a12,12,0,0,1,.46,6.7,8.1,8.1,0,0,1-1.38,3,5.85,5.85,0,0,1-1.09,1.13,4.57,4.57,0,0,1-1.27.72,3.89,3.89,0,0,1-2.73,0,5.15,5.15,0,0,1-2.22-1.69,7.49,7.49,0,0,1-.76-1.27,8.4,8.4,0,0,1-.45-1.39,9.48,9.48,0,0,1-.2-1.5,4.81,4.81,0,0,0-.54-1.71l0-.06a.49.49,0,0,0-.76-.22l0,0a2.83,2.83,0,0,0-.88,2,9.13,9.13,0,0,0,.29,2.22,8.37,8.37,0,0,0,.82,2,6.72,6.72,0,0,0,1.24,1.61,5.7,5.7,0,0,0,6.6,1.14,9.65,9.65,0,0,0,4.69-5.53,16.56,16.56,0,0,0,.73-8.18,15.47,15.47,0,0,0-.44-2.06,17.32,17.32,0,0,0-.63-1.93A17.76,17.76,0,0,0,114.4,56a16.42,16.42,0,0,0-2.51-2.85A15,15,0,0,0,109,51a16.22,16.22,0,0,0-13-1.06,27.3,27.3,0,0,0-11.24,7.25A42,42,0,0,0,76.9,69.26,76.29,76.29,0,0,0,72.34,83.5c-1.11,4.91-1.89,9.9-2.6,14.88-1.41,9.93-2.61,19.94-5.62,29.23a54.25,54.25,0,0,1-6,12.89,29.84,29.84,0,0,1-9.27,9.31,17.93,17.93,0,0,1-11.69,2.62,18.18,18.18,0,0,1-10.77-6.12,24.16,24.16,0,0,1-3.8-5.74,12.74,12.74,0,0,1-1.36-6.91c.27-2.33,1.56-4.47,3.36-5a3.48,3.48,0,0,1,2.61.24,4.51,4.51,0,0,1,1.12.8,6,6,0,0,1,.48.53c.17.21.18.41.71.38a.75.75,0,0,0,.64-.49Z"/></g><g id="path4217-3" data-name="path4217"><path class="cls-1" d="M23,143.19a18.63,18.63,0,0,0,8.75,8.22,14.68,14.68,0,0,0,11.07.2A21,21,0,0,0,52,144a38.62,38.62,0,0,0,5.47-11.84c2.48-8.61,2.92-17.69,3.8-26.46a104.11,104.11,0,0,1,2-13,43.78,43.78,0,0,1,4.45-11.76,21.91,21.91,0,0,1,7.76-8.31,14.7,14.7,0,0,1,10-1.83c6.71,1.14,12.25,6.84,14.45,14.44a22.09,22.09,0,0,1,.22,12.13,16,16,0,0,1-2.69,5.38,11,11,0,0,1-4.35,3.45,6.8,6.8,0,0,1-5.07.13,7,7,0,0,1-3.79-3.75,9.06,9.06,0,0,1-.44-5.77,8,8,0,0,1,1.14-2.53,7.08,7.08,0,0,1,.85-1A3.3,3.3,0,0,0,86.56,92l0,0a.7.7,0,0,0-.24-.83l-.16,0a1.74,1.74,0,0,0-1.47.57A8.32,8.32,0,0,0,83.62,93a9.86,9.86,0,0,0-1.44,3.3,10.85,10.85,0,0,0,.83,7.14,7.88,7.88,0,0,0,10.35,3.89,13.28,13.28,0,0,0,4.83-3.57,19.71,19.71,0,0,0,3.46-5.57,25.37,25.37,0,0,0,1.49-14,24.57,24.57,0,0,0-2.29-6.8c-.27-.51-.61-1.09-.86-1.5s-.65-1-1-1.44a22.46,22.46,0,0,0-2.22-2.52,17.93,17.93,0,0,0-5.27-3.55A16.27,16.27,0,0,0,85.7,67c-8-.37-15.39,5-19.49,12.72A48.55,48.55,0,0,0,61.7,92.16a107,107,0,0,0-2,13.29c-.85,8.86-1.26,17.8-3.63,26.1A38.79,38.79,0,0,1,51,142.9a19.93,19.93,0,0,1-8.56,7.32,13.74,13.74,0,0,1-10.39,0,17.39,17.39,0,0,1-8.38-7.64.38.38,0,0,0-.59-.13.6.6,0,0,0-.11.72Z"/></g><g id="path4213-4" data-name="path4213"><path class="cls-1" d="M1213,128.06a1,1,0,0,1,.26-1.1,5.72,5.72,0,0,1,.66-.73,5.06,5.06,0,0,1,1.58-1,4.42,4.42,0,0,1,3.46.07,5.45,5.45,0,0,1,1.53,1c.11.11.22.21.34.34s.18.2.29.35a6,6,0,0,1,.55.8,8.87,8.87,0,0,1,1.15,3.79,15.1,15.1,0,0,1-1.52,7.53,25.18,25.18,0,0,1-3.9,6,19.21,19.21,0,0,1-11.23,6.59,18.87,18.87,0,0,1-12.33-2.56,30.73,30.73,0,0,1-9.8-9.58,46,46,0,0,1-3.57-6.34,65.26,65.26,0,0,1-2.68-7c-3.07-9.54-4.27-19.68-5.67-29.58-.71-5-1.47-9.89-2.56-14.71a70.6,70.6,0,0,0-4.47-13.86,40,40,0,0,0-7.57-11.43,20.18,20.18,0,0,0-10.64-6.14,15.53,15.53,0,0,0-11.1,2.22,17.53,17.53,0,0,0-2.33,1.81,20.74,20.74,0,0,0-3.76,4.86c-.26.48-.49.91-.73,1.46s-.41,1-.59,1.5a12,12,0,0,0-.46,6.7,8.19,8.19,0,0,0,1.37,3,5.62,5.62,0,0,0,1.1,1.13,4.34,4.34,0,0,0,1.27.72,3.84,3.84,0,0,0,2.73,0,5.07,5.07,0,0,0,2.22-1.69,7.09,7.09,0,0,0,.75-1.27,8.59,8.59,0,0,0,.46-1.38,9.45,9.45,0,0,0,.2-1.51,4.87,4.87,0,0,1,.54-1.71l0-.06a.51.51,0,0,1,.76-.22l0,0a2.87,2.87,0,0,1,.88,2,8.73,8.73,0,0,1-.3,2.22,8.34,8.34,0,0,1-.81,2,6.93,6.93,0,0,1-1.24,1.6,6,6,0,0,1-3.24,1.66,5.79,5.79,0,0,1-3.36-.52,9.61,9.61,0,0,1-4.69-5.53,16.65,16.65,0,0,1-.74-8.17,17.38,17.38,0,0,1,.44-2.07,18.78,18.78,0,0,1,.64-1.92,17.49,17.49,0,0,1,1.88-3.53,16.13,16.13,0,0,1,2.51-2.86,14.94,14.94,0,0,1,2.93-2.14,16.28,16.28,0,0,1,13-1.06,27.5,27.5,0,0,1,11.24,7.25,42.25,42.25,0,0,1,7.78,12.08,76.77,76.77,0,0,1,4.56,14.24c1.11,4.92,1.89,9.91,2.6,14.88,1.41,9.94,2.61,19.95,5.62,29.24a54.36,54.36,0,0,0,6,12.88,29.63,29.63,0,0,0,9.27,9.31,17.93,17.93,0,0,0,11.69,2.63,18.24,18.24,0,0,0,10.77-6.13,24.31,24.31,0,0,0,3.8-5.73,12.75,12.75,0,0,0,1.36-6.92c-.27-2.32-1.56-4.47-3.36-5a3.47,3.47,0,0,0-2.61.23,5,5,0,0,0-1.6,1.34c-.17.2-.18.4-.71.38a.75.75,0,0,1-.64-.5Z"/></g><g id="path4217-4" data-name="path4217"><path class="cls-1" d="M1220.25,141.22a18.63,18.63,0,0,1-8.75,8.22,14.68,14.68,0,0,1-11.07.19,21.07,21.07,0,0,1-9.23-7.62,39.2,39.2,0,0,1-5.47-11.84c-2.47-8.61-2.91-17.69-3.8-26.47a102.12,102.12,0,0,0-2-13A43.84,43.84,0,0,0,1175.49,79a22,22,0,0,0-7.76-8.31,14.76,14.76,0,0,0-10-1.83c-6.71,1.15-12.25,6.84-14.45,14.45a22.09,22.09,0,0,0-.22,12.13,16.1,16.1,0,0,0,2.69,5.38,10.92,10.92,0,0,0,4.35,3.44,6.7,6.7,0,0,0,5.07.13,7,7,0,0,0,3.79-3.74,9.13,9.13,0,0,0,.44-5.77,7.93,7.93,0,0,0-1.14-2.53,7.22,7.22,0,0,0-.86-1,3.37,3.37,0,0,1-.81-1.24v0a.7.7,0,0,1,.24-.83.44.44,0,0,1,.15,0,1.74,1.74,0,0,1,1.48.56,9.33,9.33,0,0,1,1.09,1.32,9.82,9.82,0,0,1,1.44,3.31,10.85,10.85,0,0,1-.83,7.14,7.87,7.87,0,0,1-10.35,3.88,13.17,13.17,0,0,1-4.84-3.57,19.77,19.77,0,0,1-3.45-5.57,25.26,25.26,0,0,1-1.49-14,24.5,24.5,0,0,1,2.29-6.79c.27-.52.61-1.1.86-1.51s.65-1,1-1.44a23.27,23.27,0,0,1,2.22-2.51,18,18,0,0,1,5.26-3.56,16.14,16.14,0,0,1,5.82-1.35c8-.37,15.39,5,19.49,12.71a49.13,49.13,0,0,1,4.51,12.49,106.59,106.59,0,0,1,2,13.28c.85,8.87,1.26,17.8,3.63,26.1a38.73,38.73,0,0,0,5.12,11.36,19.91,19.91,0,0,0,8.56,7.31,13.74,13.74,0,0,0,10.39,0,17.49,17.49,0,0,0,8.38-7.64.37.37,0,0,1,.59-.13.59.59,0,0,1,.11.71Z"/></g></svg>