<?xml version="1.0" encoding="utf-8"?>
<!-- Generator: Adobe Illustrator 22.1.0, SVG Export Plug-In . SVG Version: 6.00 Build 0)  -->
<svg version="1.1" id="Capa_1" xmlns="http://www.w3.org/2000/svg" xmlns:xlink="http://www.w3.org/1999/xlink" x="0px" y="0px"
	 viewBox="0 0 1242 2208" style="enable-background:new 0 0 1242 2208;" xml:space="preserve">
<style type="text/css">
	.st0{fill:#808080;}
	.st1{fill:none;}
	.st2{clip-path:url(#SVGID_3_);}
	.st3{opacity:0.75;clip-path:url(#SVGID_4_);}
	.st4{clip-path:url(#SVGID_6_);}
	.st5{clip-path:url(#SVGID_4_);fill:#FFFFFF;}
	.st6{clip-path:url(#SVGID_4_);}
	.st7{fill:none;stroke:#FFFFFF;stroke-width:30;stroke-miterlimit:10;}
	.st8{fill:#FFFFFF;}
	.st9{fill:none;stroke:#FFFFFF;stroke-width:7;stroke-miterlimit:10;}
	.st10{fill:none;stroke:#FFFFFF;stroke-width:7;stroke-miterlimit:10;stroke-dasharray:47.9,47.9;}
	.st11{clip-path:url(#SVGID_8_);}
	.st12{clip-path:url(#SVGID_10_);}
	.st13{clip-path:url(#SVGID_13_);}
	.st14{opacity:8.000000e-02;clip-path:url(#SVGID_14_);}
	.st15{clip-path:url(#SVGID_17_);}
	.st16{clip-path:url(#SVGID_18_);}
	.st17{fill:none;stroke:#000000;stroke-miterlimit:10;}
	.st18{clip-path:url(#SVGID_14_);}
	.st19{clip-path:url(#SVGID_20_);}
	.st20{opacity:0.38;}
	.st21{opacity:8.000000e-02;clip-path:url(#SVGID_22_);}
	.st22{clip-path:url(#SVGID_25_);}
	.st23{clip-path:url(#SVGID_26_);}
	.st24{opacity:0.6;clip-path:url(#SVGID_22_);}
	.st25{clip-path:url(#SVGID_28_);}
	.st26{clip-path:url(#SVGID_30_);}
	.st27{fill:#768B95;}
	.st28{clip-path:url(#SVGID_32_);}
	.st29{fill:url(#SVGID_33_);}
	.st30{clip-path:url(#SVGID_35_);}
	.st31{fill:url(#SVGID_36_);}
	.st32{clip-path:url(#SVGID_38_);}
	.st33{fill:url(#SVGID_39_);}
	.st34{clip-path:url(#SVGID_41_);}
	.st35{fill:url(#SVGID_42_);}
	.st36{clip-path:url(#SVGID_44_);}
	.st37{fill:url(#SVGID_45_);}
	.st38{clip-path:url(#SVGID_47_);}
	.st39{fill:url(#SVGID_48_);}
</style>
<rect y="0" class="st0" width="1242" height="2208"/>
<rect y="0" class="st1" width="1242" height="2208"/>
<g>
	<defs>
		<rect id="SVGID_1_" x="-7" y="-133" width="1273" height="2301"/>
	</defs>
	<defs>
		<rect id="SVGID_2_" y="0" width="1242" height="2208"/>
	</defs>
	<clipPath id="SVGID_3_">
		<use xlink:href="#SVGID_1_"  style="overflow:visible;"/>
	</clipPath>
	<clipPath id="SVGID_4_" class="st2">
		<use xlink:href="#SVGID_2_"  style="overflow:visible;"/>
	</clipPath>
	<g class="st3">
		<g>
			<defs>
				<rect id="SVGID_5_" x="-7" y="-133" width="1273" height="2301"/>
			</defs>
			<clipPath id="SVGID_6_">
				<use xlink:href="#SVGID_5_"  style="overflow:visible;"/>
			</clipPath>
			<g class="st4">
				
					<image style="overflow:visible;enable-background:new    ;" width="1273" height="2168" xlink:href="33B50E65.png"  transform="matrix(1 0 0 1 -7 -6.608101e-06)">
				</image>
			</g>
		</g>
	</g>
	<polygon class="st5" points="46,0 46,2101 1199,2101 1199,1585.9 1101.9,1485.3 1199,1384.7 1199,0 	"/>
	<g class="st6">
		<polygon class="st7" points="46,2101 1199,2101 1199,1585.9 1101.9,1485.3 1199,1384.7 1199,-80 46,-80 		"/>
	</g>
</g>
<polygon points="46.5,4 46.5,1488.5 1101.5,1488.5 1198.5,1388.5 1198.5,4 "/>
<path class="st8" d="M297.9,1133.5h646.3c17.8,0,32.2-14.4,32.2-32.2c0,0,0,0,0,0V448.2c0-17.8-14.4-32.2-32.2-32.2c0,0,0,0,0,0
	H297.9c-17.8,0-32.2,14.4-32.2,32.2c0,0,0,0,0,0v653.2C265.8,1119.1,280.1,1133.5,297.9,1133.5z"/>
<polyline class="st9" points="1081.1,1486.1 1106.1,1486.1 1081.1,1486.1 "/>
<line class="st10" x1="1033.1" y1="1486.1" x2="98" y2="1486.1"/>
<polyline class="st9" points="74,1486.1 49,1486.1 74,1486.1 "/>
<g>
	<defs>
		<rect id="SVGID_7_" x="844" y="1140.8" width="207.2" height="207.1"/>
	</defs>
	<clipPath id="SVGID_8_">
		<use xlink:href="#SVGID_7_"  style="overflow:visible;"/>
	</clipPath>
	<g class="st11">
		<path d="M875.6,1299v-126.6h144v143.9h-144V1299z M844.5,1141.3v206.2h206.2v-206.2H844.5z"/>
	</g>
</g>
<g>
	<defs>
		<rect id="SVGID_9_" x="844" y="1140.8" width="207.2" height="207.1"/>
	</defs>
	<clipPath id="SVGID_10_">
		<use xlink:href="#SVGID_9_"  style="overflow:visible;"/>
	</clipPath>
	<g class="st12">
		<path d="M875.6,1299v-126.6h144v143.9h-144V1299z M844.5,1347.5h206.2v-206.2H844.5V1347.5z"/>
	</g>
</g>
<g>
	<defs>
		<rect id="SVGID_11_" x="844" y="1140.8" width="207.2" height="207.1"/>
	</defs>
	<defs>
		<rect id="SVGID_12_" x="914.2" y="1211" width="66.8" height="66.8"/>
	</defs>
	<clipPath id="SVGID_13_">
		<use xlink:href="#SVGID_11_"  style="overflow:visible;"/>
	</clipPath>
	<clipPath id="SVGID_14_" class="st13">
		<use xlink:href="#SVGID_12_"  style="overflow:visible;"/>
	</clipPath>
	<g class="st14">
		<g>
			<defs>
				<path id="SVGID_15_" d="M875.6,1299v-126.6h144v143.9h-144V1299z M844.5,1141.3v206.2h206.2v-206.2H844.5z"/>
			</defs>
			<defs>
				<rect id="SVGID_16_" x="844" y="1140.8" width="207.2" height="207.1"/>
			</defs>
			<clipPath id="SVGID_17_">
				<use xlink:href="#SVGID_15_"  style="overflow:visible;"/>
			</clipPath>
			<clipPath id="SVGID_18_" class="st15">
				<use xlink:href="#SVGID_16_"  style="overflow:visible;"/>
			</clipPath>
			<g class="st16">
				<rect x="844.5" y="1141.3" class="st17" width="206.2" height="206.2"/>
			</g>
			<g class="st16">
				<path class="st17" d="M875.6,1299v-126.6h144v143.9h-144V1299z M844.5,1141.3v206.2h206.2v-206.2H844.5z"/>
			</g>
		</g>
	</g>
	<g class="st18">
		<polygon points="969.7,1211.5 914.7,1211.5 914.7,1277.3 980.5,1277.3 980.5,1222.3 980.5,1211.5 		"/>
	</g>
</g>
<g>
	<defs>
		<rect id="SVGID_19_" x="914.2" y="1211" width="66.8" height="66.8"/>
	</defs>
	<clipPath id="SVGID_20_">
		<use xlink:href="#SVGID_19_"  style="overflow:visible;"/>
	</clipPath>
	<g class="st19">
		<polygon points="969.7,1211.5 914.7,1211.5 914.7,1277.3 980.5,1277.3 980.5,1222.3 980.5,1211.5 		"/>
	</g>
</g>
<rect x="30.1" y="0" class="st1" width="1181.8" height="2101"/>
<path class="st8" d="M377.1,1186.5h-9v6.2h10.5v3.3h-14.8v-21.6h14.8v3.3h-10.5v5.4h9V1186.5z"/>
<path class="st8" d="M389.6,1191.6c0-0.5-0.3-1-0.7-1.2c-0.8-0.5-1.7-0.8-2.6-0.9c-1.5-0.3-3-0.9-4.3-1.7c-0.9-0.7-1.5-1.9-1.4-3.1
	c0-1.4,0.6-2.7,1.7-3.5c1.3-1.1,3-1.6,4.7-1.5c1.7-0.1,3.5,0.4,4.9,1.4c1.1,0.8,1.8,2.2,1.7,3.6v0.1h-4.2c0-0.6-0.2-1.2-0.6-1.6
	c-0.5-0.4-1.1-0.7-1.8-0.6c-0.6,0-1.2,0.2-1.7,0.5c-0.4,0.3-0.6,0.8-0.6,1.3c0,0.5,0.2,0.9,0.6,1.2c0.8,0.4,1.7,0.7,2.6,0.8
	c1.6,0.2,3.1,0.8,4.4,1.7c1,0.8,1.5,2,1.4,3.2c0,1.4-0.7,2.7-1.9,3.5c-1.4,1-3.2,1.5-4.9,1.4c-1.8,0.1-3.6-0.5-5.1-1.6
	c-1.1-0.9-1.8-2.3-1.8-3.7v-0.1h4c-0.1,0.7,0.2,1.4,0.8,1.9c0.6,0.4,1.4,0.6,2.1,0.6c0.6,0,1.3-0.1,1.8-0.5
	C389.1,1192.5,389.6,1192.1,389.6,1191.6z"/>
<path class="st8" d="M401.8,1176v3.9h2.7v3h-2.7v8.2c0,0.6,0.1,1.1,0.4,1.3c0.3,0.2,0.6,0.4,1,0.4h0.6c0.2,0,0.4-0.1,0.6-0.1
	l0.4,3.1c-0.9,0.3-1.8,0.4-2.7,0.4c-1.3,0.1-2.5-0.4-3.5-1.2c-0.9-1.1-1.3-2.5-1.2-3.9v-8.2h-2.3v-3h2.3v-3.9H401.8z"/>
<path class="st8" d="M414.4,1196.3c-2.1,0.1-4.1-0.7-5.6-2.2c-1.4-1.6-2.2-3.6-2.1-5.7v-0.6c-0.1-2.1,0.6-4.2,2-5.9
	c1.3-1.5,3.3-2.4,5.3-2.3c1.9-0.1,3.8,0.6,5.1,2c1.3,1.5,1.9,3.4,1.8,5.3v2.4h-9.6v0.1c0,1,0.4,1.9,1.1,2.6c0.7,0.7,1.6,1.1,2.6,1
	c0.8,0,1.6-0.1,2.4-0.3c0.7-0.3,1.4-0.6,2.1-0.9l1.2,2.7c-0.8,0.6-1.7,1-2.6,1.3C416.9,1196.1,415.6,1196.3,414.4,1196.3z M414,1183
	c-0.7,0-1.4,0.3-1.9,0.9c-0.5,0.7-0.8,1.5-0.9,2.4v0.1h5.3v-0.4c0-0.8-0.2-1.6-0.6-2.2C415.4,1183.2,414.7,1182.9,414,1183z"/>
<path class="st8" d="M438.1,1196.3c-2.1,0.1-4.1-0.7-5.6-2.2c-1.4-1.6-2.2-3.6-2.1-5.7v-0.6c-0.1-2.1,0.6-4.2,2-5.9
	c1.3-1.5,3.3-2.4,5.3-2.3c1.9-0.1,3.8,0.6,5.1,2c1.3,1.5,1.9,3.4,1.8,5.3v2.4H435v0.1c0,1,0.4,1.9,1.1,2.6c0.7,0.7,1.6,1.1,2.6,1
	c0.8,0,1.6-0.1,2.4-0.3c0.7-0.3,1.4-0.6,2.1-0.9l1.2,2.7c-0.8,0.6-1.7,1-2.6,1.3C440.6,1196.1,439.3,1196.3,438.1,1196.3z
	 M437.7,1183c-0.7,0-1.4,0.3-1.9,0.9c-0.5,0.7-0.8,1.5-0.9,2.4v0.1h5.3v-0.4c0-0.8-0.2-1.6-0.6-2.2
	C439.1,1183.2,438.4,1182.9,437.7,1183z"/>
<path class="st8" d="M455.5,1188.4h-8.4v-3.3h8.4V1188.4z"/>
<path class="st8" d="M464.1,1176v3.9h2.7v3h-2.7v8.2c0,0.6,0.1,1.1,0.4,1.3c0.3,0.2,0.6,0.4,1,0.4h0.6c0.2,0,0.4-0.1,0.6-0.1
	l0.4,3.1c-0.9,0.3-1.8,0.4-2.7,0.4c-1.3,0.1-2.5-0.4-3.5-1.2c-0.9-1.1-1.3-2.5-1.2-3.9v-8.2h-2.3v-3h2.3v-3.9H464.1z"/>
<path class="st8" d="M474.2,1176.1h-4.3v-3.3h4.3V1176.1z M474.2,1196h-4.3v-16.1h4.3V1196z"/>
<path class="st8" d="M484.5,1193c0.7,0,1.4-0.2,1.9-0.7c0.5-0.5,0.7-1.1,0.7-1.8h3.9v0.1c0,1.6-0.6,3.1-1.8,4.1
	c-3.1,2.4-7.5,2.1-10.2-0.7c-1.3-1.6-2-3.7-1.9-5.8v-0.4c-0.1-2.1,0.6-4.2,1.9-5.8c2.8-2.8,7.2-3.1,10.3-0.6
	c1.2,1.2,1.9,2.8,1.8,4.5v0.1h-4c0-0.8-0.2-1.5-0.7-2.1c-0.5-0.5-1.2-0.8-1.9-0.8c-1-0.1-1.9,0.4-2.4,1.3c-0.5,1.1-0.7,2.2-0.7,3.4
	v0.4c-0.1,1.2,0.2,2.4,0.7,3.5C482.6,1192.6,483.5,1193.1,484.5,1193z"/>
<path class="st8" d="M499,1189.3h-1.2v6.7h-4.3v-23.2h4.3v13.2h1.1l3.7-6.1h5l-5.1,7.3l5.9,8.8h-5L499,1189.3z"/>
<path class="st8" d="M516.6,1196.3c-2.1,0.1-4.1-0.7-5.6-2.2c-1.4-1.6-2.2-3.6-2.1-5.7v-0.6c-0.1-2.1,0.6-4.2,2-5.9
	c1.3-1.5,3.3-2.4,5.3-2.3c1.9-0.1,3.8,0.6,5.1,2c1.3,1.5,1.9,3.4,1.8,5.3v2.4h-9.6v0.1c0,1,0.4,1.9,1.1,2.6c0.7,0.7,1.6,1.1,2.6,1
	c0.8,0,1.6-0.1,2.4-0.3c0.7-0.3,1.4-0.6,2.1-0.9l1.2,2.7c-0.8,0.6-1.7,1-2.6,1.3C519.1,1196.1,517.8,1196.3,516.6,1196.3z
	 M516.2,1183c-0.7,0-1.4,0.3-1.9,0.9c-0.5,0.7-0.8,1.5-0.9,2.4v0.1h5.3v-0.4c0-0.8-0.2-1.6-0.6-2.2
	C517.6,1183.2,516.9,1182.9,516.2,1183L516.2,1183z"/>
<path class="st8" d="M530.8,1176v3.9h2.7v3h-2.7v8.2c0,0.6,0.1,1.1,0.4,1.3c0.3,0.2,0.6,0.4,1,0.4h0.6c0.2,0,0.4-0.1,0.6-0.1
	l0.4,3.1c-0.9,0.3-1.8,0.4-2.7,0.4c-1.3,0.1-2.5-0.4-3.5-1.2c-0.9-1.1-1.3-2.5-1.2-3.9v-8.2h-2.3v-3h2.3v-3.9H530.8z"/>
<path class="st8" d="M551,1196.3c-2.1,0.1-4.1-0.7-5.6-2.2c-1.4-1.6-2.2-3.6-2.1-5.7v-0.6c-0.1-2.1,0.6-4.2,2-5.9
	c1.3-1.5,3.3-2.4,5.3-2.3c1.9-0.1,3.8,0.6,5.1,2c1.3,1.5,1.9,3.4,1.8,5.3v2.4h-9.6v0.1c0,1,0.4,1.9,1.1,2.6c0.7,0.7,1.6,1.1,2.6,1
	c0.8,0,1.6-0.1,2.4-0.3c0.7-0.3,1.4-0.6,2.1-0.9l1.2,2.7c-0.8,0.6-1.7,1-2.6,1.3C553.5,1196.1,552.2,1196.3,551,1196.3z M550.6,1183
	c-0.7,0-1.4,0.3-1.9,0.9c-0.5,0.7-0.8,1.5-0.9,2.4v0.1h5.3v-0.4c0-0.8-0.2-1.6-0.6-2.2C552,1183.3,551.3,1183,550.6,1183z"/>
<path class="st8" d="M568.7,1191.6c0-0.5-0.3-1-0.7-1.2c-0.8-0.5-1.7-0.8-2.6-0.9c-1.5-0.3-3-0.9-4.3-1.7c-0.9-0.7-1.5-1.9-1.4-3.1
	c0-1.4,0.6-2.7,1.7-3.5c1.3-1.1,3-1.6,4.7-1.5c1.7-0.1,3.5,0.4,4.9,1.4c1.1,0.8,1.8,2.2,1.7,3.6v0.1h-4.2c0-0.6-0.2-1.2-0.6-1.6
	c-0.5-0.4-1.1-0.7-1.8-0.6c-0.6,0-1.2,0.2-1.7,0.5c-0.4,0.3-0.6,0.8-0.6,1.3c0,0.5,0.2,0.9,0.6,1.2c0.8,0.4,1.7,0.7,2.6,0.8
	c1.6,0.2,3.1,0.8,4.4,1.7c1,0.8,1.5,2,1.4,3.2c0,1.4-0.7,2.7-1.9,3.5c-1.4,1-3.2,1.5-4.9,1.4c-1.8,0.1-3.6-0.5-5.1-1.6
	c-1.1-0.9-1.8-2.3-1.8-3.7v-0.1h4c-0.1,0.7,0.2,1.4,0.8,1.9c0.6,0.4,1.4,0.6,2.1,0.6c0.6,0,1.3-0.1,1.8-0.5
	C568.2,1192.5,568.7,1192.1,568.7,1191.6z"/>
<path class="st8" d="M593.1,1193.7c-0.4,0.8-1.1,1.5-1.9,1.9c-0.8,0.5-1.7,0.7-2.6,0.7c-1.5,0.1-3-0.5-4-1.6c-1-1.1-1.4-2.8-1.4-5.1
	v-9.7h4.3v9.8c-0.1,0.9,0.1,1.8,0.6,2.5c0.4,0.5,1.1,0.8,1.8,0.8c0.6,0,1.2-0.1,1.8-0.3c0.5-0.2,0.9-0.6,1.2-1V1180h4.3v16.1h-3.7
	L593.1,1193.7z M590.9,1174h4.6v0.1l-4.1,3.9h-3.5L590.9,1174z"/>
<path class="st8" d="M604.4,1179.9l0.2,2.3c0.5-0.8,1.2-1.5,2-1.9c0.8-0.5,1.7-0.7,2.6-0.7c1.4-0.1,2.8,0.5,3.8,1.5
	c1,1.4,1.5,3.1,1.4,4.8v10.1H610v-10c0.1-0.8-0.1-1.7-0.7-2.3c-0.6-0.5-1.3-0.7-2-0.7c-0.5,0-1.1,0.1-1.5,0.4
	c-0.5,0.2-0.8,0.6-1.1,1v11.7h-4.3V1180L604.4,1179.9L604.4,1179.9z"/>
<path class="st8" d="M622.2,1176.1h-4.3v-3.3h4.3V1176.1z M622.2,1196h-4.3v-16.1h4.3V1196z"/>
<path class="st8" d="M632.5,1193c0.7,0,1.4-0.2,1.9-0.7c0.5-0.5,0.8-1.1,0.7-1.8h3.9v0.1c0,1.6-0.6,3.1-1.8,4.1
	c-3.1,2.4-7.5,2.1-10.2-0.7c-1.3-1.6-2-3.7-1.9-5.8v-0.4c-0.1-2.1,0.6-4.2,1.9-5.8c2.8-2.8,7.2-3.1,10.3-0.6
	c1.2,1.2,1.9,2.8,1.8,4.5v0.1h-4c0-0.8-0.2-1.5-0.7-2.1c-0.5-0.6-1.2-0.9-1.9-0.8c-1-0.1-2,0.4-2.4,1.3c-0.5,1.1-0.7,2.2-0.7,3.4
	v0.4c-0.1,1.2,0.2,2.4,0.7,3.5C630.6,1192.6,631.5,1193.1,632.5,1193z"/>
<path class="st8" d="M640.8,1187.8c-0.1-2.1,0.6-4.2,2-5.9c1.4-1.6,3.5-2.4,5.6-2.3c2.1-0.1,4.2,0.8,5.6,2.3c1.4,1.7,2.1,3.8,2,5.9
	v0.3c0.1,2.1-0.6,4.2-2,5.9c-1.4,1.6-3.5,2.4-5.6,2.3c-2.1,0.1-4.2-0.8-5.6-2.3c-1.4-1.7-2.1-3.8-2-5.9V1187.8z M645.2,1188.1
	c0,1.2,0.2,2.4,0.8,3.5c0.5,0.9,1.5,1.4,2.5,1.3c1,0.1,2-0.4,2.5-1.3c0.6-1.1,0.9-2.3,0.8-3.5v-0.3c0-1.2-0.2-2.4-0.8-3.5
	c-0.5-0.9-1.5-1.4-2.5-1.4c-1,0-2,0.5-2.5,1.4c-0.6,1.1-0.9,2.3-0.8,3.5V1188.1z"/>
<path class="st8" d="M673.4,1196.3c-2.1,0.1-4.1-0.7-5.6-2.2c-1.4-1.6-2.2-3.6-2.1-5.7v-0.6c-0.1-2.1,0.6-4.2,2-5.9
	c1.3-1.5,3.3-2.4,5.3-2.3c1.9-0.1,3.8,0.6,5.1,2c1.3,1.5,1.9,3.4,1.8,5.3v2.4h-9.6v0.1c0,1,0.4,1.9,1.1,2.6c0.7,0.7,1.6,1.1,2.6,1
	c0.8,0,1.6-0.1,2.4-0.3c0.7-0.3,1.4-0.6,2.1-0.9l1.2,2.7c-0.8,0.6-1.7,1-2.6,1.3C675.9,1196.1,674.6,1196.3,673.4,1196.3z M673,1183
	c-0.7,0-1.4,0.3-1.9,0.9c-0.5,0.7-0.8,1.5-0.9,2.4v0.1h5.3v-0.4c0-0.8-0.2-1.6-0.6-2.2C674.4,1183.2,673.7,1182.9,673,1183z"/>
<path class="st8" d="M694.5,1176.1h-4.3v-3.3h4.3V1176.1z M694.5,1196h-4.3v-16.1h4.3V1196z"/>
<path class="st8" d="M702.1,1179.9l0.2,2.3c0.5-0.8,1.2-1.5,2-1.9c0.8-0.4,1.7-0.7,2.6-0.7c1.4-0.1,2.8,0.5,3.8,1.5
	c1,1.4,1.5,3.1,1.4,4.8v10.1h-4.4v-10c0.1-0.8-0.1-1.7-0.7-2.3c-0.6-0.5-1.3-0.7-2-0.7c-0.5,0-1.1,0.1-1.5,0.4
	c-0.4,0.3-0.8,0.6-1.1,1v11.7H698V1180L702.1,1179.9L702.1,1179.9z"/>
<path class="st8" d="M724,1191.6c0-0.5-0.3-1-0.7-1.2c-0.8-0.5-1.7-0.8-2.6-0.9c-1.5-0.3-3-0.9-4.3-1.7c-1-0.7-1.5-1.9-1.5-3.1
	c0-1.4,0.6-2.7,1.7-3.5c1.3-1.1,3-1.6,4.7-1.5c1.7-0.1,3.5,0.4,4.9,1.4c1.1,0.8,1.8,2.2,1.7,3.6v0.1h-4.2c0-0.6-0.2-1.2-0.6-1.6
	c-0.5-0.4-1.1-0.7-1.8-0.6c-0.6,0-1.2,0.2-1.7,0.5c-0.4,0.3-0.6,0.8-0.6,1.3c0,0.5,0.2,0.9,0.6,1.2c0.8,0.4,1.7,0.7,2.6,0.8
	c1.6,0.2,3.1,0.8,4.4,1.7c1,0.8,1.5,2,1.4,3.2c0,1.4-0.7,2.7-1.9,3.5c-1.4,1-3.2,1.5-4.9,1.4c-1.8,0.1-3.6-0.5-5.1-1.6
	c-1.1-0.9-1.8-2.3-1.8-3.7v-0.1h4c-0.1,0.7,0.2,1.4,0.8,1.9c0.6,0.4,1.4,0.6,2.1,0.6c0.6,0,1.3-0.1,1.8-0.5
	C723.6,1192.7,724,1192.2,724,1191.6z"/>
<path class="st8" d="M736.2,1176v3.9h2.7v3h-2.7v8.2c0,0.6,0.1,1.1,0.4,1.3c0.3,0.2,0.6,0.4,1,0.4h0.6c0.2,0,0.4-0.1,0.6-0.1
	l0.4,3.1c-0.9,0.3-1.8,0.4-2.7,0.4c-1.3,0.1-2.5-0.4-3.5-1.2c-0.9-1.1-1.3-2.5-1.2-3.9v-8.2h-2.3v-3h2.3v-3.9H736.2z"/>
<path class="st8" d="M750.1,1183.7h-1.6c-0.6,0-1.1,0.1-1.6,0.4c-0.4,0.3-0.7,0.7-1,1.1v10.9h-4.3V1180h4l0.2,2.4
	c0.4-0.8,0.9-1.4,1.5-2c0.6-0.5,1.3-0.7,2.1-0.7c0.2,0,0.4,0,0.6,0.1c0.2,0,0.4,0.1,0.6,0.1L750.1,1183.7z"/>
<path class="st8" d="M761.7,1196c-0.2-0.4-0.3-0.8-0.4-1.2c-0.1-0.4-0.2-0.8-0.2-1.2c-0.9,1.6-2.6,2.6-4.4,2.7
	c-1.4,0.1-2.8-0.4-3.9-1.3c-0.9-0.9-1.4-2.2-1.4-3.5c-0.1-1.5,0.6-2.8,1.8-3.7c1.6-1,3.4-1.4,5.3-1.3h2.4v-1.3
	c0.2-1.2-0.6-2.2-1.8-2.4c-0.2,0-0.4,0-0.6,0c-0.6,0-1.1,0.2-1.6,0.5c-0.4,0.3-0.6,0.9-0.6,1.4h-4.2v-0.1c-0.1-1.4,0.6-2.7,1.8-3.5
	c1.4-1,3.1-1.6,4.9-1.5c1.7-0.1,3.4,0.5,4.7,1.5c1.2,1,1.9,2.6,1.8,4.2v6.6c0,0.7,0.1,1.4,0.2,2.1c0.1,0.7,0.3,1.3,0.5,2L761.7,1196
	z M757.8,1193.1c0.7,0,1.4-0.2,2-0.6c0.5-0.3,0.9-0.8,1.2-1.3v-2.3h-2.4c-0.8-0.1-1.5,0.2-2.1,0.7c-0.5,0.4-0.7,1.1-0.7,1.7
	c0,0.5,0.2,0.9,0.5,1.3C756.7,1193,757.3,1193.2,757.8,1193.1z"/>
<path class="st8" d="M772.6,1179.9l0.2,2.3c0.5-0.8,1.2-1.5,2-1.9c0.8-0.4,1.7-0.7,2.6-0.7c1.4-0.1,2.8,0.5,3.8,1.5
	c1,1.4,1.5,3.1,1.4,4.8v10.1h-4.4v-10c0.1-0.8-0.1-1.7-0.7-2.3c-0.6-0.5-1.3-0.7-2-0.7c-0.5,0-1.1,0.1-1.5,0.4
	c-0.4,0.3-0.8,0.6-1.1,1v11.7h-4.3V1180L772.6,1179.9L772.6,1179.9z"/>
<path class="st8" d="M787,1196v-13h-2.4v-3h2.4v-1.8c-0.1-1.6,0.5-3.1,1.6-4.2c1.2-1.1,2.8-1.6,4.4-1.5c0.4,0,0.7,0,1.1,0.1
	c0.4,0.1,0.8,0.1,1.3,0.2l-0.4,3.2c-0.2,0-0.5-0.1-0.7-0.1h-0.8c-0.6,0-1.2,0.2-1.6,0.6c-0.4,0.5-0.6,1.1-0.5,1.7v1.8h3.2v3h-3.2v13
	L787,1196z"/>
<path class="st8" d="M803.8,1196.3c-2.1,0.1-4.1-0.7-5.6-2.2c-1.4-1.6-2.2-3.6-2.1-5.7v-0.6c-0.1-2.1,0.6-4.2,2-5.9
	c1.3-1.5,3.3-2.4,5.3-2.3c1.9-0.1,3.8,0.6,5.1,2c1.3,1.5,1.9,3.4,1.8,5.3v2.4h-9.6v0.1c0,1,0.4,1.9,1.1,2.6c0.7,0.7,1.6,1.1,2.6,1
	c0.8,0,1.6-0.1,2.4-0.3c0.7-0.3,1.4-0.6,2.1-0.9l1.2,2.7c-0.8,0.6-1.7,1-2.6,1.3C806.3,1196.1,805,1196.3,803.8,1196.3z M803.5,1183
	c-0.7,0-1.4,0.3-1.9,0.9c-0.5,0.7-0.8,1.5-0.9,2.4v0.1h5.3v-0.4c0-0.8-0.2-1.6-0.6-2.2C804.9,1183.3,804.2,1183,803.5,1183z"/>
<path class="st8" d="M821.3,1183.7h-1.6c-0.6,0-1.1,0.1-1.6,0.4c-0.4,0.3-0.7,0.7-1,1.1v10.9h-4.3V1180h4l0.2,2.4
	c0.4-0.8,0.9-1.4,1.5-2c0.6-0.5,1.3-0.7,2.1-0.7c0.2,0,0.4,0,0.6,0.1c0.2,0,0.4,0.1,0.6,0.1L821.3,1183.7z"/>
<path class="st8" d="M828.1,1176.1h-4.3v-3.3h4.3V1176.1z M828.1,1196h-4.3v-16.1h4.3V1196z"/>
<path class="st8" d="M846.1,1188.4c0.1,2.1-0.5,4.1-1.6,5.8c-1.1,1.4-2.8,2.3-4.6,2.2c-0.8,0-1.7-0.2-2.4-0.6
	c-0.7-0.4-1.3-1-1.8-1.7l-0.3,2h-3.7v-23.2h4.3v8.8c0.5-0.6,1-1.1,1.7-1.5c0.7-0.3,1.4-0.5,2.2-0.5c1.9-0.1,3.6,0.8,4.7,2.3
	c1.2,1.8,1.7,4,1.6,6.2v0.2L846.1,1188.4z M841.8,1188.1c0.1-1.3-0.2-2.5-0.7-3.7c-0.4-0.9-1.4-1.5-2.4-1.4c-0.6,0-1.2,0.1-1.7,0.4
	c-0.5,0.3-0.8,0.7-1.1,1.2v6.8c0.2,0.5,0.6,0.9,1.1,1.1c0.5,0.3,1.1,0.4,1.7,0.4c0.9,0.1,1.8-0.4,2.3-1.2c0.5-1.1,0.7-2.2,0.7-3.4
	v-0.2L841.8,1188.1z"/>
<path class="st8" d="M853.4,1196H849v-23.2h4.3v23.2H853.4z"/>
<path class="st8" d="M864.1,1196.3c-2.1,0.1-4.1-0.7-5.6-2.2c-1.4-1.6-2.2-3.6-2.1-5.7v-0.6c-0.1-2.1,0.6-4.2,2-5.9
	c1.3-1.5,3.3-2.4,5.3-2.3c1.9-0.1,3.8,0.6,5.1,2c1.3,1.5,1.9,3.4,1.8,5.3v2.4H861v0.1c0,1,0.4,1.9,1.1,2.6c0.7,0.7,1.6,1.1,2.6,1
	c0.8,0,1.6-0.1,2.4-0.3c0.7-0.3,1.4-0.6,2.1-0.9l1.2,2.7c-0.8,0.6-1.7,1-2.6,1.3C866.6,1196.1,865.3,1196.3,864.1,1196.3z
	 M863.7,1183c-0.7,0-1.4,0.3-1.9,0.9c-0.5,0.7-0.8,1.5-0.9,2.4v0.1h5.3v-0.4c0-0.8-0.2-1.6-0.6-2.2
	C865.1,1183.2,864.4,1182.9,863.7,1183L863.7,1183z"/>
<path class="st8" d="M877.9,1196h-4.3v-3.8h4.3V1196z"/>
<path class="st8" d="M306.8,1232.6V1212h2.9l6.6,10.4c1.4,2.2,2.6,4.4,3.7,6.7h0.1c-0.2-2.7-0.3-5.2-0.3-8.4v-8.6h2.5v20.5h-2.7
	l-6.5-10.4c-1.4-2.2-2.7-4.5-3.8-6.9h-0.1c0.2,2.6,0.2,5.1,0.2,8.5v8.8H306.8z"/>
<path class="st8" d="M340.1,1225.1c0,5.5-3.8,7.8-7.3,7.8c-4,0-7.1-2.9-7.1-7.6c0-4.9,3.2-7.8,7.3-7.8S340.1,1220.6,340.1,1225.1z
	 M328.4,1225.2c0,3.2,1.9,5.7,4.5,5.7s4.5-2.4,4.5-5.7c0-2.5-1.2-5.7-4.4-5.7S328.4,1222.4,328.4,1225.2z"/>
<path class="st8" d="M349.9,1210.9h2.7v21.6h-2.7V1210.9z"/>
<path class="st8" d="M370.5,1225.1c0,5.5-3.8,7.8-7.3,7.8c-4,0-7.1-2.9-7.1-7.6c0-4.9,3.2-7.8,7.3-7.8S370.5,1220.6,370.5,1225.1z
	 M358.8,1225.2c0,3.2,1.9,5.7,4.5,5.7s4.5-2.4,4.5-5.7c0-2.5-1.2-5.7-4.4-5.7S358.8,1222.4,358.8,1225.2z"/>
<path class="st8" d="M390.8,1232c-1.3,0.6-2.7,0.9-4.2,0.9c-4.4,0-7.3-3-7.3-7.5c-0.2-4.1,3-7.6,7.1-7.8c0.3,0,0.5,0,0.8,0
	c1.3,0,2.5,0.2,3.7,0.8l-0.6,2.1c-0.9-0.5-2-0.8-3.1-0.7c-3.4,0-5.2,2.5-5.2,5.6c0,3.4,2.2,5.5,5.1,5.5c1.1,0,2.3-0.3,3.3-0.7
	L390.8,1232z"/>
<path class="st8" d="M407.3,1225.1c0,5.5-3.8,7.8-7.3,7.8c-4,0-7.1-2.9-7.1-7.6c0-4.9,3.2-7.8,7.3-7.8S407.3,1220.6,407.3,1225.1z
	 M395.6,1225.2c0,3.2,1.9,5.7,4.5,5.7s4.5-2.4,4.5-5.7c0-2.5-1.2-5.7-4.4-5.7S395.6,1222.4,395.6,1225.2L395.6,1225.2z"/>
<path class="st8" d="M410.6,1221.8c0-1.5,0-2.8-0.1-4h2.3l0.1,2.4h0.1c0.9-1.7,2.7-2.8,4.6-2.7c1.9,0,3.6,1.2,4.2,3h0.1
	c0.4-0.7,0.9-1.4,1.6-1.9c0.9-0.7,2.1-1.1,3.3-1c1.9,0,4.8,1.3,4.8,6.4v8.7H429v-8.3c0-2.8-1-4.5-3.2-4.5c-1.5,0.1-2.7,1-3.2,2.4
	c-0.1,0.4-0.2,0.9-0.2,1.3v9.1h-2.6v-8.8c0-2.3-1-4.1-3.1-4.1c-1.6,0.1-2.9,1.2-3.3,2.7c-0.2,0.4-0.2,0.9-0.2,1.3v8.9h-2.6
	L410.6,1221.8L410.6,1221.8z"/>
<path class="st8" d="M436,1222.6c0-1.9-0.1-3.4-0.1-4.8h2.4l0.1,2.5h0.1c1.1-1.9,3.1-3,5.2-2.9c3.6,0,6.2,3,6.2,7.5
	c0,5.3-3.2,7.9-6.7,7.9c-1.8,0.1-3.5-0.8-4.5-2.3h-0.1v8H436V1222.6z M438.7,1226.6c0,0.4,0.1,0.8,0.1,1.1c0.4,1.8,2.1,3.1,4,3.1
	c2.8,0,4.5-2.3,4.5-5.7c0-3-1.6-5.5-4.4-5.5c-1.9,0.1-3.6,1.4-4.1,3.3c-0.1,0.4-0.2,0.7-0.2,1.1v2.6H438.7z"/>
<path class="st8" d="M461.5,1232.6l-0.2-1.9h-0.1c-1,1.4-2.7,2.3-4.5,2.2c-2.3,0.2-4.3-1.5-4.5-3.8c0-0.1,0-0.2,0-0.4
	c0-3.6,3.2-5.5,8.9-5.5v-0.3c0-1.2-0.3-3.4-3.4-3.4c-1.3,0-2.7,0.4-3.8,1.1l-0.6-1.8c1.4-0.9,3.1-1.3,4.8-1.3c4.5,0,5.6,3.1,5.6,6
	v5.5c0,1.2,0.1,2.3,0.2,3.5h-2.4V1232.6z M461.1,1225c-2.9-0.1-6.2,0.5-6.2,3.3c-0.1,1.3,0.9,2.5,2.3,2.6c0.1,0,0.2,0,0.2,0
	c1.6,0,3.1-1,3.6-2.5c0.1-0.3,0.2-0.6,0.2-0.9v-2.5H461.1z"/>
<path class="st8" d="M468,1222.4c0-1.7,0-3.2-0.1-4.6h2.3l0.1,2.9h0.1c0.5-1.8,2.2-3.1,4.1-3.2c0.3,0,0.5,0,0.8,0.1v2.5
	c-0.3-0.1-0.6-0.1-0.9-0.1c-1.9,0-3.2,1.4-3.6,3.4c-0.1,0.4-0.1,0.8-0.1,1.2v7.9H468V1222.4z"/>
<path class="st8" d="M481.8,1213.6v4.2h3.8v2h-3.8v7.9c0,1.8,0.5,2.9,2,2.9c0.5,0,1.1-0.1,1.6-0.2l0.1,2c-0.8,0.3-1.6,0.4-2.4,0.4
	c-1.1,0.1-2.1-0.3-2.9-1.1c-0.8-0.8-1-2.1-1-3.8v-8h-2.3v-2h2.3v-3.5L481.8,1213.6z"/>
<path class="st8" d="M496.8,1232.6l-0.2-1.9h-0.1c-1,1.4-2.7,2.3-4.5,2.2c-2.3,0.2-4.3-1.5-4.5-3.8c0-0.1,0-0.2,0-0.4
	c0-3.6,3.2-5.5,8.9-5.5v-0.3c0-1.2-0.3-3.4-3.4-3.4c-1.3,0-2.7,0.4-3.8,1.1l-0.6-1.8c1.4-0.9,3.1-1.3,4.8-1.3c4.5,0,5.6,3.1,5.6,6
	v5.5c0,1.2,0.1,2.3,0.2,3.5h-2.4V1232.6z M496.4,1225c-2.9-0.1-6.2,0.5-6.2,3.3c-0.1,1.3,0.9,2.5,2.3,2.6c0.1,0,0.2,0,0.2,0
	c1.6,0,3.1-1,3.6-2.5c0.1-0.3,0.2-0.6,0.2-0.9v-2.5H496.4z"/>
<path class="st8" d="M502.9,1229.8c1.1,0.7,2.3,1,3.5,1.1c1.9,0,2.9-1,2.9-2.2s-0.8-2-2.7-2.7c-2.6-0.9-3.9-2.4-3.9-4.2
	c0-2.4,1.9-4.3,5.1-4.3c1.3,0,2.5,0.3,3.6,0.9l-0.7,1.9c-0.9-0.6-1.9-0.9-3-0.9c-1.6,0-2.5,0.9-2.5,2s0.9,1.8,2.8,2.5
	c2.6,1,3.9,2.3,3.9,4.4c0,2.6-2,4.4-5.5,4.4c-1.4,0-2.8-0.3-4.1-1L502.9,1229.8z"/>
<path class="st8" d="M521.8,1221.8c0-1.5,0-2.8-0.1-4h2.4l0.2,2.4h0.1c1-1.8,2.9-2.9,4.9-2.8c2,0,5.2,1.2,5.2,6.3v8.8h-2.7v-8.5
	c0-2.4-0.9-4.4-3.4-4.4c-1.7,0-3.1,1.1-3.6,2.7c-0.1,0.4-0.2,0.8-0.2,1.2v8.9h-2.7v-10.6L521.8,1221.8z"/>
<path class="st8" d="M541.7,1213.7c0,0.9-0.6,1.6-1.5,1.6c-0.1,0-0.1,0-0.2,0c-0.9,0-1.6-0.7-1.6-1.6c0,0,0,0,0,0
	c0-0.9,0.7-1.7,1.7-1.7c0,0,0,0,0,0c0.9,0,1.6,0.6,1.6,1.5C541.7,1213.6,541.7,1213.6,541.7,1213.7z M538.7,1232.6v-14.7h2.7v14.7
	H538.7z"/>
<path class="st8" d="M552.3,1210.9h2.7v21.6h-2.7V1210.9z"/>
<path class="st8" d="M572.8,1225.1c0,5.5-3.8,7.8-7.3,7.8c-4,0-7.1-2.9-7.1-7.6c0-4.9,3.2-7.8,7.3-7.8
	C570,1217.5,572.8,1220.6,572.8,1225.1z M561.1,1225.2c0,3.2,1.9,5.7,4.5,5.7s4.5-2.4,4.5-5.7c0-2.5-1.2-5.7-4.4-5.7
	S561.1,1222.4,561.1,1225.2z"/>
<path class="st8" d="M584.1,1225.7c0.1,3.6,2.4,5.1,5.1,5.1c1.4,0.1,2.8-0.2,4.1-0.8l0.5,1.9c-1.6,0.6-3.2,0.9-4.9,0.9
	c-4.5,0-7.2-3-7.2-7.4s2.6-7.9,6.9-7.9c4.8,0,6.1,4.2,6.1,6.9c0,0.5-0.1,1-0.1,1.2h-10.5V1225.7z M592,1223.8c0-1.7-0.7-4.4-3.7-4.4
	c-2.7,0-3.9,2.5-4.1,4.4H592z"/>
<path class="st8" d="M599.2,1217.8l2.1,3.2l1.5,2.4h0.1c0.5-0.9,1-1.6,1.5-2.4l2.1-3.1h2.9l-5,7.1l5.2,7.6h-3l-2.2-3.3
	c-0.6-0.9-1.1-1.7-1.6-2.6h-0.1c-0.5,0.9-1,1.7-1.6,2.6l-2.1,3.3h-3l5.2-7.5l-5-7.2L599.2,1217.8L599.2,1217.8z"/>
<path class="st8" d="M615,1213.7c0,0.9-0.6,1.6-1.5,1.6c-0.1,0-0.1,0-0.2,0c-0.9,0-1.6-0.7-1.6-1.6c0,0,0,0,0,0
	c0-0.9,0.7-1.7,1.7-1.7c0,0,0,0,0,0c0.9,0,1.6,0.6,1.6,1.5C615,1213.6,615,1213.6,615,1213.7z M612,1232.6v-14.7h2.7v14.7H612z"/>
<path class="st8" d="M619,1232.6c0.1-1,0.1-2.5,0.1-3.8V1211h2.6v9.3h0.1c1-1.7,3-2.8,5-2.7c3.7,0,6.2,3,6.2,7.5
	c0,5.3-3.3,7.9-6.6,7.9c-2,0.1-4-1-4.9-2.8h-0.1l-0.1,2.4L619,1232.6z M621.8,1226.7c0,0.3,0.1,0.7,0.1,1c0.4,1.8,2.1,3.1,4,3.1
	c2.8,0,4.5-2.3,4.5-5.7c0-3-1.5-5.5-4.4-5.5c-2,0-3.6,1.4-4.1,3.3c-0.1,0.4-0.2,0.7-0.2,1.1v2.7H621.8z"/>
<path class="st8" d="M644.6,1232.6l-0.2-1.9h-0.1c-1,1.4-2.7,2.3-4.5,2.2c-2.3,0.2-4.3-1.5-4.5-3.8c0-0.1,0-0.2,0-0.4
	c0-3.6,3.2-5.5,8.9-5.5v-0.3c0-1.2-0.3-3.4-3.3-3.4c-1.3,0-2.7,0.4-3.8,1.1l-0.6-1.8c1.4-0.9,3.1-1.3,4.8-1.3c4.5,0,5.6,3.1,5.6,6
	v5.5c0,1.2,0.1,2.3,0.2,3.5h-2.5L644.6,1232.6z M644.2,1225c-2.9-0.1-6.2,0.5-6.2,3.3c-0.1,1.3,0.9,2.5,2.3,2.6c0.1,0,0.2,0,0.2,0
	c1.6,0,3.1-1,3.6-2.5c0.1-0.3,0.2-0.6,0.2-0.9L644.2,1225L644.2,1225z"/>
<path class="st8" d="M650.8,1229.8c1.1,0.7,2.3,1,3.5,1.1c1.9,0,2.9-1,2.9-2.2s-0.8-2-2.7-2.7c-2.6-0.9-3.9-2.4-3.9-4.2
	c0-2.4,1.9-4.3,5.1-4.3c1.3,0,2.5,0.3,3.6,0.9l-0.7,1.9c-0.9-0.6-1.9-0.9-3-0.9c-1.6,0-2.5,0.9-2.5,2s0.9,1.8,2.8,2.5
	c2.6,1,3.9,2.3,3.9,4.4c0,2.6-2,4.4-5.5,4.4c-1.4,0-2.8-0.3-4.1-1L650.8,1229.8z"/>
<path class="st8" d="M671.1,1225.7c0.1,3.6,2.4,5.1,5.1,5.1c1.4,0.1,2.8-0.2,4.1-0.8l0.5,1.9c-1.6,0.6-3.2,0.9-4.9,0.9
	c-4.5,0-7.2-3-7.2-7.4s2.6-7.9,6.9-7.9c4.8,0,6.1,4.2,6.1,6.9c0,0.5-0.1,1-0.1,1.2h-10.5V1225.7z M679,1223.8c0-1.7-0.7-4.4-3.7-4.4
	c-2.7,0-3.9,2.5-4.1,4.4H679z"/>
<path class="st8" d="M684.9,1221.8c0-1.5,0-2.8-0.1-4h2.4l0.2,2.4h0.1c1-1.8,2.9-2.9,4.9-2.8c2,0,5.2,1.2,5.2,6.3v8.8h-2.7v-8.5
	c0-2.4-0.9-4.4-3.4-4.4c-1.7,0-3.1,1.1-3.6,2.7c-0.1,0.4-0.2,0.8-0.2,1.2v8.9H685L684.9,1221.8L684.9,1221.8z"/>
<path class="st8" d="M708.3,1210.9h2.7v21.6h-2.7V1210.9z"/>
<path class="st8" d="M723.6,1232.6l-0.2-1.9h-0.1c-1,1.4-2.7,2.3-4.5,2.2c-2.3,0.2-4.3-1.5-4.5-3.8c0-0.1,0-0.2,0-0.4
	c0-3.6,3.2-5.5,8.9-5.5v-0.3c0-1.2-0.3-3.4-3.3-3.4c-1.3,0-2.7,0.4-3.8,1.1l-0.6-1.8c1.4-0.9,3.1-1.3,4.8-1.3c4.5,0,5.6,3.1,5.6,6
	v5.5c0,1.2,0.1,2.3,0.2,3.5h-2.5L723.6,1232.6z M723.2,1225c-2.9-0.1-6.2,0.5-6.2,3.3c-0.1,1.3,0.9,2.5,2.3,2.6c0.1,0,0.2,0,0.2,0
	c1.6,0,3.1-1,3.6-2.5c0.1-0.3,0.2-0.6,0.2-0.9L723.2,1225L723.2,1225z"/>
<path class="st8" d="M729.8,1229.8c1.1,0.7,2.3,1,3.5,1.1c1.9,0,2.9-1,2.9-2.2s-0.8-2-2.7-2.7c-2.6-0.9-3.9-2.4-3.9-4.2
	c0-2.4,1.9-4.3,5.1-4.3c1.3,0,2.5,0.3,3.6,0.9l-0.7,1.9c-0.9-0.6-1.9-0.9-3-0.9c-1.6,0-2.5,0.9-2.5,2s0.9,1.8,2.8,2.5
	c2.6,1,3.9,2.3,3.9,4.4c0,2.6-2,4.4-5.5,4.4c-1.4,0-2.8-0.3-4.1-1L729.8,1229.8z"/>
<path class="st8" d="M748.6,1222.4c0-1.7,0-3.2-0.1-4.6h2.3l0.1,2.9h0.1c0.5-1.8,2.2-3.1,4.1-3.2c0.3,0,0.5,0,0.8,0.1v2.5
	c-0.3-0.1-0.6-0.1-0.9-0.1c-1.9,0-3.2,1.4-3.6,3.4c-0.1,0.4-0.1,0.8-0.1,1.2v7.9h-2.6L748.6,1222.4L748.6,1222.4z"/>
<path class="st8" d="M760,1225.7c0.1,3.6,2.4,5.1,5.1,5.1c1.4,0.1,2.8-0.2,4.1-0.8l0.5,1.9c-1.6,0.6-3.2,0.9-4.9,0.9
	c-4.5,0-7.2-3-7.2-7.4s2.6-7.9,6.9-7.9c4.8,0,6.1,4.2,6.1,6.9c0,0.5-0.1,1-0.1,1.2H760V1225.7z M767.9,1223.8c0-1.7-0.7-4.4-3.7-4.4
	c-2.7,0-3.9,2.5-4.1,4.4H767.9z"/>
<path class="st8" d="M786.5,1210.9v17.8c0,1.3,0,2.8,0.1,3.8h-2.4l-0.1-2.6H784c-1,1.8-2.9,3-5,2.9c-3.6,0-6.3-3-6.3-7.5
	c0-4.9,3-7.9,6.6-7.9c1.8-0.1,3.5,0.8,4.4,2.3h0.1v-8.8L786.5,1210.9z M783.9,1223.8c0-0.4,0-0.7-0.1-1.1c-0.4-1.8-2-3.1-3.9-3.1
	c-2.8,0-4.4,2.4-4.4,5.7c0,3,1.5,5.5,4.4,5.5c1.9,0,3.5-1.3,3.9-3.2c0.1-0.4,0.1-0.8,0.1-1.2V1223.8z"/>
<path class="st8" d="M792.5,1225.7c0.1,3.6,2.4,5.1,5.1,5.1c1.4,0.1,2.8-0.2,4.1-0.8l0.5,1.9c-1.6,0.6-3.2,0.9-4.9,0.9
	c-4.5,0-7.2-3-7.2-7.4s2.6-7.9,6.9-7.9c4.8,0,6.1,4.2,6.1,6.9c0,0.5-0.1,1-0.1,1.2h-10.5V1225.7z M800.3,1223.8
	c0-1.7-0.7-4.4-3.7-4.4c-2.7,0-3.9,2.5-4.1,4.4H800.3z"/>
<path class="st8" d="M805.9,1229.8c1.1,0.7,2.3,1,3.5,1.1c1.9,0,2.9-1,2.9-2.2s-0.8-2-2.7-2.7c-2.6-0.9-3.9-2.4-3.9-4.2
	c0-2.4,1.9-4.3,5.1-4.3c1.3,0,2.5,0.3,3.6,0.9l-0.7,1.9c-0.9-0.6-1.9-0.9-3-0.9c-1.6,0-2.5,0.9-2.5,2s0.9,1.8,2.8,2.5
	c2.6,1,3.9,2.3,3.9,4.4c0,2.6-2,4.4-5.5,4.4c-1.4,0-2.8-0.3-4.1-1L805.9,1229.8z"/>
<path class="st8" d="M824.4,1229.8c1.1,0.7,2.3,1,3.5,1.1c1.9,0,2.9-1,2.9-2.2s-0.8-2-2.7-2.7c-2.6-0.9-3.9-2.4-3.9-4.2
	c0-2.4,1.9-4.3,5.1-4.3c1.3,0,2.5,0.3,3.6,0.9l-0.7,1.9c-0.9-0.6-1.9-0.9-3-0.9c-1.6,0-2.5,0.9-2.5,2s0.9,1.8,2.8,2.5
	c2.6,1,3.9,2.3,3.9,4.4c0,2.6-2,4.4-5.5,4.4c-1.4,0-2.8-0.3-4.1-1L824.4,1229.8z"/>
<path class="st8" d="M850.2,1225.1c0,5.5-3.8,7.8-7.3,7.8c-4,0-7.1-2.9-7.1-7.6c0-4.9,3.2-7.8,7.3-7.8S850.2,1220.6,850.2,1225.1z
	 M838.5,1225.2c0,3.2,1.9,5.7,4.5,5.7s4.5-2.4,4.5-5.7c0-2.5-1.2-5.7-4.4-5.7S838.5,1222.4,838.5,1225.2z"/>
<path class="st8" d="M864,1232c-1.3,0.6-2.7,0.9-4.2,0.9c-4.4,0-7.3-3-7.3-7.5c-0.2-4.1,3-7.6,7.1-7.8c0.3,0,0.5,0,0.8,0
	c1.3,0,2.5,0.2,3.7,0.8l-0.6,2.1c-0.9-0.5-2-0.8-3.1-0.7c-3.4,0-5.2,2.5-5.2,5.6c0,3.4,2.2,5.5,5.1,5.5c1.1,0,2.3-0.3,3.3-0.7
	L864,1232z"/>
<path class="st8" d="M870.2,1213.7c0,0.9-0.6,1.6-1.5,1.6c-0.1,0-0.1,0-0.2,0c-0.9,0-1.6-0.7-1.6-1.6c0,0,0,0,0,0
	c0-0.9,0.7-1.7,1.7-1.7c0,0,0,0,0,0C869.5,1212,870.2,1212.7,870.2,1213.7C870.2,1213.6,870.2,1213.7,870.2,1213.7z M867.2,1232.6
	v-14.7h2.7v14.7H867.2z"/>
<path class="st8" d="M882.5,1232.6l-0.2-1.9h-0.1c-1,1.4-2.7,2.3-4.5,2.2c-2.3,0.2-4.3-1.5-4.5-3.8c0-0.1,0-0.2,0-0.4
	c0-3.6,3.2-5.5,8.9-5.5v-0.3c0-1.2-0.3-3.4-3.4-3.4c-1.3,0-2.7,0.4-3.8,1.1l-0.6-1.8c1.4-0.9,3.1-1.3,4.8-1.3c4.5,0,5.6,3.1,5.6,6
	v5.5c0,1.2,0.1,2.3,0.2,3.5h-2.4V1232.6z M882.1,1225c-2.9-0.1-6.2,0.5-6.2,3.3c-0.1,1.3,0.9,2.5,2.3,2.6c0.1,0,0.2,0,0.2,0
	c1.6,0,3.1-1,3.6-2.5c0.1-0.3,0.2-0.6,0.2-0.9L882.1,1225L882.1,1225z"/>
<path class="st8" d="M889,1210.9h2.7v21.6H889V1210.9z"/>
<path class="st8" d="M897.6,1225.7c0.1,3.6,2.4,5.1,5.1,5.1c1.4,0.1,2.8-0.2,4.1-0.8l0.5,1.9c-1.6,0.6-3.2,0.9-4.9,0.9
	c-4.5,0-7.2-3-7.2-7.4s2.6-7.9,6.9-7.9c4.8,0,6.1,4.2,6.1,6.9c0,0.5-0.1,1-0.1,1.2h-10.5V1225.7z M905.5,1223.8
	c0-1.7-0.7-4.4-3.7-4.4c-2.7,0-3.9,2.5-4.1,4.4H905.5z"/>
<path class="st8" d="M911,1229.8c1.1,0.7,2.3,1,3.5,1.1c1.9,0,2.9-1,2.9-2.2s-0.8-2-2.7-2.7c-2.6-0.9-3.9-2.4-3.9-4.2
	c0-2.4,1.9-4.3,5.1-4.3c1.3,0,2.5,0.3,3.6,0.9l-0.7,1.9c-0.9-0.6-1.9-0.9-3-0.9c-1.6,0-2.5,0.9-2.5,2s0.9,1.8,2.8,2.5
	c2.6,1,3.9,2.3,3.9,4.4c0,2.6-2,4.4-5.5,4.4c-1.4,0-2.8-0.3-4.1-1L911,1229.8z"/>
<path class="st8" d="M922.8,1231c0-1,0.8-1.8,1.8-1.8c1,0,1.8,0.8,1.8,1.8c0,0,0,0,0,0c0.1,1-0.6,1.8-1.6,1.9c-0.1,0-0.1,0-0.2,0
	C923.6,1232.9,922.8,1232.1,922.8,1231C922.8,1231,922.8,1231,922.8,1231z"/>
<path class="st8" d="M244.2,1263.1l-1.9,5.6h-2.4l6.1-18h2.8l6.1,18h-2.5l-1.9-5.6H244.2z M250.1,1261.3l-1.8-5.2
	c-0.4-1.1-0.7-2.2-0.9-3.3h-0.1l-0.9,3.3l-1.8,5.2H250.1z"/>
<path class="st8" d="M266.7,1268.2c-1.2,0.5-2.4,0.7-3.7,0.7c-3.9,0-6.4-2.6-6.4-6.6c-0.2-3.6,2.6-6.6,6.1-6.8c0.3,0,0.5,0,0.8,0
	c1.1,0,2.3,0.2,3.3,0.7l-0.5,1.8c-0.8-0.4-1.8-0.6-2.7-0.6c-3,0-4.6,2.2-4.6,4.9c0,3,1.9,4.8,4.5,4.8c1,0,2-0.2,2.9-0.6
	L266.7,1268.2z"/>
<path class="st8" d="M278.7,1268.2c-1.2,0.5-2.4,0.7-3.7,0.7c-3.9,0-6.4-2.6-6.4-6.6c-0.2-3.6,2.6-6.6,6.1-6.8c0.3,0,0.5,0,0.8,0
	c1.1,0,2.3,0.2,3.3,0.7l-0.5,1.8c-0.8-0.4-1.8-0.6-2.7-0.6c-3,0-4.6,2.2-4.6,4.9c0,3,1.9,4.8,4.5,4.8c1,0,2-0.2,2.9-0.6
	L278.7,1268.2z"/>
<path class="st8" d="M282.7,1262.7c0.1,3.2,2.1,4.5,4.4,4.5c1.2,0,2.5-0.2,3.6-0.7l0.4,1.7c-1.4,0.6-2.8,0.9-4.3,0.8
	c-4,0-6.3-2.6-6.3-6.5s2.3-7,6-7c4.2,0,5.3,3.7,5.3,6.1c0,0.5-0.1,0.9-0.1,1.1H282.7z M289.6,1261c0-1.5-0.6-3.8-3.3-3.8
	c-2.4,0-3.4,2.2-3.6,3.8H289.6z"/>
<path class="st8" d="M294.4,1266.3c0.9,0.6,2,0.9,3.1,0.9c1.7,0,2.5-0.9,2.5-1.9s-0.7-1.7-2.4-2.4c-2.3-0.8-3.4-2.1-3.4-3.6
	c0-2.1,1.7-3.8,4.4-3.8c1.1,0,2.2,0.3,3.2,0.8l-0.6,1.7c-0.8-0.5-1.7-0.7-2.6-0.7c-1.4,0-2.2,0.8-2.2,1.8s0.8,1.5,2.5,2.2
	c2.2,0.9,3.4,2,3.4,3.9c0,2.3-1.8,3.9-4.8,3.9c-1.3,0-2.5-0.3-3.6-0.9L294.4,1266.3z"/>
<path class="st8" d="M305,1266.3c0.9,0.6,2,0.9,3.1,0.9c1.7,0,2.5-0.9,2.5-1.9s-0.7-1.7-2.4-2.4c-2.3-0.8-3.4-2.1-3.4-3.6
	c0-2.1,1.7-3.8,4.4-3.8c1.1,0,2.2,0.3,3.2,0.8l-0.6,1.7c-0.8-0.5-1.7-0.7-2.6-0.7c-1.4,0-2.2,0.8-2.2,1.8s0.8,1.5,2.5,2.2
	c2.2,0.9,3.4,2,3.4,3.9c0,2.3-1.8,3.9-4.8,3.9c-1.3,0-2.5-0.3-3.6-0.9L305,1266.3z"/>
<path class="st8" d="M329.6,1267.9c-1.8,0.7-3.6,1-5.5,1c-2.5,0.1-4.9-0.7-6.7-2.4c-1.7-1.8-2.6-4.2-2.5-6.7c0-5.4,3.7-9.3,9.7-9.3
	c1.5,0,3.1,0.3,4.5,0.8l-0.6,1.9c-1.3-0.5-2.6-0.8-4-0.8c-4.4,0-7.2,2.7-7.2,7.2s2.7,7.2,6.9,7.2c1.1,0.1,2.1-0.1,3.1-0.5v-5.4h-3.7
	v-1.9h5.9v8.9H329.6z"/>
<path class="st8" d="M344.7,1262.2c0,4.8-3.3,6.8-6.4,6.8c-3.5,0-6.2-2.6-6.2-6.6c0-4.3,2.8-6.8,6.4-6.8S344.7,1258.2,344.7,1262.2z
	 M334.5,1262.3c0,2.8,1.6,5,3.9,5s3.9-2.1,3.9-5c0-2.2-1.1-5-3.9-5S334.5,1259.8,334.5,1262.3L334.5,1262.3z"/>
<path class="st8" d="M353.3,1259.3c0-1.3,0-2.4-0.1-3.5h2.1l0.1,2.1h0.1c0.9-1.5,2.5-2.5,4.3-2.4c1.8,0,4.6,1.1,4.6,5.5v7.7H362
	v-7.4c0-2.1-0.8-3.8-3-3.8c-1.4,0-2.7,1-3.1,2.4c-0.1,0.4-0.2,0.7-0.2,1.1v7.8h-2.3v-9.5L353.3,1259.3z"/>
<path class="st8" d="M370.7,1252.2c0,0.8-0.6,1.4-1.4,1.4c0,0-0.1,0-0.1,0c-0.8,0-1.4-0.6-1.4-1.3c0,0,0,0,0-0.1
	c0-0.8,0.6-1.5,1.4-1.5c0,0,0,0,0.1,0c0.8,0,1.4,0.6,1.4,1.4C370.7,1252.1,370.7,1252.2,370.7,1252.2z M368.1,1268.7v-12.9h2.3v12.9
	H368.1z"/>
<path class="st8" d="M381.3,1262.7c0.1,3.2,2.1,4.5,4.4,4.5c1.2,0,2.5-0.2,3.6-0.7l0.4,1.7c-1.4,0.6-2.8,0.9-4.3,0.8
	c-4,0-6.3-2.6-6.3-6.5s2.3-7,6-7c4.2,0,5.3,3.7,5.3,6.1c0,0.5-0.1,0.9-0.1,1.1H381.3z M388.2,1261c0-1.5-0.6-3.8-3.3-3.8
	c-2.4,0-3.4,2.2-3.6,3.8H388.2z"/>
<path class="st8" d="M393.4,1249.8h2.3v18.9h-2.3V1249.8z"/>
<path class="st8" d="M417,1262.2c0,4.8-3.3,6.8-6.4,6.8c-3.5,0-6.2-2.6-6.2-6.6c0-4.3,2.8-6.8,6.4-6.8S417,1258.2,417,1262.2z
	 M406.7,1262.3c0,2.8,1.6,5,3.9,5s3.9-2.1,3.9-5c0-2.2-1.1-5-3.9-5S406.7,1259.8,406.7,1262.3L406.7,1262.3z"/>
<path class="st8" d="M419.9,1259.8c0-1.5,0-2.8-0.1-4h2.1l0.1,2.5h0.1c0.5-1.6,1.9-2.7,3.6-2.8c0.2,0,0.5,0,0.7,0.1v2.2
	c-0.3-0.1-0.5-0.1-0.8-0.1c-1.6,0.1-3,1.4-3.1,3c-0.1,0.4-0.1,0.7-0.1,1.1v6.9h-2.3v-8.9L419.9,1259.8z"/>
<path class="st8" d="M439.5,1255.8c-0.1,1.2-0.1,2.3-0.1,3.5v7.5c0,3-0.6,4.8-1.8,5.9c-1.3,1.1-3,1.6-4.7,1.5c-1.5,0-3-0.4-4.3-1.1
	l0.6-1.8c1.2,0.7,2.5,1,3.8,1c2.4,0,4.2-1.3,4.2-4.5v-1.4h-0.1c-0.9,1.4-2.4,2.3-4.1,2.2c-3.2,0-5.5-2.7-5.5-6.3
	c0-4.4,2.9-6.8,5.8-6.8c1.6-0.1,3.2,0.8,4,2.2h0.1l0.1-1.9L439.5,1255.8z M437.1,1260.9c0-0.4,0-0.7-0.1-1.1
	c-0.4-1.5-1.8-2.5-3.3-2.5c-2.2,0-3.8,1.9-3.8,4.9c0,2.5,1.3,4.6,3.8,4.6c1.5,0,2.8-1,3.3-2.4c0.1-0.4,0.2-0.9,0.2-1.3v-2.2H437.1z"
	/>
<path class="st8" d="M450.5,1268.7l-0.2-1.6h-0.1c-0.9,1.2-2.4,1.9-3.9,1.9c-2,0.2-3.7-1.3-3.9-3.3c0-0.1,0-0.2,0-0.4
	c0-3.1,2.8-4.8,7.8-4.8v-0.3c0-1.1-0.3-3-2.9-3c-1.2,0-2.4,0.4-3.4,1l-0.5-1.5c1.3-0.7,2.7-1.1,4.2-1.1c3.9,0,4.9,2.7,4.9,5.3v4.8
	c0,1,0.1,2.1,0.2,3.1h-2.2V1268.7z M450.1,1262.1c-2.6-0.1-5.5,0.4-5.5,2.9c-0.1,1.1,0.7,2.1,1.8,2.2c0.1,0,0.3,0,0.4,0
	c1.4,0,2.7-0.9,3.1-2.2c0.1-0.2,0.1-0.5,0.1-0.7L450.1,1262.1L450.1,1262.1z"/>
<path class="st8" d="M456.2,1259.3c0-1.3,0-2.4-0.1-3.5h2.1l0.1,2.1h0.1c0.9-1.5,2.5-2.5,4.3-2.4c1.8,0,4.6,1.1,4.6,5.5v7.7H465
	v-7.4c0-2.1-0.8-3.8-3-3.8c-1.4,0-2.7,1-3.1,2.4c-0.1,0.4-0.2,0.7-0.2,1.1v7.8h-2.3v-9.5L456.2,1259.3z"/>
<path class="st8" d="M473.5,1252.2c0,0.8-0.6,1.4-1.4,1.4c0,0-0.1,0-0.1,0c-0.8,0-1.4-0.6-1.4-1.3c0,0,0,0,0-0.1
	c0-0.8,0.6-1.5,1.4-1.5c0,0,0,0,0.1,0c0.8,0,1.4,0.6,1.4,1.4C473.5,1252.1,473.5,1252.2,473.5,1252.2z M470.9,1268.7v-12.9h2.3v12.9
	H470.9z"/>
<path class="st8" d="M475.7,1267.4l5.8-7.6l1.7-2v-0.1h-7v-1.9h9.8v1.5l-5.8,7.5c-0.5,0.7-1.1,1.4-1.7,2v0.1h7.5v1.9h-10.5v-1.4
	H475.7z"/>
<path class="st8" d="M495.7,1268.7l-0.2-1.6h-0.1c-0.9,1.2-2.4,1.9-3.9,1.9c-2,0.2-3.7-1.3-3.9-3.3c0-0.1,0-0.2,0-0.4
	c0-3.1,2.8-4.8,7.8-4.8v-0.3c0-1.1-0.3-3-2.9-3c-1.2,0-2.4,0.4-3.4,1l-0.5-1.5c1.3-0.7,2.7-1.1,4.2-1.1c3.9,0,4.9,2.7,4.9,5.3v4.8
	c0,1,0.1,2.1,0.2,3.1h-2.2V1268.7z M495.4,1262.1c-2.6-0.1-5.5,0.4-5.5,2.9c-0.1,1.1,0.7,2.1,1.8,2.2c0.1,0,0.3,0,0.4,0
	c1.4,0,2.7-0.9,3.1-2.2c0.1-0.2,0.1-0.5,0.1-0.7L495.4,1262.1L495.4,1262.1z"/>
<path class="st8" d="M512.6,1249.8v15.6c0,1.1,0,2.5,0.1,3.3h-2.1l-0.1-2.2h-0.1c-0.9,1.6-2.6,2.6-4.4,2.5c-3.1,0-5.5-2.6-5.5-6.6
	c0-4.3,2.6-6.9,5.8-6.9c1.6-0.1,3.1,0.7,3.9,2h0.1v-7.7L512.6,1249.8z M510.2,1261.1c0.1-2-1.4-3.6-3.4-3.7c0,0-0.1,0-0.1,0
	c-2.4,0-3.9,2.1-3.9,5c0,2.6,1.3,4.8,3.8,4.8c1.7,0,3.1-1.2,3.4-2.8c0.1-0.3,0.1-0.7,0.1-1v-2.3H510.2z"/>
<path class="st8" d="M528.1,1262.2c0,4.8-3.3,6.8-6.4,6.8c-3.5,0-6.2-2.6-6.2-6.6c0-4.3,2.8-6.8,6.4-6.8S528.1,1258.2,528.1,1262.2z
	 M517.9,1262.3c0,2.8,1.6,5,3.9,5s3.9-2.1,3.9-5c0-2.2-1.1-5-3.9-5S517.9,1259.8,517.9,1262.3L517.9,1262.3z"/>
<path class="st8" d="M531.1,1259.8c0-1.5,0-2.8-0.1-4h2.1l0.1,2.5h0.1c0.5-1.6,1.9-2.7,3.6-2.8c0.2,0,0.5,0,0.7,0.1v2.2
	c-0.3-0.1-0.5-0.1-0.8-0.1c-1.6,0.1-3,1.4-3.1,3c-0.1,0.4-0.1,0.7-0.1,1.1v6.9h-2.3v-8.9L531.1,1259.8z"/>
<path class="st8" d="M545.1,1266.3c0.9,0.6,2,0.9,3.1,0.9c1.7,0,2.5-0.9,2.5-1.9s-0.7-1.7-2.4-2.4c-2.3-0.8-3.4-2.1-3.4-3.6
	c0-2.1,1.7-3.8,4.4-3.8c1.1,0,2.2,0.3,3.2,0.8l-0.6,1.7c-0.8-0.5-1.7-0.7-2.6-0.7c-1.4,0-2.2,0.8-2.2,1.8s0.8,1.5,2.5,2.2
	c2.2,0.9,3.4,2,3.4,3.9c0,2.3-1.8,3.9-4.8,3.9c-1.3,0-2.5-0.3-3.6-0.9L545.1,1266.3z"/>
<path class="st8" d="M557.3,1262.7c0.1,3.2,2.1,4.5,4.4,4.5c1.2,0,2.5-0.2,3.6-0.7l0.4,1.7c-1.4,0.6-2.8,0.9-4.3,0.8
	c-4,0-6.3-2.6-6.3-6.5s2.3-7,6-7c4.2,0,5.3,3.7,5.3,6.1c0,0.5-0.1,0.9-0.1,1.1H557.3z M564.2,1261c0-1.5-0.6-3.8-3.3-3.8
	c-2.4,0-3.4,2.2-3.6,3.8H564.2z"/>
<path class="st8" d="M575,1249.8h2.3v8h0.1c0.4-0.7,1-1.3,1.7-1.7c0.7-0.4,1.6-0.7,2.4-0.7c1.7,0,4.5,1.1,4.5,5.5v7.7h-2.3v-7.4
	c0-2.1-0.8-3.8-3-3.8c-1.4,0-2.7,1-3.1,2.3c-0.1,0.4-0.2,0.7-0.2,1.1v7.8H575V1249.8z"/>
<path class="st8" d="M596.9,1268.7l-0.2-1.6h-0.1c-0.9,1.2-2.4,1.9-3.9,1.9c-2,0.2-3.7-1.3-3.9-3.3c0-0.1,0-0.2,0-0.4
	c0-3.1,2.8-4.8,7.8-4.8v-0.3c0-1.1-0.3-3-2.9-3c-1.2,0-2.4,0.4-3.4,1l-0.5-1.5c1.3-0.7,2.7-1.1,4.2-1.1c3.9,0,4.9,2.7,4.9,5.3v4.8
	c0,1,0.1,2.1,0.2,3.1h-2.2L596.9,1268.7z M596.6,1262.1c-2.6-0.1-5.5,0.4-5.5,2.9c-0.1,1.1,0.7,2.1,1.8,2.2c0.1,0,0.3,0,0.4,0
	c1.4,0,2.7-0.9,3.1-2.2c0.1-0.2,0.1-0.5,0.1-0.7v-2.2L596.6,1262.1z"/>
<path class="st8" d="M611.8,1268.2c-1.2,0.5-2.4,0.7-3.7,0.7c-3.9,0-6.4-2.6-6.4-6.6c-0.2-3.6,2.6-6.6,6.1-6.8c0.3,0,0.5,0,0.8,0
	c1.1,0,2.3,0.2,3.3,0.7l-0.5,1.8c-0.8-0.4-1.8-0.6-2.7-0.6c-3,0-4.6,2.2-4.6,4.9c0,3,1.9,4.8,4.5,4.8c1,0,2-0.2,2.9-0.6
	L611.8,1268.2z"/>
<path class="st8" d="M615.8,1262.7c0.1,3.2,2.1,4.5,4.4,4.5c1.2,0,2.5-0.2,3.6-0.7l0.4,1.7c-1.4,0.6-2.8,0.9-4.3,0.8
	c-4,0-6.3-2.6-6.3-6.5s2.3-7,6-7c4.2,0,5.3,3.7,5.3,6.1c0,0.5-0.1,0.9-0.1,1.1H615.8z M622.7,1261c0-1.5-0.6-3.8-3.3-3.8
	c-2.4,0-3.4,2.2-3.6,3.8H622.7z"/>
<path class="st8" d="M627.9,1259.3c0-1.3,0-2.4-0.1-3.5h2.1l0.1,2.1h0.1c0.9-1.5,2.5-2.5,4.3-2.4c1.8,0,4.6,1.1,4.6,5.5v7.7h-2.3
	v-7.4c0-2.1-0.8-3.8-3-3.8c-1.4,0-2.7,1-3.1,2.4c-0.1,0.4-0.2,0.7-0.2,1.1v7.8h-2.3v-9.5L627.9,1259.3z"/>
<path class="st8" d="M657.5,1268.2c-1.2,0.5-2.4,0.7-3.7,0.7c-3.9,0-6.4-2.6-6.4-6.6c-0.2-3.6,2.6-6.6,6.1-6.8c0.3,0,0.5,0,0.8,0
	c1.1,0,2.3,0.2,3.3,0.7l-0.5,1.8c-0.8-0.4-1.8-0.6-2.7-0.6c-3,0-4.6,2.2-4.6,4.9c0,3,1.9,4.8,4.5,4.8c1,0,2-0.2,2.9-0.6
	L657.5,1268.2z"/>
<path class="st8" d="M667.4,1268.7l-0.2-1.6h-0.1c-0.9,1.2-2.4,1.9-3.9,1.9c-2,0.2-3.7-1.3-3.9-3.3c0-0.1,0-0.2,0-0.4
	c0-3.1,2.8-4.8,7.8-4.8v-0.3c0-1.1-0.3-3-2.9-3c-1.2,0-2.4,0.4-3.4,1l-0.5-1.5c1.3-0.7,2.7-1.1,4.2-1.1c3.9,0,4.9,2.7,4.9,5.3v4.8
	c0,1,0.1,2.1,0.2,3.1h-2.2L667.4,1268.7z M667.1,1262.1c-2.6-0.1-5.5,0.4-5.5,2.9c-0.1,1.1,0.7,2.1,1.8,2.2c0.1,0,0.3,0,0.4,0
	c1.4,0,2.7-0.9,3.1-2.2c0.1-0.2,0.1-0.5,0.1-0.7v-2.2L667.1,1262.1z"/>
<path class="st8" d="M673.1,1259.8c0-1.5,0-2.8-0.1-4h2.1l0.1,2.5h0.1c0.5-1.6,1.9-2.7,3.6-2.8c0.2,0,0.5,0,0.7,0.1v2.2
	c-0.3-0.1-0.5-0.1-0.8-0.1c-1.6,0.1-3,1.4-3.1,3c-0.1,0.4-0.1,0.7-0.1,1.1v6.9h-2.3v-8.9L673.1,1259.8z"/>
<path class="st8" d="M692.7,1255.8c-0.1,1.2-0.1,2.3-0.1,3.5v7.5c0,3-0.6,4.8-1.8,5.9c-1.3,1.1-3,1.6-4.7,1.5c-1.5,0-3-0.4-4.3-1.1
	l0.6-1.8c1.2,0.7,2.5,1,3.8,1c2.4,0,4.2-1.3,4.2-4.5v-1.4h-0.1c-0.9,1.4-2.4,2.3-4.1,2.2c-3.2,0-5.5-2.7-5.5-6.3
	c0-4.4,2.9-6.8,5.8-6.8c1.6-0.1,3.2,0.8,4,2.2h0.1l0.1-1.9L692.7,1255.8z M690.3,1260.9c0-0.4,0-0.7-0.1-1.1
	c-0.4-1.5-1.8-2.5-3.3-2.5c-2.2,0-3.8,1.9-3.8,4.9c0,2.5,1.3,4.6,3.8,4.6c1.5,0,2.8-1,3.3-2.4c0.1-0.4,0.2-0.9,0.2-1.3v-2.2H690.3z"
	/>
<path class="st8" d="M708.2,1262.2c0,4.8-3.3,6.8-6.4,6.8c-3.5,0-6.2-2.6-6.2-6.6c0-4.3,2.8-6.8,6.4-6.8S708.2,1258.2,708.2,1262.2z
	 M698,1262.3c0,2.8,1.6,5,3.9,5s3.9-2.1,3.9-5c0-2.2-1.1-5-3.9-5S698,1259.8,698,1262.3L698,1262.3z"/>
<path class="st8" d="M727.9,1249.8v15.6c0,1.1,0,2.5,0.1,3.3h-2.1l-0.1-2.2h-0.1c-0.9,1.6-2.6,2.6-4.4,2.5c-3.1,0-5.5-2.6-5.5-6.6
	c0-4.3,2.6-6.9,5.8-6.9c1.6-0.1,3.1,0.7,3.9,2h0.1v-7.7L727.9,1249.8z M725.6,1261.1c0.1-2-1.4-3.6-3.4-3.7c0,0-0.1,0-0.1,0
	c-2.4,0-3.9,2.1-3.9,5c0,2.6,1.3,4.8,3.8,4.8c1.7,0,3.1-1.2,3.4-2.8c0.1-0.3,0.1-0.7,0.1-1v-2.3H725.6z"/>
<path class="st8" d="M733.1,1262.7c0.1,3.2,2.1,4.5,4.4,4.5c1.2,0,2.5-0.2,3.6-0.7l0.4,1.7c-1.4,0.6-2.8,0.9-4.3,0.8
	c-4,0-6.3-2.6-6.3-6.5s2.3-7,6-7c4.2,0,5.3,3.7,5.3,6.1c0,0.5-0.1,0.9-0.1,1.1H733.1z M740,1261c0-1.5-0.6-3.8-3.3-3.8
	c-2.4,0-3.4,2.2-3.6,3.8H740z"/>
<path class="st8" d="M745.2,1249.8h2.3v18.9h-2.3V1249.8z"/>
<path class="st8" d="M757.1,1259.3c0-1.3,0-2.4-0.1-3.5h2.1l0.1,2.1h0.1c0.8-1.5,2.3-2.4,4-2.4c1.6,0,3.1,1,3.6,2.6h0.1
	c0.4-0.6,0.8-1.2,1.4-1.7c0.8-0.6,1.9-1,2.9-0.9c1.7,0,4.2,1.1,4.2,5.6v7.6h-2.3v-7.3c0-2.5-0.9-4-2.8-4c-1.3,0.1-2.4,0.9-2.8,2.1
	c-0.1,0.4-0.2,0.8-0.2,1.2v8h-2.3v-7.7c0-2.1-0.9-3.5-2.7-3.5c-1.4,0.1-2.5,1-2.9,2.3c-0.1,0.4-0.2,0.7-0.2,1.1v7.8H757
	L757.1,1259.3L757.1,1259.3z"/>
<path class="st8" d="M786.5,1268.7l-0.2-1.6h-0.1c-0.9,1.2-2.4,1.9-3.9,1.9c-2,0.2-3.7-1.3-3.9-3.3c0-0.1,0-0.2,0-0.4
	c0-3.1,2.8-4.8,7.8-4.8v-0.3c0-1.1-0.3-3-2.9-3c-1.2,0-2.4,0.4-3.4,1l-0.5-1.5c1.3-0.7,2.7-1.1,4.2-1.1c3.9,0,4.9,2.7,4.9,5.3v4.8
	c0,1,0.1,2.1,0.2,3.1h-2.2L786.5,1268.7z M786.1,1262.1c-2.6-0.1-5.5,0.4-5.5,2.9c-0.1,1.1,0.7,2.1,1.8,2.2c0.1,0,0.3,0,0.4,0
	c1.4,0,2.7-0.9,3.1-2.2c0.1-0.2,0.1-0.5,0.1-0.7v-2.2L786.1,1262.1z"/>
<path class="st8" d="M792.2,1249.8h2.3v18.9h-2.3V1249.8z"/>
<path class="st8" d="M814.9,1265.2c0,1.3,0,2.5,0.1,3.5h-2.1l-0.1-2.1h-0.1c-0.9,1.5-2.5,2.4-4.3,2.4c-2,0-4.4-1.1-4.4-5.6v-7.5h2.3
	v7.1c0,2.5,0.7,4.1,2.9,4.1c1.4,0,2.6-0.8,3.1-2.1c0.1-0.4,0.2-0.8,0.2-1.2v-7.9h2.3L814.9,1265.2L814.9,1265.2z"/>
<path class="st8" d="M818.5,1266.3c0.9,0.6,2,0.9,3.1,0.9c1.7,0,2.5-0.9,2.5-1.9s-0.7-1.7-2.4-2.4c-2.3-0.8-3.4-2.1-3.4-3.6
	c0-2.1,1.7-3.8,4.4-3.8c1.1,0,2.2,0.3,3.2,0.8l-0.6,1.7c-0.8-0.5-1.7-0.7-2.6-0.7c-1.4,0-2.2,0.8-2.2,1.8s0.8,1.5,2.5,2.2
	c2.2,0.9,3.4,2,3.4,3.9c0,2.3-1.8,3.9-4.8,3.9c-1.3,0-2.5-0.3-3.6-0.9L818.5,1266.3z"/>
<path class="st8" d="M841,1262.2c0,4.8-3.3,6.8-6.4,6.8c-3.5,0-6.2-2.6-6.2-6.6c0-4.3,2.8-6.8,6.4-6.8S841,1258.2,841,1262.2z
	 M830.8,1262.3c0,2.8,1.6,5,3.9,5s3.9-2.1,3.9-5c0-2.2-1.1-5-3.9-5S830.8,1259.8,830.8,1262.3L830.8,1262.3z"/>
<path class="st8" d="M860.7,1249.8v15.6c0,1.1,0,2.5,0.1,3.3h-2.1l-0.1-2.2h-0.1c-0.9,1.6-2.6,2.6-4.4,2.5c-3.1,0-5.5-2.6-5.5-6.6
	c0-4.3,2.6-6.9,5.8-6.9c1.6-0.1,3.1,0.7,3.9,2h0.1v-7.7L860.7,1249.8z M858.4,1261.1c0.1-2-1.4-3.6-3.4-3.7c0,0-0.1,0-0.1,0
	c-2.4,0-3.9,2.1-3.9,5c0,2.6,1.3,4.8,3.8,4.8c1.7,0,3.1-1.2,3.4-2.8c0.1-0.3,0.1-0.7,0.1-1v-2.3H858.4z"/>
<path class="st8" d="M865.9,1262.7c0.1,3.2,2.1,4.5,4.4,4.5c1.2,0,2.5-0.2,3.6-0.7l0.4,1.7c-1.4,0.6-2.8,0.9-4.3,0.8
	c-4,0-6.3-2.6-6.3-6.5s2.3-7,6-7c4.2,0,5.3,3.7,5.3,6.1c0,0.5-0.1,0.9-0.1,1.1H865.9z M872.8,1261c0-1.5-0.6-3.8-3.3-3.8
	c-2.4,0-3.4,2.2-3.6,3.8H872.8z"/>
<path class="st8" d="M878,1249.8h2.3v18.9H878V1249.8z"/>
<path class="st8" d="M889.9,1259.3c0-1.3,0-2.4-0.1-3.5h2.1l0.1,2.1h0.1c0.8-1.5,2.3-2.4,4-2.4c1.6,0,3.1,1,3.6,2.6h0.1
	c0.4-0.6,0.8-1.2,1.4-1.7c0.8-0.6,1.9-1,2.9-0.9c1.7,0,4.2,1.1,4.2,5.6v7.6H906v-7.3c0-2.5-0.9-4-2.8-4c-1.3,0.1-2.4,0.9-2.8,2.1
	c-0.1,0.4-0.2,0.8-0.2,1.2v8H898v-7.7c0-2.1-0.9-3.5-2.7-3.5c-1.4,0.1-2.5,1-2.9,2.3c-0.1,0.4-0.2,0.7-0.2,1.1v7.8h-2.3
	L889.9,1259.3L889.9,1259.3z"/>
<path class="st8" d="M914.8,1252.2c0,0.8-0.6,1.4-1.4,1.4c0,0-0.1,0-0.1,0c-0.8,0-1.4-0.6-1.4-1.3c0,0,0,0,0-0.1
	c0-0.8,0.6-1.5,1.4-1.5c0,0,0,0,0.1,0C914.2,1250.7,914.8,1251.4,914.8,1252.2C914.8,1252.2,914.8,1252.2,914.8,1252.2z
	 M912.1,1268.7v-12.9h2.3v12.9H912.1z"/>
<path class="st8" d="M918.1,1266.3c0.9,0.6,2,0.9,3.1,0.9c1.7,0,2.5-0.9,2.5-1.9s-0.7-1.7-2.4-2.4c-2.3-0.8-3.4-2.1-3.4-3.6
	c0-2.1,1.7-3.8,4.4-3.8c1.1,0,2.2,0.3,3.2,0.8l-0.6,1.7c-0.8-0.5-1.7-0.7-2.6-0.7c-1.4,0-2.2,0.8-2.2,1.8s0.8,1.5,2.5,2.2
	c2.2,0.9,3.4,2,3.4,3.9c0,2.3-1.8,3.9-4.8,3.9c-1.3,0-2.5-0.3-3.6-0.9L918.1,1266.3z"/>
<path class="st8" d="M928.9,1259.3c0-1.3,0-2.4-0.1-3.5h2.1l0.1,2.1h0.1c0.8-1.5,2.3-2.4,4-2.4c1.6,0,3.1,1,3.6,2.6h0.1
	c0.4-0.6,0.8-1.2,1.4-1.7c0.8-0.6,1.9-1,2.9-0.9c1.7,0,4.2,1.1,4.2,5.6v7.6H945v-7.3c0-2.5-0.9-4-2.8-4c-1.3,0.1-2.4,0.9-2.8,2.1
	c-0.1,0.4-0.2,0.8-0.2,1.2v8H937v-7.7c0-2.1-0.9-3.5-2.7-3.5c-1.4,0.1-2.5,1-2.9,2.3c-0.1,0.4-0.2,0.7-0.2,1.1v7.8h-2.3
	L928.9,1259.3L928.9,1259.3z"/>
<path class="st8" d="M962.8,1262.2c0,4.8-3.3,6.8-6.4,6.8c-3.5,0-6.2-2.6-6.2-6.6c0-4.3,2.8-6.8,6.4-6.8S962.8,1258.2,962.8,1262.2z
	 M952.6,1262.3c0,2.8,1.6,5,3.9,5s3.9-2.1,3.9-5c0-2.2-1.1-5-3.9-5S952.6,1259.8,952.6,1262.3L952.6,1262.3z"/>
<path class="st8" d="M965.2,1267.3c0-0.9,0.7-1.6,1.6-1.6c0.9,0,1.6,0.7,1.6,1.6c0.1,0.9-0.5,1.6-1.4,1.7c-0.1,0-0.1,0-0.2,0
	C965.9,1269,965.2,1268.3,965.2,1267.3C965.2,1267.4,965.2,1267.3,965.2,1267.3z"/>
<rect x="30.1" y="0" class="st1" width="1181.8" height="2101"/>
<g class="st20">
	<defs>
		<rect id="SVGID_21_" x="144.3" y="1229.6" class="st20" width="896.9" height="533.8"/>
	</defs>
	<clipPath id="SVGID_22_">
		<use xlink:href="#SVGID_21_"  style="overflow:visible;"/>
	</clipPath>
	<g class="st21">
		<g>
			<defs>
				<path id="SVGID_23_" d="M578.5,1307.3c-0.2,0.2-0.4,0.5-0.7,0.8s-0.3,0.4-0.5,0.6l0,0c-1,1-2.4,2.5-4,4.3
					c-2,2.1-4.3,4.7-6.8,7.5c-5,5.5-9.6,11.2-14,17.2l-0.1,0.1c-0.1,0.2-0.4,0.5-0.6,0.9c-0.3,0.3-0.5,0.6-0.7,1
					c-2.8,4-9,13.1-14.6,22.3c-1.7,2.8-3.3,5.6-4.7,8.2h0.1c-11.4,21.5-19.7,44.6-24.5,68.5h-99.5v119.1h96.4v64.2
					c-19.7,16.1-46.8,24.1-81.1,24.1c-40.2,0-73.8-13.2-101.5-39.4s-41.6-62.1-41.6-107.4c0-43.8,14.6-78.9,43.8-105.9
					s67.2-40.9,114-40.9c15.7,0,31.4,1.5,46.9,4.5c5.9-15.5,25.8-59.6,73.5-98.5c-40.9-18.2-85.1-27.5-129.8-27.3
					c-81.8,0-149.7,24.8-203.1,74.5S145,1418.9,145,1497.1c0,77.4,26.3,141,79.6,191.4c53.3,49.7,119.8,74.5,198.7,74.5
					c44.6,0,86.2-8,124.9-23.4c22.4-9.3,41.5-19.5,57.7-30.9c46.1,35.6,101.3,53.2,165.5,53.2c77.4,0,141.7-25.6,192.9-77.4
					s76.7-114.7,76.7-188.5c0-7.4-0.3-14.6-0.8-21.7H904.4c0.8,7.2,1.3,14.4,1.3,21.7c0,41.6-13.1,76.7-38.7,103.7
					s-57,40.9-95.7,40.9s-70.9-13.9-96.4-40.9s-38-62.1-38-103.7s12.4-76.7,38-103.7s57.7-40.9,96.4-40.9c7.9,0,15.8,0.6,23.6,1.9
					V1231c-7.7-0.6-15.6-0.9-23.6-0.9C693.9,1230.1,629.7,1255.6,578.5,1307.3"/>
			</defs>
			<defs>
				<rect id="SVGID_24_" x="144.3" y="1229.6" width="896.9" height="533.8"/>
			</defs>
			<clipPath id="SVGID_25_">
				<use xlink:href="#SVGID_23_"  style="overflow:visible;"/>
			</clipPath>
			<clipPath id="SVGID_26_" class="st22">
				<use xlink:href="#SVGID_24_"  style="overflow:visible;"/>
			</clipPath>
			<g class="st23">
				<rect x="144.8" y="1230.1" width="896" height="532.9"/>
				<rect x="144.8" y="1230.1" class="st17" width="896" height="532.9"/>
			</g>
			<g class="st23">
				<path class="st17" d="M578.5,1307.3c-0.2,0.2-0.4,0.5-0.7,0.8s-0.3,0.4-0.5,0.6l0,0c-1,1-2.4,2.5-4,4.3c-2,2.1-4.3,4.7-6.8,7.5
					c-5,5.5-9.6,11.2-14,17.2l-0.1,0.1c-0.1,0.2-0.4,0.5-0.6,0.9c-0.3,0.3-0.5,0.6-0.7,1c-2.8,4-9,13.1-14.6,22.3
					c-1.7,2.8-3.3,5.6-4.7,8.2h0.1c-11.4,21.5-19.7,44.6-24.5,68.5h-99.5v119.1h96.4v64.2c-19.7,16.1-46.8,24.1-81.1,24.1
					c-40.2,0-73.8-13.2-101.5-39.4s-41.6-62.1-41.6-107.4c0-43.8,14.6-78.9,43.8-105.9s67.2-40.9,114-40.9c15.7,0,31.4,1.5,46.9,4.5
					c5.9-15.5,25.8-59.6,73.5-98.5c-40.9-18.2-85.1-27.5-129.8-27.3c-81.8,0-149.7,24.8-203.1,74.5S145,1418.9,145,1497.1
					c0,77.4,26.3,141,79.6,191.4c53.3,49.7,119.8,74.5,198.7,74.5c44.6,0,86.2-8,124.9-23.4c22.4-9.3,41.5-19.5,57.7-30.9
					c46.1,35.6,101.3,53.2,165.5,53.2c77.4,0,141.7-25.6,192.9-77.4s76.7-114.7,76.7-188.5c0-7.4-0.3-14.6-0.8-21.7H904.4
					c0.8,7.2,1.3,14.4,1.3,21.7c0,41.6-13.1,76.7-38.7,103.7s-57,40.9-95.7,40.9s-70.9-13.9-96.4-40.9s-38-62.1-38-103.7
					s12.4-76.7,38-103.7s57.7-40.9,96.4-40.9c7.9,0,15.8,0.6,23.6,1.9V1231c-7.7-0.6-15.6-0.9-23.6-0.9
					C693.9,1230.1,629.7,1255.6,578.5,1307.3"/>
			</g>
		</g>
	</g>
	<g class="st24">
		<path id="SVGID" class="st8" d="M866.5,1389.4v-127.2h144.6v144.6H866.5V1389.4z M835.3,1438.1h207.1V1231H835.3V1438.1z"/>
		<g>
			<defs>
				<path id="SVGID_27_" d="M866.5,1389.4v-127.2h144.6v144.6H866.5V1389.4z M835.3,1438.1h207.1V1231H835.3V1438.1z"/>
			</defs>
			<clipPath id="SVGID_28_">
				<use xlink:href="#SVGID_27_"  style="overflow:visible;"/>
			</clipPath>
			<g class="st25">
				<rect x="835.3" y="1230.9" class="st8" width="207.1" height="207.1"/>
			</g>
		</g>
		<polygon id="SVGID-2" class="st8" points="961.1,1301.4 905.8,1301.4 905.8,1367.6 971.9,1367.6 971.9,1312.4 971.9,1301.4 		"/>
		<g>
			<defs>
				<polygon id="SVGID_29_" points="961.1,1301.4 905.8,1301.4 905.8,1367.6 971.9,1367.6 971.9,1312.4 971.9,1301.4 				"/>
			</defs>
			<clipPath id="SVGID_30_">
				<use xlink:href="#SVGID_29_"  style="overflow:visible;"/>
			</clipPath>
			<g class="st26">
				<rect x="905.8" y="1301.4" class="st8" width="66.1" height="66.1"/>
			</g>
		</g>
		<path class="st8" d="M1043.4,1474.9H907.2c0.5,4.5,0.9,9.1,1.1,13.7h135.8C1044,1484,1043.7,1479.4,1043.4,1474.9z"/>
		<path class="st8" d="M676.6,1392.5c25.7-27.2,58-41.1,96.9-41.1c7.9,0,15.9,0.6,23.7,1.9v-122.8c-7.8-0.6-15.6-0.9-23.7-0.9
			c-77.7,0-142.2,25.6-193.6,77.6c-0.3,0.2-0.5,0.5-0.7,0.8c-0.2,0.2-0.3,0.4-0.5,0.6l0,0c-1,1-2.4,2.5-4,4.3
			c-2,2.1-4.3,4.7-6.8,7.5c-5,5.5-9.7,11.3-14,17.3l-0.1,0.1c-0.1,0.2-0.4,0.5-0.6,0.9c-0.3,0.3-0.5,0.6-0.7,1
			c-2.8,4.1-9.1,13.2-14.7,22.4c-1.7,2.8-3.3,5.6-4.7,8.3h0.1c-11.5,21.6-19.8,44.8-24.6,68.8h-99.9v49.4h230.2
			C640.1,1450.3,652.6,1417.9,676.6,1392.5z"/>
		<path class="st8" d="M324,1393.6c29.3-27.1,67.5-41.1,114.5-41.1c15.8,0,31.6,1.5,47.1,4.5c5.9-15.6,25.9-59.9,73.8-99
			c-41-18.3-85.5-27.6-130.4-27.4c-82.2,0-150.4,24.9-204,74.8c-51.5,47.9-78.5,108.7-80.6,183.1h136
			C282.7,1449.8,297.2,1418.3,324,1393.6z"/>
	</g>
</g>
<rect x="30.1" y="0" class="st1" width="1181.8" height="2101"/>
<image style="overflow:visible;enable-background:new    ;" width="541" height="367" xlink:href="33B50E67.png"  transform="matrix(0.379 0 0 0.379 518.2801 95.06)">
</image>
<g>
	<path class="st27" d="M574.2,1982.3c-2.4-1.9-5.1-3.1-8.1-2.7c-3.2,0.4-5.8,2.7-6.5,5.8c-1,3.5,0.2,7.5,3,9.3c3,2,6.1,1.8,9.3,0.2
		c0.2-0.1,0.5-0.4,0.7-0.5c0.7-0.1,1.3-1.9,2.3-0.2c0.6,1.2,1.8,2.3,0,3.6c-4.7,3.1-10.7,3.1-15.4,0.1c-4.1-2.9-5.9-8.9-4.2-14.1
		c1.6-5.1,6.4-8.4,11.7-8.2c2.4-0.1,4.7,0.4,6.7,1.6c2.4,1.3,2.5,1.6,1.3,4C574.7,1981.5,574.4,1981.9,574.2,1982.3"/>
	<path class="st27" d="M550.6,1993.4c2,3.6,1.9,4.1-1.7,5.8c-5.8,2.7-12.7,0.8-15.9-4c-3.5-5.2-2.7-12.2,1.8-16.5
		c4-3.7,11.9-4.1,16.2-0.8c1.1,0.8,0.8,3.6-0.4,4.2c-0.6,0.4-0.8-0.2-1.2-0.5c-2-1.5-4.5-2.2-7-1.9c-3.1,0.3-5.7,2.6-6.4,5.7
		c-0.8,3.6-0.2,7,2.8,9.3c3,2.3,6.3,1.8,9.4,0.2C549,1994.5,549.8,1994,550.6,1993.4"/>
	<path class="st27" d="M613.2,2000.3c-3,0.1-5.9-1-8.2-3c-1.3-1.1-0.6-1.8,0.1-2.8s1.3-1.1,2.3-0.2c1.9,1.7,4.5,2.5,7.1,2.2
		c1.6,0,2.9-1.1,3.3-2.7c0.4-1.7-0.7-2.8-2.2-3.4c-1.4-0.6-3.3-1.2-4.8-1.8c-4-1.6-5.8-4.1-5.2-7.4c0.6-3.3,3.5-5.5,7.6-5.7
		c2.7-0.2,5.3,0.5,7.5,2c1.7,1.2,0.2,1.9-0.2,2.9c-0.6,1.3-1.2,0.6-1.9,0.1c-1.6-1.1-3.5-1.7-5.4-1.6c-1.4,0.1-2.8,0.6-3.1,2.3
		c-0.3,1.4,0.6,2.8,2,3.1c0,0,0,0,0,0c1.5,0.7,3,1.2,4.6,1.7c4.2,1.6,6.1,4.1,5.7,7.4c-0.6,3.9-4,6.8-8,6.6
		C614,2000.2,613.6,2000.3,613.2,2000.3"/>
	<path class="st27" d="M633.7,2000.3c-3.1,0.1-6-1-8.3-3c-1.3-1.1-0.6-1.8,0.1-2.8s1.3-1,2.3-0.1c2,1.8,4.7,2.6,7.4,2.2
		c1.5-0.1,2.8-1.2,3-2.7c0.2-1.4-0.7-2.8-2-3.3c-1.7-0.7-3.5-1.3-5.2-1.9c-3.7-1.4-5.5-4.1-4.9-7.4c0.6-3.3,3.4-5.4,7.2-5.7
		c2.6-0.2,5.2,0.4,7.5,1.8c1.4,1,0.8,1.8,0.2,2.9c-0.6,1.1-1.3,0.8-2.2,0.2c-1.5-1.2-3.5-1.7-5.4-1.4c-1.5,0-2.7,1-3,2.4
		c-0.2,1.6,0.7,2.4,2,3c2.3,1.1,4.8,1.6,7.1,2.9c3.1,1.7,4.3,5.6,2.6,8.7c-0.2,0.3-0.4,0.7-0.6,1c-1.4,1.8-3.5,3-5.8,3.1
		L633.7,2000.3"/>
	<path class="st27" d="M526.3,1985.2c-0.1-4.1-1.6-7.6-5.9-8.9c-4.1-1.2-8.6-0.8-12.4,1.2c-1.6,0.7-0.2,1.6,0,2.4
		c0.2,0.8,0.5,1.3,1.6,0.8c2-1.1,4.2-1.7,6.5-1.6c2.5-0.1,4.7,1.6,5.3,4.1c0.4,1.6,0.1,2.5-1.8,2.5c-2.8-0.2-5.5,0.1-8.2,0.7
		c-3.7,1.2-5.9,4-5.5,7.2c0.4,3.7,3.4,6.5,7.1,6.6c3.3,0.4,5.9-0.7,8.8-3.4c-0.6,3.6,1.4,2.9,3,3c1.2,0.1,1.8-0.1,1.7-1.6
		C526.2,1993.9,526.5,1989.5,526.3,1985.2 M521.5,1992c0,2.2-1.4,3.9-4.2,4.7c-2.1,0.8-4.5,0.2-6-1.6c-1.2-1.7-0.9-4,0.7-5.2
		c0.4-0.3,0.9-0.5,1.4-0.7c1.4-0.4,2.9-0.6,4.3-0.5C521.5,1988.5,521.5,1988.5,521.5,1992"/>
	<g>
		<defs>
			<path id="SVGID_31_" d="M690,1970.1L690,1970.1l-0.1,0.1l0,0c-0.1,0.1-0.3,0.3-0.4,0.5l-0.7,0.7c-0.5,0.6-0.9,1.2-1.4,1.7l0,0
				l-0.1,0.1c0,0.1-0.1,0.1-0.1,0.1h0c-0.2,0.4-0.8,1.3-1.4,2.2c-0.1,0.2-0.4,0.6-0.5,0.8l0,0c-1.1,2.2-1.9,4.5-2.4,6.9h-9.9v11.9
				h9.6v6.4c-2.3,1.7-5.2,2.6-8.1,2.4c-3.8,0.1-7.4-1.4-10.1-4c-2.8-2.7-4.1-6.1-4.1-10.7c-0.1-4,1.4-7.9,4.3-10.6
				c3.1-2.8,7.2-4.2,11.3-4.1c1.6,0,3.2,0.1,4.7,0.5c1.6-3.8,4.1-7.2,7.4-9.8c-4.1-1.8-8.4-2.8-12.9-2.8c-8.2,0-14.9,2.5-20.2,7.5
				c-10.5,10.4-10.6,27.3-0.2,37.9c0.1,0.1,0.2,0.2,0.2,0.2c5.4,5,12.5,7.7,19.8,7.5c4.2,0,8.4-0.8,12.4-2.3c2-0.8,4-1.9,5.8-3.1
				c4.8,3.6,10.6,5.4,16.5,5.3c14.4,0.4,26.5-11,26.9-25.4c0-0.4,0-0.7,0-1.1c0-0.7,0-1.5-0.1-2.2h-13.5c0.1,0.7,0.1,1.4,0.1,2.2
				c0.1,3.8-1.3,7.5-3.9,10.4c-2.4,2.7-5.9,4.2-9.5,4.1c-3.7,0.1-7.2-1.4-9.6-4.1c-2.6-2.8-3.9-6.6-3.7-10.4
				c-0.1-3.8,1.2-7.5,3.7-10.4c2.5-2.7,6-4.2,9.6-4.1c0.8,0,1.6,0.1,2.4,0.2v-12.2c-0.7,0-1.6-0.1-2.4-0.1
				C702.1,1962.2,695.1,1965,690,1970.1"/>
		</defs>
		<clipPath id="SVGID_32_">
			<use xlink:href="#SVGID_31_"  style="overflow:visible;"/>
		</clipPath>
		<g class="st28">
			
				<linearGradient id="SVGID_33_" gradientUnits="userSpaceOnUse" x1="962.7456" y1="2223.3875" x2="963.3362" y2="2223.3875" gradientTransform="matrix(136.71 0 0 -136.71 -130969.0469 305948.3125)">
				<stop  offset="0" style="stop-color:#00CBF6"/>
				<stop  offset="0.11" style="stop-color:#00D2E7"/>
				<stop  offset="0.52" style="stop-color:#01EAB2"/>
				<stop  offset="0.83" style="stop-color:#01F991"/>
				<stop  offset="1" style="stop-color:#01FF85"/>
			</linearGradient>
			<rect x="646.9" y="1962.4" class="st29" width="89.3" height="53.2"/>
		</g>
	</g>
	<path class="st27" d="M596.7,1977.4c-4.3-2.6-9.8-2.4-13.9,0.6c-4.1,3-5.7,8.8-4,14.2c3.1,10.2,15.5,9.4,20.9,5.2
		c0.8-0.7,0.6-1.2,0-1.8c-0.6-0.6-0.7-1.9-2.2-1.1c-1.3,0.9-2.8,1.5-4.3,1.9c-5.1,1.2-9.2-1.2-10.1-5.9c-0.2-1.1,0-1.3,1.1-1.3h15.7
		c0.7,0,1.2,0,1.4-1.1C602,1983.9,600.2,1979.7,596.7,1977.4 M595.2,1985.8c-1.7-0.1-3.4,0-5.2,0s-3.5-0.1-5.2,0
		c-1.7,0.1-1.7-0.6-1.3-1.8c0.8-2.8,3.3-4.8,6.1-4.9c3-0.2,5.9,1.6,6.9,4.5C597.1,1985.1,597.1,1985.9,595.2,1985.8"/>
	<g>
		<defs>
			<path id="SVGID_34_" d="M690,1970.1L690,1970.1l-0.1,0.1l0,0c-0.1,0.1-0.3,0.3-0.4,0.5l-0.7,0.7c-0.5,0.6-0.9,1.2-1.4,1.7l0,0
				l-0.1,0.1c0,0.1-0.1,0.1-0.1,0.1h0c-0.2,0.4-0.8,1.3-1.4,2.2c-0.1,0.2-0.4,0.6-0.5,0.8l0,0c-1.1,2.2-1.9,4.5-2.4,6.9h-9.9v11.9
				h9.6v6.4c-2.3,1.7-5.2,2.6-8.1,2.4c-3.8,0.1-7.4-1.4-10.1-4c-2.8-2.7-4.1-6.1-4.1-10.7c-0.1-4,1.4-7.9,4.3-10.6
				c3.1-2.8,7.2-4.2,11.3-4.1c1.6,0,3.2,0.1,4.7,0.5c1.6-3.8,4.1-7.2,7.4-9.8c-4.1-1.8-8.4-2.8-12.9-2.8c-8.2,0-14.9,2.5-20.2,7.5
				c-10.5,10.4-10.6,27.3-0.2,37.9c0.1,0.1,0.2,0.2,0.2,0.2c5.4,5,12.5,7.7,19.8,7.5c4.2,0,8.4-0.8,12.4-2.3c2-0.8,4-1.9,5.8-3.1
				c4.8,3.6,10.6,5.4,16.5,5.3c14.4,0.4,26.5-11,26.9-25.4c0-0.4,0-0.7,0-1.1c0-0.7,0-1.5-0.1-2.2h-13.5c0.1,0.7,0.1,1.4,0.1,2.2
				c0.1,3.8-1.3,7.5-3.9,10.4c-2.4,2.7-5.9,4.2-9.5,4.1c-3.7,0.1-7.2-1.4-9.6-4.1c-2.6-2.8-3.9-6.6-3.7-10.4
				c-0.1-3.8,1.2-7.5,3.7-10.4c2.5-2.7,6-4.2,9.6-4.1c0.8,0,1.6,0.1,2.4,0.2v-12.2c-0.7,0-1.6-0.1-2.4-0.1
				C702.1,1962.2,695.1,1965,690,1970.1"/>
		</defs>
		<clipPath id="SVGID_35_">
			<use xlink:href="#SVGID_34_"  style="overflow:visible;"/>
		</clipPath>
		<g class="st30">
			
				<linearGradient id="SVGID_36_" gradientUnits="userSpaceOnUse" x1="962.7456" y1="2192.6738" x2="963.3362" y2="2192.6738" gradientTransform="matrix(136.71 0 0 136.71 -130969.0469 -297771.4688)">
				<stop  offset="0" style="stop-color:#00CBF6"/>
				<stop  offset="0.11" style="stop-color:#00D2E7"/>
				<stop  offset="0.52" style="stop-color:#01EAB2"/>
				<stop  offset="0.83" style="stop-color:#01F991"/>
				<stop  offset="1" style="stop-color:#01FF85"/>
			</linearGradient>
			<rect x="646.9" y="1962.4" class="st31" width="89.3" height="53.2"/>
		</g>
	</g>
	<g>
		<defs>
			<path id="SVGID_37_" d="M718.5,1978.3v-12.7h14.3v14.3h-14.3V1978.3z M715.4,1962.5v20.5h20.5v-20.6h-20.5V1962.5z"/>
		</defs>
		<clipPath id="SVGID_38_">
			<use xlink:href="#SVGID_37_"  style="overflow:visible;"/>
		</clipPath>
		<g class="st32">
			
				<linearGradient id="SVGID_39_" gradientUnits="userSpaceOnUse" x1="962.7455" y1="2223.3049" x2="963.3361" y2="2223.3049" gradientTransform="matrix(136.71 0 0 -136.71 -130969.0938 305920.875)">
				<stop  offset="0" style="stop-color:#00CBF6"/>
				<stop  offset="0.11" style="stop-color:#00D2E7"/>
				<stop  offset="0.52" style="stop-color:#01EAB2"/>
				<stop  offset="0.83" style="stop-color:#01F991"/>
				<stop  offset="1" style="stop-color:#01FF85"/>
			</linearGradient>
			<rect x="715.4" y="1962.5" class="st33" width="20.6" height="20.6"/>
		</g>
	</g>
	<g>
		<defs>
			<path id="SVGID_40_" d="M718.5,1978.3v-12.7h14.3v14.3h-14.3V1978.3z M715.4,1983.2h20.6v-20.6h-20.6V1983.2z"/>
		</defs>
		<clipPath id="SVGID_41_">
			<use xlink:href="#SVGID_40_"  style="overflow:visible;"/>
		</clipPath>
		<g class="st34">
			
				<linearGradient id="SVGID_42_" gradientUnits="userSpaceOnUse" x1="962.7456" y1="2192.7563" x2="963.3362" y2="2192.7563" gradientTransform="matrix(136.71 0 0 136.71 -130969.0469 -297798.875)">
				<stop  offset="0" style="stop-color:#00CBF6"/>
				<stop  offset="0.11" style="stop-color:#00D2E7"/>
				<stop  offset="0.52" style="stop-color:#01EAB2"/>
				<stop  offset="0.83" style="stop-color:#01F991"/>
				<stop  offset="1" style="stop-color:#01FF85"/>
			</linearGradient>
			<rect x="715.4" y="1962.5" class="st35" width="20.6" height="20.6"/>
		</g>
	</g>
	<g>
		<defs>
			<polygon id="SVGID_43_" points="727.9,1969.5 722.4,1969.5 722.4,1976.2 728.9,1976.2 728.9,1970.6 728.9,1969.5 			"/>
		</defs>
		<clipPath id="SVGID_44_">
			<use xlink:href="#SVGID_43_"  style="overflow:visible;"/>
		</clipPath>
		<g class="st36">
			
				<linearGradient id="SVGID_45_" gradientUnits="userSpaceOnUse" x1="962.7455" y1="2223.3062" x2="963.3361" y2="2223.3062" gradientTransform="matrix(136.71 0 0 -136.71 -130969.1406 305920.9688)">
				<stop  offset="0" style="stop-color:#00CBF6"/>
				<stop  offset="0.11" style="stop-color:#00D2E7"/>
				<stop  offset="0.52" style="stop-color:#01EAB2"/>
				<stop  offset="0.83" style="stop-color:#01F991"/>
				<stop  offset="1" style="stop-color:#01FF85"/>
			</linearGradient>
			<rect x="722.4" y="1969.5" class="st37" width="6.5" height="6.5"/>
		</g>
	</g>
	<g>
		<defs>
			<polygon id="SVGID_46_" points="727.9,1969.5 722.4,1969.5 722.4,1976.2 728.9,1976.2 728.9,1970.6 728.9,1969.5 			"/>
		</defs>
		<clipPath id="SVGID_47_">
			<use xlink:href="#SVGID_46_"  style="overflow:visible;"/>
		</clipPath>
		<g class="st38">
			
				<linearGradient id="SVGID_48_" gradientUnits="userSpaceOnUse" x1="962.7457" y1="2192.7554" x2="963.3363" y2="2192.7554" gradientTransform="matrix(136.71 0 0 136.71 -130968.9531 -297798.8125)">
				<stop  offset="0" style="stop-color:#00CBF6"/>
				<stop  offset="0.11" style="stop-color:#00D2E7"/>
				<stop  offset="0.52" style="stop-color:#01EAB2"/>
				<stop  offset="0.83" style="stop-color:#01F991"/>
				<stop  offset="1" style="stop-color:#01FF85"/>
			</linearGradient>
			<rect x="722.4" y="1969.5" class="st39" width="6.5" height="6.5"/>
		</g>
	</g>
</g>
</svg>
