<?xml version="1.0" encoding="utf-8"?>
<!-- Generator: Adobe Illustrator 22.1.0, SVG Export Plug-In . SVG Version: 6.00 Build 0)  -->
<svg version="1.1" id="Capa_1" xmlns="http://www.w3.org/2000/svg" xmlns:xlink="http://www.w3.org/1999/xlink" x="0px" y="0px"
	 viewBox="0 0 200 200" style="enable-background:new 0 0 200 200;" xml:space="preserve">
<style type="text/css">
	.st0{fill:#FF0000;}
	.st1{fill:#FFFFFF;}
</style>
<path class="st0" d="M99.8,200L99.8,200C44.7,200,0,155.3,0,100.2v0C0,45.1,44.7,0.4,99.8,0.4h0c55.1,0,99.8,44.7,99.8,99.8v0
	C199.6,155.3,154.9,200,99.8,200z"/>
<path class="st1" d="M150,62l-88,88c-3.3,3.3-8.6,3.3-11.9,0l0,0c-3.3-3.3-3.3-8.6,0-11.9l88-88c3.3-3.3,8.6-3.3,11.9,0l0,0
	C153.3,53.3,153.3,58.7,150,62z"/>
<path class="st1" d="M138,150L50,62c-3.3-3.3-3.3-8.6,0-11.9l0,0c3.3-3.3,8.6-3.3,11.9,0l88,88c3.3,3.3,3.3,8.6,0,11.9l0,0
	C146.7,153.3,141.3,153.3,138,150z"/>
</svg>
