<?xml version="1.0" encoding="utf-8"?>
<!-- Generator: Adobe Illustrator 22.1.0, SVG Export Plug-In . SVG Version: 6.00 Build 0)  -->
<svg version="1.1" id="Capa_1" xmlns="http://www.w3.org/2000/svg" xmlns:xlink="http://www.w3.org/1999/xlink" x="0px" y="0px"
	 viewBox="0 0 482 398" style="enable-background:new 0 0 482 398;" xml:space="preserve">
<style type="text/css">
	.st0{stroke:#000000;stroke-width:16;stroke-miterlimit:10;}
	.st1{display:none;stroke:#000000;stroke-width:16;stroke-miterlimit:10;}
</style>
<path class="st0" d="M386.2,15.7c-44,0-79.6,35.7-79.6,79.6s35.7,79.6,79.6,79.6c44-0.1,79.6-35.7,79.6-79.6
	C465.9,51.3,430.2,15.7,386.2,15.7L386.2,15.7z M386.2,162.7c-37.2,0-67.4-30.2-67.4-67.4s30.2-67.4,67.4-67.4
	c37.2,0,67.4,30.2,67.4,67.4C453.6,132.5,423.4,162.7,386.2,162.7L386.2,162.7z M386.2,162.7"/>
<path class="st1" d="M390.6,60.4c-2.4-2.4-6.3-2.4-8.7,0l-18.4,18.4l8.7,8.7l7.9-7.9v52.6h12.3V64.7
	C392.4,63.1,391.7,61.5,390.6,60.4L390.6,60.4z M390.6,60.4"/>
<path class="st0" d="M337.4,186.2c-12,25.1-4.7,54.3,19.1,71.3c11.4,8.1,20.2,11,32,10.1l7,41.3l-112.9,18.9l-5-29.5l-12.7,2.1
	l5,29.5L58.4,365.5l-6.9-41.4c11.5-3,18.8-8.6,27-20c19.1-26.9,13.3-61.5-13.5-80.7c-11.4-8.1-20.2-11-32-10.1L25.9,172l211.5-35.5
	l5,29.5l12.7-2.1l-4.9-29.5l38.3-6.4c-1.3-4-2.4-8.2-3.2-12.5l-274.1,46l11.1,66.5l6.3-1.1c11.9-2,18.3-0.4,28.8,7.1
	C78.7,249,83.1,275.4,68,296.7c-7.5,10.5-13.1,14.1-24.9,16.1l-6.3,1l11.1,66.5l362.4-60.8L399.1,253l-6.3,1.1
	c-11.9,2-18.3,0.4-28.8-7.1c-18.6-13.3-24.3-35.2-15.2-54.7C344.8,190.4,341,188.4,337.4,186.2z"/>
<path class="st0" d="M251.4,221.8l-6-35.9l12.7-2.1l6,35.9L251.4,221.8z M251.4,221.8"/>
<path class="st0" d="M261.9,278.6l-6-35.9l12.7-2.1l6,35.9L261.9,278.6z M261.9,278.6"/>
</svg>
