<?xml version="1.0" encoding="utf-8"?>
<!-- Generator: Adobe Illustrator 22.1.0, SVG Export Plug-In . SVG Version: 6.00 Build 0)  -->
<svg version="1.1" id="Capa_1" xmlns="http://www.w3.org/2000/svg" xmlns:xlink="http://www.w3.org/1999/xlink" x="0px" y="0px"
	 viewBox="0 0 482 398" style="enable-background:new 0 0 482 398;" xml:space="preserve">
<style type="text/css">
	.st0{display:none;stroke:#000000;stroke-width:16;stroke-miterlimit:10;}
	.st1{fill:#FFFFFF;stroke:#FFFFFF;stroke-width:16;stroke-miterlimit:10;}
</style>
<path class="st0" d="M390.6,60.4c-2.4-2.4-6.3-2.4-8.7,0l-18.4,18.4l8.7,8.7l7.9-7.9v52.6h12.3V64.7
	C392.4,63.1,391.7,61.5,390.6,60.4L390.6,60.4z"/>
<path class="st1" d="M363.9,156.2c-12,25.1-4.7,54.3,19.1,71.3c11.4,8.1,20.2,11,32,10.1l7,41.3l-112.9,18.9l-5-29.5l-12.7,2.1
	l5,29.5L84.9,335.5L78,294.1c11.5-3,18.8-8.6,27-20c19.1-26.9,13.3-61.5-13.5-80.7c-11.4-8.1-20.2-11-32-10.1L52.4,142l211.5-35.5
	l5,29.5l12.7-2.1l-4.9-29.5L315,98c-1.3-4-2.4-8.2-3.2-12.5l-274.1,46L48.8,198l6.3-1.1c11.9-2,18.3-0.4,28.8,7.1
	c21.3,15,25.7,41.4,10.6,62.7c-7.5,10.5-13.1,14.1-24.9,16.1l-6.3,1l11.1,66.5l362.4-60.8L425.6,223l-6.3,1.1
	c-11.9,2-18.3,0.4-28.8-7.1c-18.6-13.3-24.3-35.2-15.2-54.7C371.3,160.4,367.5,158.4,363.9,156.2z"/>
<path class="st1" d="M110.1,264.9c12-25.1,4.7-54.3-19.1-71.3c-11.4-8.1-20.2-11-32-10.1l-7-41.3l112.9-18.9l5,29.5l12.7-2.1
	l-5-29.5l211.5-35.6L396,127c-11.5,3-18.8,8.6-27,20c-19.1,26.9-13.3,61.5,13.5,80.7c11.4,8.1,20.2,11,32,10.1l7.1,41.3l-211.5,35.5
	l-5-29.5l-12.7,2.1l4.9,29.5l-38.3,6.4c1.3,4,2.4,8.2,3.2,12.5l274.1-46l-11.1-66.5l-6.3,1.1c-11.9,2-18.3,0.4-28.8-7.1
	c-21.3-15-25.7-41.4-10.6-62.7c7.5-10.5,13.1-14.1,24.9-16.1l6.3-1l-11.1-66.5L37.2,131.6l11.2,66.5l6.3-1.1
	c11.9-2,18.3-0.4,28.8,7.1c18.6,13.3,24.3,35.2,15.2,54.7C102.7,260.7,106.5,262.7,110.1,264.9z"/>
<path class="st1" d="M277.9,191.8l-6-35.9l12.7-2.1l6,35.9L277.9,191.8z"/>
<path class="st1" d="M288.4,248.6l-6-35.9l12.7-2.1l6,35.9L288.4,248.6z"/>
</svg>
