<?xml version="1.0" encoding="utf-8"?>
<!-- Generator: Adobe Illustrator 22.1.0, SVG Export Plug-In . SVG Version: 6.00 Build 0)  -->
<svg version="1.1" id="Capa_1" xmlns="http://www.w3.org/2000/svg" xmlns:xlink="http://www.w3.org/1999/xlink" x="0px" y="0px"
	 viewBox="0 0 200 200" style="enable-background:new 0 0 200 200;" xml:space="preserve">
<style type="text/css">
	.st0{fill:url(#SVGID_1_);}
	.st1{clip-path:url(#SVGID_3_);fill:#FFFFFF;}
	.st2{clip-path:url(#SVGID_5_);fill:#FFFFFF;}
</style>
<linearGradient id="SVGID_1_" gradientUnits="userSpaceOnUse" x1="2.157321e-09" y1="100.1909" x2="199.6181" y2="100.1909">
	<stop  offset="0" style="stop-color:#00CBF6"/>
	<stop  offset="0.1092" style="stop-color:#00D2E7"/>
	<stop  offset="0.521" style="stop-color:#01EAB2"/>
	<stop  offset="0.8304" style="stop-color:#01F991"/>
	<stop  offset="1" style="stop-color:#01FF85"/>
</linearGradient>
<path class="st0" d="M99.8,200L99.8,200C44.7,200,0,155.3,0,100.2v0C0,45.1,44.7,0.4,99.8,0.4h0c55.1,0,99.8,44.7,99.8,99.8v0
	C199.6,155.3,154.9,200,99.8,200z"/>
<g>
	<defs>
		<path id="SVGID_2_" d="M96.9,78.7c0,0-0.1,0.1-0.1,0.1c0,0,0,0.1-0.1,0.1v0c-0.1,0.1-0.3,0.3-0.6,0.6c-0.3,0.3-0.6,0.6-0.9,1
			c-0.7,0.8-1.4,1.6-1.9,2.4c0,0,0,0,0,0c0,0,0,0.1-0.1,0.1c0,0-0.1,0.1-0.1,0.1c-0.4,0.6-1.2,1.8-2,3.1c-0.2,0.4-0.5,0.8-0.7,1.1
			c0,0,0,0,0,0c-1.6,2.9-2.7,6.1-3.4,9.4H73.4v16.4h13.3v8.8c-2.7,2.2-6.4,3.3-11.2,3.3c-5.5,0-10.2-1.8-14-5.4
			c-3.8-3.6-5.7-8.5-5.7-14.8c0-6,2-10.9,6-14.6c4-3.7,9.3-5.6,15.7-5.6c2.1,0,4.3,0.2,6.5,0.6c0.8-2.1,3.5-8.2,10.1-13.6
			c-5.6-2.5-11.5-3.8-17.9-3.8c-11.3,0-20.6,3.4-28,10.3c-7.3,6.8-11.1,15.6-11.1,26.4c0,10.7,3.6,19.4,11,26.3
			c7.3,6.8,16.5,10.3,27.4,10.3c6.1,0,11.9-1.1,17.2-3.2c3.1-1.3,5.7-2.7,7.9-4.3c6.4,4.9,13.9,7.3,22.8,7.3
			c10.7,0,19.5-3.5,26.6-10.7c7-7.1,10.6-15.8,10.6-25.9c0-1,0-2-0.1-3h-18.7c0.1,1,0.2,2,0.2,3c0,5.7-1.8,10.6-5.3,14.3
			c-3.5,3.7-7.8,5.6-13.2,5.6c-5.3,0-9.8-1.9-13.3-5.6c-3.5-3.7-5.2-8.5-5.2-14.3c0-5.7,1.7-10.6,5.2-14.3c3.5-3.7,7.9-5.6,13.3-5.6
			c1.1,0,2.2,0.1,3.2,0.3V68.2c-1.1-0.1-2.1-0.1-3.2-0.1C112.8,68.1,104,71.6,96.9,78.7"/>
	</defs>
	<use xlink:href="#SVGID_2_"  style="overflow:visible;fill:#FFFFFF;"/>
	<clipPath id="SVGID_3_">
		<use xlink:href="#SVGID_2_"  style="overflow:visible;"/>
	</clipPath>
	<rect x="37.2" y="68.1" class="st1" width="123.4" height="73.4"/>
</g>
<g>
	<defs>
		<path id="SVGID_4_" d="M136.2,90V72.6h5.7H156v14.1v5.7h-17.8h-2V90z M131.9,68.3v0.6v17.9v9.9h8.6h19.2h0.6V68.3H131.9z"/>
	</defs>
	<use xlink:href="#SVGID_4_"  style="overflow:visible;fill:#FFFFFF;"/>
	<clipPath id="SVGID_5_">
		<use xlink:href="#SVGID_4_"  style="overflow:visible;"/>
	</clipPath>
	<rect x="131.9" y="68.3" class="st2" width="28.4" height="28.4"/>
</g>
</svg>
