<?xml version="1.0" encoding="utf-8"?>
<!-- Generator: Adobe Illustrator 23.0.1, SVG Export Plug-In . SVG Version: 6.00 Build 0)  -->
<svg version="1.1" id="Capa_1" xmlns="http://www.w3.org/2000/svg" xmlns:xlink="http://www.w3.org/1999/xlink" x="0px" y="0px"
	 viewBox="0 0 459.2 459.2" style="enable-background:new 0 0 459.2 459.2;" xml:space="preserve">
<style type="text/css">
	.st0{stroke:url(#SVGID_1_);stroke-width:0.92;stroke-miterlimit:10;}
	.st1{stroke:url(#SVGID_2_);stroke-width:0.92;stroke-miterlimit:10;}
</style>
<title>INGRESOS</title>
<linearGradient id="SVGID_1_" gradientUnits="userSpaceOnUse" x1="838.4" y1="1841.5511" x2="1297.6" y2="1841.5511" gradientTransform="matrix(6.123234e-17 -1 -1 -6.123234e-17 2071.1511 1297.6)">
	<stop  offset="0" style="stop-color:#00CBF6"/>
	<stop  offset="0.11" style="stop-color:#00D2E7"/>
	<stop  offset="0.52" style="stop-color:#01EAB2"/>
	<stop  offset="0.83" style="stop-color:#01F991"/>
	<stop  offset="1" style="stop-color:#01FF85"/>
</linearGradient>
<path class="st0" d="M0.5,54.2V405c0,29.6,24.1,53.7,53.7,53.7h71.6v-35.8H54.2c-9.9,0-17.9-8-17.9-17.9V54.2
	c0-9.9,8-17.9,17.9-17.9H405c9.9,0,17.9,8,17.9,17.9V405c0,9.9-8,17.9-17.9,17.9h-71.6v35.8H405c29.6,0,53.7-24.1,53.7-53.7V54.2
	c0-29.6-24.1-53.7-53.7-53.7H54.2C24.5,0.5,0.5,24.5,0.5,54.2z"/>
<linearGradient id="SVGID_2_" gradientUnits="userSpaceOnUse" x1="838.4" y1="1841.5812" x2="1165.5806" y2="1841.5812" gradientTransform="matrix(6.123234e-17 -1 -1 -6.123234e-17 2071.1511 1297.6)">
	<stop  offset="0" style="stop-color:#00CBF6"/>
	<stop  offset="0.11" style="stop-color:#00D2E7"/>
	<stop  offset="0.52" style="stop-color:#01EAB2"/>
	<stop  offset="0.83" style="stop-color:#01F991"/>
	<stop  offset="1" style="stop-color:#01FF85"/>
</linearGradient>
<path class="st1" d="M118.3,243.9l25.3,25.3l68-68v257.5h35.8V201.2l68,68l25.3-25.3L229.6,132.7L118.3,243.9z"/>
</svg>
