<?xml version="1.0" encoding="utf-8"?>
<!-- Generator: Adobe Illustrator 23.0.1, SVG Export Plug-In . SVG Version: 6.00 Build 0)  -->
<svg version="1.1" id="Capa_1" xmlns="http://www.w3.org/2000/svg" xmlns:xlink="http://www.w3.org/1999/xlink" x="0px" y="0px"
	 viewBox="0 0 609 647" style="enable-background:new 0 0 609 647;" xml:space="preserve">
<style type="text/css">
	.st0{fill:url(#SVGID_1_);}
	.st1{opacity:0.8;fill:url(#SVGID_2_);}
	.st2{fill:#768B95;}
	.st3{fill:url(#SVGID_3_);}
	.st4{fill:#FFFFFF;stroke:#768B95;stroke-width:3.6667;stroke-miterlimit:10;}
</style>
<g>
	
		<linearGradient id="SVGID_1_" gradientUnits="userSpaceOnUse" x1="480.8163" y1="631.4586" x2="21.0396" y2="171.6819" gradientTransform="matrix(0.9428 0.256 -0.1056 0.8371 74.5576 -79.0034)">
		<stop  offset="0" style="stop-color:#00CBF6"/>
		<stop  offset="0.1092" style="stop-color:#00D2E7"/>
		<stop  offset="0.521" style="stop-color:#01EAB2"/>
		<stop  offset="0.8304" style="stop-color:#01F991"/>
		<stop  offset="1" style="stop-color:#01FF85"/>
	</linearGradient>
	<path class="st0" d="M303.84,558.65c21.8,12.44,44.02,25.07,67.7,31.51c44.25,12.04,88.84,0.35,119.07-24.17
		c30.23-24.52,47.47-60.5,56.71-98.44c8.28-33.95,10.55-70.71,0.24-107.37c-10.32-36.66-34.3-73.24-69.28-96.49
		c-23.74-15.78-51.53-24.97-73.93-42.52c-36.16-28.32-51.2-72.31-81.53-105.93c-31.57-35.01-80.29-56.98-124.82-56.3
		c-48.55,0.74-88.65,26.91-113.18,61.8c-24.53,34.88-35.39,77.85-42.94,120.99c-9,51.4-12.21,109.81,22.86,158.86
		c25.38,35.5,66.27,59.4,105.36,81.71C214.69,507.75,259.27,533.2,303.84,558.65z"/>
	
		<radialGradient id="SVGID_2_" cx="118.8024" cy="407.9583" r="253.9202" gradientTransform="matrix(-0.7486 -0.663 0.663 -0.7486 173.7163 843.2443)" gradientUnits="userSpaceOnUse">
		<stop  offset="0" style="stop-color:#000000"/>
		<stop  offset="0.0923" style="stop-color:#0E0E0E;stop-opacity:0.9077"/>
		<stop  offset="0.2673" style="stop-color:#333333;stop-opacity:0.7327"/>
		<stop  offset="0.5066" style="stop-color:#707070;stop-opacity:0.4934"/>
		<stop  offset="0.7977" style="stop-color:#C2C2C2;stop-opacity:0.2023"/>
		<stop  offset="1" style="stop-color:#FFFFFF;stop-opacity:0"/>
	</radialGradient>
	<circle class="st1" cx="355.26" cy="459.08" r="253.92"/>
	<g>
		<g>
			<g>
				<path class="st2" d="M291.99,642.65c-4.82,0-9.73-0.28-14.64-0.81c-0.99-0.11-1.71-1-1.6-2c0.11-0.99,0.89-1.83,2-1.6
					c4.79,0.52,9.57,0.79,14.21,0.79l0.68-0.01c1,0,1.81,0.81,1.81,1.81c0,1-0.81,1.81-1.81,1.81l-0.62,0.01
					C292,642.65,291.99,642.65,291.99,642.65z M307.02,641.7c-0.9,0-1.68-0.67-1.8-1.58c-0.13-1,0.57-1.9,1.56-2.03
					c4.76-0.61,9.44-1.52,13.93-2.71c0.97-0.26,1.97,0.32,2.22,1.28c0.26,0.97-0.32,1.96-1.28,2.22c-4.64,1.23-9.49,2.18-14.39,2.81
					C307.18,641.69,307.1,641.7,307.02,641.7z M263.31,639.55c-0.12,0-0.25-0.01-0.38-0.04c-4.67-0.98-9.42-2.22-14.12-3.67
					c-0.96-0.3-1.49-1.31-1.2-2.27c0.3-0.96,1.32-1.48,2.27-1.2c4.6,1.42,9.24,2.63,13.81,3.6c0.98,0.21,1.61,1.17,1.39,2.15
					C264.9,638.96,264.15,639.55,263.31,639.55z M334.83,634.31c-0.71,0-1.39-0.42-1.68-1.12c-0.38-0.93,0.06-1.98,0.98-2.37
					c4.31-1.78,8.59-3.89,12.74-6.27c0.86-0.5,1.98-0.2,2.47,0.67c0.5,0.86,0.2,1.98-0.67,2.47c-4.27,2.45-8.69,4.63-13.15,6.48
					C335.3,634.27,335.07,634.31,334.83,634.31z M235.74,631.14c-0.22,0-0.45-0.04-0.67-0.13c-4.4-1.74-8.77-3.63-13.34-5.78
					c-0.91-0.43-1.3-1.51-0.87-2.41c0.43-0.91,1.53-1.28,2.41-0.87c4.5,2.12,8.8,3.99,13.13,5.7c0.93,0.37,1.39,1.42,1.02,2.35
					C237.14,630.71,236.46,631.14,235.74,631.14z M359.82,620.01c-0.55,0-1.1-0.26-1.45-0.73c-0.6-0.8-0.43-1.94,0.37-2.53
					c3.72-2.78,7.4-5.84,10.93-9.1c0.75-0.68,1.9-0.63,2.56,0.1c0.68,0.74,0.64,1.88-0.1,2.56c-3.62,3.35-7.41,6.49-11.23,9.35
					C360.58,619.89,360.2,620.01,359.82,620.01z M209.62,618.88c-0.29,0-0.58-0.07-0.86-0.21c-4.22-2.27-8.42-4.63-12.64-7.09
					c-0.86-0.5-1.15-1.61-0.65-2.48c0.5-0.86,1.6-1.16,2.48-0.65c4.18,2.43,8.35,4.78,12.53,7.02c0.88,0.47,1.21,1.57,0.74,2.46
					C210.89,618.54,210.27,618.88,209.62,618.88z M184.63,604.45c-0.32,0-0.64-0.08-0.94-0.26l-12.31-7.54
					c-0.86-0.52-1.12-1.64-0.59-2.49c0.52-0.86,1.64-1.13,2.49-0.6l12.3,7.53c0.86,0.52,1.13,1.64,0.61,2.49
					C185.84,604.14,185.24,604.45,184.63,604.45z M381.04,600.51c-0.43,0-0.86-0.16-1.21-0.47c-0.74-0.67-0.81-1.81-0.13-2.56
					c3.08-3.43,6.15-7.12,9.13-10.98c0.62-0.8,1.76-0.95,2.54-0.33c0.79,0.61,0.94,1.75,0.33,2.54c-3.03,3.94-6.16,7.7-9.31,11.19
					C382.03,600.31,381.54,600.51,381.04,600.51z M160.09,589.27c-0.33,0-0.67-0.09-0.97-0.28c-4.06-2.56-8.12-5.15-12.17-7.8
					c-0.84-0.55-1.08-1.67-0.52-2.51c0.55-0.84,1.68-1.08,2.51-0.52c4.04,2.63,8.09,5.22,12.13,7.77c0.84,0.53,1.1,1.65,0.56,2.5
					C161.28,588.97,160.69,589.27,160.09,589.27z M398.67,577.7c-0.35,0-0.7-0.1-1.01-0.3c-0.83-0.56-1.05-1.69-0.5-2.52
					c2.56-3.82,5.13-7.9,7.64-12.12c0.52-0.86,1.63-1.13,2.48-0.63c0.86,0.51,1.14,1.62,0.63,2.49c-2.53,4.28-5.14,8.41-7.74,12.29
					C399.82,577.42,399.25,577.7,398.67,577.7z M135.92,573.5c-0.35,0-0.71-0.1-1.02-0.31c-3.99-2.7-7.94-5.47-11.88-8.28
					c-0.81-0.58-1-1.71-0.42-2.53c0.58-0.81,1.71-1.01,2.53-0.42c3.91,2.8,7.85,5.53,11.81,8.22c0.83,0.57,1.04,1.69,0.48,2.52
					C137.07,573.22,136.5,573.5,135.92,573.5z M112.45,556.69c-0.38,0-0.76-0.12-1.1-0.37c-3.84-2.92-7.65-5.9-11.4-8.96
					c-0.77-0.63-0.89-1.77-0.26-2.55c0.63-0.78,1.76-0.89,2.55-0.25c3.71,3.03,7.48,5.98,11.3,8.87c0.79,0.6,0.95,1.74,0.35,2.54
					C113.54,556.44,113,556.69,112.45,556.69z M413.42,552.9c-0.29,0-0.58-0.07-0.86-0.21c-0.88-0.47-1.21-1.57-0.74-2.46
					c2.27-4.24,4.46-8.52,6.6-12.78c0.45-0.89,1.54-1.25,2.44-0.81c0.89,0.45,1.25,1.54,0.81,2.44c-2.15,4.29-4.36,8.59-6.64,12.86
					C414.7,552.56,414.07,552.9,413.42,552.9z M90.08,538.47c-0.42,0-0.85-0.15-1.2-0.45c-2.97-2.61-5.9-5.27-8.8-8l-1.9-1.81
					c-0.72-0.69-0.74-1.84-0.04-2.56c0.69-0.71,1.84-0.73,2.56-0.04l1.87,1.78c2.86,2.7,5.76,5.34,8.71,7.92
					c0.75,0.66,0.83,1.81,0.16,2.56C91.09,538.26,90.58,538.47,90.08,538.47z M426.45,527.15c-0.27,0-0.55-0.06-0.8-0.18
					c-0.9-0.45-1.27-1.53-0.83-2.43c2.15-4.37,4.28-8.69,6.43-12.93c0.46-0.91,1.55-1.23,2.44-0.81c0.9,0.45,1.25,1.54,0.81,2.44
					c-2.15,4.25-4.28,8.55-6.41,12.91C427.76,526.78,427.11,527.15,426.45,527.15z M69.27,518.48c-0.48,0-0.96-0.19-1.32-0.57
					c-3.33-3.51-6.6-7.14-9.72-10.78c-0.65-0.76-0.57-1.9,0.19-2.56c0.77-0.66,1.92-0.57,2.56,0.19c3.09,3.6,6.32,7.19,9.61,10.65
					c0.69,0.73,0.66,1.88-0.07,2.56C70.17,518.32,69.71,518.48,69.27,518.48z M439.55,501.45c-0.3,0-0.59-0.07-0.86-0.22
					c-0.88-0.48-1.2-1.58-0.73-2.46c2.5-4.61,4.87-8.73,7.25-12.59c0.52-0.86,1.64-1.13,2.49-0.59c0.85,0.52,1.12,1.64,0.6,2.49
					c-2.34,3.81-4.68,7.88-7.15,12.42C440.82,501.11,440.2,501.45,439.55,501.45z M50.53,496.54c-0.55,0-1.08-0.25-1.44-0.71
					c-3.02-3.94-5.88-7.91-8.5-11.79c-0.56-0.83-0.35-1.95,0.49-2.51c0.81-0.56,1.96-0.35,2.51,0.49c2.58,3.82,5.41,7.73,8.38,11.63
					c0.61,0.79,0.46,1.93-0.34,2.53C51.3,496.42,50.91,496.54,50.53,496.54z M454.75,476.93c-0.37,0-0.74-0.11-1.06-0.35
					c-0.81-0.59-0.99-1.72-0.4-2.53c2.68-3.69,5.45-7.17,8.25-10.35l0.92-1.04c0.69-0.74,1.83-0.78,2.56-0.11
					c0.74,0.68,0.79,1.82,0.11,2.56l-0.87,0.98c-2.73,3.1-5.44,6.49-8.05,10.08C455.86,476.66,455.31,476.93,454.75,476.93z
					 M34.35,472.65c-0.62,0-1.22-0.32-1.56-0.89c-2.48-4.18-4.84-8.47-7-12.75c-0.45-0.89-0.1-1.98,0.79-2.44
					c0.9-0.45,1.99-0.1,2.44,0.79c2.14,4.21,4.45,8.43,6.89,12.55c0.51,0.86,0.23,1.97-0.64,2.48
					C34.99,472.57,34.67,472.65,34.35,472.65z M473.97,455.47c-0.49,0-0.98-0.2-1.34-0.59c-0.67-0.74-0.62-1.88,0.11-2.56
					c3.37-3.09,6.99-6.17,11.07-9.44c0.78-0.63,1.93-0.49,2.55,0.28c0.62,0.79,0.5,1.93-0.28,2.55c-4.02,3.21-7.58,6.24-10.89,9.28
					C474.85,455.31,474.41,455.47,473.97,455.47z M21.34,446.91c-0.71,0-1.38-0.42-1.67-1.11c-1.93-4.57-3.65-9.16-5.15-13.63
					c-0.32-0.95,0.2-1.97,1.15-2.29c0.96-0.3,1.98,0.2,2.29,1.15c1.46,4.38,3.16,8.88,5.05,13.37c0.39,0.92-0.04,1.98-0.97,2.37
					C21.81,446.87,21.57,446.91,21.34,446.91z M496.43,437.35c-0.56,0-1.1-0.26-1.47-0.74c-0.59-0.81-0.41-1.94,0.4-2.54
					c3.84-2.81,7.77-5.61,11.75-8.44c0.82-0.58,1.95-0.38,2.53,0.43c0.58,0.81,0.38,1.95-0.43,2.53c-3.96,2.81-7.87,5.6-11.7,8.41
					C497.18,437.24,496.8,437.35,496.43,437.35z M519.93,420.58c-0.57,0-1.12-0.26-1.47-0.76c-0.58-0.81-0.4-1.95,0.42-2.53
					c3.87-2.77,7.76-5.59,11.62-8.49c0.8-0.58,1.94-0.44,2.54,0.36c0.6,0.81,0.44,1.94-0.36,2.54c-3.89,2.92-7.81,5.75-11.7,8.53
					C520.67,420.47,520.3,420.58,519.93,420.58z M12.2,419.56c-0.81,0-1.56-0.55-1.76-1.38c-1.16-4.71-2.14-9.52-2.9-14.29
					c-0.16-0.98,0.52-1.92,1.51-2.07c0.98-0.12,1.92,0.52,2.07,1.51c0.74,4.66,1.69,9.37,2.84,14c0.23,0.97-0.35,1.95-1.33,2.2
					C12.49,419.55,12.34,419.56,12.2,419.56z M542.97,403.21c-0.52,0-1.05-0.23-1.4-0.67c-0.64-0.78-0.52-1.92,0.25-2.55
					c3.72-3.04,7.35-6.2,10.8-9.41c0.74-0.69,1.89-0.64,2.56,0.09c0.69,0.73,0.64,1.88-0.09,2.56c-3.5,3.26-7.2,6.48-10.97,9.56
					C543.78,403.07,543.37,403.21,542.97,403.21z M7.67,391.09c-0.94,0-1.74-0.73-1.81-1.68c-0.29-3.96-0.44-8.04-0.45-12.12
					l0.02-2.46c0.01-0.99,0.83-1.78,1.81-1.78c0.01,0,0.02,0,0.03,0c1.01,0.02,1.8,0.84,1.78,1.84l-0.02,2.41
					c0.01,3.99,0.16,7.98,0.43,11.87c0.08,1-0.68,1.86-1.68,1.93C7.75,391.09,7.71,391.09,7.67,391.09z M564.07,383.51
					c-0.45,0-0.89-0.16-1.24-0.49c-0.73-0.68-0.77-1.83-0.09-2.56c3.28-3.52,6.41-7.16,9.31-10.82c0.64-0.79,1.77-0.91,2.55-0.3
					c0.79,0.62,0.91,1.76,0.3,2.55c-2.96,3.74-6.16,7.45-9.51,11.05C565.04,383.32,564.55,383.51,564.07,383.51z M8.1,362.26
					c-0.06,0-0.13,0-0.19-0.01c-0.99-0.11-1.71-1-1.61-2c0.51-4.86,1.25-9.72,2.19-14.43c0.19-0.98,1.1-1.63,2.13-1.42
					c0.98,0.2,1.62,1.15,1.42,2.13c-0.93,4.6-1.64,9.35-2.14,14.1C9.81,361.57,9.02,362.26,8.1,362.26z M581.89,360.84
					c-0.34,0-0.68-0.09-0.98-0.29c-0.84-0.55-1.08-1.66-0.54-2.51c2.61-4.04,4.99-8.19,7.07-12.35c0.45-0.89,1.54-1.24,2.44-0.81
					c0.89,0.45,1.25,1.54,0.81,2.44c-2.14,4.27-4.59,8.54-7.27,12.69C583.07,360.55,582.49,360.84,581.89,360.84z M594.71,335.05
					c-0.2,0-0.4-0.04-0.6-0.11c-0.95-0.33-1.44-1.37-1.1-2.31c1.59-4.51,2.86-9.1,3.78-13.66c0.21-0.98,1.19-1.59,2.14-1.42
					c0.98,0.2,1.61,1.15,1.42,2.14c-0.96,4.71-2.27,9.47-3.92,14.14C596.16,334.59,595.46,335.05,594.71,335.05z M13.76,333.99
					c-0.17,0-0.35-0.02-0.52-0.08c-0.96-0.29-1.5-1.3-1.21-2.26c1.42-4.7,3.08-9.33,4.93-13.75c0.38-0.94,1.45-1.37,2.36-0.98
					c0.93,0.38,1.37,1.44,0.98,2.36c-1.8,4.32-3.41,8.83-4.8,13.42C15.26,333.49,14.54,333.99,13.76,333.99z M24.85,307.39
					c-0.3,0-0.59-0.07-0.87-0.22c-0.88-0.48-1.2-1.59-0.72-2.46c2.35-4.29,4.94-8.47,7.71-12.43c0.57-0.81,1.71-1.01,2.53-0.45
					c0.82,0.57,1.02,1.71,0.45,2.53c-2.69,3.84-5.22,7.91-7.5,12.09C26.11,307.05,25.49,307.39,24.85,307.39z M600.38,306.86
					c-0.04,0-0.06,0-0.1,0c-1-0.06-1.76-0.91-1.71-1.91c0.09-1.63,0.13-3.28,0.13-4.94c0-1.08-0.02-2.17-0.06-3.26
					c-0.07-1.98-0.2-3.96-0.4-5.93c-0.1-1,0.62-1.88,1.62-1.99c1.07-0.12,1.88,0.63,1.99,1.62c0.21,2.05,0.35,4.11,0.42,6.17
					c0.04,1.14,0.06,2.27,0.06,3.38c0,1.73-0.04,3.43-0.13,5.14C602.13,306.11,601.33,306.86,600.38,306.86z M41.35,283.77
					c-0.42,0-0.84-0.15-1.19-0.45c-0.76-0.65-0.84-1.8-0.18-2.56c3.04-3.51,6.31-6.97,10.01-10.59c0.71-0.7,1.85-0.69,2.56,0.03
					c0.7,0.71,0.69,1.86-0.03,2.56c-3.62,3.55-6.83,6.94-9.81,10.38C42.36,283.56,41.86,283.77,41.35,283.77z M597.5,278.25
					c-0.81,0-1.54-0.55-1.76-1.36c-1.15-4.48-2.66-9-4.5-13.43c-0.39-0.93,0.05-1.98,0.98-2.36c0.92-0.4,1.99,0.05,2.36,0.98
					c1.9,4.59,3.48,9.27,4.67,13.91c0.25,0.97-0.34,1.96-1.3,2.21C597.8,278.23,597.65,278.25,597.5,278.25z M61.86,263.49
					c-0.5,0-1.01-0.21-1.36-0.62c-0.67-0.75-0.59-1.9,0.16-2.56c3.65-3.21,7.33-6.32,11.02-9.4c0.76-0.64,1.91-0.55,2.55,0.23
					c0.64,0.76,0.55,1.9-0.23,2.55c-3.65,3.07-7.31,6.16-10.95,9.35C62.71,263.34,62.29,263.49,61.86,263.49z M586.53,251.65
					c-0.62,0-1.23-0.33-1.57-0.91c-2.31-4.02-4.95-8.01-7.84-11.84c-0.6-0.8-0.44-1.94,0.36-2.54c0.79-0.59,1.93-0.45,2.54,0.36
					c2.97,3.96,5.7,8.07,8.08,12.21c0.5,0.87,0.2,1.97-0.67,2.48C587.15,251.57,586.84,251.65,586.53,251.65z M83.89,244.83
					c-0.51,0-1.02-0.21-1.38-0.64c-0.64-0.76-0.56-1.9,0.21-2.56c4.3-3.67,7.7-6.7,10.71-9.54c0.74-0.69,1.88-0.65,2.56,0.07
					c0.69,0.73,0.65,1.88-0.07,2.56c-3.06,2.88-6.51,5.95-10.85,9.66C84.72,244.69,84.3,244.83,83.89,244.83z M569.25,228.61
					c-0.48,0-0.96-0.19-1.32-0.57c-3.22-3.41-6.7-6.71-10.32-9.8c-0.76-0.65-0.86-1.8-0.21-2.56c0.66-0.76,1.81-0.84,2.56-0.21
					c3.72,3.17,7.28,6.56,10.6,10.07c0.69,0.73,0.66,1.88-0.07,2.56C570.14,228.45,569.69,228.61,569.25,228.61z M104.71,224.88
					c-0.42,0-0.85-0.15-1.19-0.45c-0.76-0.66-0.84-1.81-0.18-2.56c2.07-2.37,3.88-4.66,5.54-6.99c1.01-1.41,1.98-2.85,2.92-4.34
					c0.55-0.84,1.66-1.08,2.51-0.57c0.84,0.54,1.1,1.66,0.57,2.51c-0.98,1.54-1.99,3.04-3.04,4.51c-1.73,2.42-3.61,4.79-5.76,7.26
					C105.72,224.67,105.22,224.88,104.71,224.88z M547.36,209.88c-0.36,0-0.71-0.11-1.03-0.33c-1.47-1.01-2.95-2-4.47-2.98
					c-2.5-1.6-5.04-3.13-7.62-4.59c-0.87-0.5-1.18-1.6-0.69-2.47c0.49-0.87,1.6-1.18,2.47-0.69c2.63,1.49,5.23,3.06,7.79,4.69
					c1.55,1,3.08,2.02,4.57,3.06c0.82,0.57,1.03,1.7,0.45,2.52C548.5,209.61,547.93,209.88,547.36,209.88z M120.26,200.69
					c-0.26,0-0.53-0.06-0.78-0.18c-0.91-0.43-1.29-1.52-0.86-2.41c1.87-3.9,3.72-8.2,5.67-13.13c0.37-0.93,1.41-1.38,2.35-1.02
					c0.93,0.37,1.39,1.42,1.02,2.35c-1.98,5.02-3.87,9.39-5.77,13.36C121.58,200.3,120.93,200.69,120.26,200.69z M522.31,195.6
					c-0.26,0-0.52-0.06-0.77-0.17c-4.21-1.97-8.63-3.87-13.15-5.64c-0.93-0.36-1.39-1.42-1.03-2.34c0.36-0.93,1.44-1.39,2.34-1.03
					c4.59,1.8,9.1,3.72,13.37,5.73c0.91,0.42,1.3,1.51,0.87,2.41C523.64,195.22,522.99,195.6,522.31,195.6z M495.48,185.01
					c-0.19,0-0.38-0.03-0.57-0.09c-4.61-1.54-9.19-2.94-13.72-4.24c-0.96-0.28-1.52-1.28-1.24-2.24c0.27-0.96,1.23-1.54,2.24-1.24
					c4.57,1.32,9.21,2.73,13.86,4.28c0.95,0.32,1.47,1.34,1.15,2.29C496.95,184.53,496.24,185.01,495.48,185.01z M467.76,176.98
					c-0.15,0-0.3-0.02-0.45-0.06c-4.79-1.23-9.46-2.37-13.98-3.47c-0.98-0.24-1.57-1.22-1.34-2.19c0.24-0.97,1.25-1.58,2.19-1.34
					c4.53,1.1,9.23,2.25,14.04,3.48c0.97,0.25,1.55,1.24,1.3,2.21C469.3,176.44,468.56,176.98,467.76,176.98z M131.09,173.95
					c-0.21,0-0.42-0.04-0.62-0.11c-0.94-0.34-1.42-1.38-1.08-2.32l1.44-3.96c1.15-3.16,2.32-6.37,3.53-9.6
					c0.35-0.94,1.41-1.42,2.33-1.07c0.94,0.35,1.42,1.39,1.07,2.33c-1.2,3.23-2.37,6.42-3.51,9.57l-1.45,3.98
					C132.52,173.49,131.83,173.95,131.09,173.95z M439.72,170.1c-0.14,0-0.29-0.01-0.43-0.05c-4.73-1.17-9.4-2.34-14.01-3.56
					c-0.97-0.25-1.55-1.25-1.29-2.21c0.26-0.97,1.3-1.54,2.21-1.29c4.59,1.21,9.25,2.38,13.95,3.53c0.97,0.24,1.57,1.22,1.33,2.19
					C441.27,169.55,440.53,170.1,439.72,170.1z M411.85,162.64c-0.17,0-0.35-0.02-0.52-0.08c-4.93-1.49-9.44-2.99-13.8-4.57
					c-0.93-0.35-1.42-1.39-1.08-2.33c0.34-0.93,1.38-1.42,2.33-1.08c4.29,1.57,8.74,3.04,13.6,4.51c0.96,0.29,1.5,1.3,1.21,2.26
					C413.35,162.14,412.63,162.64,411.85,162.64z M384.8,152.67c-0.26,0-0.51-0.05-0.75-0.16c-4.59-2.09-8.96-4.33-12.99-6.68
					c-0.87-0.5-1.16-1.61-0.66-2.47c0.5-0.87,1.61-1.17,2.47-0.66c3.94,2.28,8.2,4.47,12.68,6.51c0.91,0.42,1.32,1.49,0.9,2.4
					C386.14,152.27,385.49,152.67,384.8,152.67z M141.27,146.59c-0.18,0-0.35-0.03-0.52-0.1c-0.93-0.37-1.5-1.1-1.13-2.03
					c0.01-0.01,0.14-0.33,0.14-0.34c1.96-4.7,3.89-8.94,5.88-12.93c0.45-0.9,1.54-1.25,2.43-0.81c0.9,0.45,1.26,1.53,0.81,2.43
					c-1.95,3.92-3.84,8.09-5.64,12.4C142.93,145.95,142.07,146.59,141.27,146.59z M359.87,138.2c-0.37,0-0.74-0.11-1.05-0.34
					c-3.5-2.51-7.27-5.39-11.55-8.84c-0.78-0.62-0.9-1.76-0.27-2.55c0.62-0.76,1.76-0.91,2.55-0.27c4.21,3.39,7.94,6.24,11.38,8.71
					c0.81,0.58,1,1.71,0.42,2.53C360.99,137.94,360.44,138.2,359.87,138.2z M154.21,121.15c-0.32,0-0.64-0.08-0.94-0.26
					c-0.85-0.52-1.13-1.64-0.61-2.49c2.57-4.25,5.32-8.33,8.16-12.11c0.62-0.8,1.75-0.94,2.54-0.36c0.8,0.6,0.96,1.74,0.36,2.54
					c-2.78,3.69-5.45,7.67-7.96,11.82C155.42,120.84,154.82,121.15,154.21,121.15z M337.28,120.23c-0.42,0-0.84-0.14-1.18-0.43
					l-1.57-1.32c-3.12-2.63-6.27-5.27-9.49-7.91c-0.77-0.64-0.89-1.78-0.25-2.56c0.64-0.76,1.78-0.89,2.56-0.25
					c3.21,2.65,6.38,5.3,9.51,7.94l1.59,1.34c0.76,0.64,0.86,1.79,0.21,2.56C338.3,120.01,337.79,120.23,337.28,120.23z
					 M314.9,102.01c-0.38,0-0.77-0.12-1.1-0.37c-2.87-2.19-5.81-4.35-8.83-6.45c-0.9-0.62-1.83-1.26-2.8-1.9
					c-0.83-0.55-1.05-1.68-0.5-2.51c0.55-0.84,1.67-1.06,2.51-0.5c0.98,0.65,1.93,1.3,2.85,1.93c3.07,2.13,6.05,4.32,8.96,6.54
					c0.8,0.61,0.95,1.75,0.35,2.54C315.98,101.76,315.44,102.01,314.9,102.01z M171.6,98.2c-0.45,0-0.91-0.17-1.25-0.5
					c-0.72-0.69-0.75-1.84-0.06-2.56c3.46-3.61,7.13-6.92,10.89-9.85c0.76-0.61,1.93-0.48,2.54,0.32c0.62,0.79,0.47,1.93-0.32,2.54
					c-3.62,2.82-7.15,6.02-10.49,9.49C172.55,98.02,172.07,98.2,171.6,98.2z M290.83,86.12c-0.3,0-0.6-0.07-0.87-0.23
					c-4.22-2.31-8.53-4.42-12.81-6.25c-0.92-0.39-1.35-1.46-0.95-2.38c0.39-0.93,1.46-1.35,2.38-0.95
					c4.39,1.88,8.81,4.03,13.13,6.41c0.88,0.48,1.2,1.58,0.71,2.46C292.09,85.78,291.47,86.12,290.83,86.12z M194.33,80.6
					c-0.64,0-1.26-0.34-1.59-0.94c-0.47-0.88-0.16-1.98,0.72-2.46c4.33-2.36,8.86-4.36,13.47-5.93c0.99-0.35,1.98,0.18,2.3,1.13
					c0.33,0.95-0.18,1.98-1.13,2.3c-4.42,1.51-8.76,3.42-12.91,5.69C194.92,80.53,194.62,80.6,194.33,80.6z M264.3,74.85
					c-0.17,0-0.35-0.02-0.52-0.08c-4.61-1.38-9.25-2.46-13.81-3.2c-0.99-0.16-1.66-1.1-1.5-2.08c0.16-0.98,1.05-1.64,2.08-1.5
					c4.71,0.77,9.51,1.88,14.28,3.31c0.96,0.28,1.5,1.3,1.21,2.26C265.8,74.35,265.08,74.85,264.3,74.85z M221.51,71.34
					c-0.88,0-1.65-0.64-1.79-1.54c-0.16-0.99,0.52-1.91,1.52-2.07c4.43-0.69,9-1.03,13.56-1.03l1.13,0.01c1,0.02,1.8,0.85,1.78,1.85
					c-0.02,1.01-0.98,1.71-1.85,1.78l-1.05-0.01c-4.38,0-8.76,0.33-13.01,0.99C221.69,71.34,221.6,71.34,221.51,71.34z"/>
			</g>
		</g>
	</g>
	<linearGradient id="SVGID_3_" gradientUnits="userSpaceOnUse" x1="175.9709" y1="127.5244" x2="424.1912" y2="557.4547">
		<stop  offset="0" style="stop-color:#00CBF6"/>
		<stop  offset="0.1092" style="stop-color:#00D2E7"/>
		<stop  offset="0.521" style="stop-color:#01EAB2"/>
		<stop  offset="0.8304" style="stop-color:#01F991"/>
		<stop  offset="1" style="stop-color:#01FF85"/>
	</linearGradient>
	<path class="st3" d="M128.03,228.63c16.16-22.52,22.95-50.19,33.61-75.76c10.67-25.58,27.63-51.23,54.02-59.68
		c26.35-8.44,55.21,2.6,77.93,18.38c22.73,15.78,42.02,36.32,65.77,50.52c26.21,15.67,56.47,22.82,86.15,29.99
		c29.68,7.17,59.9,14.82,85.6,31.29c25.71,16.47,46.57,43.55,47.61,74.06c1.2,34.96-23.12,65.75-50.31,87.76
		c-27.19,22.01-58.74,39.08-81.84,65.34c-23.6,26.83-36.51,61.11-53.52,92.53c-17.01,31.42-40.92,62.25-75.18,72.41
		c-21.69,6.43-45.28,3.7-66.68-3.64c-21.4-7.33-40.99-19.04-60.28-30.86c-33.21-20.34-66.31-41.41-94.65-68.11
		c-28.35-26.7-51.94-59.6-62.11-97.19c-10.17-37.59-5.62-80.17,17.37-111.61C72.69,275.08,107.09,257.82,128.03,228.63z"/>
	<g>
		<g>
			<path class="st2" d="M33.24,574.26c-16.95,0-30.74-13.78-30.74-30.73s13.79-30.73,30.74-30.73c16.95,0,30.73,13.78,30.73,30.73
				S50.19,574.26,33.24,574.26z M33.24,516.42c-14.95,0-27.11,12.16-27.11,27.11s12.16,27.11,27.11,27.11
				c14.94,0,27.11-12.16,27.11-27.11S48.18,516.42,33.24,516.42z"/>
		</g>
	</g>
	<g>
		<g>
			<path class="st2" d="M537.38,503.99c-10.41,0-18.87-8.47-18.87-18.88c0-10.41,8.47-18.87,18.87-18.87
				c10.41,0,18.87,8.47,18.87,18.87C556.26,495.52,547.79,503.99,537.38,503.99z M537.38,469.86c-8.41,0-15.25,6.84-15.25,15.25
				c0,8.41,6.84,15.26,15.25,15.26c8.41,0,15.25-6.85,15.25-15.26C552.63,476.7,545.79,469.86,537.38,469.86z"/>
		</g>
	</g>
	<g>
		<g>
			<path class="st2" d="M469.29,114.72c-10.41,0-18.87-8.47-18.87-18.88c0-10.41,8.47-18.87,18.87-18.87
				c10.41,0,18.88,8.47,18.88,18.87C488.17,106.25,479.7,114.72,469.29,114.72z M469.29,80.59c-8.41,0-15.25,6.84-15.25,15.25
				c0,8.41,6.84,15.26,15.25,15.26c8.41,0,15.26-6.85,15.26-15.26C484.54,87.43,477.7,80.59,469.29,80.59z"/>
		</g>
	</g>
	<circle class="st2" cx="25.99" cy="224.61" r="13.59"/>
	<circle class="st2" cx="478.63" cy="529.93" r="13.59"/>
	<g>
		<g>
			<g>
				<path class="st2" d="M103.02,622.27c-1,0-1.81-0.81-1.81-1.81v-51.04c0-1,0.81-1.81,1.81-1.81c1,0,1.81,0.81,1.81,1.81v51.04
					C104.83,621.45,104.02,622.27,103.02,622.27z"/>
			</g>
			<g>
				<path class="st2" d="M128.54,596.75H77.49c-1,0-1.81-0.81-1.81-1.81s0.81-1.81,1.81-1.81h51.05c1,0,1.81,0.81,1.81,1.81
					S129.54,596.75,128.54,596.75z"/>
			</g>
		</g>
	</g>
	<g>
		<g>
			<g>
				<path class="st2" d="M73.19,186.41c-1,0-1.81-0.81-1.81-1.81v-59.66c0-1,0.81-1.81,1.81-1.81c1,0,1.81,0.81,1.81,1.81v59.66
					C75,185.59,74.19,186.41,73.19,186.41z"/>
			</g>
			<g>
				<path class="st2" d="M103.02,156.58H43.36c-1,0-1.81-0.81-1.81-1.81s0.81-1.81,1.81-1.81h59.66c1,0,1.81,0.81,1.81,1.81
					S104.02,156.58,103.02,156.58z"/>
			</g>
		</g>
	</g>
</g>
<circle class="st4" cx="294" cy="132.5" r="126.5"/>
</svg>
