<?xml version="1.0" encoding="utf-8"?>
<!-- Generator: Adobe Illustrator 22.1.0, SVG Export Plug-In . SVG Version: 6.00 Build 0)  -->
<svg version="1.1" id="Capa_1" xmlns="http://www.w3.org/2000/svg" xmlns:xlink="http://www.w3.org/1999/xlink" x="0px" y="0px"
	 viewBox="0 0 609 647" style="enable-background:new 0 0 609 647;" xml:space="preserve">
<style type="text/css">
	.st0{fill:url(#SVGID_1_);}
	.st1{fill:#768B95;}
	.st2{fill:url(#SVGID_2_);}
	.st3{fill:#FFFFFF;stroke:#768B95;stroke-width:3.6667;stroke-miterlimit:10;}
</style>
<linearGradient id="SVGID_1_" gradientUnits="userSpaceOnUse" x1="445.1863" y1="-0.8069" x2="-14.5905" y2="458.9698" gradientTransform="matrix(0.9428 0.256 0.1056 -0.8371 41.547 458.0396)">
	<stop  offset="0" style="stop-color:#00CBF6"/>
	<stop  offset="0.1092" style="stop-color:#00D2E7"/>
	<stop  offset="0.521" style="stop-color:#01EAB2"/>
	<stop  offset="0.8304" style="stop-color:#01F991"/>
	<stop  offset="1" style="stop-color:#01FF85"/>
</linearGradient>
<path class="st0" d="M303.8,558.7c21.8,12.4,44,25.1,67.7,31.5c44.3,12,88.8,0.3,119.1-24.2c30.2-24.5,47.5-60.5,56.7-98.4
	c8.3-34,10.5-70.7,0.2-107.4c-10.3-36.7-34.3-73.2-69.3-96.5c-23.7-15.8-51.5-25-73.9-42.5c-36.2-28.3-51.2-72.3-81.5-105.9
	c-31.6-35-80.3-57-124.8-56.3c-48.6,0.7-88.7,26.9-113.2,61.8c-24.5,34.9-35.4,77.9-42.9,121c-9,51.4-12.2,109.8,22.9,158.9
	c25.4,35.5,66.3,59.4,105.4,81.7C214.7,507.8,259.3,533.2,303.8,558.7z"/>
<g>
	<g>
		<g>
			<path class="st1" d="M292,642.7c-4.8,0-9.7-0.3-14.6-0.8c-1-0.1-1.7-1-1.6-2c0.1-1,0.9-1.8,2-1.6c4.8,0.5,9.6,0.8,14.2,0.8l0.7,0
				c1,0,1.8,0.8,1.8,1.8s-0.8,1.8-1.8,1.8L292,642.7C292,642.7,292,642.7,292,642.7z M307,641.7c-0.9,0-1.7-0.7-1.8-1.6
				c-0.1-1,0.6-1.9,1.6-2c4.8-0.6,9.4-1.5,13.9-2.7c1-0.3,2,0.3,2.2,1.3c0.3,1-0.3,2-1.3,2.2c-4.6,1.2-9.5,2.2-14.4,2.8
				C307.2,641.7,307.1,641.7,307,641.7z M263.3,639.5c-0.1,0-0.3,0-0.4,0c-4.7-1-9.4-2.2-14.1-3.7c-1-0.3-1.5-1.3-1.2-2.3
				c0.3-1,1.3-1.5,2.3-1.2c4.6,1.4,9.2,2.6,13.8,3.6c1,0.2,1.6,1.2,1.4,2.2C264.9,639,264.1,639.5,263.3,639.5z M334.8,634.3
				c-0.7,0-1.4-0.4-1.7-1.1c-0.4-0.9,0.1-2,1-2.4c4.3-1.8,8.6-3.9,12.7-6.3c0.9-0.5,2-0.2,2.5,0.7c0.5,0.9,0.2,2-0.7,2.5
				c-4.3,2.5-8.7,4.6-13.1,6.5C335.3,634.3,335.1,634.3,334.8,634.3z M235.7,631.1c-0.2,0-0.4,0-0.7-0.1c-4.4-1.7-8.8-3.6-13.3-5.8
				c-0.9-0.4-1.3-1.5-0.9-2.4c0.4-0.9,1.5-1.3,2.4-0.9c4.5,2.1,8.8,4,13.1,5.7c0.9,0.4,1.4,1.4,1,2.3
				C237.1,630.7,236.5,631.1,235.7,631.1z M359.8,620c-0.5,0-1.1-0.3-1.5-0.7c-0.6-0.8-0.4-1.9,0.4-2.5c3.7-2.8,7.4-5.8,10.9-9.1
				c0.8-0.7,1.9-0.6,2.6,0.1c0.7,0.7,0.6,1.9-0.1,2.6c-3.6,3.3-7.4,6.5-11.2,9.3C360.6,619.9,360.2,620,359.8,620z M209.6,618.9
				c-0.3,0-0.6-0.1-0.9-0.2c-4.2-2.3-8.4-4.6-12.6-7.1c-0.9-0.5-1.1-1.6-0.6-2.5c0.5-0.9,1.6-1.2,2.5-0.7c4.2,2.4,8.4,4.8,12.5,7
				c0.9,0.5,1.2,1.6,0.7,2.5C210.9,618.5,210.3,618.9,209.6,618.9z M184.6,604.5c-0.3,0-0.6-0.1-0.9-0.3l-12.3-7.5
				c-0.9-0.5-1.1-1.6-0.6-2.5c0.5-0.9,1.6-1.1,2.5-0.6l12.3,7.5c0.9,0.5,1.1,1.6,0.6,2.5C185.8,604.1,185.2,604.5,184.6,604.5z
				 M381,600.5c-0.4,0-0.9-0.2-1.2-0.5c-0.7-0.7-0.8-1.8-0.1-2.6c3.1-3.4,6.1-7.1,9.1-11c0.6-0.8,1.8-1,2.5-0.3
				c0.8,0.6,0.9,1.8,0.3,2.5c-3,3.9-6.2,7.7-9.3,11.2C382,600.3,381.5,600.5,381,600.5z M160.1,589.3c-0.3,0-0.7-0.1-1-0.3
				c-4.1-2.6-8.1-5.2-12.2-7.8c-0.8-0.5-1.1-1.7-0.5-2.5c0.6-0.8,1.7-1.1,2.5-0.5c4,2.6,8.1,5.2,12.1,7.8c0.8,0.5,1.1,1.7,0.6,2.5
				C161.3,589,160.7,589.3,160.1,589.3z M398.7,577.7c-0.4,0-0.7-0.1-1-0.3c-0.8-0.6-1-1.7-0.5-2.5c2.6-3.8,5.1-7.9,7.6-12.1
				c0.5-0.9,1.6-1.1,2.5-0.6c0.9,0.5,1.1,1.6,0.6,2.5c-2.5,4.3-5.1,8.4-7.7,12.3C399.8,577.4,399.3,577.7,398.7,577.7z M135.9,573.5
				c-0.4,0-0.7-0.1-1-0.3c-4-2.7-7.9-5.5-11.9-8.3c-0.8-0.6-1-1.7-0.4-2.5c0.6-0.8,1.7-1,2.5-0.4c3.9,2.8,7.8,5.5,11.8,8.2
				c0.8,0.6,1,1.7,0.5,2.5C137.1,573.2,136.5,573.5,135.9,573.5z M112.4,556.7c-0.4,0-0.8-0.1-1.1-0.4c-3.8-2.9-7.7-5.9-11.4-9
				c-0.8-0.6-0.9-1.8-0.3-2.5c0.6-0.8,1.8-0.9,2.6-0.3c3.7,3,7.5,6,11.3,8.9c0.8,0.6,0.9,1.7,0.3,2.5
				C113.5,556.4,113,556.7,112.4,556.7z M413.4,552.9c-0.3,0-0.6-0.1-0.9-0.2c-0.9-0.5-1.2-1.6-0.7-2.5c2.3-4.2,4.5-8.5,6.6-12.8
				c0.5-0.9,1.5-1.3,2.4-0.8c0.9,0.5,1.3,1.5,0.8,2.4c-2.1,4.3-4.4,8.6-6.6,12.9C414.7,552.6,414.1,552.9,413.4,552.9z M90.1,538.5
				c-0.4,0-0.8-0.2-1.2-0.5c-3-2.6-5.9-5.3-8.8-8l-1.9-1.8c-0.7-0.7-0.7-1.8,0-2.6c0.7-0.7,1.8-0.7,2.6,0l1.9,1.8
				c2.9,2.7,5.8,5.3,8.7,7.9c0.8,0.7,0.8,1.8,0.2,2.6C91.1,538.3,90.6,538.5,90.1,538.5z M426.5,527.2c-0.3,0-0.5-0.1-0.8-0.2
				c-0.9-0.5-1.3-1.5-0.8-2.4c2.1-4.4,4.3-8.7,6.4-12.9c0.5-0.9,1.5-1.2,2.4-0.8c0.9,0.5,1.3,1.5,0.8,2.4c-2.1,4.3-4.3,8.5-6.4,12.9
				C427.8,526.8,427.1,527.2,426.5,527.2z M69.3,518.5c-0.5,0-1-0.2-1.3-0.6c-3.3-3.5-6.6-7.1-9.7-10.8c-0.7-0.8-0.6-1.9,0.2-2.6
				c0.8-0.7,1.9-0.6,2.6,0.2c3.1,3.6,6.3,7.2,9.6,10.6c0.7,0.7,0.7,1.9-0.1,2.6C70.2,518.3,69.7,518.5,69.3,518.5z M439.5,501.5
				c-0.3,0-0.6-0.1-0.9-0.2c-0.9-0.5-1.2-1.6-0.7-2.5c2.5-4.6,4.9-8.7,7.3-12.6c0.5-0.9,1.6-1.1,2.5-0.6c0.9,0.5,1.1,1.6,0.6,2.5
				c-2.3,3.8-4.7,7.9-7.1,12.4C440.8,501.1,440.2,501.5,439.5,501.5z M50.5,496.5c-0.5,0-1.1-0.3-1.4-0.7c-3-3.9-5.9-7.9-8.5-11.8
				c-0.6-0.8-0.3-2,0.5-2.5c0.8-0.6,2-0.4,2.5,0.5c2.6,3.8,5.4,7.7,8.4,11.6c0.6,0.8,0.5,1.9-0.3,2.5
				C51.3,496.4,50.9,496.5,50.5,496.5z M454.8,476.9c-0.4,0-0.7-0.1-1.1-0.4c-0.8-0.6-1-1.7-0.4-2.5c2.7-3.7,5.5-7.2,8.3-10.4l0.9-1
				c0.7-0.7,1.8-0.8,2.6-0.1c0.7,0.7,0.8,1.8,0.1,2.6l-0.9,1c-2.7,3.1-5.4,6.5-8,10.1C455.9,476.7,455.3,476.9,454.8,476.9z
				 M34.3,472.6c-0.6,0-1.2-0.3-1.6-0.9c-2.5-4.2-4.8-8.5-7-12.8c-0.5-0.9-0.1-2,0.8-2.4c0.9-0.5,2-0.1,2.4,0.8
				c2.1,4.2,4.4,8.4,6.9,12.5c0.5,0.9,0.2,2-0.6,2.5C35,472.6,34.7,472.6,34.3,472.6z M474,455.5c-0.5,0-1-0.2-1.3-0.6
				c-0.7-0.7-0.6-1.9,0.1-2.6c3.4-3.1,7-6.2,11.1-9.4c0.8-0.6,1.9-0.5,2.5,0.3c0.6,0.8,0.5,1.9-0.3,2.5c-4,3.2-7.6,6.2-10.9,9.3
				C474.9,455.3,474.4,455.5,474,455.5z M21.3,446.9c-0.7,0-1.4-0.4-1.7-1.1c-1.9-4.6-3.6-9.2-5.1-13.6c-0.3-1,0.2-2,1.1-2.3
				c1-0.3,2,0.2,2.3,1.1c1.5,4.4,3.2,8.9,5,13.4c0.4,0.9,0,2-1,2.4C21.8,446.9,21.6,446.9,21.3,446.9z M496.4,437.4
				c-0.6,0-1.1-0.3-1.5-0.7c-0.6-0.8-0.4-1.9,0.4-2.5c3.8-2.8,7.8-5.6,11.8-8.4c0.8-0.6,2-0.4,2.5,0.4s0.4,2-0.4,2.5
				c-4,2.8-7.9,5.6-11.7,8.4C497.2,437.2,496.8,437.4,496.4,437.4z M519.9,420.6c-0.6,0-1.1-0.3-1.5-0.8c-0.6-0.8-0.4-2,0.4-2.5
				c3.9-2.8,7.8-5.6,11.6-8.5c0.8-0.6,1.9-0.4,2.5,0.4c0.6,0.8,0.4,1.9-0.4,2.5c-3.9,2.9-7.8,5.8-11.7,8.5
				C520.7,420.5,520.3,420.6,519.9,420.6z M12.2,419.6c-0.8,0-1.6-0.5-1.8-1.4c-1.2-4.7-2.1-9.5-2.9-14.3c-0.2-1,0.5-1.9,1.5-2.1
				c1-0.1,1.9,0.5,2.1,1.5c0.7,4.7,1.7,9.4,2.8,14c0.2,1-0.4,2-1.3,2.2C12.5,419.5,12.3,419.6,12.2,419.6z M543,403.2
				c-0.5,0-1-0.2-1.4-0.7c-0.6-0.8-0.5-1.9,0.3-2.5c3.7-3,7.3-6.2,10.8-9.4c0.7-0.7,1.9-0.6,2.6,0.1c0.7,0.7,0.6,1.9-0.1,2.6
				c-3.5,3.3-7.2,6.5-11,9.6C543.8,403.1,543.4,403.2,543,403.2z M7.7,391.1c-0.9,0-1.7-0.7-1.8-1.7c-0.3-4-0.4-8-0.4-12.1l0-2.5
				c0-1,0.8-1.8,1.8-1.8c0,0,0,0,0,0c1,0,1.8,0.8,1.8,1.8l0,2.4c0,4,0.2,8,0.4,11.9c0.1,1-0.7,1.9-1.7,1.9
				C7.8,391.1,7.7,391.1,7.7,391.1z M564.1,383.5c-0.5,0-0.9-0.2-1.2-0.5c-0.7-0.7-0.8-1.8-0.1-2.6c3.3-3.5,6.4-7.2,9.3-10.8
				c0.6-0.8,1.8-0.9,2.5-0.3c0.8,0.6,0.9,1.8,0.3,2.5c-3,3.7-6.2,7.5-9.5,11C565,383.3,564.5,383.5,564.1,383.5z M8.1,362.3
				c-0.1,0-0.1,0-0.2,0c-1-0.1-1.7-1-1.6-2c0.5-4.9,1.3-9.7,2.2-14.4c0.2-1,1.1-1.6,2.1-1.4c1,0.2,1.6,1.1,1.4,2.1
				c-0.9,4.6-1.6,9.4-2.1,14.1C9.8,361.6,9,362.3,8.1,362.3z M581.9,360.8c-0.3,0-0.7-0.1-1-0.3c-0.8-0.5-1.1-1.7-0.5-2.5
				c2.6-4,5-8.2,7.1-12.4c0.5-0.9,1.5-1.2,2.4-0.8c0.9,0.5,1.3,1.5,0.8,2.4c-2.1,4.3-4.6,8.5-7.3,12.7
				C583.1,360.5,582.5,360.8,581.9,360.8z M594.7,335c-0.2,0-0.4,0-0.6-0.1c-1-0.3-1.4-1.4-1.1-2.3c1.6-4.5,2.9-9.1,3.8-13.7
				c0.2-1,1.2-1.6,2.1-1.4c1,0.2,1.6,1.1,1.4,2.1c-1,4.7-2.3,9.5-3.9,14.1C596.2,334.6,595.5,335,594.7,335z M13.8,334
				c-0.2,0-0.4,0-0.5-0.1c-1-0.3-1.5-1.3-1.2-2.3c1.4-4.7,3.1-9.3,4.9-13.8c0.4-0.9,1.5-1.4,2.4-1c0.9,0.4,1.4,1.4,1,2.4
				c-1.8,4.3-3.4,8.8-4.8,13.4C15.3,333.5,14.5,334,13.8,334z M24.9,307.4c-0.3,0-0.6-0.1-0.9-0.2c-0.9-0.5-1.2-1.6-0.7-2.5
				c2.4-4.3,4.9-8.5,7.7-12.4c0.6-0.8,1.7-1,2.5-0.5c0.8,0.6,1,1.7,0.5,2.5c-2.7,3.8-5.2,7.9-7.5,12.1
				C26.1,307,25.5,307.4,24.9,307.4z M600.4,306.9C600.3,306.9,600.3,306.9,600.4,306.9c-1.1-0.1-1.9-0.9-1.8-1.9
				c0.1-1.6,0.1-3.3,0.1-4.9c0-1.1,0-2.2-0.1-3.3c-0.1-2-0.2-4-0.4-5.9c-0.1-1,0.6-1.9,1.6-2c1.1-0.1,1.9,0.6,2,1.6
				c0.2,2,0.3,4.1,0.4,6.2c0,1.1,0.1,2.3,0.1,3.4c0,1.7,0,3.4-0.1,5.1C602.1,306.1,601.3,306.9,600.4,306.9z M41.3,283.8
				c-0.4,0-0.8-0.1-1.2-0.5c-0.8-0.6-0.8-1.8-0.2-2.6c3-3.5,6.3-7,10-10.6c0.7-0.7,1.8-0.7,2.6,0c0.7,0.7,0.7,1.9,0,2.6
				c-3.6,3.5-6.8,6.9-9.8,10.4C42.4,283.6,41.9,283.8,41.3,283.8z M597.5,278.3c-0.8,0-1.5-0.5-1.8-1.4c-1.2-4.5-2.7-9-4.5-13.4
				c-0.4-0.9,0-2,1-2.4c0.9-0.4,2,0,2.4,1c1.9,4.6,3.5,9.3,4.7,13.9c0.3,1-0.3,2-1.3,2.2C597.8,278.2,597.7,278.3,597.5,278.3z
				 M61.9,263.5c-0.5,0-1-0.2-1.4-0.6c-0.7-0.8-0.6-1.9,0.2-2.6c3.6-3.2,7.3-6.3,11-9.4c0.8-0.6,1.9-0.6,2.6,0.2
				c0.6,0.8,0.6,1.9-0.2,2.6c-3.7,3.1-7.3,6.2-11,9.4C62.7,263.3,62.3,263.5,61.9,263.5z M586.5,251.6c-0.6,0-1.2-0.3-1.6-0.9
				c-2.3-4-5-8-7.8-11.8c-0.6-0.8-0.4-1.9,0.4-2.5c0.8-0.6,1.9-0.4,2.5,0.4c3,4,5.7,8.1,8.1,12.2c0.5,0.9,0.2,2-0.7,2.5
				C587.2,251.6,586.8,251.6,586.5,251.6z M83.9,244.8c-0.5,0-1-0.2-1.4-0.6c-0.6-0.8-0.6-1.9,0.2-2.6c4.3-3.7,7.7-6.7,10.7-9.5
				c0.7-0.7,1.9-0.6,2.6,0.1c0.7,0.7,0.7,1.9-0.1,2.6c-3.1,2.9-6.5,5.9-10.8,9.7C84.7,244.7,84.3,244.8,83.9,244.8z M569.3,228.6
				c-0.5,0-1-0.2-1.3-0.6c-3.2-3.4-6.7-6.7-10.3-9.8c-0.8-0.6-0.9-1.8-0.2-2.6c0.7-0.8,1.8-0.8,2.6-0.2c3.7,3.2,7.3,6.6,10.6,10.1
				c0.7,0.7,0.7,1.9-0.1,2.6C570.1,228.4,569.7,228.6,569.3,228.6z M104.7,224.9c-0.4,0-0.8-0.1-1.2-0.4c-0.8-0.7-0.8-1.8-0.2-2.6
				c2.1-2.4,3.9-4.7,5.5-7c1-1.4,2-2.9,2.9-4.3c0.6-0.8,1.7-1.1,2.5-0.6c0.8,0.5,1.1,1.7,0.6,2.5c-1,1.5-2,3-3,4.5
				c-1.7,2.4-3.6,4.8-5.8,7.3C105.7,224.7,105.2,224.9,104.7,224.9z M547.4,209.9c-0.4,0-0.7-0.1-1-0.3c-1.5-1-3-2-4.5-3
				c-2.5-1.6-5-3.1-7.6-4.6c-0.9-0.5-1.2-1.6-0.7-2.5s1.6-1.2,2.5-0.7c2.6,1.5,5.2,3.1,7.8,4.7c1.5,1,3.1,2,4.6,3.1
				c0.8,0.6,1,1.7,0.5,2.5C548.5,209.6,547.9,209.9,547.4,209.9z M120.3,200.7c-0.3,0-0.5-0.1-0.8-0.2c-0.9-0.4-1.3-1.5-0.9-2.4
				c1.9-3.9,3.7-8.2,5.7-13.1c0.4-0.9,1.4-1.4,2.3-1c0.9,0.4,1.4,1.4,1,2.4c-2,5-3.9,9.4-5.8,13.4
				C121.6,200.3,120.9,200.7,120.3,200.7z M522.3,195.6c-0.3,0-0.5-0.1-0.8-0.2c-4.2-2-8.6-3.9-13.1-5.6c-0.9-0.4-1.4-1.4-1-2.3
				c0.4-0.9,1.4-1.4,2.3-1c4.6,1.8,9.1,3.7,13.4,5.7c0.9,0.4,1.3,1.5,0.9,2.4C523.6,195.2,523,195.6,522.3,195.6z M495.5,185
				c-0.2,0-0.4,0-0.6-0.1c-4.6-1.5-9.2-2.9-13.7-4.2c-1-0.3-1.5-1.3-1.2-2.2c0.3-1,1.2-1.5,2.2-1.2c4.6,1.3,9.2,2.7,13.9,4.3
				c1,0.3,1.5,1.3,1.1,2.3C497,184.5,496.2,185,495.5,185z M467.8,177c-0.1,0-0.3,0-0.5-0.1c-4.8-1.2-9.5-2.4-14-3.5
				c-1-0.2-1.6-1.2-1.3-2.2c0.2-1,1.3-1.6,2.2-1.3c4.5,1.1,9.2,2.3,14,3.5c1,0.3,1.5,1.2,1.3,2.2C469.3,176.4,468.6,177,467.8,177z
				 M131.1,173.9c-0.2,0-0.4,0-0.6-0.1c-0.9-0.3-1.4-1.4-1.1-2.3l1.4-4c1.1-3.2,2.3-6.4,3.5-9.6c0.4-0.9,1.4-1.4,2.3-1.1
				c0.9,0.4,1.4,1.4,1.1,2.3c-1.2,3.2-2.4,6.4-3.5,9.6l-1.4,4C132.5,173.5,131.8,173.9,131.1,173.9z M439.7,170.1
				c-0.1,0-0.3,0-0.4-0.1c-4.7-1.2-9.4-2.3-14-3.6c-1-0.3-1.5-1.3-1.3-2.2c0.3-1,1.3-1.5,2.2-1.3c4.6,1.2,9.3,2.4,14,3.5
				c1,0.2,1.6,1.2,1.3,2.2C441.3,169.6,440.5,170.1,439.7,170.1z M411.9,162.6c-0.2,0-0.4,0-0.5-0.1c-4.9-1.5-9.4-3-13.8-4.6
				c-0.9-0.4-1.4-1.4-1.1-2.3c0.3-0.9,1.4-1.4,2.3-1.1c4.3,1.6,8.7,3,13.6,4.5c1,0.3,1.5,1.3,1.2,2.3
				C413.4,162.1,412.6,162.6,411.9,162.6z M384.8,152.7c-0.3,0-0.5-0.1-0.8-0.2c-4.6-2.1-9-4.3-13-6.7c-0.9-0.5-1.2-1.6-0.7-2.5
				c0.5-0.9,1.6-1.2,2.5-0.7c3.9,2.3,8.2,4.5,12.7,6.5c0.9,0.4,1.3,1.5,0.9,2.4C386.1,152.3,385.5,152.7,384.8,152.7z M141.3,146.6
				c-0.2,0-0.4,0-0.5-0.1c-0.9-0.4-1.5-1.1-1.1-2c0,0,0.1-0.3,0.1-0.3c2-4.7,3.9-8.9,5.9-12.9c0.4-0.9,1.5-1.3,2.4-0.8
				c0.9,0.4,1.3,1.5,0.8,2.4c-1.9,3.9-3.8,8.1-5.6,12.4C142.9,145.9,142.1,146.6,141.3,146.6z M359.9,138.2c-0.4,0-0.7-0.1-1-0.3
				c-3.5-2.5-7.3-5.4-11.5-8.8c-0.8-0.6-0.9-1.8-0.3-2.6c0.6-0.8,1.8-0.9,2.5-0.3c4.2,3.4,7.9,6.2,11.4,8.7c0.8,0.6,1,1.7,0.4,2.5
				C361,137.9,360.4,138.2,359.9,138.2z M154.2,121.1c-0.3,0-0.6-0.1-0.9-0.3c-0.9-0.5-1.1-1.6-0.6-2.5c2.6-4.3,5.3-8.3,8.2-12.1
				c0.6-0.8,1.8-0.9,2.5-0.4c0.8,0.6,1,1.7,0.4,2.5c-2.8,3.7-5.4,7.7-8,11.8C155.4,120.8,154.8,121.1,154.2,121.1z M337.3,120.2
				c-0.4,0-0.8-0.1-1.2-0.4l-1.6-1.3c-3.1-2.6-6.3-5.3-9.5-7.9c-0.8-0.6-0.9-1.8-0.3-2.6c0.6-0.8,1.8-0.9,2.6-0.3
				c3.2,2.7,6.4,5.3,9.5,7.9l1.6,1.3c0.8,0.6,0.9,1.8,0.2,2.6C338.3,120,337.8,120.2,337.3,120.2z M314.9,102
				c-0.4,0-0.8-0.1-1.1-0.4c-2.9-2.2-5.8-4.3-8.8-6.4c-0.9-0.6-1.8-1.3-2.8-1.9c-0.8-0.6-1-1.7-0.5-2.5c0.5-0.8,1.7-1.1,2.5-0.5
				c1,0.7,1.9,1.3,2.9,1.9c3.1,2.1,6,4.3,9,6.5c0.8,0.6,1,1.8,0.4,2.5C316,101.8,315.4,102,314.9,102z M171.6,98.2
				c-0.4,0-0.9-0.2-1.3-0.5c-0.7-0.7-0.8-1.8-0.1-2.6c3.5-3.6,7.1-6.9,10.9-9.8c0.8-0.6,1.9-0.5,2.5,0.3c0.6,0.8,0.5,1.9-0.3,2.5
				c-3.6,2.8-7.1,6-10.5,9.5C172.6,98,172.1,98.2,171.6,98.2z M290.8,86.1c-0.3,0-0.6-0.1-0.9-0.2c-4.2-2.3-8.5-4.4-12.8-6.3
				c-0.9-0.4-1.4-1.5-1-2.4c0.4-0.9,1.5-1.3,2.4-0.9c4.4,1.9,8.8,4,13.1,6.4c0.9,0.5,1.2,1.6,0.7,2.5
				C292.1,85.8,291.5,86.1,290.8,86.1z M194.3,80.6c-0.6,0-1.3-0.3-1.6-0.9c-0.5-0.9-0.2-2,0.7-2.5c4.3-2.4,8.9-4.4,13.5-5.9
				c1-0.3,2,0.2,2.3,1.1c0.3,0.9-0.2,2-1.1,2.3c-4.4,1.5-8.8,3.4-12.9,5.7C194.9,80.5,194.6,80.6,194.3,80.6z M264.3,74.8
				c-0.2,0-0.4,0-0.5-0.1c-4.6-1.4-9.3-2.5-13.8-3.2c-1-0.2-1.7-1.1-1.5-2.1s1.1-1.6,2.1-1.5c4.7,0.8,9.5,1.9,14.3,3.3
				c1,0.3,1.5,1.3,1.2,2.3C265.8,74.3,265.1,74.8,264.3,74.8z M221.5,71.3c-0.9,0-1.6-0.6-1.8-1.5c-0.2-1,0.5-1.9,1.5-2.1
				c4.4-0.7,9-1,13.6-1l1.1,0c1,0,1.8,0.8,1.8,1.8c0,1-1,1.7-1.9,1.8l-1.1,0c-4.4,0-8.8,0.3-13,1C221.7,71.3,221.6,71.3,221.5,71.3z
				"/>
		</g>
	</g>
</g>
<linearGradient id="SVGID_2_" gradientUnits="userSpaceOnUse" x1="175.9807" y1="518.623" x2="424.201" y2="88.6927" gradientTransform="matrix(1 0 0 -1 0 646.1417)">
	<stop  offset="0" style="stop-color:#00CBF6"/>
	<stop  offset="0.1092" style="stop-color:#00D2E7"/>
	<stop  offset="0.521" style="stop-color:#01EAB2"/>
	<stop  offset="0.8304" style="stop-color:#01F991"/>
	<stop  offset="1" style="stop-color:#01FF85"/>
</linearGradient>
<path class="st2" d="M128,228.6c16.2-22.5,22.9-50.2,33.6-75.8c10.7-25.6,27.6-51.2,54-59.7c26.4-8.4,55.2,2.6,77.9,18.4
	c22.7,15.8,42,36.3,65.8,50.5c26.2,15.7,56.5,22.8,86.1,30s59.9,14.8,85.6,31.3c25.7,16.5,46.6,43.5,47.6,74.1
	c1.2,35-23.1,65.8-50.3,87.8s-58.7,39.1-81.8,65.3c-23.6,26.8-36.5,61.1-53.5,92.5c-17,31.4-40.9,62.3-75.2,72.4
	c-21.7,6.4-45.3,3.7-66.7-3.6c-21.4-7.3-41-19-60.3-30.9c-33.2-20.3-66.3-41.4-94.7-68.1c-28.3-26.7-51.9-59.6-62.1-97.2
	s-5.6-80.2,17.4-111.6C72.7,275.1,107.1,257.8,128,228.6z"/>
<g>
	<g>
		<path class="st1" d="M33.2,574.3c-17,0-30.7-13.8-30.7-30.7s13.8-30.7,30.7-30.7S64,526.6,64,543.5S50.2,574.3,33.2,574.3z
			 M33.2,516.4c-15,0-27.1,12.2-27.1,27.1s12.2,27.1,27.1,27.1c14.9,0,27.1-12.2,27.1-27.1S48.2,516.4,33.2,516.4z"/>
	</g>
</g>
<g>
	<g>
		<path class="st1" d="M537.4,504c-10.4,0-18.9-8.5-18.9-18.9s8.5-18.9,18.9-18.9c10.4,0,18.9,8.5,18.9,18.9
			C556.3,495.5,547.8,504,537.4,504z M537.4,469.9c-8.4,0-15.3,6.8-15.3,15.3s6.8,15.3,15.3,15.3s15.3-6.9,15.3-15.3
			C552.6,476.7,545.8,469.9,537.4,469.9z"/>
	</g>
</g>
<g>
	<g>
		<path class="st1" d="M469.3,114.7c-10.4,0-18.9-8.5-18.9-18.9S458.9,77,469.3,77c10.4,0,18.9,8.5,18.9,18.9
			C488.2,106.2,479.7,114.7,469.3,114.7z M469.3,80.6c-8.4,0-15.3,6.8-15.3,15.3s6.8,15.3,15.3,15.3s15.3-6.8,15.3-15.3
			C484.5,87.4,477.7,80.6,469.3,80.6z"/>
	</g>
</g>
<circle class="st1" cx="26" cy="224.6" r="13.6"/>
<circle class="st1" cx="478.6" cy="529.9" r="13.6"/>
<g>
	<g>
		<g>
			<path class="st1" d="M103,622.3c-1,0-1.8-0.8-1.8-1.8v-51c0-1,0.8-1.8,1.8-1.8s1.8,0.8,1.8,1.8v51
				C104.8,621.5,104,622.3,103,622.3z"/>
		</g>
		<g>
			<path class="st1" d="M128.5,596.8h-51c-1,0-1.8-0.8-1.8-1.8s0.8-1.8,1.8-1.8h51c1,0,1.8,0.8,1.8,1.8S129.5,596.8,128.5,596.8z"/>
		</g>
	</g>
</g>
<g>
	<g>
		<g>
			<path class="st1" d="M73.2,186.4c-1,0-1.8-0.8-1.8-1.8v-59.7c0-1,0.8-1.8,1.8-1.8s1.8,0.8,1.8,1.8v59.7
				C75,185.6,74.2,186.4,73.2,186.4z"/>
		</g>
		<g>
			<path class="st1" d="M103,156.6H43.4c-1,0-1.8-0.8-1.8-1.8s0.8-1.8,1.8-1.8H103c1,0,1.8,0.8,1.8,1.8S104,156.6,103,156.6z"/>
		</g>
	</g>
</g>
<circle class="st3" cx="292.6" cy="123.1" r="89"/>
<circle cx="292.9" cy="123" r="88.1"/>
<image style="overflow:visible;enable-background:new    ;" width="540" height="366" xlink:href="35EB7BE.jpg"  transform="matrix(0.1904 0 0 0.1904 241.2447 85.3888)">
</image>
</svg>
