<?xml version="1.0" encoding="utf-8"?>
<!-- Generator: Adobe Illustrator 22.1.0, SVG Export Plug-In . SVG Version: 6.00 Build 0)  -->
<svg version="1.1" id="Capa_1" xmlns="http://www.w3.org/2000/svg" xmlns:xlink="http://www.w3.org/1999/xlink" x="0px" y="0px"
	 viewBox="0 0 611 620" style="enable-background:new 0 0 611 620;" xml:space="preserve">
<style type="text/css">
	.st0{fill:#FFFFFF;stroke:#FFFFFF;stroke-width:16;stroke-miterlimit:10;}
</style>
<path class="st0" d="M547.9,262.2v120.3C547.8,449,494,502.8,427.5,502.9H376c-2.3,0-4.5,0.9-6.1,2.5l-71.3,71.3v-65.2
	c0-4.7-3.9-8.6-8.6-8.6H152.5C86,502.8,32.2,449,32.1,382.6V245c0.1-66.4,53.9-120.3,120.3-120.3H333v-17.2H152.5
	C76.5,107.6,15,169.1,14.9,245v137.5C15,458.5,76.5,520,152.5,520.1h128.9v77.4c0,4.7,3.9,8.6,8.6,8.6c2.3,0,4.5-0.9,6.1-2.5
	l83.4-83.4h48c75.9-0.1,137.4-61.6,137.5-137.5V262.2H547.9z M547.9,262.2"/>
<path class="st0" d="M477.3,21.9c-61.7,0-111.7,50-111.7,111.7s50,111.7,111.7,111.7c61.7-0.1,111.7-50.1,111.7-111.7
	C589.1,72,539,21.9,477.3,21.9L477.3,21.9z M477.3,228.2c-52.2,0-94.6-42.3-94.6-94.6s42.3-94.6,94.6-94.6
	c52.2,0.1,94.5,42.4,94.6,94.6C571.9,185.9,529.5,228.2,477.3,228.2L477.3,228.2z M477.3,228.2"/>
<rect x="118.1" y="193.5" class="st0" width="17.2" height="17.2"/>
<rect x="158.5" y="193.5" class="st0" width="17.2" height="17.2"/>
<rect x="198.8" y="193.5" class="st0" width="137.5" height="17.2"/>
<rect x="118.1" y="262.2" class="st0" width="223.5" height="17.2"/>
<rect x="118.1" y="331" class="st0" width="361" height="17.2"/>
<rect x="118.1" y="399.8" class="st0" width="326.7" height="17.2"/>
</svg>
